<?xml version="1.0" standalone="no"?>
<!DOCTYPE svg PUBLIC "-//W3C//DTD SVG 1.1//EN" "http://www.w3.org/Graphics/SVG/1.1/DTD/svg11.dtd" >
<svg xmlns="http://www.w3.org/2000/svg" xmlns:xlink="http://www.w3.org/1999/xlink" version="1.1">
<metadata>
Created by FontForge 20201107 at Fri Mar  3 12:32:56 2017
 By Jimmy Wärting
Copyright \(c\) 2016 by Jakob Runge and Lisa Fischbach, under exclusive license to TypeMates. All rights reserved.
</metadata>
<defs>
<font id="CeraRoundPro-Thin" horiz-adv-x="560" >
  <font-face 
    font-family="Cera Round Pro Thin"
    font-weight="250"
    font-stretch="normal"
    units-per-em="1000"
    panose-1="0 0 3 0 0 0 0 0 0 0"
    ascent="808"
    descent="-192"
    x-height="480"
    cap-height="670"
    bbox="-103.109 -261 1255 1003"
    underline-thickness="30"
    underline-position="-100"
    stemh="28"
    stemv="30"
    unicode-range="U+0020-FB02"
  />
<missing-glyph horiz-adv-x="702" 
d="M584 660c8 0 15 -7 15 -15v-630c0 -8 -7 -15 -15 -15h-466c-8 0 -15 7 -15 15v630c0 8 7 15 15 15h466zM569 28v604h-438z" />
    <glyph glyph-name="fi" unicode="fi" horiz-adv-x="513" 
d="M278 757c10 -2 15 -7 15 -15s-6 -13 -14 -13c-6 0 -19 3 -39 3c-71 0 -107 -36 -107 -107v-145h120c8 0 14 -6 14 -14s-6 -14 -14 -14h-120v-447c0 -8 -7 -15 -15 -15s-15 6 -15 15v447h-59c-8 0 -14 6 -14 14s6 14 14 14h59v145c0 86 49 135 135 135c17 0 31 -1 40 -3z
M399 699c19 0 33 -14 33 -33s-14 -33 -33 -33s-33 14 -33 33s14 33 33 33zM399 490c8 0 15 -7 15 -15v-470c0 -8 -7 -15 -15 -15s-15 7 -15 15v470c0 8 6 15 15 15z" />
    <glyph glyph-name="fl" unicode="fl" horiz-adv-x="513" 
d="M278 757c10 -2 15 -7 15 -15s-6 -13 -14 -13c-6 0 -19 3 -39 3c-71 0 -107 -36 -107 -107v-145h120c8 0 14 -6 14 -14s-6 -14 -14 -14h-120v-447c0 -8 -7 -15 -15 -15s-15 6 -15 15v447h-59c-8 0 -14 6 -14 14s6 14 14 14h59v145c0 86 49 135 135 135c17 0 31 -1 40 -3z
M399 760c8 0 15 -7 15 -15v-740c0 -8 -6 -15 -15 -15c-8 0 -15 7 -15 15v740c0 8 7 15 15 15z" />
    <glyph glyph-name=".notdef" horiz-adv-x="702" 
d="M584 660c8 0 15 -7 15 -15v-630c0 -8 -7 -15 -15 -15h-466c-8 0 -15 7 -15 15v630c0 8 7 15 15 15h466zM569 28v604h-438z" />
    <glyph glyph-name="A" unicode="A" horiz-adv-x="665" 
d="M614 14c2 -5 3 -8 3 -11c0 -7 -7 -13 -15 -13c-7 0 -13 4 -16 12l-71 173h-365l-71 -173c-3 -8 -9 -12 -16 -12c-8 0 -15 6 -15 13c0 3 1 6 3 11l267 645c2 7 8 11 15 11s13 -4 15 -11zM333 619l-171 -415h341z" />
    <glyph glyph-name="Aacute" unicode="&#xc1;" horiz-adv-x="665" 
d="M341 728c-8 0 -16 9 -11 18l82 158c4 8 11 9 14 9c11 0 18 -11 11 -24l-84 -153c-3 -5 -6 -8 -12 -8zM614 14c2 -5 3 -8 3 -11c0 -7 -7 -13 -15 -13c-7 0 -13 4 -16 12l-71 173h-365l-71 -173c-3 -8 -9 -12 -16 -12c-8 0 -15 6 -15 13c0 3 1 6 3 11l267 645
c2 7 8 11 15 11s13 -4 15 -11zM333 619l-171 -415h341z" />
    <glyph glyph-name="Abreve" unicode="&#x102;" horiz-adv-x="665" 
d="M333 747c-73 0 -134 54 -134 120c0 10 6 18 15 18s15 -6 15 -18c2 -51 48 -92 104 -92s103 41 104 92c0 11 6 18 15 18s15 -8 15 -18c0 -66 -61 -120 -134 -120zM614 14c2 -5 3 -8 3 -11c0 -7 -7 -13 -15 -13c-7 0 -13 4 -16 12l-71 173h-365l-71 -173
c-3 -8 -9 -12 -16 -12c-8 0 -15 6 -15 13c0 3 1 6 3 11l267 645c2 7 8 11 15 11s13 -4 15 -11zM333 619l-171 -415h341z" />
    <glyph glyph-name="Acircumflex" unicode="&#xc2;" horiz-adv-x="665" 
d="M192 724c-8 0 -14 6 -14 14c0 4 2 7 5 10l138 146c3 3 7 5 11 5s8 -2 11 -5l138 -146c3 -3 5 -6 5 -10c0 -8 -6 -14 -14 -14c-4 0 -7 2 -11 6l-129 132l-129 -132c-4 -4 -7 -6 -11 -6zM614 14c2 -5 3 -8 3 -11c0 -7 -7 -13 -15 -13c-7 0 -13 4 -16 12l-71 173h-365
l-71 -173c-3 -8 -9 -12 -16 -12c-8 0 -15 6 -15 13c0 3 1 6 3 11l267 645c2 7 8 11 15 11s13 -4 15 -11zM333 619l-171 -415h341z" />
    <glyph glyph-name="Adieresis" unicode="&#xc4;" horiz-adv-x="665" 
d="M222 773c-19 0 -33 14 -33 33s14 33 33 33s33 -14 33 -33s-14 -33 -33 -33zM443 773c-19 0 -33 14 -33 33s14 33 33 33s33 -14 33 -33s-14 -33 -33 -33zM614 14c2 -5 3 -8 3 -11c0 -7 -7 -13 -15 -13c-7 0 -13 4 -16 12l-71 173h-365l-71 -173c-3 -8 -9 -12 -16 -12
c-8 0 -15 6 -15 13c0 3 1 6 3 11l267 645c2 7 8 11 15 11s13 -4 15 -11zM333 619l-171 -415h341z" />
    <glyph glyph-name="Agrave" unicode="&#xc0;" horiz-adv-x="665" 
d="M313 736l-84 153c-7 13 0 24 11 24c3 0 10 -1 14 -9l82 -158c5 -9 -3 -18 -11 -18c-6 0 -9 3 -12 8zM614 14c2 -5 3 -8 3 -11c0 -7 -7 -13 -15 -13c-7 0 -13 4 -16 12l-71 173h-365l-71 -173c-3 -8 -9 -12 -16 -12c-8 0 -15 6 -15 13c0 3 1 6 3 11l267 645
c2 7 8 11 15 11s13 -4 15 -11zM333 619l-171 -415h341z" />
    <glyph glyph-name="Amacron" unicode="&#x100;" horiz-adv-x="665" 
d="M211 782c-8 0 -14 6 -14 14s6 14 14 14h244c8 0 14 -6 14 -14s-6 -14 -14 -14h-244zM614 14c2 -5 3 -8 3 -11c0 -7 -7 -13 -15 -13c-7 0 -13 4 -16 12l-71 173h-365l-71 -173c-3 -8 -9 -12 -16 -12c-8 0 -15 6 -15 13c0 3 1 6 3 11l267 645c2 7 8 11 15 11s13 -4 15 -11z
M333 619l-171 -415h341z" />
    <glyph glyph-name="Aogonek" unicode="&#x104;" horiz-adv-x="665" 
d="M608 -156c8 0 12 -5 12 -13c0 -7 -5 -11 -15 -14c-16 -5 -32 -7 -48 -7c-50 0 -95 26 -95 75c0 42 29 73 122 121l-69 169h-365l-71 -173c-3 -8 -9 -12 -16 -12c-8 0 -15 6 -15 13c0 3 1 6 3 11l267 645c2 7 8 11 15 11s13 -4 15 -11l266 -645c1 -2 2 -4 2 -5
c1 -2 1 -3 1 -5v-1c0 -2 -1 -4 -1 -5c-2 -3 -3 -4 -6 -6c-94 -56 -117 -74 -117 -104c0 -31 26 -50 64 -50c28 0 43 6 51 6zM333 619l-171 -415h341z" />
    <glyph glyph-name="Aring" unicode="&#xc5;" horiz-adv-x="665" 
d="M333 716c-54 0 -98 43 -98 97s44 97 98 97s98 -43 98 -97s-44 -97 -98 -97zM333 882c-39 0 -68 -30 -68 -69s29 -69 68 -69c38 0 68 30 68 69s-30 69 -68 69zM614 14c2 -5 3 -8 3 -11c0 -7 -7 -13 -15 -13c-7 0 -13 4 -16 12l-71 173h-365l-71 -173c-3 -8 -9 -12 -16 -12
c-8 0 -15 6 -15 13c0 3 1 6 3 11l267 645c2 7 8 11 15 11s13 -4 15 -11zM333 619l-171 -415h341z" />
    <glyph glyph-name="Atilde" unicode="&#xc3;" horiz-adv-x="665" 
d="M211 761c-9 0 -15 7 -15 18c0 47 25 79 61 79c27 0 47 -15 67 -29l37 -26c24 -17 32 -21 45 -21c22 0 34 19 34 51c0 11 6 18 15 18s15 -7 15 -18c0 -47 -25 -79 -61 -79c-27 0 -46 15 -66 29l-37 26c-24 17 -33 21 -46 21c-22 0 -34 -18 -34 -51c0 -11 -6 -18 -15 -18z
M614 14c2 -5 3 -8 3 -11c0 -7 -7 -13 -15 -13c-7 0 -13 4 -16 12l-71 173h-365l-71 -173c-3 -8 -9 -12 -16 -12c-8 0 -15 6 -15 13c0 3 1 6 3 11l267 645c2 7 8 11 15 11s13 -4 15 -11zM333 619l-171 -415h341z" />
    <glyph glyph-name="AE" unicode="&#xc6;" horiz-adv-x="796" 
d="M743 29c8 0 15 -6 15 -14s-7 -15 -15 -15h-249c-9 0 -14 5 -16 14l-29 162h-304l-91 -175c-4 -7 -9 -11 -15 -11c-8 0 -15 6 -15 14c0 3 1 6 3 10l333 638c3 5 7 8 13 8h358c8 0 15 -6 15 -14s-7 -15 -15 -15h-330l46 -257h204c8 0 15 -6 15 -14s-7 -15 -15 -15h-199
l57 -316h234zM371 615l-211 -410h284z" />
    <glyph glyph-name="AEacute" unicode="&#x1fc;" horiz-adv-x="796" 
d="M401 728c-8 0 -16 9 -11 18l82 158c4 8 11 9 14 9c11 0 18 -11 11 -24l-84 -153c-3 -5 -6 -8 -12 -8zM743 29c8 0 15 -6 15 -14s-7 -15 -15 -15h-249c-9 0 -14 5 -16 14l-29 162h-304l-91 -175c-4 -7 -9 -11 -15 -11c-8 0 -15 6 -15 14c0 3 1 6 3 10l333 638
c3 5 7 8 13 8h358c8 0 15 -6 15 -14s-7 -15 -15 -15h-330l46 -257h204c8 0 15 -6 15 -14s-7 -15 -15 -15h-199l57 -316h234zM371 615l-211 -410h284z" />
    <glyph glyph-name="B" unicode="B" horiz-adv-x="610" 
d="M406 366c96 -16 154 -82 154 -179c0 -114 -80 -187 -203 -187h-237c-10 0 -17 7 -17 17v626c0 10 7 17 17 17h205c104 0 170 -61 170 -156c0 -65 -33 -114 -89 -138zM322 632l-187 -1v-257h187c87 0 140 49 140 129c0 81 -53 130 -140 129zM355 29c104 0 172 62 172 157
c0 96 -68 159 -172 159h-220v-316h220z" />
    <glyph glyph-name="C" unicode="C" horiz-adv-x="709" 
d="M391 -10c-189 0 -334 148 -334 340c0 191 146 340 334 340c101 0 192 -43 254 -120c4 -5 6 -9 6 -14c0 -8 -6 -15 -14 -15c-6 0 -10 2 -15 8c-56 71 -138 110 -231 110c-170 0 -300 -134 -300 -309c0 -176 129 -309 300 -309c93 0 175 39 231 110c5 6 9 8 15 8
c8 0 14 -7 14 -15c0 -5 -2 -9 -6 -14c-62 -77 -153 -120 -254 -120z" />
    <glyph glyph-name="Cacute" unicode="&#x106;" horiz-adv-x="709" 
d="M401 728c-8 0 -16 9 -11 18l82 158c4 8 11 9 14 9c11 0 18 -11 11 -24l-84 -153c-3 -5 -6 -8 -12 -8zM391 -10c-189 0 -334 148 -334 340c0 191 146 340 334 340c101 0 192 -43 254 -120c4 -5 6 -9 6 -14c0 -8 -6 -15 -14 -15c-6 0 -10 2 -15 8c-56 71 -138 110 -231 110
c-170 0 -300 -134 -300 -309c0 -176 129 -309 300 -309c93 0 175 39 231 110c5 6 9 8 15 8c8 0 14 -7 14 -15c0 -5 -2 -9 -6 -14c-62 -77 -153 -120 -254 -120z" />
    <glyph glyph-name="Ccaron" unicode="&#x10c;" horiz-adv-x="709" 
d="M381 729l-138 146c-3 3 -5 6 -5 10c0 8 6 14 14 14c4 0 7 -2 11 -6l129 -132l129 132c4 4 7 6 11 6c8 0 14 -6 14 -14c0 -4 -2 -7 -5 -10l-138 -146c-3 -3 -7 -5 -11 -5s-8 2 -11 5zM637 139c8 0 14 -7 14 -15c0 -5 -2 -9 -6 -14c-62 -77 -153 -120 -254 -120
c-189 0 -334 148 -334 340c0 191 146 340 334 340c101 0 192 -43 254 -120c4 -5 6 -9 6 -14c0 -8 -6 -15 -14 -15c-6 0 -10 2 -15 8c-56 71 -138 110 -231 110c-170 0 -300 -134 -300 -309c0 -176 129 -309 300 -309c93 0 175 39 231 110c5 6 9 8 15 8z" />
    <glyph glyph-name="Ccedilla" unicode="&#xc7;" horiz-adv-x="709" 
d="M637 139c8 0 14 -7 14 -15c0 -5 -2 -9 -6 -14c-54 -67 -130 -109 -216 -118c16 -19 30 -46 30 -79c0 -60 -47 -103 -112 -103c-18 0 -37 2 -51 6c-12 3 -16 9 -16 15c0 8 6 14 14 14c9 0 23 -7 50 -7c51 0 83 30 83 77c0 40 -19 62 -39 75c-187 1 -331 149 -331 340
s146 340 334 340c101 0 192 -43 254 -120c4 -5 6 -9 6 -14c0 -8 -6 -15 -14 -15c-6 0 -10 2 -15 8c-56 71 -138 110 -231 110c-170 0 -300 -134 -300 -309c0 -176 129 -309 300 -309c93 0 175 39 231 110c5 6 9 8 15 8z" />
    <glyph glyph-name="Ccircumflex" unicode="&#x108;" horiz-adv-x="709" 
d="M252 724c-8 0 -14 6 -14 14c0 4 2 7 5 10l138 146c3 3 7 5 11 5s8 -2 11 -5l138 -146c3 -3 5 -6 5 -10c0 -8 -6 -14 -14 -14c-4 0 -7 2 -11 6l-129 132l-129 -132c-4 -4 -7 -6 -11 -6zM637 139c8 0 14 -7 14 -15c0 -5 -2 -9 -6 -14c-62 -77 -153 -120 -254 -120
c-189 0 -334 148 -334 340c0 191 146 340 334 340c101 0 192 -43 254 -120c4 -5 6 -9 6 -14c0 -8 -6 -15 -14 -15c-6 0 -10 2 -15 8c-56 71 -138 110 -231 110c-170 0 -300 -134 -300 -309c0 -176 129 -309 300 -309c93 0 175 39 231 110c5 6 9 8 15 8z" />
    <glyph glyph-name="Cdotaccent" unicode="&#x10a;" horiz-adv-x="709" 
d="M393 839c19 0 33 -14 33 -33s-14 -33 -33 -33s-33 14 -33 33s14 33 33 33zM391 -10c-189 0 -334 148 -334 340c0 191 146 340 334 340c101 0 192 -43 254 -120c4 -5 6 -9 6 -14c0 -8 -6 -15 -14 -15c-6 0 -10 2 -15 8c-56 71 -138 110 -231 110
c-170 0 -300 -134 -300 -309c0 -176 129 -309 300 -309c93 0 175 39 231 110c5 6 9 8 15 8c8 0 14 -7 14 -15c0 -5 -2 -9 -6 -14c-62 -77 -153 -120 -254 -120z" />
    <glyph glyph-name="D" unicode="D" horiz-adv-x="698" 
d="M282 660c219 0 359 -128 359 -329s-141 -331 -359 -331h-162c-10 0 -17 7 -17 17v626c0 10 7 17 17 17h162zM282 631h-147v-602h147c195 0 325 121 325 302s-129 300 -325 300z" />
    <glyph glyph-name="Eth" unicode="&#xd0;" horiz-adv-x="698" 
d="M282 660c219 0 359 -128 359 -329s-141 -331 -359 -331h-162c-10 0 -17 7 -17 17v270h-90c-8 0 -15 6 -15 14s7 14 15 14h90v328c0 10 7 17 17 17h162zM282 29c195 0 325 121 325 302s-129 300 -325 300h-147v-316h138c8 0 15 -6 15 -14s-7 -14 -15 -14h-138v-258h147z
" />
    <glyph glyph-name="Dcaron" unicode="&#x10e;" horiz-adv-x="698" 
d="M270 729l-138 146c-3 3 -5 6 -5 10c0 8 6 14 14 14c4 0 7 -2 11 -6l129 -132l129 132c4 4 7 6 11 6c8 0 14 -6 14 -14c0 -4 -2 -7 -5 -10l-138 -146c-3 -3 -7 -5 -11 -5s-8 2 -11 5zM282 660c219 0 359 -128 359 -329s-141 -331 -359 -331h-162c-10 0 -17 7 -17 17v626
c0 10 7 17 17 17h162zM282 29c195 0 325 121 325 302s-129 300 -325 300h-147v-602h147z" />
    <glyph glyph-name="Dcroat" unicode="&#x110;" horiz-adv-x="698" 
d="M282 660c219 0 359 -128 359 -329s-141 -331 -359 -331h-162c-10 0 -17 7 -17 17v270h-90c-8 0 -15 6 -15 14s7 14 15 14h90v328c0 10 7 17 17 17h162zM282 29c195 0 325 121 325 302s-129 300 -325 300h-147v-316h138c8 0 15 -6 15 -14s-7 -14 -15 -14h-138v-258h147z
" />
    <glyph glyph-name="E" unicode="E" horiz-adv-x="561" 
d="M120 0c-10 0 -17 7 -17 17v626c0 10 7 17 17 17h376c8 0 15 -6 15 -14s-7 -15 -15 -15h-361v-257h281c8 0 15 -6 15 -14s-7 -15 -15 -15h-281v-316h373c8 0 15 -6 15 -14s-7 -15 -15 -15h-388z" />
    <glyph glyph-name="Eacute" unicode="&#xc9;" horiz-adv-x="561" 
d="M309 728c-8 0 -16 9 -11 18l82 158c4 8 11 9 14 9c11 0 18 -11 11 -24l-84 -153c-3 -5 -6 -8 -12 -8zM120 0c-10 0 -17 7 -17 17v626c0 10 7 17 17 17h376c8 0 15 -6 15 -14s-7 -15 -15 -15h-361v-257h281c8 0 15 -6 15 -14s-7 -15 -15 -15h-281v-316h373
c8 0 15 -6 15 -14s-7 -15 -15 -15h-388z" />
    <glyph glyph-name="Ebreve" unicode="&#x114;" horiz-adv-x="561" 
d="M301 747c-73 0 -134 54 -134 120c0 10 6 18 15 18s15 -6 15 -18c2 -51 48 -92 104 -92s103 41 104 92c0 11 6 18 15 18s15 -8 15 -18c0 -66 -61 -120 -134 -120zM120 0c-10 0 -17 7 -17 17v626c0 10 7 17 17 17h376c8 0 15 -6 15 -14s-7 -15 -15 -15h-361v-257h281
c8 0 15 -6 15 -14s-7 -15 -15 -15h-281v-316h373c8 0 15 -6 15 -14s-7 -15 -15 -15h-388z" />
    <glyph glyph-name="Ecaron" unicode="&#x11a;" horiz-adv-x="561" 
d="M289 729l-138 146c-3 3 -5 6 -5 10c0 8 6 14 14 14c4 0 7 -2 11 -6l129 -132l129 132c4 4 7 6 11 6c8 0 14 -6 14 -14c0 -4 -2 -7 -5 -10l-138 -146c-3 -3 -7 -5 -11 -5s-8 2 -11 5zM508 29c8 0 15 -6 15 -14s-7 -15 -15 -15h-388c-10 0 -17 7 -17 17v626
c0 10 7 17 17 17h376c8 0 15 -6 15 -14s-7 -15 -15 -15h-361v-257h281c8 0 15 -6 15 -14s-7 -15 -15 -15h-281v-316h373z" />
    <glyph glyph-name="Ecircumflex" unicode="&#xca;" horiz-adv-x="561" 
d="M160 724c-8 0 -14 6 -14 14c0 4 2 7 5 10l138 146c3 3 7 5 11 5s8 -2 11 -5l138 -146c3 -3 5 -6 5 -10c0 -8 -6 -14 -14 -14c-4 0 -7 2 -11 6l-129 132l-129 -132c-4 -4 -7 -6 -11 -6zM508 29c8 0 15 -6 15 -14s-7 -15 -15 -15h-388c-10 0 -17 7 -17 17v626
c0 10 7 17 17 17h376c8 0 15 -6 15 -14s-7 -15 -15 -15h-361v-257h281c8 0 15 -6 15 -14s-7 -15 -15 -15h-281v-316h373z" />
    <glyph glyph-name="Edieresis" unicode="&#xcb;" horiz-adv-x="561" 
d="M190 773c-19 0 -33 14 -33 33s14 33 33 33s33 -14 33 -33s-14 -33 -33 -33zM411 773c-19 0 -33 14 -33 33s14 33 33 33s33 -14 33 -33s-14 -33 -33 -33zM120 0c-10 0 -17 7 -17 17v626c0 10 7 17 17 17h376c8 0 15 -6 15 -14s-7 -15 -15 -15h-361v-257h281
c8 0 15 -6 15 -14s-7 -15 -15 -15h-281v-316h373c8 0 15 -6 15 -14s-7 -15 -15 -15h-388z" />
    <glyph glyph-name="Edotaccent" unicode="&#x116;" horiz-adv-x="561" 
d="M301 839c19 0 33 -14 33 -33s-14 -33 -33 -33s-33 14 -33 33s14 33 33 33zM120 0c-10 0 -17 7 -17 17v626c0 10 7 17 17 17h376c8 0 15 -6 15 -14s-7 -15 -15 -15h-361v-257h281c8 0 15 -6 15 -14s-7 -15 -15 -15h-281v-316h373c8 0 15 -6 15 -14s-7 -15 -15 -15h-388z
" />
    <glyph glyph-name="Egrave" unicode="&#xc8;" horiz-adv-x="561" 
d="M293 728c-6 0 -9 3 -12 8l-84 153c-7 13 0 24 11 24c3 0 10 -1 14 -9l82 -158c5 -9 -3 -18 -11 -18zM120 0c-10 0 -17 7 -17 17v626c0 10 7 17 17 17h376c8 0 15 -6 15 -14s-7 -15 -15 -15h-361v-257h281c8 0 15 -6 15 -14s-7 -15 -15 -15h-281v-316h373
c8 0 15 -6 15 -14s-7 -15 -15 -15h-388z" />
    <glyph glyph-name="Emacron" unicode="&#x112;" horiz-adv-x="561" 
d="M423 810c8 0 14 -6 14 -14s-6 -14 -14 -14h-244c-8 0 -14 6 -14 14s6 14 14 14h244zM120 0c-10 0 -17 7 -17 17v626c0 10 7 17 17 17h376c8 0 15 -6 15 -14s-7 -15 -15 -15h-361v-257h281c8 0 15 -6 15 -14s-7 -15 -15 -15h-281v-316h373c8 0 15 -6 15 -14
s-7 -15 -15 -15h-388z" />
    <glyph glyph-name="Eogonek" unicode="&#x118;" horiz-adv-x="561" 
d="M520 6c-2 -2 -3 -3 -5 -4l-3 -2l-57 -35c-53 -33 -70 -53 -70 -77c0 -31 26 -50 64 -50c28 0 43 6 51 6s12 -5 12 -13c0 -7 -5 -11 -15 -14c-16 -5 -32 -7 -48 -7c-50 0 -95 26 -95 75c0 39 26 68 109 115h-343c-10 0 -17 7 -17 17v626c0 10 7 17 17 17h376
c8 0 15 -6 15 -14s-7 -15 -15 -15h-361v-257h281c8 0 15 -6 15 -14s-7 -15 -15 -15h-281v-316h373c8 0 15 -6 15 -14c0 -3 -1 -7 -3 -9z" />
    <glyph glyph-name="F" unicode="F" horiz-adv-x="514" 
d="M119 0c-9 0 -16 7 -16 17v626c0 10 7 17 17 17h366c8 0 15 -6 15 -14s-7 -15 -15 -15h-351v-276h291c8 0 15 -6 15 -14s-7 -15 -15 -15h-291v-309c0 -10 -7 -17 -16 -17z" />
    <glyph glyph-name="G" unicode="G" horiz-adv-x="744" 
d="M391 -10c-188 0 -334 149 -334 340s146 340 334 340c102 0 198 -45 254 -120c4 -5 6 -9 6 -14c0 -8 -6 -15 -14 -15c-7 0 -10 2 -20 14c-57 68 -135 104 -225 104c-171 0 -301 -133 -301 -308c0 -176 130 -310 302 -310c107 0 203 52 256 139v126h-245
c-10 0 -17 7 -17 15s7 15 17 15h260c10 0 17 -7 17 -17v-125c0 -14 -2 -23 -8 -33c-59 -94 -166 -151 -282 -151z" />
    <glyph glyph-name="Gbreve" unicode="&#x11e;" horiz-adv-x="744" 
d="M391 747c-73 0 -134 54 -134 120c0 10 6 18 15 18s15 -6 15 -18c2 -51 48 -92 104 -92s103 41 104 92c0 11 6 18 15 18s15 -8 15 -18c0 -66 -61 -120 -134 -120zM391 -10c-188 0 -334 149 -334 340s146 340 334 340c102 0 198 -45 254 -120c4 -5 6 -9 6 -14
c0 -8 -6 -15 -14 -15c-7 0 -10 2 -20 14c-57 68 -135 104 -225 104c-171 0 -301 -133 -301 -308c0 -176 130 -310 302 -310c107 0 203 52 256 139v126h-245c-10 0 -17 7 -17 15s7 15 17 15h260c10 0 17 -7 17 -17v-125c0 -14 -2 -23 -8 -33c-59 -94 -166 -151 -282 -151z
" />
    <glyph glyph-name="Gcircumflex" unicode="&#x11c;" horiz-adv-x="744" 
d="M250 724c-8 0 -14 6 -14 14c0 4 2 7 5 10l138 146c3 3 7 5 11 5s8 -2 11 -5l138 -146c3 -3 5 -6 5 -10c0 -8 -6 -14 -14 -14c-4 0 -7 2 -11 6l-129 132l-129 -132c-4 -4 -7 -6 -11 -6zM664 316c10 0 17 -7 17 -17v-125c0 -14 -2 -23 -8 -33c-59 -94 -166 -151 -282 -151
c-188 0 -334 149 -334 340s146 340 334 340c102 0 198 -45 254 -120c4 -5 6 -9 6 -14c0 -8 -6 -15 -14 -15c-7 0 -10 2 -20 14c-57 68 -135 104 -225 104c-171 0 -301 -133 -301 -308c0 -176 130 -310 302 -310c107 0 203 52 256 139v126h-245c-10 0 -17 7 -17 15
s7 15 17 15h260z" />
    <glyph glyph-name="Gcommaaccent" unicode="&#x122;" horiz-adv-x="744" 
d="M391 -10c-188 0 -334 149 -334 340s146 340 334 340c102 0 198 -45 254 -120c4 -5 6 -9 6 -14c0 -8 -6 -15 -14 -15c-7 0 -10 2 -20 14c-57 68 -135 104 -225 104c-171 0 -301 -133 -301 -308c0 -176 130 -310 302 -310c107 0 203 52 256 139v126h-245
c-10 0 -17 7 -17 15s7 15 17 15h260c10 0 17 -7 17 -17v-125c0 -14 -2 -23 -8 -33c-59 -94 -166 -151 -282 -151zM376 -220c-8 0 -15 6 -12 16c5 18 13 64 13 141c0 8 7 15 15 15s15 -7 15 -15c-1 -78 -15 -128 -18 -143c-2 -9 -7 -14 -13 -14z" />
    <glyph glyph-name="Gdotaccent" unicode="&#x120;" horiz-adv-x="744" 
d="M391 839c19 0 33 -14 33 -33s-14 -33 -33 -33s-33 14 -33 33s14 33 33 33zM391 -10c-188 0 -334 149 -334 340s146 340 334 340c102 0 198 -45 254 -120c4 -5 6 -9 6 -14c0 -8 -6 -15 -14 -15c-7 0 -10 2 -20 14c-57 68 -135 104 -225 104c-171 0 -301 -133 -301 -308
c0 -176 130 -310 302 -310c107 0 203 52 256 139v126h-245c-10 0 -17 7 -17 15s7 15 17 15h260c10 0 17 -7 17 -17v-125c0 -14 -2 -23 -8 -33c-59 -94 -166 -151 -282 -151z" />
    <glyph glyph-name="H" unicode="H" horiz-adv-x="704" 
d="M119 -10c-9 0 -16 7 -16 16v648c0 9 7 16 16 16s16 -7 16 -16v-280h434v280c0 9 7 16 16 16s16 -7 16 -16v-648c0 -9 -7 -16 -16 -16s-16 7 -16 16v339h-434v-339c0 -9 -7 -16 -16 -16z" />
    <glyph glyph-name="Hbar" unicode="&#x126;" horiz-adv-x="710" 
d="M122 -10c-9 0 -16 7 -16 17v473h-93c-8 0 -15 6 -15 14s7 14 15 14h93v145c0 10 7 17 16 17s16 -7 16 -17v-145h434v145c0 10 7 17 16 17s16 -7 16 -17v-145h94c8 0 15 -6 15 -14s-7 -14 -15 -14h-94v-473c0 -10 -7 -17 -16 -17s-16 7 -16 17v279h-434v-279
c0 -10 -7 -17 -16 -17zM138 315h434v165h-434v-165z" />
    <glyph glyph-name="Hcircumflex" unicode="&#x124;" horiz-adv-x="704" 
d="M211 724c-8 0 -14 6 -14 14c0 4 2 7 5 10l138 146c3 3 7 5 11 5s8 -2 11 -5l138 -146c3 -3 5 -6 5 -10c0 -8 -6 -14 -14 -14c-4 0 -7 2 -11 6l-129 132l-129 -132c-4 -4 -7 -6 -11 -6zM585 670c9 0 16 -7 16 -16v-648c0 -9 -7 -16 -16 -16s-16 7 -16 16v339h-434v-339
c0 -9 -7 -16 -16 -16s-16 7 -16 16v648c0 9 7 16 16 16s16 -7 16 -16v-280h434v280c0 9 7 16 16 16z" />
    <glyph glyph-name="I" unicode="I" horiz-adv-x="238" 
d="M119 -10c-9 0 -16 7 -16 17v646c0 10 7 17 16 17s16 -7 16 -17v-646c0 -10 -7 -17 -16 -17z" />
    <glyph glyph-name="IJ" unicode="&#x132;" horiz-adv-x="599" 
d="M119 -10c-9 0 -16 7 -16 17v646c0 10 7 17 16 17s16 -7 16 -17v-646c0 -10 -7 -17 -16 -17zM346 -10c-31 0 -45 1 -65 6c-9 2 -16 9 -16 17c0 9 7 16 17 16c13 0 33 -7 63 -7c79 0 119 38 119 113v518c0 10 7 17 16 17s16 -7 16 -17v-518c0 -93 -54 -145 -150 -145z" />
    <glyph glyph-name="Iacute" unicode="&#xcd;" horiz-adv-x="238" 
d="M127 728c-8 0 -16 9 -11 18l82 158c4 8 11 9 14 9c11 0 18 -11 11 -24l-84 -153c-3 -5 -6 -8 -12 -8zM119 -10c-9 0 -16 7 -16 17v646c0 10 7 17 16 17s16 -7 16 -17v-646c0 -10 -7 -17 -16 -17z" />
    <glyph glyph-name="Ibreve" unicode="&#x12c;" horiz-adv-x="238" 
d="M119 747c-73 0 -134 54 -134 120c0 10 6 18 15 18s15 -6 15 -18c2 -51 48 -92 104 -92s103 41 104 92c0 11 6 18 15 18s15 -8 15 -18c0 -66 -61 -120 -134 -120zM119 -10c-9 0 -16 7 -16 17v646c0 10 7 17 16 17s16 -7 16 -17v-646c0 -10 -7 -17 -16 -17z" />
    <glyph glyph-name="Icircumflex" unicode="&#xce;" horiz-adv-x="238" 
d="M267 748c3 -3 5 -6 5 -10c0 -8 -6 -14 -14 -14c-4 0 -7 2 -11 6l-129 132l-129 -132c-4 -4 -7 -6 -11 -6c-8 0 -14 6 -14 14c0 4 2 7 5 10l138 146c3 3 7 5 11 5s8 -2 11 -5zM119 670c9 0 16 -7 16 -17v-646c0 -10 -7 -17 -16 -17s-16 7 -16 17v646c0 10 7 17 16 17z" />
    <glyph glyph-name="Idieresis" unicode="&#xcf;" horiz-adv-x="238" 
d="M8 773c-19 0 -33 14 -33 33s14 33 33 33s33 -14 33 -33s-14 -33 -33 -33zM229 773c-19 0 -33 14 -33 33s14 33 33 33s33 -14 33 -33s-14 -33 -33 -33zM119 -10c-9 0 -16 7 -16 17v646c0 10 7 17 16 17s16 -7 16 -17v-646c0 -10 -7 -17 -16 -17z" />
    <glyph glyph-name="Idotaccent" unicode="&#x130;" horiz-adv-x="238" 
d="M119 839c19 0 33 -14 33 -33s-14 -33 -33 -33s-33 14 -33 33s14 33 33 33zM119 -10c-9 0 -16 7 -16 17v646c0 10 7 17 16 17s16 -7 16 -17v-646c0 -10 -7 -17 -16 -17z" />
    <glyph glyph-name="Igrave" unicode="&#xcc;" horiz-adv-x="238" 
d="M111 728c-6 0 -9 3 -12 8l-84 153c-7 13 0 24 11 24c3 0 10 -1 14 -9l82 -158c5 -9 -3 -18 -11 -18zM119 -10c-9 0 -16 7 -16 17v646c0 10 7 17 16 17s16 -7 16 -17v-646c0 -10 -7 -17 -16 -17z" />
    <glyph glyph-name="Imacron" unicode="&#x12a;" horiz-adv-x="238" 
d="M241 810c8 0 14 -6 14 -14s-6 -14 -14 -14h-244c-8 0 -14 6 -14 14s6 14 14 14h244zM119 -10c-9 0 -16 7 -16 17v646c0 10 7 17 16 17s16 -7 16 -17v-646c0 -10 -7 -17 -16 -17z" />
    <glyph glyph-name="Iogonek" unicode="&#x12e;" horiz-adv-x="238" 
d="M126 -156c8 0 12 -5 12 -13c0 -7 -5 -11 -15 -14c-16 -5 -32 -7 -48 -7c-50 0 -95 26 -95 75c0 42 29 73 123 121v1v646c0 10 7 17 16 17s16 -7 16 -17v-646v-2v-1c0 -5 -2 -9 -7 -12c-94 -56 -117 -74 -117 -104c0 -31 26 -50 64 -50c28 0 43 6 51 6z" />
    <glyph glyph-name="Itilde" unicode="&#x128;" horiz-adv-x="238" 
d="M-3 761c-9 0 -15 7 -15 18c0 47 25 79 61 79c27 0 47 -15 67 -29l37 -26c24 -17 32 -21 45 -21c22 0 34 19 34 51c0 11 6 18 15 18s15 -7 15 -18c0 -47 -25 -79 -61 -79c-27 0 -46 15 -66 29l-37 26c-24 17 -33 21 -46 21c-22 0 -34 -18 -34 -51c0 -11 -6 -18 -15 -18z
M119 -10c-9 0 -16 7 -16 17v646c0 10 7 17 16 17s16 -7 16 -17v-646c0 -10 -7 -17 -16 -17z" />
    <glyph glyph-name="J" unicode="J" horiz-adv-x="361" 
d="M108 -10c-31 0 -45 1 -65 6c-9 2 -16 9 -16 17c0 9 7 16 17 16c13 0 33 -7 63 -7c79 0 119 38 119 113v518c0 10 7 17 16 17s16 -7 16 -17v-518c0 -93 -54 -145 -150 -145z" />
    <glyph glyph-name="Jcircumflex" unicode="&#x134;" horiz-adv-x="361" 
d="M387 748c3 -3 5 -6 5 -10c0 -8 -6 -14 -14 -14c-4 0 -7 2 -11 6l-129 132l-129 -132c-4 -4 -7 -6 -11 -6c-8 0 -14 6 -14 14c0 4 2 7 5 10l138 146c3 3 7 5 11 5s8 -2 11 -5zM242 670c9 0 16 -7 16 -17v-518c0 -93 -54 -145 -150 -145c-31 0 -45 1 -65 6
c-9 2 -16 9 -16 17c0 9 7 16 17 16c13 0 33 -7 63 -7c79 0 119 38 119 113v518c0 10 7 17 16 17z" />
    <glyph glyph-name="K" unicode="K" horiz-adv-x="598" 
d="M119 670c9 0 16 -7 16 -17v-646c0 -10 -7 -17 -16 -17s-16 7 -16 17v646c0 10 7 17 16 17zM545 17c4 -4 6 -8 6 -13c0 -7 -7 -14 -15 -14c-6 0 -9 2 -17 10l-352 346c-3 3 -5 7 -5 12s2 9 6 13l320 284c13 12 18 15 24 15c9 0 15 -6 15 -15c0 -5 -3 -10 -9 -15l-319 -283
z" />
    <glyph glyph-name="Kcommaaccent" unicode="&#x136;" horiz-adv-x="598" 
d="M119 670c9 0 16 -7 16 -17v-646c0 -10 -7 -17 -16 -17s-16 7 -16 17v646c0 10 7 17 16 17zM545 17c4 -4 6 -8 6 -13c0 -7 -7 -14 -15 -14c-6 0 -9 2 -17 10l-352 346c-3 3 -5 7 -5 12s2 9 6 13l320 284c13 12 18 15 24 15c9 0 15 -6 15 -15c0 -5 -3 -10 -9 -15l-319 -283
zM282 -48c8 0 15 -7 15 -15c-1 -78 -15 -128 -18 -143c-2 -9 -7 -14 -13 -14c-8 0 -15 6 -12 16c5 18 13 64 13 141c0 8 7 15 15 15z" />
    <glyph glyph-name="L" unicode="L" horiz-adv-x="493" 
d="M120 0c-10 0 -17 7 -17 17v636c0 10 7 17 16 17s16 -7 16 -17v-624h321c8 0 15 -6 15 -14s-7 -15 -15 -15h-336z" />
    <glyph glyph-name="Lacute" unicode="&#x139;" horiz-adv-x="493" 
d="M127 728c-8 0 -16 9 -11 18l82 158c4 8 11 9 14 9c11 0 18 -11 11 -24l-84 -153c-3 -5 -6 -8 -12 -8zM120 0c-10 0 -17 7 -17 17v636c0 10 7 17 16 17s16 -7 16 -17v-624h321c8 0 15 -6 15 -14s-7 -15 -15 -15h-336z" />
    <glyph glyph-name="Lcaron" unicode="&#x13d;" horiz-adv-x="493" 
d="M383 500c-8 0 -14 7 -13 15l24 198c2 13 8 17 16 17s16 -7 15 -17l-30 -202c-1 -5 -5 -11 -12 -11zM120 0c-10 0 -17 7 -17 17v636c0 10 7 17 16 17s16 -7 16 -17v-624h321c8 0 15 -6 15 -14s-7 -15 -15 -15h-336z" />
    <glyph glyph-name="Lcommaaccent" unicode="&#x13b;" horiz-adv-x="493" 
d="M120 0c-10 0 -17 7 -17 17v636c0 10 7 17 16 17s16 -7 16 -17v-624h321c8 0 15 -6 15 -14s-7 -15 -15 -15h-336zM267 -220c-8 0 -15 6 -12 16c5 18 13 64 13 141c0 8 7 15 15 15s15 -7 15 -15c-1 -78 -15 -128 -18 -143c-2 -9 -7 -14 -13 -14z" />
    <glyph glyph-name="Ldot" unicode="&#x13f;" horiz-adv-x="493" 
d="M120 0c-10 0 -17 7 -17 17v636c0 10 7 17 16 17s16 -7 16 -17v-624h321c8 0 15 -6 15 -14s-7 -15 -15 -15h-336zM365 322c-18 0 -38 14 -38 38c0 26 20 40 38 40c20 0 40 -14 40 -40c0 -24 -20 -38 -40 -38z" />
    <glyph glyph-name="Lslash" unicode="&#x141;" horiz-adv-x="493" 
d="M456 29c8 0 15 -6 15 -14s-7 -15 -15 -15h-336c-10 0 -17 7 -17 17v276l-64 -30c-10 -4 -21 3 -21 13c0 6 3 11 10 14l75 34v329c0 10 7 17 16 17s16 -7 16 -17v-318l222 101c10 5 21 -1 21 -12c0 -6 -3 -11 -10 -14l-233 -106v-275h321z" />
    <glyph glyph-name="M" unicode="M" horiz-adv-x="782" 
d="M664 670c8 0 15 -7 15 -16v-648c0 -9 -7 -16 -16 -16s-16 7 -16 16v594l-239 -366c-5 -8 -10 -12 -17 -12s-12 4 -17 12l-239 366v-594c0 -9 -7 -16 -16 -16s-16 7 -16 16v648c0 9 7 16 15 16s12 -3 18 -12l255 -390l255 390c6 9 10 12 18 12z" />
    <glyph glyph-name="N" unicode="N" horiz-adv-x="704" 
d="M585 670c9 0 16 -7 16 -17v-646c0 -10 -7 -17 -16 -17c-5 0 -9 2 -13 7l-437 606v-596c0 -10 -7 -17 -16 -17s-16 7 -16 17v646c0 10 7 17 16 17c5 0 9 -2 13 -7l437 -606v596c0 10 7 17 16 17z" />
    <glyph glyph-name="Nacute" unicode="&#x143;" horiz-adv-x="704" 
d="M360 728c-8 0 -16 9 -11 18l82 158c4 8 11 9 14 9c11 0 18 -11 11 -24l-84 -153c-3 -5 -6 -8 -12 -8zM585 670c9 0 16 -7 16 -17v-646c0 -10 -7 -17 -16 -17c-5 0 -9 2 -13 7l-437 606v-596c0 -10 -7 -17 -16 -17s-16 7 -16 17v646c0 10 7 17 16 17c5 0 9 -2 13 -7
l437 -606v596c0 10 7 17 16 17z" />
    <glyph glyph-name="Ncaron" unicode="&#x147;" horiz-adv-x="704" 
d="M340 729l-138 146c-3 3 -5 6 -5 10c0 8 6 14 14 14c4 0 7 -2 11 -6l129 -132l129 132c4 4 7 6 11 6c8 0 14 -6 14 -14c0 -4 -2 -7 -5 -10l-138 -146c-3 -3 -7 -5 -11 -5s-8 2 -11 5zM585 670c9 0 16 -7 16 -17v-646c0 -10 -7 -17 -16 -17c-5 0 -9 2 -13 7l-437 606v-596
c0 -10 -7 -17 -16 -17s-16 7 -16 17v646c0 10 7 17 16 17c5 0 9 -2 13 -7l437 -606v596c0 10 7 17 16 17z" />
    <glyph glyph-name="Ncommaaccent" unicode="&#x145;" horiz-adv-x="704" 
d="M585 670c9 0 16 -7 16 -17v-646c0 -10 -7 -17 -16 -17c-5 0 -9 2 -13 7l-437 606v-596c0 -10 -7 -17 -16 -17s-16 7 -16 17v646c0 10 7 17 16 17c5 0 9 -2 13 -7l437 -606v596c0 10 7 17 16 17zM353 -48c8 0 15 -7 15 -15c-1 -78 -15 -128 -18 -143c-2 -9 -7 -14 -13 -14
c-8 0 -15 6 -12 16c5 18 13 64 13 141c0 8 7 15 15 15z" />
    <glyph glyph-name="Eng" unicode="&#x14a;" horiz-adv-x="704" 
d="M585 670c9 0 16 -7 16 -17v-708c0 -87 -48 -135 -136 -135c-15 0 -29 1 -39 3s-16 8 -16 16s6 14 16 14c7 0 23 -3 37 -3c72 0 106 34 106 105v56l-434 602v-596c0 -10 -7 -17 -16 -17s-16 7 -16 17v646c0 10 7 17 16 17c5 0 9 -2 13 -7l437 -606v596c0 10 7 17 16 17z
" />
    <glyph glyph-name="Ntilde" unicode="&#xd1;" horiz-adv-x="704" 
d="M230 761c-9 0 -15 7 -15 18c0 47 25 79 61 79c27 0 47 -15 67 -29l37 -26c24 -17 32 -21 45 -21c22 0 34 19 34 51c0 11 6 18 15 18s15 -7 15 -18c0 -47 -25 -79 -61 -79c-27 0 -46 15 -66 29l-37 26c-24 17 -33 21 -46 21c-22 0 -34 -18 -34 -51c0 -11 -6 -18 -15 -18z
M585 670c9 0 16 -7 16 -17v-646c0 -10 -7 -17 -16 -17c-5 0 -9 2 -13 7l-437 606v-596c0 -10 -7 -17 -16 -17s-16 7 -16 17v646c0 10 7 17 16 17c5 0 9 -2 13 -7l437 -606v596c0 10 7 17 16 17z" />
    <glyph glyph-name="O" unicode="O" horiz-adv-x="784" 
d="M391 670c188 0 336 -149 336 -340c0 -190 -148 -340 -336 -340c-187 0 -334 149 -334 340s146 340 334 340zM392 639c-171 0 -301 -134 -301 -308c0 -176 131 -310 301 -310s301 135 301 310c0 174 -131 308 -301 308z" />
    <glyph glyph-name="Oacute" unicode="&#xd3;" horiz-adv-x="784" 
d="M400 728c-8 0 -16 9 -11 18l82 158c4 8 11 9 14 9c11 0 18 -11 11 -24l-84 -153c-3 -5 -6 -8 -12 -8zM391 670c188 0 336 -149 336 -340c0 -190 -148 -340 -336 -340c-187 0 -334 149 -334 340s146 340 334 340zM392 639c-171 0 -301 -134 -301 -308
c0 -176 131 -310 301 -310s301 135 301 310c0 174 -131 308 -301 308z" />
    <glyph glyph-name="Obreve" unicode="&#x14e;" horiz-adv-x="784" 
d="M392 747c-73 0 -134 54 -134 120c0 10 6 18 15 18s15 -6 15 -18c2 -51 48 -92 104 -92s103 41 104 92c0 11 6 18 15 18s15 -8 15 -18c0 -66 -61 -120 -134 -120zM391 670c188 0 336 -149 336 -340c0 -190 -148 -340 -336 -340c-187 0 -334 149 -334 340s146 340 334 340z
M392 639c-171 0 -301 -134 -301 -308c0 -176 131 -310 301 -310s301 135 301 310c0 174 -131 308 -301 308z" />
    <glyph glyph-name="Ocircumflex" unicode="&#xd4;" horiz-adv-x="784" 
d="M251 724c-8 0 -14 6 -14 14c0 4 2 7 5 10l138 146c3 3 7 5 11 5s8 -2 11 -5l138 -146c3 -3 5 -6 5 -10c0 -8 -6 -14 -14 -14c-4 0 -7 2 -11 6l-129 132l-129 -132c-4 -4 -7 -6 -11 -6zM391 670c188 0 336 -149 336 -340c0 -190 -148 -340 -336 -340
c-187 0 -334 149 -334 340s146 340 334 340zM392 21c170 0 301 135 301 310c0 174 -131 308 -301 308c-171 0 -301 -134 -301 -308c0 -176 131 -310 301 -310z" />
    <glyph glyph-name="Odieresis" unicode="&#xd6;" horiz-adv-x="784" 
d="M281 773c-19 0 -33 14 -33 33s14 33 33 33s33 -14 33 -33s-14 -33 -33 -33zM502 773c-19 0 -33 14 -33 33s14 33 33 33s33 -14 33 -33s-14 -33 -33 -33zM391 670c188 0 336 -149 336 -340c0 -190 -148 -340 -336 -340c-187 0 -334 149 -334 340s146 340 334 340zM392 639
c-171 0 -301 -134 -301 -308c0 -176 131 -310 301 -310s301 135 301 310c0 174 -131 308 -301 308z" />
    <glyph glyph-name="Ograve" unicode="&#xd2;" horiz-adv-x="784" 
d="M384 728c-6 0 -9 3 -12 8l-84 153c-7 13 0 24 11 24c3 0 10 -1 14 -9l82 -158c5 -9 -3 -18 -11 -18zM391 670c188 0 336 -149 336 -340c0 -190 -148 -340 -336 -340c-187 0 -334 149 -334 340s146 340 334 340zM392 639c-171 0 -301 -134 -301 -308
c0 -176 131 -310 301 -310s301 135 301 310c0 174 -131 308 -301 308z" />
    <glyph glyph-name="Ohungarumlaut" unicode="&#x150;" horiz-adv-x="784" 
d="M335 728c-8 0 -16 9 -11 18l82 158c4 8 11 9 14 9c11 0 18 -11 11 -24l-84 -153c-3 -5 -6 -8 -12 -8zM489 728c-8 0 -16 9 -11 18l82 158c4 8 11 9 14 9c11 0 18 -11 11 -24l-84 -153c-3 -5 -6 -8 -12 -8zM391 670c188 0 336 -149 336 -340c0 -190 -148 -340 -336 -340
c-187 0 -334 149 -334 340s146 340 334 340zM392 639c-171 0 -301 -134 -301 -308c0 -176 131 -310 301 -310s301 135 301 310c0 174 -131 308 -301 308z" />
    <glyph glyph-name="Omacron" unicode="&#x14c;" horiz-adv-x="784" 
d="M514 810c8 0 14 -6 14 -14s-6 -14 -14 -14h-244c-8 0 -14 6 -14 14s6 14 14 14h244zM391 670c188 0 336 -149 336 -340c0 -190 -148 -340 -336 -340c-187 0 -334 149 -334 340s146 340 334 340zM392 639c-171 0 -301 -134 -301 -308c0 -176 131 -310 301 -310
s301 135 301 310c0 174 -131 308 -301 308z" />
    <glyph glyph-name="Oslash" unicode="&#xd8;" horiz-adv-x="784" 
d="M732 656c0 -4 -1 -8 -5 -12l-85 -85c53 -60 85 -140 85 -229c0 -190 -148 -340 -336 -340c-89 0 -169 34 -228 90l-84 -84c-4 -4 -8 -6 -13 -6c-8 0 -14 6 -14 14c0 5 1 8 6 13l84 84c-53 60 -85 140 -85 229c0 191 146 340 334 340c90 0 170 -34 230 -90l84 84
c4 4 9 6 13 6c8 0 14 -6 14 -14zM91 331c0 -81 27 -153 74 -207l434 434c-53 51 -125 81 -207 81c-171 0 -301 -133 -301 -308zM693 331c0 80 -27 152 -73 206l-435 -435c53 -51 126 -81 207 -81c170 0 301 134 301 310z" />
    <glyph glyph-name="Oslashacute" unicode="&#x1fe;" horiz-adv-x="784" 
d="M400 728c-8 0 -16 9 -11 18l82 158c4 8 11 9 14 9c11 0 18 -11 11 -24l-84 -153c-3 -5 -6 -8 -12 -8zM732 656c0 -4 -1 -8 -5 -12l-85 -85c53 -60 85 -140 85 -229c0 -190 -148 -340 -336 -340c-89 0 -169 34 -228 90l-84 -84c-4 -4 -8 -6 -13 -6c-8 0 -14 6 -14 14
c0 5 1 8 6 13l84 84c-53 60 -85 140 -85 229c0 191 146 340 334 340c90 0 170 -34 230 -90l84 84c4 4 9 6 13 6c8 0 14 -6 14 -14zM91 331c0 -81 27 -153 74 -207l434 434c-53 51 -125 81 -207 81c-171 0 -301 -133 -301 -308zM693 331c0 80 -27 152 -73 206l-435 -435
c53 -51 126 -81 207 -81c170 0 301 134 301 310z" />
    <glyph glyph-name="Otilde" unicode="&#xd5;" horiz-adv-x="784" 
d="M270 761c-9 0 -15 7 -15 18c0 47 25 79 61 79c27 0 47 -15 67 -29l37 -26c24 -17 32 -21 45 -21c22 0 34 19 34 51c0 11 6 18 15 18s15 -7 15 -18c0 -47 -25 -79 -61 -79c-27 0 -46 15 -66 29l-37 26c-24 17 -33 21 -46 21c-22 0 -34 -18 -34 -51c0 -11 -6 -18 -15 -18z
M391 670c188 0 336 -149 336 -340c0 -190 -148 -340 -336 -340c-187 0 -334 149 -334 340s146 340 334 340zM392 639c-171 0 -301 -134 -301 -308c0 -176 131 -310 301 -310s301 135 301 310c0 174 -131 308 -301 308z" />
    <glyph glyph-name="OE" unicode="&#x152;" horiz-adv-x="1151" 
d="M1098 29c8 0 15 -6 15 -14s-7 -15 -15 -15h-388c-10 0 -17 7 -17 17v172c-45 -119 -165 -199 -302 -199c-187 0 -334 149 -334 340s146 340 334 340c137 0 257 -80 302 -199v172c0 10 7 17 17 17h376c8 0 15 -6 15 -14s-7 -15 -15 -15h-361v-257h281c8 0 15 -6 15 -14
s-7 -15 -15 -15h-281v-316h373zM392 21c170 0 301 134 301 310c0 175 -130 308 -301 308s-301 -133 -301 -308c0 -176 130 -310 301 -310z" />
    <glyph glyph-name="P" unicode="P" horiz-adv-x="557" 
d="M119 -10c-9 0 -16 7 -16 17v636c0 10 7 17 17 17h202c115 0 190 -69 190 -174c0 -106 -75 -175 -190 -175h-187v-304c0 -10 -7 -17 -16 -17zM135 340h185c98 0 159 56 159 145c0 90 -61 146 -159 146h-185v-291z" />
    <glyph glyph-name="Thorn" unicode="&#xde;" horiz-adv-x="557" 
d="M119 670c9 0 16 -7 16 -17v-126h187c116 0 190 -70 190 -179c0 -110 -74 -180 -190 -180h-187v-161c0 -10 -7 -17 -16 -17s-16 7 -16 17v646c0 10 7 17 16 17zM320 498h-185v-301h185c99 0 159 57 159 150c0 94 -60 151 -159 151z" />
    <glyph glyph-name="Q" unicode="Q" horiz-adv-x="784" 
d="M1007 -155c13 2 20 -2 20 -12c0 -9 -6 -14 -22 -17c-22 -4 -45 -6 -76 -6c-160 0 -292 71 -394 212c-44 -21 -92 -32 -144 -32c-187 0 -334 149 -334 340s146 340 334 340s336 -149 336 -340c0 -127 -66 -236 -165 -294c98 -132 218 -197 366 -197c40 0 65 4 79 6z
M91 331c0 -176 130 -310 301 -310c170 0 301 134 301 310c0 175 -130 308 -301 308s-301 -133 -301 -308z" />
    <glyph glyph-name="R" unicode="R" horiz-adv-x="608" 
d="M574 17c3 -4 5 -8 5 -12c0 -9 -7 -15 -16 -15c-6 0 -11 3 -15 9l-236 312h-177v-305c0 -9 -7 -16 -16 -16s-16 7 -16 16v638c0 9 7 16 16 16h203c115 0 190 -69 190 -174c0 -97 -63 -163 -161 -173zM135 631v-291h185c98 0 159 56 159 145c0 90 -61 146 -159 146h-185z
" />
    <glyph glyph-name="Racute" unicode="&#x154;" horiz-adv-x="608" 
d="M272 728c-8 0 -16 9 -11 18l82 158c4 8 11 9 14 9c11 0 18 -11 11 -24l-84 -153c-3 -5 -6 -8 -12 -8zM574 17c3 -4 5 -8 5 -12c0 -9 -7 -15 -16 -15c-6 0 -11 3 -15 9l-236 312h-177v-305c0 -9 -7 -16 -16 -16s-16 7 -16 16v638c0 9 7 16 16 16h203
c115 0 190 -69 190 -174c0 -97 -63 -163 -161 -173zM135 631v-291h185c98 0 159 56 159 145c0 90 -61 146 -159 146h-185z" />
    <glyph glyph-name="Rcaron" unicode="&#x158;" horiz-adv-x="608" 
d="M252 729l-138 146c-3 3 -5 6 -5 10c0 8 6 14 14 14c4 0 7 -2 11 -6l129 -132l129 132c4 4 7 6 11 6c8 0 14 -6 14 -14c0 -4 -2 -7 -5 -10l-138 -146c-3 -3 -7 -5 -11 -5s-8 2 -11 5zM574 17c3 -4 5 -8 5 -12c0 -9 -7 -15 -16 -15c-6 0 -11 3 -15 9l-236 312h-177v-305
c0 -9 -7 -16 -16 -16s-16 7 -16 16v638c0 9 7 16 16 16h203c115 0 190 -69 190 -174c0 -97 -63 -163 -161 -173zM135 631v-291h185c98 0 159 56 159 145c0 90 -61 146 -159 146h-185z" />
    <glyph glyph-name="Rcommaaccent" unicode="&#x156;" horiz-adv-x="608" 
d="M574 17c3 -4 5 -8 5 -12c0 -9 -7 -15 -16 -15c-6 0 -11 3 -15 9l-236 312h-177v-305c0 -9 -7 -16 -16 -16s-16 7 -16 16v638c0 9 7 16 16 16h203c115 0 190 -69 190 -174c0 -97 -63 -163 -161 -173zM135 631v-291h185c98 0 159 56 159 145c0 90 -61 146 -159 146h-185z
M295 -48c8 0 15 -7 15 -15c-1 -78 -15 -128 -18 -143c-2 -9 -7 -14 -13 -14c-8 0 -15 6 -12 16c5 18 13 64 13 141c0 8 7 15 15 15z" />
    <glyph glyph-name="S" unicode="S" horiz-adv-x="555" 
d="M283 -10c-91 0 -169 44 -224 126c-2 3 -4 7 -4 12c0 8 7 14 15 14c6 0 11 -4 15 -10c48 -72 118 -111 199 -111c98 0 163 55 163 138c0 69 -29 102 -131 151l-76 36c-105 50 -143 95 -143 168c0 101 86 156 186 156c72 0 136 -30 180 -85c4 -5 5 -9 5 -13
c0 -7 -6 -14 -14 -14c-5 0 -10 3 -14 8c-41 49 -92 73 -155 73c-71 0 -154 -31 -154 -123c0 -63 30 -97 124 -142l76 -36c112 -54 150 -99 150 -179c0 -99 -82 -169 -198 -169z" />
    <glyph glyph-name="Sacute" unicode="&#x15a;" horiz-adv-x="555" 
d="M291 728c-8 0 -16 9 -11 18l82 158c4 8 11 9 14 9c11 0 18 -11 11 -24l-84 -153c-3 -5 -6 -8 -12 -8zM283 -10c-91 0 -169 44 -224 126c-2 3 -4 7 -4 12c0 8 7 14 15 14c6 0 11 -4 15 -10c48 -72 118 -111 199 -111c98 0 163 55 163 138c0 69 -29 102 -131 151l-76 36
c-105 50 -143 95 -143 168c0 101 86 156 186 156c72 0 136 -30 180 -85c4 -5 5 -9 5 -13c0 -7 -6 -14 -14 -14c-5 0 -10 3 -14 8c-41 49 -92 73 -155 73c-71 0 -154 -31 -154 -123c0 -63 30 -97 124 -142l76 -36c112 -54 150 -99 150 -179c0 -99 -82 -169 -198 -169z" />
    <glyph glyph-name="Scaron" unicode="&#x160;" horiz-adv-x="555" 
d="M271 729l-138 146c-3 3 -5 6 -5 10c0 8 6 14 14 14c4 0 7 -2 11 -6l129 -132l129 132c4 4 7 6 11 6c8 0 14 -6 14 -14c0 -4 -2 -7 -5 -10l-138 -146c-3 -3 -7 -5 -11 -5s-8 2 -11 5zM331 338c112 -54 150 -99 150 -179c0 -99 -82 -169 -198 -169c-91 0 -169 44 -224 126
c-2 3 -4 7 -4 12c0 8 7 14 15 14c6 0 11 -4 15 -10c48 -72 118 -111 199 -111c98 0 163 55 163 138c0 69 -29 102 -131 151l-76 36c-105 50 -143 95 -143 168c0 101 86 156 186 156c72 0 136 -30 180 -85c4 -5 5 -9 5 -13c0 -7 -6 -14 -14 -14c-5 0 -10 3 -14 8
c-41 49 -92 73 -155 73c-71 0 -154 -31 -154 -123c0 -63 30 -97 124 -142z" />
    <glyph glyph-name="Scedilla" unicode="&#x15e;" horiz-adv-x="555" 
d="M481 159c0 -88 -66 -154 -162 -167c16 -18 30 -46 30 -79c0 -60 -47 -103 -112 -103c-18 0 -37 2 -51 6c-12 3 -16 9 -16 15c0 8 6 14 14 14c9 0 23 -7 50 -7c51 0 83 30 83 77c0 40 -19 62 -39 75c-89 1 -165 45 -219 126c-2 3 -4 7 -4 12c0 8 7 14 15 14
c6 0 11 -4 15 -10c48 -72 118 -111 199 -111c98 0 163 55 163 138c0 69 -29 102 -131 151l-76 36c-105 50 -143 95 -143 168c0 101 86 156 186 156c72 0 136 -30 180 -85c4 -5 5 -9 5 -13c0 -7 -6 -14 -14 -14c-5 0 -10 3 -14 8c-41 49 -92 73 -155 73
c-71 0 -154 -31 -154 -123c0 -63 30 -97 124 -142l76 -36c112 -54 150 -99 150 -179z" />
    <glyph glyph-name="Scircumflex" unicode="&#x15c;" horiz-adv-x="555" 
d="M142 724c-8 0 -14 6 -14 14c0 4 2 7 5 10l138 146c3 3 7 5 11 5s8 -2 11 -5l138 -146c3 -3 5 -6 5 -10c0 -8 -6 -14 -14 -14c-4 0 -7 2 -11 6l-129 132l-129 -132c-4 -4 -7 -6 -11 -6zM331 338c112 -54 150 -99 150 -179c0 -99 -82 -169 -198 -169
c-91 0 -169 44 -224 126c-2 3 -4 7 -4 12c0 8 7 14 15 14c6 0 11 -4 15 -10c48 -72 118 -111 199 -111c98 0 163 55 163 138c0 69 -29 102 -131 151l-76 36c-105 50 -143 95 -143 168c0 101 86 156 186 156c72 0 136 -30 180 -85c4 -5 5 -9 5 -13c0 -7 -6 -14 -14 -14
c-5 0 -10 3 -14 8c-41 49 -92 73 -155 73c-71 0 -154 -31 -154 -123c0 -63 30 -97 124 -142z" />
    <glyph glyph-name="Scommaaccent" unicode="&#x218;" horiz-adv-x="555" 
d="M283 -10c-91 0 -169 44 -224 126c-2 3 -4 7 -4 12c0 8 7 14 15 14c6 0 11 -4 15 -10c48 -72 118 -111 199 -111c98 0 163 55 163 138c0 69 -29 102 -131 151l-76 36c-105 50 -143 95 -143 168c0 101 86 156 186 156c72 0 136 -30 180 -85c4 -5 5 -9 5 -13
c0 -7 -6 -14 -14 -14c-5 0 -10 3 -14 8c-41 49 -92 73 -155 73c-71 0 -154 -31 -154 -123c0 -63 30 -97 124 -142l76 -36c112 -54 150 -99 150 -179c0 -99 -82 -169 -198 -169zM268 -220c-8 0 -15 6 -12 16c5 18 13 64 13 141c0 8 7 15 15 15s15 -7 15 -15
c-1 -78 -15 -128 -18 -143c-2 -9 -7 -14 -13 -14z" />
    <glyph glyph-name="uni1E9E" unicode="&#x1e9e;" horiz-adv-x="694" 
d="M416 401c125 -3 218 -90 218 -206c0 -115 -91 -205 -206 -205c-62 0 -123 27 -165 72c-5 5 -7 9 -7 15c0 8 7 14 15 14c6 0 9 -2 15 -8c34 -39 87 -62 143 -62c98 0 171 73 171 172c0 110 -82 180 -211 180c-8 0 -15 6 -15 14c0 6 3 10 6 14l164 230h-409v-624
c0 -10 -7 -17 -16 -17s-16 7 -16 17v636c0 10 7 17 17 17h452c8 0 14 -6 14 -14c0 -5 -2 -8 -7 -15z" />
    <glyph glyph-name="uni018F" unicode="&#x18f;" horiz-adv-x="776" 
d="M350 670c182 0 323 -148 323 -338c0 -191 -143 -342 -326 -342c-169 0 -290 122 -290 292c0 8 0 15 2 33c1 11 8 17 16 17h564v2c0 173 -125 305 -290 305c-92 0 -177 -40 -234 -112c-6 -8 -10 -10 -15 -10c-9 0 -16 7 -16 16c0 4 2 8 8 16c64 77 155 121 258 121z
M349 21c153 0 275 121 289 282h-547c-12 -160 99 -282 258 -282z" />
    <glyph glyph-name="T" unicode="T" horiz-adv-x="584" 
d="M292 -10c-9 0 -16 7 -16 17v624h-236c-8 0 -15 7 -15 15s7 14 15 14h504c8 0 15 -6 15 -14s-7 -15 -15 -15h-236v-624c0 -10 -7 -17 -16 -17z" />
    <glyph glyph-name="Tbar" unicode="&#x166;" horiz-adv-x="584" 
d="M292 -10c-9 0 -16 7 -16 17v279h-197c-8 0 -15 6 -15 14s7 14 15 14h197v317h-236c-8 0 -15 7 -15 15s7 14 15 14h504c8 0 15 -6 15 -14s-7 -15 -15 -15h-236v-317h197c8 0 15 -6 15 -14s-7 -14 -15 -14h-197v-279c0 -10 -7 -17 -16 -17z" />
    <glyph glyph-name="Tcaron" unicode="&#x164;" horiz-adv-x="584" 
d="M280 729l-138 146c-3 3 -5 6 -5 10c0 8 6 14 14 14c4 0 7 -2 11 -6l129 -132l129 132c4 4 7 6 11 6c8 0 14 -6 14 -14c0 -4 -2 -7 -5 -10l-138 -146c-3 -3 -7 -5 -11 -5s-8 2 -11 5zM544 660c8 0 15 -6 15 -14s-7 -15 -15 -15h-236v-624c0 -10 -7 -17 -16 -17
s-16 7 -16 17v624h-236c-8 0 -15 7 -15 15s7 14 15 14h504z" />
    <glyph glyph-name="uni0162" unicode="&#x162;" horiz-adv-x="584" 
d="M544 660c8 0 15 -6 15 -14s-7 -15 -15 -15h-236v-612h3c20 0 71 -43 71 -106c0 -60 -47 -103 -112 -103c-18 0 -37 2 -51 6c-12 3 -16 9 -16 15c0 8 6 14 14 14c9 0 23 -7 50 -7c51 0 83 30 83 77c0 41 -20 63 -40 76c-2 2 -5 3 -6 4c-3 -3 -7 -5 -12 -5
c-9 0 -16 7 -16 17v624h-236c-8 0 -15 7 -15 15s7 14 15 14h504z" />
    <glyph glyph-name="U" unicode="U" horiz-adv-x="678" 
d="M340 -10c-153 0 -248 100 -248 262v401c0 10 7 17 16 17s16 -7 16 -17v-401c0 -143 82 -231 216 -231c132 0 214 88 214 231v401c0 10 7 17 16 17s16 -7 16 -17v-401c0 -161 -95 -262 -246 -262z" />
    <glyph glyph-name="Uacute" unicode="&#xda;" horiz-adv-x="678" 
d="M347 728c-8 0 -16 9 -11 18l82 158c4 8 11 9 14 9c11 0 18 -11 11 -24l-84 -153c-3 -5 -6 -8 -12 -8zM340 -10c-153 0 -248 100 -248 262v401c0 10 7 17 16 17s16 -7 16 -17v-401c0 -143 82 -231 216 -231c132 0 214 88 214 231v401c0 10 7 17 16 17s16 -7 16 -17v-401
c0 -161 -95 -262 -246 -262z" />
    <glyph glyph-name="Ubreve" unicode="&#x16c;" horiz-adv-x="678" 
d="M339 747c-73 0 -134 54 -134 120c0 10 6 18 15 18s15 -6 15 -18c2 -51 48 -92 104 -92s103 41 104 92c0 11 6 18 15 18s15 -8 15 -18c0 -66 -61 -120 -134 -120zM340 -10c-153 0 -248 100 -248 262v401c0 10 7 17 16 17s16 -7 16 -17v-401c0 -143 82 -231 216 -231
c132 0 214 88 214 231v401c0 10 7 17 16 17s16 -7 16 -17v-401c0 -161 -95 -262 -246 -262z" />
    <glyph glyph-name="Ucircumflex" unicode="&#xdb;" horiz-adv-x="678" 
d="M198 724c-8 0 -14 6 -14 14c0 4 2 7 5 10l138 146c3 3 7 5 11 5s8 -2 11 -5l138 -146c3 -3 5 -6 5 -10c0 -8 -6 -14 -14 -14c-4 0 -7 2 -11 6l-129 132l-129 -132c-4 -4 -7 -6 -11 -6zM570 670c9 0 16 -7 16 -17v-401c0 -161 -95 -262 -246 -262
c-153 0 -248 100 -248 262v401c0 10 7 17 16 17s16 -7 16 -17v-401c0 -143 82 -231 216 -231c132 0 214 88 214 231v401c0 10 7 17 16 17z" />
    <glyph glyph-name="Udieresis" unicode="&#xdc;" horiz-adv-x="678" 
d="M228 773c-19 0 -33 14 -33 33s14 33 33 33s33 -14 33 -33s-14 -33 -33 -33zM449 773c-19 0 -33 14 -33 33s14 33 33 33s33 -14 33 -33s-14 -33 -33 -33zM340 -10c-153 0 -248 100 -248 262v401c0 10 7 17 16 17s16 -7 16 -17v-401c0 -143 82 -231 216 -231
c132 0 214 88 214 231v401c0 10 7 17 16 17s16 -7 16 -17v-401c0 -161 -95 -262 -246 -262z" />
    <glyph glyph-name="Ugrave" unicode="&#xd9;" horiz-adv-x="678" 
d="M331 728c-6 0 -9 3 -12 8l-84 153c-7 13 0 24 11 24c3 0 10 -1 14 -9l82 -158c5 -9 -3 -18 -11 -18zM340 -10c-153 0 -248 100 -248 262v401c0 10 7 17 16 17s16 -7 16 -17v-401c0 -143 82 -231 216 -231c132 0 214 88 214 231v401c0 10 7 17 16 17s16 -7 16 -17v-401
c0 -161 -95 -262 -246 -262z" />
    <glyph glyph-name="Uhungarumlaut" unicode="&#x170;" horiz-adv-x="678" 
d="M282 728c-8 0 -16 9 -11 18l82 158c4 8 11 9 14 9c11 0 18 -11 11 -24l-84 -153c-3 -5 -6 -8 -12 -8zM436 728c-8 0 -16 9 -11 18l82 158c4 8 11 9 14 9c11 0 18 -11 11 -24l-84 -153c-3 -5 -6 -8 -12 -8zM340 -10c-153 0 -248 100 -248 262v401c0 10 7 17 16 17
s16 -7 16 -17v-401c0 -143 82 -231 216 -231c132 0 214 88 214 231v401c0 10 7 17 16 17s16 -7 16 -17v-401c0 -161 -95 -262 -246 -262z" />
    <glyph glyph-name="Umacron" unicode="&#x16a;" horiz-adv-x="678" 
d="M461 810c8 0 14 -6 14 -14s-6 -14 -14 -14h-244c-8 0 -14 6 -14 14s6 14 14 14h244zM340 -10c-153 0 -248 100 -248 262v401c0 10 7 17 16 17s16 -7 16 -17v-401c0 -143 82 -231 216 -231c132 0 214 88 214 231v401c0 10 7 17 16 17s16 -7 16 -17v-401
c0 -161 -95 -262 -246 -262z" />
    <glyph glyph-name="Uogonek" unicode="&#x172;" horiz-adv-x="678" 
d="M432 -190c-56 0 -95 31 -95 75c0 39 33 83 93 124c-23 -11 -59 -19 -90 -19c-153 0 -248 100 -248 262v401c0 10 7 17 16 17s16 -7 16 -17v-401c0 -143 82 -231 216 -231c129 0 214 91 214 231v401c0 10 7 17 16 17s16 -7 16 -17v-401c0 -88 -29 -156 -82 -205l-40 -37
c-51 -48 -95 -80 -96 -122c0 -30 25 -50 64 -50c28 0 43 6 51 6s13 -4 13 -12c0 -7 -4 -11 -16 -15s-27 -7 -48 -7z" />
    <glyph glyph-name="Uring" unicode="&#x16e;" horiz-adv-x="678" 
d="M339 910c54 0 98 -43 98 -97s-44 -97 -98 -97s-98 43 -98 97s44 97 98 97zM339 882c-39 0 -68 -30 -68 -69s29 -69 68 -69c38 0 68 30 68 69s-30 69 -68 69zM340 -10c-153 0 -248 100 -248 262v401c0 10 7 17 16 17s16 -7 16 -17v-401c0 -143 82 -231 216 -231
c132 0 214 88 214 231v401c0 10 7 17 16 17s16 -7 16 -17v-401c0 -161 -95 -262 -246 -262z" />
    <glyph glyph-name="Utilde" unicode="&#x168;" horiz-adv-x="678" 
d="M217 761c-9 0 -15 7 -15 18c0 47 25 79 61 79c27 0 47 -15 67 -29l37 -26c24 -17 32 -21 45 -21c22 0 34 19 34 51c0 11 6 18 15 18s15 -7 15 -18c0 -47 -25 -79 -61 -79c-27 0 -46 15 -66 29l-37 26c-24 17 -33 21 -46 21c-22 0 -34 -18 -34 -51c0 -11 -6 -18 -15 -18z
M340 -10c-153 0 -248 100 -248 262v401c0 10 7 17 16 17s16 -7 16 -17v-401c0 -143 82 -231 216 -231c132 0 214 88 214 231v401c0 10 7 17 16 17s16 -7 16 -17v-401c0 -161 -95 -262 -246 -262z" />
    <glyph glyph-name="V" unicode="V" horiz-adv-x="665" 
d="M602 670c7 0 15 -6 15 -15c0 -3 -1 -6 -2 -9l-268 -646c-3 -6 -7 -10 -14 -10s-12 4 -15 10l-268 646c-1 3 -2 6 -2 9c0 10 9 15 15 15c7 0 13 -4 16 -12l254 -618l253 618c3 8 9 12 16 12z" />
    <glyph glyph-name="W" unicode="W" horiz-adv-x="1077" 
d="M1004 670c8 0 15 -7 15 -14c0 -3 -1 -7 -2 -10l-225 -643c-3 -8 -10 -13 -18 -13s-14 5 -17 13l-219 614l-218 -613c-3 -9 -9 -14 -17 -14s-15 5 -18 14l-225 642c-1 3 -2 7 -2 10c0 8 7 14 15 14s13 -4 16 -13l214 -623l220 623c3 9 9 13 16 13s12 -5 15 -13l220 -623
l214 623c3 9 9 13 16 13z" />
    <glyph glyph-name="Wacute" unicode="&#x1e82;" horiz-adv-x="1077" 
d="M547 728c-8 0 -16 9 -11 18l82 158c4 8 11 9 14 9c11 0 18 -11 11 -24l-84 -153c-3 -5 -6 -8 -12 -8zM1004 670c8 0 15 -7 15 -14c0 -3 -1 -7 -2 -10l-225 -643c-3 -8 -10 -13 -18 -13s-14 5 -17 13l-219 614l-218 -613c-3 -9 -9 -14 -17 -14s-15 5 -18 14l-225 642
c-1 3 -2 7 -2 10c0 8 7 14 15 14s13 -4 16 -13l214 -623l220 623c3 9 9 13 16 13s12 -5 15 -13l220 -623l214 623c3 9 9 13 16 13z" />
    <glyph glyph-name="Wcircumflex" unicode="&#x174;" horiz-adv-x="1077" 
d="M398 724c-8 0 -14 6 -14 14c0 4 2 7 5 10l138 146c3 3 7 5 11 5s8 -2 11 -5l138 -146c3 -3 5 -6 5 -10c0 -8 -6 -14 -14 -14c-4 0 -7 2 -11 6l-129 132l-129 -132c-4 -4 -7 -6 -11 -6zM1004 670c8 0 15 -7 15 -14c0 -3 -1 -7 -2 -10l-225 -643c-3 -8 -10 -13 -18 -13
s-14 5 -17 13l-219 614l-218 -613c-3 -9 -9 -14 -17 -14s-15 5 -18 14l-225 642c-1 3 -2 7 -2 10c0 8 7 14 15 14s13 -4 16 -13l214 -623l220 623c3 9 9 13 16 13s12 -5 15 -13l220 -623l214 623c3 9 9 13 16 13z" />
    <glyph glyph-name="Wdieresis" unicode="&#x1e84;" horiz-adv-x="1077" 
d="M428 773c-19 0 -33 14 -33 33s14 33 33 33s33 -14 33 -33s-14 -33 -33 -33zM649 773c-19 0 -33 14 -33 33s14 33 33 33s33 -14 33 -33s-14 -33 -33 -33zM1004 670c8 0 15 -7 15 -14c0 -3 -1 -7 -2 -10l-225 -643c-3 -8 -10 -13 -18 -13s-14 5 -17 13l-219 614l-218 -613
c-3 -9 -9 -14 -17 -14s-15 5 -18 14l-225 642c-1 3 -2 7 -2 10c0 8 7 14 15 14s13 -4 16 -13l214 -623l220 623c3 9 9 13 16 13s12 -5 15 -13l220 -623l214 623c3 9 9 13 16 13z" />
    <glyph glyph-name="Wgrave" unicode="&#x1e80;" horiz-adv-x="1077" 
d="M519 736l-84 153c-7 13 0 24 11 24c3 0 10 -1 14 -9l82 -158c5 -9 -3 -18 -11 -18c-6 0 -9 3 -12 8zM1004 670c8 0 15 -7 15 -14c0 -3 -1 -7 -2 -10l-225 -643c-3 -8 -10 -13 -18 -13s-14 5 -17 13l-219 614l-218 -613c-3 -9 -9 -14 -17 -14s-15 5 -18 14l-225 642
c-1 3 -2 7 -2 10c0 8 7 14 15 14s13 -4 16 -13l214 -623l220 623c3 9 9 13 16 13s12 -5 15 -13l220 -623l214 623c3 9 9 13 16 13z" />
    <glyph glyph-name="X" unicode="X" horiz-adv-x="579" 
d="M529 15c2 -3 3 -7 3 -10c0 -9 -6 -15 -15 -15c-6 0 -10 3 -15 10l-212 313l-213 -313c-5 -7 -9 -10 -15 -10c-9 0 -15 6 -15 15c0 4 2 8 5 12l220 323l-205 305c-2 3 -3 7 -3 10c0 9 6 15 15 15c6 0 10 -3 15 -10l197 -295l194 295c5 7 9 10 15 10c9 0 15 -6 15 -15
c0 -4 -1 -7 -5 -13l-201 -303z" />
    <glyph glyph-name="Y" unicode="Y" horiz-adv-x="610" 
d="M546 656c0 -4 -2 -7 -5 -12l-220 -359v-278c0 -10 -7 -17 -16 -17s-16 7 -16 17v279l-220 357c-4 6 -5 10 -5 13c0 8 6 14 15 14c6 0 10 -3 13 -8l213 -349l213 349c3 5 7 8 13 8c9 0 15 -6 15 -14z" />
    <glyph glyph-name="Yacute" unicode="&#xdd;" horiz-adv-x="610" 
d="M313 728c-8 0 -16 9 -11 18l82 158c4 8 11 9 14 9c11 0 18 -11 11 -24l-84 -153c-3 -5 -6 -8 -12 -8zM546 656c0 -4 -2 -7 -5 -12l-220 -359v-278c0 -10 -7 -17 -16 -17s-16 7 -16 17v279l-220 357c-4 6 -5 10 -5 13c0 8 6 14 15 14c6 0 10 -3 13 -8l213 -349l213 349
c3 5 7 8 13 8c9 0 15 -6 15 -14z" />
    <glyph glyph-name="Ycircumflex" unicode="&#x176;" horiz-adv-x="610" 
d="M164 724c-8 0 -14 6 -14 14c0 4 2 7 5 10l138 146c3 3 7 5 11 5s8 -2 11 -5l138 -146c3 -3 5 -6 5 -10c0 -8 -6 -14 -14 -14c-4 0 -7 2 -11 6l-129 132l-129 -132c-4 -4 -7 -6 -11 -6zM546 656c0 -4 -2 -7 -5 -12l-220 -359v-278c0 -10 -7 -17 -16 -17s-16 7 -16 17v279
l-220 357c-4 6 -5 10 -5 13c0 8 6 14 15 14c6 0 10 -3 13 -8l213 -349l213 349c3 5 7 8 13 8c9 0 15 -6 15 -14z" />
    <glyph glyph-name="Ydieresis" unicode="&#x178;" horiz-adv-x="610" 
d="M194 773c-19 0 -33 14 -33 33s14 33 33 33s33 -14 33 -33s-14 -33 -33 -33zM415 773c-19 0 -33 14 -33 33s14 33 33 33s33 -14 33 -33s-14 -33 -33 -33zM546 656c0 -4 -2 -7 -5 -12l-220 -359v-278c0 -10 -7 -17 -16 -17s-16 7 -16 17v279l-220 357c-4 6 -5 10 -5 13
c0 8 6 14 15 14c6 0 10 -3 13 -8l213 -349l213 349c3 5 7 8 13 8c9 0 15 -6 15 -14z" />
    <glyph glyph-name="Ygrave" unicode="&#x1ef2;" horiz-adv-x="610" 
d="M285 736l-84 153c-7 13 0 24 11 24c3 0 10 -1 14 -9l82 -158c5 -9 -3 -18 -11 -18c-6 0 -9 3 -12 8zM546 656c0 -4 -2 -7 -5 -12l-220 -359v-278c0 -10 -7 -17 -16 -17s-16 7 -16 17v279l-220 357c-4 6 -5 10 -5 13c0 8 6 14 15 14c6 0 10 -3 13 -8l213 -349l213 349
c3 5 7 8 13 8c9 0 15 -6 15 -14z" />
    <glyph glyph-name="Z" unicode="Z" horiz-adv-x="590" 
d="M537 29c8 0 15 -6 15 -14s-7 -15 -15 -15h-480c-8 0 -15 6 -15 13c0 4 1 8 5 13l458 605h-406c-8 0 -15 7 -15 15s7 14 15 14h435c8 0 15 -6 15 -14c0 -4 -3 -8 -6 -12l-456 -605h450z" />
    <glyph glyph-name="Zacute" unicode="&#x179;" horiz-adv-x="590" 
d="M306 728c-8 0 -16 9 -11 18l82 158c4 8 11 9 14 9c11 0 18 -11 11 -24l-84 -153c-3 -5 -6 -8 -12 -8zM537 29c8 0 15 -6 15 -14s-7 -15 -15 -15h-480c-8 0 -15 6 -15 13c0 4 1 8 5 13l458 605h-406c-8 0 -15 7 -15 15s7 14 15 14h435c8 0 15 -6 15 -14c0 -4 -3 -8 -6 -12
l-456 -605h450z" />
    <glyph glyph-name="Zcaron" unicode="&#x17d;" horiz-adv-x="590" 
d="M286 729l-138 146c-3 3 -5 6 -5 10c0 8 6 14 14 14c4 0 7 -2 11 -6l129 -132l129 132c4 4 7 6 11 6c8 0 14 -6 14 -14c0 -4 -2 -7 -5 -10l-138 -146c-3 -3 -7 -5 -11 -5s-8 2 -11 5zM537 29c8 0 15 -6 15 -14s-7 -15 -15 -15h-480c-8 0 -15 6 -15 13c0 4 1 8 5 13
l458 605h-406c-8 0 -15 7 -15 15s7 14 15 14h435c8 0 15 -6 15 -14c0 -4 -3 -8 -6 -12l-456 -605h450z" />
    <glyph glyph-name="Zdotaccent" unicode="&#x17b;" horiz-adv-x="590" 
d="M298 773c-19 0 -33 14 -33 33s14 33 33 33s33 -14 33 -33s-14 -33 -33 -33zM537 29c8 0 15 -6 15 -14s-7 -15 -15 -15h-480c-8 0 -15 6 -15 13c0 4 1 8 5 13l458 605h-406c-8 0 -15 7 -15 15s7 14 15 14h435c8 0 15 -6 15 -14c0 -4 -3 -8 -6 -12l-456 -605h450z" />
    <glyph glyph-name="uni021A" unicode="&#x21a;" horiz-adv-x="584" 
d="M292 -10c-9 0 -16 7 -16 17v624h-236c-8 0 -15 7 -15 15s7 14 15 14h504c8 0 15 -6 15 -14s-7 -15 -15 -15h-236v-624c0 -10 -7 -17 -16 -17zM277 -220c-8 0 -15 6 -12 16c5 18 13 64 13 141c0 8 7 15 15 15s15 -7 15 -15c-1 -78 -15 -128 -18 -143c-2 -9 -7 -14 -13 -14
z" />
    <glyph glyph-name="Iacute_J.loclNLD" horiz-adv-x="599" 
d="M127 728c-8 0 -16 9 -11 18l82 158c4 8 11 9 14 9c11 0 18 -11 11 -24l-84 -153c-3 -5 -6 -8 -12 -8zM485 728c-8 0 -16 9 -11 18l82 158c4 8 11 9 14 9c11 0 18 -11 11 -24l-84 -153c-3 -5 -6 -8 -12 -8zM119 -10c-9 0 -16 7 -16 17v646c0 10 7 17 16 17s16 -7 16 -17
v-646c0 -10 -7 -17 -16 -17zM346 -10c-31 0 -45 1 -65 6c-9 2 -16 9 -16 17c0 9 7 16 17 16c13 0 33 -7 63 -7c79 0 119 38 119 113v518c0 10 7 17 16 17s16 -7 16 -17v-518c0 -93 -54 -145 -150 -145z" />
    <glyph glyph-name="Cacute.loclPLK" horiz-adv-x="709" 
d="M367 732c-8 0 -16 7 -12 20l49 160c2 8 9 12 15 12c8 0 17 -8 12 -22l-52 -160c-2 -6 -7 -10 -12 -10zM391 -10c-189 0 -334 148 -334 340c0 191 146 340 334 340c101 0 192 -43 254 -120c4 -5 6 -9 6 -14c0 -8 -6 -15 -14 -15c-6 0 -10 2 -15 8
c-56 71 -138 110 -231 110c-170 0 -300 -134 -300 -309c0 -176 129 -309 300 -309c93 0 175 39 231 110c5 6 9 8 15 8c8 0 14 -7 14 -15c0 -5 -2 -9 -6 -14c-62 -77 -153 -120 -254 -120z" />
    <glyph glyph-name="Nacute.loclPLK" horiz-adv-x="704" 
d="M326 732c-8 0 -16 7 -12 20l49 160c2 8 9 12 15 12c8 0 17 -8 12 -22l-52 -160c-2 -6 -7 -10 -12 -10zM585 670c9 0 16 -7 16 -17v-646c0 -10 -7 -17 -16 -17c-5 0 -9 2 -13 7l-437 606v-596c0 -10 -7 -17 -16 -17s-16 7 -16 17v646c0 10 7 17 16 17c5 0 9 -2 13 -7
l437 -606v596c0 10 7 17 16 17z" />
    <glyph glyph-name="Oacute.loclPLK" horiz-adv-x="784" 
d="M366 732c-8 0 -16 7 -12 20l49 160c2 8 9 12 15 12c8 0 17 -8 12 -22l-52 -160c-2 -6 -7 -10 -12 -10zM391 670c188 0 336 -149 336 -340c0 -190 -148 -340 -336 -340c-187 0 -334 149 -334 340s146 340 334 340zM392 639c-171 0 -301 -134 -301 -308
c0 -176 131 -310 301 -310s301 135 301 310c0 174 -131 308 -301 308z" />
    <glyph glyph-name="Sacute.loclPLK" horiz-adv-x="555" 
d="M257 732c-8 0 -16 7 -12 20l49 160c2 8 9 12 15 12c8 0 17 -8 12 -22l-52 -160c-2 -6 -7 -10 -12 -10zM283 -10c-91 0 -169 44 -224 126c-2 3 -4 7 -4 12c0 8 7 14 15 14c6 0 11 -4 15 -10c48 -72 118 -111 199 -111c98 0 163 55 163 138c0 69 -29 102 -131 151l-76 36
c-105 50 -143 95 -143 168c0 101 86 156 186 156c72 0 136 -30 180 -85c4 -5 5 -9 5 -13c0 -7 -6 -14 -14 -14c-5 0 -10 3 -14 8c-41 49 -92 73 -155 73c-71 0 -154 -31 -154 -123c0 -63 30 -97 124 -142l76 -36c112 -54 150 -99 150 -179c0 -99 -82 -169 -198 -169z" />
    <glyph glyph-name="Zacute.loclPLK" horiz-adv-x="590" 
d="M272 732c-8 0 -16 7 -12 20l49 160c2 8 9 12 15 12c8 0 17 -8 12 -22l-52 -160c-2 -6 -7 -10 -12 -10zM537 29c8 0 15 -6 15 -14s-7 -15 -15 -15h-480c-8 0 -15 6 -15 13c0 4 1 8 5 13l458 605h-406c-8 0 -15 7 -15 15s7 14 15 14h435c8 0 15 -6 15 -14
c0 -4 -3 -8 -6 -12l-456 -605h450z" />
    <glyph glyph-name="Idotaccent.loclTRK" horiz-adv-x="238" 
d="M119 839c19 0 33 -14 33 -33s-14 -33 -33 -33s-33 14 -33 33s14 33 33 33zM119 -10c-9 0 -16 7 -16 17v646c0 10 7 17 16 17s16 -7 16 -17v-646c0 -10 -7 -17 -16 -17z" />
    <glyph glyph-name="A.ordn" horiz-adv-x="440" 
d="M398 262c1 -2 2 -6 2 -8c0 -9 -7 -15 -15 -15s-13 5 -16 13l-39 92h-220l-39 -92c-3 -8 -8 -13 -16 -13s-15 6 -15 14c0 3 1 7 2 9l162 390c4 10 9 14 16 14s12 -4 16 -14zM220 617l-98 -245h196z" />
    <glyph glyph-name="C.ordn" horiz-adv-x="464" 
d="M254 238c-119 0 -211 93 -211 214s92 214 211 214c65 0 125 -27 160 -74c4 -5 5 -9 5 -12c0 -8 -7 -15 -15 -15c-5 0 -10 4 -14 9c-31 39 -82 62 -135 62c-103 0 -180 -79 -180 -184s77 -185 180 -185c53 0 104 23 135 62c4 5 9 9 14 9c8 0 15 -7 15 -15
c0 -3 -1 -7 -5 -12c-37 -46 -96 -73 -160 -73z" />
    <glyph glyph-name="D.ordn" horiz-adv-x="463" 
d="M194 660c137 0 226 -82 226 -207c0 -126 -90 -209 -226 -209h-100c-10 0 -17 7 -17 17v382c0 10 7 17 17 17h100zM194 631h-86v-358h86c116 0 193 72 193 180s-76 178 -193 178z" />
    <glyph glyph-name="E.ordn" horiz-adv-x="374" 
d="M324 660c8 0 15 -6 15 -14s-7 -15 -15 -15h-216v-147h172c8 0 15 -6 15 -14s-7 -15 -15 -15h-172v-182h223c8 0 15 -6 15 -14s-7 -15 -15 -15h-237c-10 0 -17 7 -17 17v382c0 10 7 17 17 17h230z" />
    <glyph glyph-name="Egrave.ordn" horiz-adv-x="374" 
d="M218 697c-5 0 -9 3 -12 8l-54 88c-3 5 -3 8 -3 10c0 7 7 14 14 14c8 0 12 -6 14 -10l49 -90c1 -2 3 -6 3 -9c0 -6 -5 -11 -11 -11zM324 660c8 0 15 -6 15 -14s-7 -15 -15 -15h-216v-147h172c8 0 15 -6 15 -14s-7 -15 -15 -15h-172v-182h223c8 0 15 -6 15 -14
s-7 -15 -15 -15h-237c-10 0 -17 7 -17 17v382c0 10 7 17 17 17h230z" />
    <glyph glyph-name="G.ordn" horiz-adv-x="488" 
d="M255 239c-119 0 -212 93 -212 214c0 120 93 213 213 213c64 0 122 -27 157 -71c4 -5 6 -9 6 -14c0 -7 -7 -13 -14 -13s-10 2 -21 15c-27 32 -78 53 -128 53c-103 0 -181 -78 -181 -183s78 -185 182 -185c65 0 121 30 153 82v69h-143c-8 0 -15 7 -15 15s7 14 15 14h157
c10 0 17 -7 17 -17v-64c0 -16 -3 -26 -10 -38c-32 -54 -103 -90 -176 -90z" />
    <glyph glyph-name="H.ordn" horiz-adv-x="475" 
d="M382 666c9 0 16 -5 16 -16v-395c0 -10 -7 -16 -16 -16s-16 6 -16 16v200h-258v-200c0 -10 -6 -16 -15 -16s-16 6 -16 16v395c0 9 7 16 16 16c8 0 15 -5 15 -16v-166h258v166c0 11 7 16 16 16z" />
    <glyph glyph-name="I.ordn" horiz-adv-x="185" 
d="M93 666c9 0 15 -6 15 -16v-395c0 -10 -6 -16 -15 -16s-16 6 -16 16v395c0 10 7 16 16 16z" />
    <glyph glyph-name="L.ordn" horiz-adv-x="328" 
d="M93 666c9 0 15 -6 15 -16v-377h202c8 0 15 -6 15 -14s-7 -15 -15 -15h-216c-10 0 -17 7 -17 17v389c0 10 7 16 16 16z" />
    <glyph glyph-name="M.ordn" horiz-adv-x="524" 
d="M431 666c9 0 16 -7 16 -16v-394c0 -10 -6 -17 -15 -17s-16 7 -16 17v342l-139 -214c-4 -6 -8 -9 -15 -9c-6 0 -11 3 -15 9l-139 214v-342c0 -10 -6 -17 -15 -17s-16 7 -16 17v394c0 9 7 16 16 16c6 0 11 -4 14 -9l155 -241l155 241c3 5 8 9 14 9z" />
    <glyph glyph-name="N.ordn" horiz-adv-x="475" 
d="M382 666c9 0 16 -7 16 -17v-394c0 -9 -7 -16 -15 -16c-5 0 -10 2 -16 11l-259 354v-349c0 -10 -6 -16 -15 -16s-16 7 -16 16v396c0 8 7 15 16 15c5 0 9 -2 15 -10l258 -357v350c0 10 7 17 16 17z" />
    <glyph glyph-name="O.ordn" horiz-adv-x="510" 
d="M254 666c120 0 213 -94 213 -214c0 -119 -93 -213 -213 -213c-119 0 -211 92 -211 213s92 214 211 214zM255 636c-103 0 -180 -78 -180 -184c0 -105 77 -183 180 -183s180 79 180 183c0 105 -77 184 -180 184z" />
    <glyph glyph-name="R.ordn" horiz-adv-x="406" 
d="M378 267c4 -5 6 -9 6 -13c0 -8 -7 -15 -15 -15c-5 0 -10 3 -15 9l-142 184h-104v-176c0 -10 -6 -17 -15 -17s-16 7 -16 17v387c0 10 7 17 17 17h124c75 0 125 -45 125 -114c0 -60 -38 -102 -96 -112zM108 631v-170h109c58 0 94 32 94 84c0 53 -36 86 -94 86h-109z" />
    <glyph glyph-name="S.ordn" horiz-adv-x="362" 
d="M179 238c-55 0 -102 23 -141 75c-4 6 -6 9 -6 13c0 8 8 15 16 15c5 0 9 -3 13 -8c35 -46 72 -66 119 -66c53 0 95 29 95 80c0 38 -24 65 -78 88l-47 21c-63 27 -92 62 -92 109c0 65 55 101 121 101c46 0 85 -19 115 -55c4 -5 6 -9 6 -14c0 -7 -7 -13 -14 -13
c-4 0 -8 2 -13 8c-28 32 -54 44 -93 44c-42 0 -89 -17 -89 -70c0 -36 21 -60 72 -83l48 -21c64 -27 96 -65 96 -115c0 -67 -56 -109 -128 -109z" />
    <glyph glyph-name="T.ordn" horiz-adv-x="381" 
d="M346 660c8 0 15 -6 15 -14s-7 -15 -15 -15h-140v-376c0 -10 -6 -16 -15 -16s-16 7 -16 16v376h-140c-8 0 -15 7 -15 15s7 14 15 14h311z" />
    <glyph glyph-name="U.ordn" horiz-adv-x="456" 
d="M372 666c9 0 15 -6 15 -16v-245c0 -99 -64 -166 -158 -166c-96 0 -160 67 -160 166v245c0 10 7 16 16 16s15 -7 15 -16v-246c0 -81 52 -136 129 -136c76 0 127 55 127 136v246c0 10 7 16 16 16z" />
    <glyph glyph-name="Uacute.ordn" horiz-adv-x="456" 
d="M227 697c-6 0 -11 5 -11 11c0 3 2 7 3 9l49 90c2 4 6 10 14 10c7 0 14 -7 14 -14c0 -2 0 -5 -3 -10l-54 -88c-3 -5 -7 -8 -12 -8zM229 239c-92 0 -160 64 -160 167v244c0 10 7 17 16 17c8 0 15 -7 15 -17v-245c0 -87 58 -137 129 -137c70 0 127 50 127 137v245
c0 10 7 17 16 17s15 -7 15 -17v-244c0 -103 -68 -167 -158 -167z" />
    <glyph glyph-name="Y.ordn" horiz-adv-x="402" 
d="M355 651c0 -3 -1 -6 -4 -11l-134 -219v-166c0 -10 -6 -16 -15 -16s-16 6 -16 16v165l-135 220c-3 5 -4 8 -4 11c0 8 7 15 16 15c5 0 9 -2 13 -8l125 -207l125 207c4 6 8 8 13 8c9 0 16 -7 16 -15z" />
    <glyph glyph-name="Z.ordn" horiz-adv-x="384" 
d="M341 273c8 0 15 -6 15 -14s-7 -15 -15 -15h-294c-9 0 -16 7 -16 16c0 3 1 7 5 12l274 359h-238c-8 0 -15 7 -15 15s7 14 15 14h267c8 0 15 -7 15 -15c0 -4 -3 -9 -6 -13l-274 -359h267z" />
    <glyph glyph-name="a" unicode="a" horiz-adv-x="516" 
d="M252 490c108 0 173 -70 173 -185v-300c0 -8 -7 -15 -15 -15s-15 7 -15 15v80c-34 -58 -100 -95 -179 -95c-97 0 -164 52 -164 127c0 76 64 124 164 124h179v65c0 97 -54 155 -145 155c-55 0 -100 -23 -142 -73c-4 -5 -8 -7 -13 -7c-8 0 -14 6 -14 13c0 4 2 9 7 15
c47 55 99 81 164 81zM217 19c99 0 178 69 178 156v38h-178c-84 0 -133 -36 -133 -96c0 -59 53 -98 133 -98z" />
    <glyph glyph-name="aacute" unicode="&#xe1;" horiz-adv-x="516" 
d="M256 561c-6 0 -12 5 -12 12c0 1 0 4 2 8l84 184c3 7 8 11 16 11s14 -7 14 -13c0 -5 -2 -9 -4 -14l-86 -176c-4 -8 -8 -12 -14 -12zM252 490c108 0 173 -70 173 -185v-300c0 -8 -7 -15 -15 -15s-15 7 -15 15v80c-34 -58 -100 -95 -179 -95c-97 0 -164 52 -164 127
c0 76 64 124 164 124h179v65c0 97 -54 155 -145 155c-55 0 -100 -23 -142 -73c-4 -5 -8 -7 -13 -7c-8 0 -14 6 -14 13c0 4 2 9 7 15c47 55 99 81 164 81zM217 19c99 0 178 69 178 156v38h-178c-84 0 -133 -36 -133 -96c0 -59 53 -98 133 -98z" />
    <glyph glyph-name="abreve" unicode="&#x103;" horiz-adv-x="516" 
d="M251 593c-76 0 -135 58 -135 134c0 10 7 17 15 17s15 -7 15 -17c0 -60 46 -106 105 -106s105 46 105 106c0 10 7 17 15 17s15 -7 15 -17c0 -75 -59 -134 -135 -134zM252 490c108 0 173 -70 173 -185v-300c0 -8 -7 -15 -15 -15s-15 7 -15 15v80c-34 -58 -100 -95 -179 -95
c-97 0 -164 52 -164 127c0 76 64 124 164 124h179v65c0 97 -54 155 -145 155c-55 0 -100 -23 -142 -73c-4 -5 -8 -7 -13 -7c-8 0 -14 6 -14 13c0 4 2 9 7 15c47 55 99 81 164 81zM217 19c99 0 178 69 178 156v38h-178c-84 0 -133 -36 -133 -96c0 -59 53 -98 133 -98z" />
    <glyph glyph-name="acircumflex" unicode="&#xe2;" horiz-adv-x="516" 
d="M122 561c-6 0 -12 5 -12 11c0 4 1 7 4 11l125 187c3 4 7 6 12 6s9 -2 12 -6l125 -187c3 -4 4 -7 4 -11c0 -6 -6 -11 -12 -11s-9 3 -11 6l-118 173l-118 -173c-2 -3 -5 -6 -11 -6zM252 490c108 0 173 -70 173 -185v-300c0 -8 -7 -15 -15 -15s-15 7 -15 15v80
c-34 -58 -100 -95 -179 -95c-97 0 -164 52 -164 127c0 76 64 124 164 124h179v65c0 97 -54 155 -145 155c-55 0 -100 -23 -142 -73c-4 -5 -8 -7 -13 -7c-8 0 -14 6 -14 13c0 4 2 9 7 15c47 55 99 81 164 81zM217 19c99 0 178 69 178 156v38h-178c-84 0 -133 -36 -133 -96
c0 -59 53 -98 133 -98z" />
    <glyph glyph-name="adieresis" unicode="&#xe4;" horiz-adv-x="516" 
d="M155 633c-19 0 -33 14 -33 33s14 33 33 33s33 -14 33 -33s-14 -33 -33 -33zM347 633c-19 0 -33 14 -33 33s14 33 33 33s33 -14 33 -33s-14 -33 -33 -33zM252 490c108 0 173 -70 173 -185v-300c0 -8 -7 -15 -15 -15s-15 7 -15 15v80c-34 -58 -100 -95 -179 -95
c-97 0 -164 52 -164 127c0 76 64 124 164 124h179v65c0 97 -54 155 -145 155c-55 0 -100 -23 -142 -73c-4 -5 -8 -7 -13 -7c-8 0 -14 6 -14 13c0 4 2 9 7 15c47 55 99 81 164 81zM217 19c99 0 178 69 178 156v38h-178c-84 0 -133 -36 -133 -96c0 -59 53 -98 133 -98z" />
    <glyph glyph-name="agrave" unicode="&#xe0;" horiz-adv-x="516" 
d="M232 573l-86 176c-2 5 -4 9 -4 14c0 6 6 13 14 13s13 -4 16 -11l84 -184c2 -4 2 -7 2 -8c0 -7 -6 -12 -12 -12s-10 4 -14 12zM252 490c108 0 173 -70 173 -185v-300c0 -8 -7 -15 -15 -15s-15 7 -15 15v80c-34 -58 -100 -95 -179 -95c-97 0 -164 52 -164 127
c0 76 64 124 164 124h179v65c0 97 -54 155 -145 155c-55 0 -100 -23 -142 -73c-4 -5 -8 -7 -13 -7c-8 0 -14 6 -14 13c0 4 2 9 7 15c47 55 99 81 164 81zM217 19c99 0 178 69 178 156v38h-178c-84 0 -133 -36 -133 -96c0 -59 53 -98 133 -98z" />
    <glyph glyph-name="amacron" unicode="&#x101;" horiz-adv-x="516" 
d="M137 652c-8 0 -14 6 -14 14s6 14 14 14h228c8 0 14 -6 14 -14s-6 -14 -14 -14h-228zM252 490c108 0 173 -70 173 -185v-300c0 -8 -7 -15 -15 -15s-15 7 -15 15v80c-34 -58 -100 -95 -179 -95c-97 0 -164 52 -164 127c0 76 64 124 164 124h179v65c0 97 -54 155 -145 155
c-55 0 -100 -23 -142 -73c-4 -5 -8 -7 -13 -7c-8 0 -14 6 -14 13c0 4 2 9 7 15c47 55 99 81 164 81zM217 19c99 0 178 69 178 156v38h-178c-84 0 -133 -36 -133 -96c0 -59 53 -98 133 -98z" />
    <glyph glyph-name="aogonek" unicode="&#x105;" horiz-adv-x="516" 
d="M416 -156c8 0 12 -5 12 -13c0 -7 -5 -11 -15 -14c-16 -5 -32 -7 -48 -7c-50 0 -95 26 -95 75c0 43 29 73 125 122v78c-34 -58 -100 -95 -179 -95c-97 0 -164 52 -164 127c0 76 64 124 164 124h179v65c0 97 -54 155 -145 155c-55 0 -100 -23 -142 -73c-4 -5 -8 -7 -13 -7
c-8 0 -14 6 -14 13c0 4 2 9 7 15c47 55 99 81 164 81c108 0 173 -70 173 -185v-300v-1c0 -5 -2 -9 -7 -12c-94 -56 -117 -74 -117 -104c0 -31 26 -50 64 -50c28 0 43 6 51 6zM217 19c99 0 178 69 178 156v38h-178c-84 0 -133 -36 -133 -96c0 -59 53 -98 133 -98z" />
    <glyph glyph-name="aring" unicode="&#xe5;" horiz-adv-x="516" 
d="M251 569c-54 0 -98 43 -98 97s44 97 98 97s98 -43 98 -97s-44 -97 -98 -97zM251 735c-39 0 -68 -30 -68 -69s29 -69 68 -69c38 0 68 30 68 69s-30 69 -68 69zM252 490c108 0 173 -70 173 -185v-300c0 -8 -7 -15 -15 -15s-15 7 -15 15v80c-34 -58 -100 -95 -179 -95
c-97 0 -164 52 -164 127c0 76 64 124 164 124h179v65c0 97 -54 155 -145 155c-55 0 -100 -23 -142 -73c-4 -5 -8 -7 -13 -7c-8 0 -14 6 -14 13c0 4 2 9 7 15c47 55 99 81 164 81zM217 19c99 0 178 69 178 156v38h-178c-84 0 -133 -36 -133 -96c0 -59 53 -98 133 -98z" />
    <glyph glyph-name="atilde" unicode="&#xe3;" horiz-adv-x="516" 
d="M138 625c-9 0 -15 7 -15 18c0 47 25 79 61 79c23 0 43 -10 63 -33l25 -27c18 -19 28 -25 43 -25c22 0 34 19 34 51c0 11 6 18 15 18s15 -7 15 -18c0 -47 -25 -79 -61 -79c-23 0 -43 10 -63 33l-25 27c-18 19 -28 25 -43 25c-22 0 -34 -18 -34 -51c0 -11 -6 -18 -15 -18z
M252 490c108 0 173 -70 173 -185v-300c0 -8 -7 -15 -15 -15s-15 7 -15 15v80c-34 -58 -100 -95 -179 -95c-97 0 -164 52 -164 127c0 76 64 124 164 124h179v65c0 97 -54 155 -145 155c-55 0 -100 -23 -142 -73c-4 -5 -8 -7 -13 -7c-8 0 -14 6 -14 13c0 4 2 9 7 15
c47 55 99 81 164 81zM217 19c99 0 178 69 178 156v38h-178c-84 0 -133 -36 -133 -96c0 -59 53 -98 133 -98z" />
    <glyph glyph-name="ae" unicode="&#xe6;" horiz-adv-x="908" 
d="M633 490c130 0 215 -90 215 -228v-12c0 -14 -6 -21 -19 -21h-402c5 -120 96 -210 214 -210c62 0 123 28 162 74c5 6 8 8 13 8c8 0 14 -6 14 -13c0 -5 -2 -9 -7 -15c-44 -54 -108 -83 -182 -83c-99 0 -184 58 -223 143c-23 -84 -102 -143 -201 -143
c-98 0 -165 55 -165 136s63 131 164 131h179v49c0 97 -54 155 -145 155c-57 0 -102 -23 -142 -73c-4 -5 -8 -7 -13 -7c-8 0 -14 6 -14 13c0 4 2 9 7 15c45 55 98 81 164 81c92 0 152 -50 169 -136c39 81 118 136 212 136zM633 461c-111 0 -198 -88 -205 -204h389
c5 117 -73 204 -184 204zM219 19c97 0 176 70 176 156v54h-178c-85 0 -133 -36 -133 -100c0 -66 54 -110 135 -110z" />
    <glyph glyph-name="aeacute" unicode="&#x1fd;" horiz-adv-x="908" 
d="M436 561c-6 0 -12 5 -12 12c0 1 0 4 2 8l84 184c3 7 8 11 16 11s14 -7 14 -13c0 -5 -2 -9 -4 -14l-86 -176c-4 -8 -8 -12 -14 -12zM633 490c130 0 215 -90 215 -228v-12c0 -14 -6 -21 -19 -21h-402c5 -120 96 -210 214 -210c62 0 123 28 162 74c5 6 8 8 13 8
c8 0 14 -6 14 -13c0 -5 -2 -9 -7 -15c-44 -54 -108 -83 -182 -83c-99 0 -184 58 -223 143c-23 -84 -102 -143 -201 -143c-98 0 -165 55 -165 136s63 131 164 131h179v49c0 97 -54 155 -145 155c-57 0 -102 -23 -142 -73c-4 -5 -8 -7 -13 -7c-8 0 -14 6 -14 13c0 4 2 9 7 15
c45 55 98 81 164 81c92 0 152 -50 169 -136c39 81 118 136 212 136zM633 461c-111 0 -198 -88 -205 -204h389c5 117 -73 204 -184 204zM219 19c97 0 176 70 176 156v54h-178c-85 0 -133 -36 -133 -100c0 -66 54 -110 135 -110z" />
    <glyph glyph-name="b" unicode="b" horiz-adv-x="635" 
d="M335 490c135 0 240 -109 240 -250c0 -140 -106 -250 -240 -250c-95 0 -175 52 -206 126v-111c0 -8 -7 -15 -15 -15s-15 7 -15 15v740c0 9 7 15 15 15s15 -7 15 -15v-381c31 74 111 126 206 126zM335 19c118 0 208 95 208 221c0 127 -89 221 -208 221
c-124 0 -206 -88 -206 -221s82 -221 206 -221z" />
    <glyph glyph-name="c" unicode="c" horiz-adv-x="553" 
d="M305 -10c-137 0 -245 112 -245 250c0 139 108 250 246 250c77 0 137 -28 186 -88c6 -7 8 -11 8 -16c0 -7 -7 -13 -14 -13c-4 0 -9 2 -13 7c-43 56 -95 81 -167 81c-122 0 -214 -97 -214 -221c0 -123 92 -221 213 -221c72 0 123 26 167 81c4 5 9 7 13 7c7 0 14 -6 14 -13
c0 -5 -2 -9 -8 -16c-50 -59 -109 -88 -186 -88z" />
    <glyph glyph-name="cacute" unicode="&#x107;" horiz-adv-x="553" 
d="M311 561c-6 0 -12 5 -12 12c0 1 0 4 2 8l84 184c3 7 8 11 16 11s14 -7 14 -13c0 -5 -2 -9 -4 -14l-86 -176c-4 -8 -8 -12 -14 -12zM305 -10c-137 0 -245 112 -245 250c0 139 108 250 246 250c77 0 137 -28 186 -88c6 -7 8 -11 8 -16c0 -7 -7 -13 -14 -13c-4 0 -9 2 -13 7
c-43 56 -95 81 -167 81c-122 0 -214 -97 -214 -221c0 -123 92 -221 213 -221c72 0 123 26 167 81c4 5 9 7 13 7c7 0 14 -6 14 -13c0 -5 -2 -9 -8 -16c-50 -59 -109 -88 -186 -88z" />
    <glyph glyph-name="ccaron" unicode="&#x10d;" horiz-adv-x="553" 
d="M294 567l-125 187c-3 4 -4 7 -4 11c0 6 6 11 12 11s9 -3 11 -6l118 -173l118 173c2 3 5 6 11 6s12 -5 12 -11c0 -4 -1 -7 -4 -11l-125 -187c-3 -4 -7 -6 -12 -6s-9 2 -12 6zM485 107c7 0 14 -6 14 -13c0 -5 -2 -9 -8 -16c-50 -59 -109 -88 -186 -88
c-137 0 -245 112 -245 250c0 139 108 250 246 250c77 0 137 -28 186 -88c6 -7 8 -11 8 -16c0 -7 -7 -13 -14 -13c-4 0 -9 2 -13 7c-43 56 -95 81 -167 81c-122 0 -214 -97 -214 -221c0 -123 92 -221 213 -221c72 0 123 26 167 81c4 5 9 7 13 7z" />
    <glyph glyph-name="ccedilla" unicode="&#xe7;" horiz-adv-x="553" 
d="M485 107c7 0 14 -6 14 -13c0 -5 -2 -9 -8 -16c-42 -49 -90 -78 -149 -86c16 -18 30 -46 30 -79c0 -60 -47 -103 -112 -103c-18 0 -37 2 -51 6c-12 3 -16 9 -16 15c0 8 6 14 14 14c9 0 23 -7 50 -7c51 0 83 30 83 77c0 40 -19 62 -39 75c-135 2 -241 113 -241 250
c0 139 108 250 246 250c77 0 137 -28 186 -88c6 -7 8 -11 8 -16c0 -7 -7 -13 -14 -13c-4 0 -9 2 -13 7c-43 56 -95 81 -167 81c-122 0 -214 -97 -214 -221c0 -123 92 -221 213 -221c72 0 123 26 167 81c4 5 9 7 13 7z" />
    <glyph glyph-name="ccircumflex" unicode="&#x109;" horiz-adv-x="553" 
d="M177 561c-6 0 -12 5 -12 11c0 4 1 7 4 11l125 187c3 4 7 6 12 6s9 -2 12 -6l125 -187c3 -4 4 -7 4 -11c0 -6 -6 -11 -12 -11s-9 3 -11 6l-118 173l-118 -173c-2 -3 -5 -6 -11 -6zM485 107c7 0 14 -6 14 -13c0 -5 -2 -9 -8 -16c-50 -59 -109 -88 -186 -88
c-137 0 -245 112 -245 250c0 139 108 250 246 250c77 0 137 -28 186 -88c6 -7 8 -11 8 -16c0 -7 -7 -13 -14 -13c-4 0 -9 2 -13 7c-43 56 -95 81 -167 81c-122 0 -214 -97 -214 -221c0 -123 92 -221 213 -221c72 0 123 26 167 81c4 5 9 7 13 7z" />
    <glyph glyph-name="cdotaccent" unicode="&#x10b;" horiz-adv-x="553" 
d="M306 699c19 0 33 -14 33 -33s-14 -33 -33 -33s-33 14 -33 33s14 33 33 33zM305 -10c-137 0 -245 112 -245 250c0 139 108 250 246 250c77 0 137 -28 186 -88c6 -7 8 -11 8 -16c0 -7 -7 -13 -14 -13c-4 0 -9 2 -13 7c-43 56 -95 81 -167 81c-122 0 -214 -97 -214 -221
c0 -123 92 -221 213 -221c72 0 123 26 167 81c4 5 9 7 13 7c7 0 14 -6 14 -13c0 -5 -2 -9 -8 -16c-50 -59 -109 -88 -186 -88z" />
    <glyph glyph-name="d" unicode="d" horiz-adv-x="635" 
d="M521 760c8 0 15 -7 15 -15v-740c0 -8 -7 -15 -15 -15s-15 7 -15 15v111c-31 -74 -111 -126 -206 -126c-134 0 -240 110 -240 250c0 141 105 250 240 250c95 0 175 -52 206 -126v381c0 9 7 15 15 15zM300 19c124 0 206 88 206 221s-82 221 -206 221
c-119 0 -208 -94 -208 -221c0 -126 90 -221 208 -221z" />
    <glyph glyph-name="eth" unicode="&#xf0;" horiz-adv-x="565" 
d="M404 441c81 -113 101 -154 101 -222c0 -131 -95 -229 -223 -229c-126 0 -222 96 -222 223c0 126 97 227 217 227c42 0 86 -13 117 -35l-148 205l-143 -66c-7 -3 -11 -5 -15 -5c-7 0 -13 6 -13 13c0 6 3 11 9 14l145 67l-73 101c-4 5 -5 8 -5 12c0 8 7 14 14 14
c6 0 10 -2 15 -8l76 -106l139 64c6 3 11 5 16 5c7 0 12 -6 12 -13c0 -6 -3 -11 -10 -14l-140 -65zM282 19c108 0 190 85 190 196s-82 196 -191 196c-107 0 -189 -85 -189 -196c0 -112 82 -196 190 -196z" />
    <glyph glyph-name="dcaron" unicode="&#x10f;" horiz-adv-x="724" 
d="M521 760c8 0 15 -7 15 -15v-740c0 -8 -7 -15 -15 -15s-15 7 -15 15v111c-31 -74 -111 -126 -206 -126c-134 0 -240 110 -240 250c0 141 105 250 240 250c95 0 175 -52 206 -126v381c0 9 7 15 15 15zM688 760c8 0 16 -7 15 -17l-30 -202c-1 -5 -5 -11 -12 -11
c-8 0 -14 7 -13 15l24 198c2 13 8 17 16 17zM300 19c124 0 206 88 206 221s-82 221 -206 221c-119 0 -208 -94 -208 -221c0 -126 90 -221 208 -221z" />
    <glyph glyph-name="dcroat" unicode="&#x111;" horiz-adv-x="633" 
d="M607 632c8 0 15 -6 15 -14s-7 -14 -15 -14h-73v-599c0 -8 -7 -15 -15 -15s-15 7 -15 15v111c-31 -74 -111 -126 -206 -126c-134 0 -240 110 -240 250c0 141 105 250 240 250c95 0 175 -52 206 -126v240h-217c-8 0 -15 6 -15 14s7 14 15 14h217v113c0 9 7 15 15 15
s15 -7 15 -15v-113h73zM298 19c124 0 206 88 206 221s-82 221 -206 221c-119 0 -208 -94 -208 -221c0 -126 90 -221 208 -221z" />
    <glyph glyph-name="e" unicode="e" horiz-adv-x="573" 
d="M298 490c125 0 215 -91 215 -216v-16c0 -14 -6 -21 -19 -21h-402c1 -124 93 -218 214 -218c62 0 123 28 162 74c5 6 8 8 13 8c8 0 14 -6 14 -13c0 -5 -2 -9 -7 -15c-48 -54 -111 -83 -182 -83c-137 0 -246 111 -246 250c0 140 105 250 238 250zM298 461
c-108 0 -194 -84 -205 -196h389c4 112 -73 196 -184 196z" />
    <glyph glyph-name="eacute" unicode="&#xe9;" horiz-adv-x="573" 
d="M306 561c-6 0 -12 5 -12 12c0 1 0 4 2 8l84 184c3 7 8 11 16 11s14 -7 14 -13c0 -5 -2 -9 -4 -14l-86 -176c-4 -8 -8 -12 -14 -12zM298 490c125 0 215 -91 215 -216v-16c0 -14 -6 -21 -19 -21h-402c1 -124 93 -218 214 -218c62 0 123 28 162 74c5 6 8 8 13 8
c8 0 14 -6 14 -13c0 -5 -2 -9 -7 -15c-48 -54 -111 -83 -182 -83c-137 0 -246 111 -246 250c0 140 105 250 238 250zM298 461c-108 0 -194 -84 -205 -196h389c4 112 -73 196 -184 196z" />
    <glyph glyph-name="ebreve" unicode="&#x115;" horiz-adv-x="573" 
d="M301 593c-76 0 -135 58 -135 134c0 10 7 17 15 17s15 -7 15 -17c0 -60 46 -106 105 -106s105 46 105 106c0 10 7 17 15 17s15 -7 15 -17c0 -75 -59 -134 -135 -134zM298 490c125 0 215 -91 215 -216v-16c0 -14 -6 -21 -19 -21h-402c1 -124 93 -218 214 -218
c62 0 123 28 162 74c5 6 8 8 13 8c8 0 14 -6 14 -13c0 -5 -2 -9 -7 -15c-48 -54 -111 -83 -182 -83c-137 0 -246 111 -246 250c0 140 105 250 238 250zM298 461c-108 0 -194 -84 -205 -196h389c4 112 -73 196 -184 196z" />
    <glyph glyph-name="ecaron" unicode="&#x11b;" horiz-adv-x="573" 
d="M289 567l-125 187c-3 4 -4 7 -4 11c0 6 6 11 12 11s9 -3 11 -6l118 -173l118 173c2 3 5 6 11 6s12 -5 12 -11c0 -4 -1 -7 -4 -11l-125 -187c-3 -4 -7 -6 -12 -6s-9 2 -12 6zM298 490c125 0 215 -91 215 -216v-16c0 -14 -6 -21 -19 -21h-402c1 -124 93 -218 214 -218
c62 0 123 28 162 74c5 6 8 8 13 8c8 0 14 -6 14 -13c0 -5 -2 -9 -7 -15c-48 -54 -111 -83 -182 -83c-137 0 -246 111 -246 250c0 140 105 250 238 250zM298 461c-108 0 -194 -84 -205 -196h389c4 112 -73 196 -184 196z" />
    <glyph glyph-name="ecircumflex" unicode="&#xea;" horiz-adv-x="573" 
d="M172 561c-6 0 -12 5 -12 11c0 4 1 7 4 11l125 187c3 4 7 6 12 6s9 -2 12 -6l125 -187c3 -4 4 -7 4 -11c0 -6 -6 -11 -12 -11s-9 3 -11 6l-118 173l-118 -173c-2 -3 -5 -6 -11 -6zM298 490c125 0 215 -91 215 -216v-16c0 -14 -6 -21 -19 -21h-402c1 -124 93 -218 214 -218
c62 0 123 28 162 74c5 6 8 8 13 8c8 0 14 -6 14 -13c0 -5 -2 -9 -7 -15c-48 -54 -111 -83 -182 -83c-137 0 -246 111 -246 250c0 140 105 250 238 250zM298 461c-108 0 -194 -84 -205 -196h389c4 112 -73 196 -184 196z" />
    <glyph glyph-name="edieresis" unicode="&#xeb;" horiz-adv-x="573" 
d="M205 633c-19 0 -33 14 -33 33s14 33 33 33s33 -14 33 -33s-14 -33 -33 -33zM397 633c-19 0 -33 14 -33 33s14 33 33 33s33 -14 33 -33s-14 -33 -33 -33zM298 490c125 0 215 -91 215 -216v-16c0 -14 -6 -21 -19 -21h-402c1 -124 93 -218 214 -218c62 0 123 28 162 74
c5 6 8 8 13 8c8 0 14 -6 14 -13c0 -5 -2 -9 -7 -15c-48 -54 -111 -83 -182 -83c-137 0 -246 111 -246 250c0 140 105 250 238 250zM298 461c-108 0 -194 -84 -205 -196h389c4 112 -73 196 -184 196z" />
    <glyph glyph-name="edotaccent" unicode="&#x117;" horiz-adv-x="573" 
d="M301 633c-19 0 -33 14 -33 33s14 33 33 33s33 -14 33 -33s-14 -33 -33 -33zM298 490c125 0 215 -91 215 -216v-16c0 -14 -6 -21 -19 -21h-402c1 -124 93 -218 214 -218c62 0 123 28 162 74c5 6 8 8 13 8c8 0 14 -6 14 -13c0 -5 -2 -9 -7 -15c-48 -54 -111 -83 -182 -83
c-137 0 -246 111 -246 250c0 140 105 250 238 250zM298 461c-108 0 -194 -84 -205 -196h389c4 112 -73 196 -184 196z" />
    <glyph glyph-name="egrave" unicode="&#xe8;" horiz-adv-x="573" 
d="M282 573l-86 176c-2 5 -4 9 -4 14c0 6 6 13 14 13s13 -4 16 -11l84 -184c2 -4 2 -7 2 -8c0 -7 -6 -12 -12 -12s-10 4 -14 12zM298 490c125 0 215 -91 215 -216v-16c0 -14 -6 -21 -19 -21h-402c1 -124 93 -218 214 -218c62 0 123 28 162 74c5 6 8 8 13 8c8 0 14 -6 14 -13
c0 -5 -2 -9 -7 -15c-48 -54 -111 -83 -182 -83c-137 0 -246 111 -246 250c0 140 105 250 238 250zM298 461c-108 0 -194 -84 -205 -196h389c4 112 -73 196 -184 196z" />
    <glyph glyph-name="emacron" unicode="&#x113;" horiz-adv-x="573" 
d="M187 652c-8 0 -14 6 -14 14s6 14 14 14h228c8 0 14 -6 14 -14s-6 -14 -14 -14h-228zM298 490c125 0 215 -91 215 -216v-16c0 -14 -6 -21 -19 -21h-402c1 -124 93 -218 214 -218c62 0 123 28 162 74c5 6 8 8 13 8c8 0 14 -6 14 -13c0 -5 -2 -9 -7 -15
c-48 -54 -111 -83 -182 -83c-137 0 -246 111 -246 250c0 140 105 250 238 250zM298 461c-108 0 -194 -84 -205 -196h389c4 112 -73 196 -184 196z" />
    <glyph glyph-name="eogonek" unicode="&#x119;" horiz-adv-x="573" 
d="M298 490c125 0 215 -91 215 -216v-16c0 -14 -6 -21 -19 -21h-402c1 -124 93 -218 214 -218c62 0 123 28 162 74c5 6 8 8 13 8c8 0 14 -6 14 -13c0 -5 -2 -9 -7 -15c-15 -17 -32 -32 -50 -44l-10 -7c-105 -76 -135 -97 -135 -134c0 -31 26 -50 64 -50c28 0 43 6 51 6
s12 -5 12 -13c0 -7 -5 -11 -15 -14c-16 -5 -32 -7 -48 -7c-50 0 -95 26 -95 75c0 38 27 65 86 109c-13 -3 -28 -4 -42 -4c-137 0 -246 111 -246 250c0 140 105 250 238 250zM298 461c-108 0 -194 -84 -205 -196h389c4 112 -73 196 -184 196z" />
    <glyph glyph-name="f" unicode="f" horiz-adv-x="270" 
d="M278 757c10 -2 15 -7 15 -15s-6 -13 -14 -13c-6 0 -19 3 -39 3c-71 0 -107 -36 -107 -107v-145h120c8 0 14 -6 14 -14s-6 -14 -14 -14h-120v-447c0 -8 -7 -15 -15 -15s-15 6 -15 15v447h-59c-8 0 -14 6 -14 14s6 14 14 14h59v145c0 86 49 135 135 135c17 0 31 -1 40 -3z
" />
    <glyph glyph-name="g" unicode="g" horiz-adv-x="642" 
d="M528 480c8 0 15 -7 15 -15v-425c0 -138 -91 -230 -227 -230c-77 0 -155 31 -207 83c-5 5 -7 9 -7 13c0 8 7 15 14 15c4 0 8 -2 12 -6c48 -48 117 -76 188 -76c120 0 197 78 197 201v83c-32 -72 -113 -123 -207 -123c-133 0 -239 109 -239 245c0 137 106 246 239 246
c95 0 176 -51 207 -123v97c0 8 7 15 15 15zM308 29c122 0 205 87 205 216s-83 217 -205 217c-119 0 -209 -94 -209 -217s90 -216 209 -216z" />
    <glyph glyph-name="gbreve" unicode="&#x11f;" horiz-adv-x="642" 
d="M311 593c-76 0 -135 58 -135 134c0 10 7 17 15 17s15 -7 15 -17c0 -60 46 -106 105 -106s105 46 105 106c0 10 7 17 15 17s15 -7 15 -17c0 -75 -59 -134 -135 -134zM528 480c8 0 15 -7 15 -15v-425c0 -138 -91 -230 -227 -230c-77 0 -155 31 -207 83c-5 5 -7 9 -7 13
c0 8 7 15 14 15c4 0 8 -2 12 -6c48 -48 117 -76 188 -76c120 0 197 78 197 201v83c-32 -72 -113 -123 -207 -123c-133 0 -239 109 -239 245c0 137 106 246 239 246c95 0 176 -51 207 -123v97c0 8 7 15 15 15zM308 29c122 0 205 87 205 216s-83 217 -205 217
c-119 0 -209 -94 -209 -217s90 -216 209 -216z" />
    <glyph glyph-name="gcircumflex" unicode="&#x11d;" horiz-adv-x="642" 
d="M182 561c-6 0 -12 5 -12 11c0 4 1 7 4 11l125 187c3 4 7 6 12 6s9 -2 12 -6l125 -187c3 -4 4 -7 4 -11c0 -6 -6 -11 -12 -11s-9 3 -11 6l-118 173l-118 -173c-2 -3 -5 -6 -11 -6zM528 480c8 0 15 -7 15 -15v-425c0 -138 -91 -230 -227 -230c-77 0 -155 31 -207 83
c-5 5 -7 9 -7 13c0 8 7 15 14 15c4 0 8 -2 12 -6c48 -48 117 -76 188 -76c120 0 197 78 197 201v83c-32 -72 -113 -123 -207 -123c-133 0 -239 109 -239 245c0 137 106 246 239 246c95 0 176 -51 207 -123v97c0 8 7 15 15 15zM308 29c122 0 205 87 205 216s-83 217 -205 217
c-119 0 -209 -94 -209 -217s90 -216 209 -216z" />
    <glyph glyph-name="gcommaaccent" unicode="&#x123;" horiz-adv-x="642" 
d="M311 561c-9 0 -15 6 -15 16c0 32 0 123 38 189c3 5 7 10 14 10c6 0 12 -6 12 -12c0 -10 -19 -54 -23 -69c-11 -45 -11 -92 -11 -118c0 -10 -7 -16 -15 -16zM528 480c8 0 15 -7 15 -15v-425c0 -138 -91 -230 -227 -230c-77 0 -155 31 -207 83c-5 5 -7 9 -7 13
c0 8 7 15 14 15c4 0 8 -2 12 -6c48 -48 117 -76 188 -76c120 0 197 78 197 201v83c-32 -72 -113 -123 -207 -123c-133 0 -239 109 -239 245c0 137 106 246 239 246c95 0 176 -51 207 -123v97c0 8 7 15 15 15zM308 29c122 0 205 87 205 216s-83 217 -205 217
c-119 0 -209 -94 -209 -217s90 -216 209 -216z" />
    <glyph glyph-name="gdotaccent" unicode="&#x121;" horiz-adv-x="642" 
d="M311 633c-19 0 -33 14 -33 33s14 33 33 33s33 -14 33 -33s-14 -33 -33 -33zM528 480c8 0 15 -7 15 -15v-425c0 -138 -91 -230 -227 -230c-77 0 -155 31 -207 83c-5 5 -7 9 -7 13c0 8 7 15 14 15c4 0 8 -2 12 -6c48 -48 117 -76 188 -76c120 0 197 78 197 201v83
c-32 -72 -113 -123 -207 -123c-133 0 -239 109 -239 245c0 137 106 246 239 246c95 0 176 -51 207 -123v97c0 8 7 15 15 15zM308 29c122 0 205 87 205 216s-83 217 -205 217c-119 0 -209 -94 -209 -217s90 -216 209 -216z" />
    <glyph glyph-name="h" unicode="h" horiz-adv-x="551" 
d="M286 490c106 0 174 -72 174 -185v-300c0 -8 -7 -15 -15 -15s-15 7 -15 15v300c0 94 -57 156 -145 156c-90 0 -156 -65 -156 -156v-300c0 -8 -7 -15 -15 -15s-15 7 -15 15v740c0 8 7 15 15 15s15 -7 15 -15v-342c31 55 86 87 157 87z" />
    <glyph glyph-name="hbar" unicode="&#x127;" horiz-adv-x="551" 
d="M286 490c106 0 174 -72 174 -185v-300c0 -8 -7 -15 -15 -15s-15 7 -15 15v300c0 94 -57 156 -145 156c-90 0 -156 -65 -156 -156v-300c0 -8 -7 -15 -15 -15s-15 7 -15 15v599h-74c-8 0 -14 6 -14 14s6 14 14 14h74v113c0 9 7 15 15 15s15 -7 15 -15v-113h198
c8 0 14 -6 14 -14s-6 -14 -14 -14h-198v-201c31 55 86 87 157 87z" />
    <glyph glyph-name="hcircumflex" unicode="&#x125;" horiz-adv-x="551" 
d="M257 820l-129 132l-129 -132c-4 -4 -7 -6 -11 -6c-8 0 -14 6 -14 14c0 4 2 7 5 10l138 146c3 3 7 5 11 5s8 -2 11 -5l138 -146c3 -3 5 -6 5 -10c0 -8 -6 -14 -14 -14c-4 0 -7 2 -11 6zM286 490c106 0 174 -72 174 -185v-300c0 -8 -7 -15 -15 -15s-15 7 -15 15v300
c0 94 -57 156 -145 156c-90 0 -156 -65 -156 -156v-300c0 -8 -7 -15 -15 -15s-15 7 -15 15v740c0 8 7 15 15 15s15 -7 15 -15v-342c31 55 86 87 157 87z" />
    <glyph glyph-name="i" unicode="i" horiz-adv-x="228" 
d="M114 699c19 0 33 -14 33 -33s-14 -33 -33 -33s-33 14 -33 33s14 33 33 33zM114 -10c-8 0 -15 7 -15 15v470c0 8 6 15 15 15c8 0 15 -7 15 -15v-470c0 -8 -7 -15 -15 -15z" />
    <glyph glyph-name="dotlessi" unicode="&#x131;" horiz-adv-x="228" 
d="M114 -10c-8 0 -15 7 -15 15v470c0 8 6 15 15 15c8 0 15 -7 15 -15v-470c0 -8 -7 -15 -15 -15z" />
    <glyph glyph-name="iacute" unicode="&#xed;" horiz-adv-x="228" 
d="M124 558c-6 -1 -13 3 -14 10c0 1 -1 4 0 8l51 196c2 7 6 12 14 13c8 2 15 -4 16 -10c1 -5 0 -9 -1 -14l-55 -189c-2 -8 -5 -13 -11 -14zM114 -10c-8 0 -15 7 -15 15v470c0 8 6 15 15 15c8 0 15 -7 15 -15v-470c0 -8 -7 -15 -15 -15z" />
    <glyph glyph-name="ibreve" unicode="&#x12d;" horiz-adv-x="228" 
d="M114 593c-76 0 -135 58 -135 134c0 10 7 17 15 17s15 -7 15 -17c0 -60 46 -106 105 -106s105 46 105 106c0 10 7 17 15 17s15 -7 15 -17c0 -75 -59 -134 -135 -134zM114 -10c-8 0 -15 7 -15 15v470c0 8 6 15 15 15c8 0 15 -7 15 -15v-470c0 -8 -7 -15 -15 -15z" />
    <glyph glyph-name="icircumflex" unicode="&#xee;" horiz-adv-x="228" 
d="M251 583c3 -4 4 -7 4 -11c0 -6 -6 -11 -12 -11s-9 3 -11 6l-118 173l-118 -173c-2 -3 -5 -6 -11 -6s-12 5 -12 11c0 4 1 7 4 11l125 187c3 4 7 6 12 6s9 -2 12 -6zM114 490c8 0 15 -7 15 -15v-470c0 -8 -7 -15 -15 -15s-15 7 -15 15v470c0 8 6 15 15 15z" />
    <glyph glyph-name="idieresis" unicode="&#xef;" horiz-adv-x="228" 
d="M33 633c-19 0 -33 14 -33 33s14 33 33 33s33 -14 33 -33s-14 -33 -33 -33zM194 633c-19 0 -33 14 -33 33s14 33 33 33s33 -14 33 -33s-14 -33 -33 -33zM114 -10c-8 0 -15 7 -15 15v470c0 8 6 15 15 15c8 0 15 -7 15 -15v-470c0 -8 -7 -15 -15 -15z" />
    <glyph glyph-name="igrave" unicode="&#xec;" horiz-adv-x="228" 
d="M101 553c-6 1 -8 6 -10 15l-38 192c0 5 -1 10 0 15c2 5 9 11 17 9s11 -8 13 -15l33 -200c1 -4 0 -7 0 -8c-2 -7 -9 -10 -15 -8zM114 -10c-8 0 -15 7 -15 15v470c0 8 6 15 15 15c8 0 15 -7 15 -15v-470c0 -8 -7 -15 -15 -15z" />
    <glyph glyph-name="ij" unicode="&#x133;" horiz-adv-x="456" 
d="M114 699c19 0 33 -14 33 -33s-14 -33 -33 -33s-33 14 -33 33s14 33 33 33zM342 699c19 0 33 -14 33 -33s-14 -33 -33 -33s-33 14 -33 33s14 33 33 33zM114 -10c-8 0 -15 7 -15 15v470c0 8 6 15 15 15c8 0 15 -7 15 -15v-470c0 -8 -7 -15 -15 -15zM221 -190
c-16 0 -28 1 -40 4c-8 2 -14 7 -14 15c0 7 6 13 14 13c7 0 20 -4 38 -4c59 0 108 23 108 107v530c0 8 6 15 15 15c8 0 15 -7 15 -15v-530c0 -99 -60 -135 -136 -135z" />
    <glyph glyph-name="imacron" unicode="&#x12b;" horiz-adv-x="228" 
d="M198 680c8 0 14 -6 14 -14s-6 -14 -14 -14h-168c-8 0 -14 6 -14 14s6 14 14 14h168zM114 -10c-8 0 -15 7 -15 15v470c0 8 6 15 15 15c8 0 15 -7 15 -15v-470c0 -8 -7 -15 -15 -15z" />
    <glyph glyph-name="iogonek" unicode="&#x12f;" horiz-adv-x="228" 
d="M114 699c19 0 33 -14 33 -33s-14 -33 -33 -33s-33 14 -33 33s14 33 33 33zM120 -156c8 0 12 -5 12 -13c0 -7 -5 -11 -15 -14c-16 -5 -32 -7 -48 -7c-50 0 -95 26 -95 75c0 43 29 73 125 122v468c0 8 6 15 15 15c8 0 15 -7 15 -15v-470v-1c0 -5 -2 -9 -7 -12
c-94 -56 -117 -74 -117 -104c0 -31 26 -50 64 -50c28 0 43 6 51 6z" />
    <glyph glyph-name="itilde" unicode="&#x129;" horiz-adv-x="228" 
d="M174 609c-21 0 -38 10 -58 34l-21 25c-16 20 -26 26 -40 26c-21 0 -32 -18 -32 -51c0 -11 -6 -18 -15 -18s-15 7 -15 18c0 47 25 79 61 79c21 0 38 -10 58 -34l21 -25c16 -20 26 -26 40 -26c21 0 32 18 32 51c0 11 6 18 15 18s15 -7 15 -18c0 -47 -25 -79 -61 -79z
M114 -10c-8 0 -15 7 -15 15v470c0 8 6 15 15 15c8 0 15 -7 15 -15v-470c0 -8 -7 -15 -15 -15z" />
    <glyph glyph-name="j" unicode="j" horiz-adv-x="228" 
d="M114 699c19 0 33 -14 33 -33s-14 -33 -33 -33s-33 14 -33 33s14 33 33 33zM-7 -190c-16 0 -28 1 -40 4c-8 2 -14 7 -14 15c0 7 6 13 14 13c7 0 20 -4 38 -4c59 0 108 23 108 107v530c0 8 6 15 15 15c8 0 15 -7 15 -15v-530c0 -99 -60 -135 -136 -135z" />
    <glyph glyph-name="uni0237" unicode="&#x237;" horiz-adv-x="228" 
d="M-7 -190c-16 0 -28 1 -40 4c-8 2 -14 7 -14 15c0 7 6 13 14 13c7 0 20 -4 38 -4c59 0 108 23 108 107v530c0 8 6 15 15 15c8 0 15 -7 15 -15v-530c0 -99 -60 -135 -136 -135z" />
    <glyph glyph-name="jcircumflex" unicode="&#x135;" horiz-adv-x="228" 
d="M251 583c3 -4 4 -7 4 -11c0 -6 -6 -11 -12 -11s-9 3 -11 6l-118 173l-118 -173c-2 -3 -5 -6 -11 -6s-12 5 -12 11c0 4 1 7 4 11l125 187c3 4 7 6 12 6s9 -2 12 -6zM114 490c8 0 15 -7 15 -15v-530c0 -99 -60 -135 -136 -135c-16 0 -28 1 -40 4c-8 2 -14 7 -14 15
c0 7 6 13 14 13c7 0 20 -4 38 -4c59 0 108 23 108 107v530c0 8 6 15 15 15z" />
    <glyph glyph-name="k" unicode="k" horiz-adv-x="463" 
d="M114 750c8 0 15 -7 15 -15v-720c0 -8 -7 -15 -15 -15s-15 7 -15 15v720c0 8 6 15 15 15zM428 16c4 -4 5 -8 5 -12c0 -8 -6 -14 -14 -14c-5 0 -9 2 -13 6l-246 262c-4 4 -6 8 -6 12s2 8 7 12l221 203c4 4 8 5 12 5c8 0 14 -6 14 -14c0 -5 -2 -9 -6 -13l-212 -194z" />
    <glyph glyph-name="kcommaaccent" unicode="&#x137;" horiz-adv-x="463" 
d="M114 750c8 0 15 -7 15 -15v-720c0 -8 -7 -15 -15 -15s-15 7 -15 15v720c0 8 6 15 15 15zM428 16c4 -4 5 -8 5 -12c0 -8 -6 -14 -14 -14c-5 0 -9 2 -13 6l-246 262c-4 4 -6 8 -6 12s2 8 7 12l221 203c4 4 8 5 12 5c8 0 14 -6 14 -14c0 -5 -2 -9 -6 -13l-212 -194zM232 -48
c8 0 15 -7 15 -15c-1 -78 -15 -128 -18 -143c-2 -9 -7 -14 -13 -14c-8 0 -15 6 -12 16c5 18 13 64 13 141c0 8 7 15 15 15z" />
    <glyph glyph-name="l" unicode="l" horiz-adv-x="228" 
d="M114 -10c-8 0 -15 7 -15 15v740c0 8 7 15 15 15s15 -7 15 -15v-740c0 -8 -6 -15 -15 -15z" />
    <glyph glyph-name="lacute" unicode="&#x13a;" horiz-adv-x="228" 
d="M122 818c-8 0 -16 9 -11 18l82 158c4 8 11 9 14 9c11 0 18 -11 11 -24l-84 -153c-3 -5 -6 -8 -12 -8zM114 -10c-8 0 -15 7 -15 15v740c0 8 7 15 15 15s15 -7 15 -15v-740c0 -8 -6 -15 -15 -15z" />
    <glyph glyph-name="lcaron" unicode="&#x13e;" horiz-adv-x="316" 
d="M114 -10c-8 0 -15 7 -15 15v740c0 8 7 15 15 15s15 -7 15 -15v-740c0 -8 -6 -15 -15 -15zM253 530c-8 0 -14 7 -13 15l24 198c2 13 8 17 16 17s16 -7 15 -17l-30 -202c-1 -5 -5 -11 -12 -11z" />
    <glyph glyph-name="lcommaaccent" unicode="&#x13c;" horiz-adv-x="228" 
d="M114 -10c-8 0 -15 7 -15 15v740c0 8 7 15 15 15s15 -7 15 -15v-740c0 -8 -6 -15 -15 -15zM99 -220c-8 0 -15 6 -12 16c5 18 13 64 13 141c0 8 7 15 15 15s15 -7 15 -15c-1 -78 -15 -128 -18 -143c-2 -9 -7 -14 -13 -14z" />
    <glyph glyph-name="ldot" unicode="&#x140;" horiz-adv-x="231" 
d="M114 -10c-8 0 -15 7 -15 15v740c0 8 7 15 15 15s15 -7 15 -15v-740c0 -8 -6 -15 -15 -15zM230 270c-18 0 -38 14 -38 38c0 26 20 40 38 40c20 0 40 -14 40 -40c0 -24 -20 -38 -40 -38z" />
    <glyph glyph-name="lslash" unicode="&#x142;" horiz-adv-x="228" 
d="M206 441c8 0 13 -7 13 -14c0 -5 -2 -9 -8 -12l-82 -39v-371c0 -8 -7 -15 -15 -15s-15 7 -15 15v359l-69 -31c-6 -3 -8 -3 -10 -3c-8 0 -13 7 -13 14c0 5 2 9 8 12l84 39v350c0 8 6 15 15 15c8 0 15 -7 15 -15v-338l67 31c6 3 8 3 10 3z" />
    <glyph glyph-name="m" unicode="m" horiz-adv-x="860" 
d="M601 490c103 0 168 -71 168 -185v-300c0 -8 -7 -15 -15 -15s-15 7 -15 15v300c0 95 -54 156 -138 156c-85 0 -152 -64 -152 -147v-309c0 -8 -7 -15 -15 -15s-15 7 -15 15v300c0 95 -54 156 -139 156c-88 0 -151 -65 -151 -156v-300c0 -8 -7 -15 -15 -15s-15 7 -15 15v470
c0 8 7 15 15 15s15 -7 15 -15v-70c30 53 84 85 152 85c75 0 130 -37 154 -103c29 63 91 103 166 103z" />
    <glyph glyph-name="n" unicode="n" horiz-adv-x="551" 
d="M286 490c106 0 174 -72 174 -185v-300c0 -8 -7 -15 -15 -15s-15 7 -15 15v300c0 94 -57 156 -145 156c-90 0 -156 -65 -156 -156v-300c0 -8 -7 -15 -15 -15s-15 7 -15 15v470c0 8 7 15 15 15s15 -7 15 -15v-72c31 55 86 87 157 87z" />
    <glyph glyph-name="nacute" unicode="&#x144;" horiz-adv-x="551" 
d="M289 561c-6 0 -12 5 -12 12c0 1 0 4 2 8l84 184c3 7 8 11 16 11s14 -7 14 -13c0 -5 -2 -9 -4 -14l-86 -176c-4 -8 -8 -12 -14 -12zM286 490c106 0 174 -72 174 -185v-300c0 -8 -7 -15 -15 -15s-15 7 -15 15v300c0 94 -57 156 -145 156c-90 0 -156 -65 -156 -156v-300
c0 -8 -7 -15 -15 -15s-15 7 -15 15v470c0 8 7 15 15 15s15 -7 15 -15v-72c31 55 86 87 157 87z" />
    <glyph glyph-name="ncaron" unicode="&#x148;" horiz-adv-x="551" 
d="M272 567l-125 187c-3 4 -4 7 -4 11c0 6 6 11 12 11s9 -3 11 -6l118 -173l118 173c2 3 5 6 11 6s12 -5 12 -11c0 -4 -1 -7 -4 -11l-125 -187c-3 -4 -7 -6 -12 -6s-9 2 -12 6zM286 490c106 0 174 -72 174 -185v-300c0 -8 -7 -15 -15 -15s-15 7 -15 15v300
c0 94 -57 156 -145 156c-90 0 -156 -65 -156 -156v-300c0 -8 -7 -15 -15 -15s-15 7 -15 15v470c0 8 7 15 15 15s15 -7 15 -15v-72c31 55 86 87 157 87z" />
    <glyph glyph-name="ncommaaccent" unicode="&#x146;" horiz-adv-x="551" 
d="M286 490c106 0 174 -72 174 -185v-300c0 -8 -7 -15 -15 -15s-15 7 -15 15v300c0 94 -57 156 -145 156c-90 0 -156 -65 -156 -156v-300c0 -8 -7 -15 -15 -15s-15 7 -15 15v470c0 8 7 15 15 15s15 -7 15 -15v-72c31 55 86 87 157 87zM285 -48c8 0 15 -7 15 -15
c-1 -78 -15 -128 -18 -143c-2 -9 -7 -14 -13 -14c-8 0 -15 6 -12 16c5 18 13 64 13 141c0 8 7 15 15 15z" />
    <glyph glyph-name="eng" unicode="&#x14b;" horiz-adv-x="551" 
d="M286 490c106 0 174 -72 174 -185v-360c0 -87 -48 -135 -136 -135c-16 0 -28 1 -40 4c-8 2 -14 7 -14 15c0 7 6 13 14 13c7 0 20 -4 38 -4c72 0 108 36 108 107v360c0 94 -57 156 -145 156c-90 0 -156 -65 -156 -156v-300c0 -8 -7 -15 -15 -15s-15 7 -15 15v470
c0 8 7 15 15 15s15 -7 15 -15v-72c31 55 86 87 157 87z" />
    <glyph glyph-name="ntilde" unicode="&#xf1;" horiz-adv-x="551" 
d="M171 625c-9 0 -15 7 -15 18c0 47 25 79 61 79c23 0 43 -10 63 -33l25 -27c18 -19 28 -25 43 -25c22 0 34 19 34 51c0 11 6 18 15 18s15 -7 15 -18c0 -47 -25 -79 -61 -79c-23 0 -43 10 -63 33l-25 27c-18 19 -28 25 -43 25c-22 0 -34 -18 -34 -51c0 -11 -6 -18 -15 -18z
M286 490c106 0 174 -72 174 -185v-300c0 -8 -7 -15 -15 -15s-15 7 -15 15v300c0 94 -57 156 -145 156c-90 0 -156 -65 -156 -156v-300c0 -8 -7 -15 -15 -15s-15 7 -15 15v470c0 8 7 15 15 15s15 -7 15 -15v-72c31 55 86 87 157 87z" />
    <glyph glyph-name="o" unicode="o" horiz-adv-x="613" 
d="M306 490c138 0 247 -110 247 -250s-110 -250 -248 -250c-137 0 -245 110 -245 250c0 141 108 250 246 250zM306 461c-121 0 -214 -96 -214 -221s92 -221 213 -221c122 0 216 97 216 221c0 125 -94 221 -215 221z" />
    <glyph glyph-name="oacute" unicode="&#xf3;" horiz-adv-x="613" 
d="M312 561c-6 0 -12 5 -12 12c0 1 0 4 2 8l84 184c3 7 8 11 16 11s14 -7 14 -13c0 -5 -2 -9 -4 -14l-86 -176c-4 -8 -8 -12 -14 -12zM306 490c138 0 247 -110 247 -250s-110 -250 -248 -250c-137 0 -245 110 -245 250c0 141 108 250 246 250zM306 461
c-121 0 -214 -96 -214 -221s92 -221 213 -221c122 0 216 97 216 221c0 125 -94 221 -215 221z" />
    <glyph glyph-name="obreve" unicode="&#x14f;" horiz-adv-x="613" 
d="M307 593c-76 0 -135 58 -135 134c0 10 7 17 15 17s15 -7 15 -17c0 -60 46 -106 105 -106s105 46 105 106c0 10 7 17 15 17s15 -7 15 -17c0 -75 -59 -134 -135 -134zM306 490c138 0 247 -110 247 -250s-110 -250 -248 -250c-137 0 -245 110 -245 250
c0 141 108 250 246 250zM306 461c-121 0 -214 -96 -214 -221s92 -221 213 -221c122 0 216 97 216 221c0 125 -94 221 -215 221z" />
    <glyph glyph-name="ocircumflex" unicode="&#xf4;" horiz-adv-x="613" 
d="M178 561c-6 0 -12 5 -12 11c0 4 1 7 4 11l125 187c3 4 7 6 12 6s9 -2 12 -6l125 -187c3 -4 4 -7 4 -11c0 -6 -6 -11 -12 -11s-9 3 -11 6l-118 173l-118 -173c-2 -3 -5 -6 -11 -6zM306 490c138 0 247 -110 247 -250s-110 -250 -248 -250c-137 0 -245 110 -245 250
c0 141 108 250 246 250zM305 19c122 0 216 97 216 221c0 125 -94 221 -215 221s-214 -96 -214 -221s92 -221 213 -221z" />
    <glyph glyph-name="odieresis" unicode="&#xf6;" horiz-adv-x="613" 
d="M211 699c19 0 33 -14 33 -33s-14 -33 -33 -33s-33 14 -33 33s14 33 33 33zM403 699c19 0 33 -14 33 -33s-14 -33 -33 -33s-33 14 -33 33s14 33 33 33zM306 490c138 0 247 -110 247 -250s-110 -250 -248 -250c-137 0 -245 110 -245 250c0 141 108 250 246 250zM306 461
c-121 0 -214 -96 -214 -221s92 -221 213 -221c122 0 216 97 216 221c0 125 -94 221 -215 221z" />
    <glyph glyph-name="ograve" unicode="&#xf2;" horiz-adv-x="613" 
d="M302 561c-6 0 -10 4 -14 12l-86 176c-2 5 -4 9 -4 14c0 6 6 13 14 13s13 -4 16 -11l84 -184c2 -4 2 -7 2 -8c0 -7 -6 -12 -12 -12zM306 490c138 0 247 -110 247 -250s-110 -250 -248 -250c-137 0 -245 110 -245 250c0 141 108 250 246 250zM306 461
c-121 0 -214 -96 -214 -221s92 -221 213 -221c122 0 216 97 216 221c0 125 -94 221 -215 221z" />
    <glyph glyph-name="ohungarumlaut" unicode="&#x151;" horiz-adv-x="613" 
d="M247 561c-6 0 -12 5 -12 12c0 1 0 4 2 8l84 184c3 7 8 11 16 11s14 -7 14 -13c0 -5 -2 -9 -4 -14l-86 -176c-4 -8 -8 -12 -14 -12zM381 561c-6 0 -12 5 -12 12c0 1 0 4 2 8l84 184c3 7 8 11 16 11s14 -7 14 -13c0 -5 -2 -9 -4 -14l-86 -176c-4 -8 -8 -12 -14 -12z
M306 490c138 0 247 -110 247 -250s-110 -250 -248 -250c-137 0 -245 110 -245 250c0 141 108 250 246 250zM306 461c-121 0 -214 -96 -214 -221s92 -221 213 -221c122 0 216 97 216 221c0 125 -94 221 -215 221z" />
    <glyph glyph-name="omacron" unicode="&#x14d;" horiz-adv-x="613" 
d="M421 680c8 0 14 -6 14 -14s-6 -14 -14 -14h-228c-8 0 -14 6 -14 14s6 14 14 14h228zM306 490c138 0 247 -110 247 -250s-110 -250 -248 -250c-137 0 -245 110 -245 250c0 141 108 250 246 250zM306 461c-121 0 -214 -96 -214 -221s92 -221 213 -221c122 0 216 97 216 221
c0 125 -94 221 -215 221z" />
    <glyph glyph-name="oslash" unicode="&#xf8;" horiz-adv-x="627" 
d="M557 463l-58 -59c38 -43 61 -101 61 -164c0 -138 -111 -250 -248 -250c-63 0 -120 24 -163 64l-58 -58c-4 -4 -8 -6 -12 -6c-8 0 -15 7 -15 15c0 4 2 8 6 12l58 58c-38 44 -61 102 -61 165c0 139 109 250 246 250c64 0 122 -24 166 -64l57 58c4 4 8 6 12 6
c8 0 15 -7 15 -15c0 -4 -2 -8 -6 -12zM313 461c-122 0 -214 -97 -214 -221c0 -55 19 -105 50 -144l309 309c-38 35 -88 56 -145 56zM312 19c123 0 216 98 216 221c0 55 -18 105 -50 143l-309 -309c38 -34 87 -55 143 -55z" />
    <glyph glyph-name="oslashacute" unicode="&#x1ff;" horiz-adv-x="627" 
d="M319 561c-6 0 -12 5 -12 12c0 1 0 4 2 8l84 184c3 7 8 11 16 11s14 -7 14 -13c0 -5 -2 -9 -4 -14l-86 -176c-4 -8 -8 -12 -14 -12zM557 463l-58 -59c38 -43 61 -101 61 -164c0 -138 -111 -250 -248 -250c-63 0 -120 24 -163 64l-58 -58c-4 -4 -8 -6 -12 -6
c-8 0 -15 7 -15 15c0 4 2 8 6 12l58 58c-38 44 -61 102 -61 165c0 139 109 250 246 250c64 0 122 -24 166 -64l57 58c4 4 8 6 12 6c8 0 15 -7 15 -15c0 -4 -2 -8 -6 -12zM313 461c-122 0 -214 -97 -214 -221c0 -55 19 -105 50 -144l309 309c-38 35 -88 56 -145 56zM312 19
c123 0 216 98 216 221c0 55 -18 105 -50 143l-309 -309c38 -34 87 -55 143 -55z" />
    <glyph glyph-name="otilde" unicode="&#xf5;" horiz-adv-x="613" 
d="M374 609c-23 0 -43 10 -63 33l-25 27c-18 19 -28 25 -43 25c-22 0 -34 -18 -34 -51c0 -11 -6 -18 -15 -18s-15 7 -15 18c0 47 25 79 61 79c23 0 43 -10 63 -33l25 -27c18 -19 28 -25 43 -25c22 0 34 19 34 51c0 11 6 18 15 18s15 -7 15 -18c0 -47 -25 -79 -61 -79z
M306 490c138 0 247 -110 247 -250s-110 -250 -248 -250c-137 0 -245 110 -245 250c0 141 108 250 246 250zM306 461c-121 0 -214 -96 -214 -221s92 -221 213 -221c122 0 216 97 216 221c0 125 -94 221 -215 221z" />
    <glyph glyph-name="oe" unicode="&#x153;" horiz-adv-x="1014" 
d="M739 490c125 0 215 -91 215 -216v-16c0 -14 -6 -21 -19 -21h-392c1 -127 86 -218 204 -218c62 0 123 28 162 74c5 6 8 8 13 8c8 0 14 -6 14 -13c0 -5 -2 -9 -7 -15c-44 -54 -108 -83 -182 -83c-103 0 -187 63 -220 157c-34 -93 -119 -157 -222 -157
c-136 0 -245 112 -245 250c0 139 109 250 246 250c102 0 186 -63 220 -156c33 93 114 156 213 156zM305 19c119 0 206 94 206 221c0 128 -86 221 -205 221c-121 0 -214 -96 -214 -221c0 -124 93 -221 213 -221zM739 461c-105 0 -185 -82 -195 -196h379
c4 112 -73 196 -184 196z" />
    <glyph glyph-name="p" unicode="p" horiz-adv-x="635" 
d="M335 490c134 0 240 -110 240 -250c0 -141 -105 -250 -240 -250c-95 0 -175 52 -206 126v-291c0 -8 -7 -15 -15 -15s-15 7 -15 15v650c0 8 7 15 15 15s15 -7 15 -15v-111c31 74 111 126 206 126zM335 19c119 0 208 94 208 221c0 126 -90 221 -208 221
c-124 0 -206 -88 -206 -221s82 -221 206 -221z" />
    <glyph glyph-name="thorn" unicode="&#xfe;" horiz-adv-x="635" 
d="M335 490c134 0 240 -110 240 -250c0 -141 -105 -250 -240 -250c-95 0 -175 52 -206 126v-291c0 -8 -7 -15 -15 -15s-15 7 -15 15v920c0 9 7 15 15 15s15 -7 15 -15v-381c31 74 111 126 206 126zM335 19c119 0 208 94 208 221c0 126 -90 221 -208 221
c-124 0 -206 -88 -206 -221s82 -221 206 -221z" />
    <glyph glyph-name="q" unicode="q" horiz-adv-x="635" 
d="M521 490c8 0 15 -7 15 -15v-650c0 -8 -7 -15 -15 -15s-15 7 -15 15v291c-31 -74 -111 -126 -206 -126c-135 0 -240 109 -240 250c0 140 106 250 240 250c95 0 175 -52 206 -126v111c0 8 7 15 15 15zM300 19c124 0 206 88 206 221s-82 221 -206 221
c-118 0 -208 -95 -208 -221c0 -127 89 -221 208 -221z" />
    <glyph glyph-name="r" unicode="r" horiz-adv-x="341" 
d="M310 484c10 0 17 -5 17 -14s-7 -15 -17 -15c-104 0 -181 -74 -181 -175v-275c0 -8 -7 -15 -15 -15s-15 7 -15 15v470c0 8 7 15 15 15s15 -7 15 -15v-92c33 65 97 101 181 101z" />
    <glyph glyph-name="racute" unicode="&#x155;" horiz-adv-x="341" 
d="M152 561c-6 0 -12 5 -12 12c0 1 0 4 2 8l84 184c3 7 8 11 16 11s14 -7 14 -13c0 -5 -2 -9 -4 -14l-86 -176c-4 -8 -8 -12 -14 -12zM310 484c10 0 17 -5 17 -14s-7 -15 -17 -15c-104 0 -181 -74 -181 -175v-275c0 -8 -7 -15 -15 -15s-15 7 -15 15v470c0 8 7 15 15 15
s15 -7 15 -15v-92c33 65 97 101 181 101z" />
    <glyph glyph-name="rcaron" unicode="&#x159;" horiz-adv-x="341" 
d="M147 561c-5 0 -9 2 -12 6l-125 187c-3 4 -4 7 -4 11c0 6 6 11 12 11s9 -3 11 -6l118 -173l118 173c2 3 5 6 11 6s12 -5 12 -11c0 -4 -1 -7 -4 -11l-125 -187c-3 -4 -7 -6 -12 -6zM310 484c10 0 17 -5 17 -14s-7 -15 -17 -15c-104 0 -181 -74 -181 -175v-275
c0 -8 -7 -15 -15 -15s-15 7 -15 15v470c0 8 7 15 15 15s15 -7 15 -15v-92c33 65 97 101 181 101z" />
    <glyph glyph-name="rcommaaccent" unicode="&#x157;" horiz-adv-x="341" 
d="M310 484c10 0 17 -5 17 -14s-7 -15 -17 -15c-104 0 -181 -74 -181 -175v-275c0 -8 -7 -15 -15 -15s-15 7 -15 15v470c0 8 7 15 15 15s15 -7 15 -15v-92c33 65 97 101 181 101zM115 -48c8 0 15 -7 15 -15c-1 -78 -15 -128 -18 -143c-2 -9 -7 -14 -13 -14
c-8 0 -15 6 -12 16c5 18 13 64 13 141c0 8 7 15 15 15z" />
    <glyph glyph-name="s" unicode="s" horiz-adv-x="455" 
d="M232 -10c-78 0 -140 43 -177 99c-2 3 -4 8 -4 11c0 8 7 16 16 16c5 0 9 -2 13 -7c40 -58 90 -90 154 -90c63 0 120 31 120 97c0 63 -52 86 -109 112l-42 19c-58 26 -117 55 -117 124c0 76 72 119 146 119c65 0 111 -31 142 -67c5 -6 8 -11 8 -14c0 -8 -6 -16 -14 -16
c-5 0 -9 2 -15 9c-33 38 -72 59 -123 59c-55 0 -112 -26 -112 -89c0 -54 43 -73 101 -99l45 -20c64 -29 122 -61 122 -135c0 -84 -74 -128 -154 -128z" />
    <glyph glyph-name="sacute" unicode="&#x15b;" horiz-adv-x="455" 
d="M237 561c-6 0 -12 5 -12 12c0 1 0 4 2 8l84 184c3 7 8 11 16 11s14 -7 14 -13c0 -5 -2 -9 -4 -14l-86 -176c-4 -8 -8 -12 -14 -12zM232 -10c-78 0 -140 43 -177 99c-2 3 -4 8 -4 11c0 8 7 16 16 16c5 0 9 -2 13 -7c40 -58 90 -90 154 -90c63 0 120 31 120 97
c0 63 -52 86 -109 112l-42 19c-58 26 -117 55 -117 124c0 76 72 119 146 119c65 0 111 -31 142 -67c5 -6 8 -11 8 -14c0 -8 -6 -16 -14 -16c-5 0 -9 2 -15 9c-33 38 -72 59 -123 59c-55 0 -112 -26 -112 -89c0 -54 43 -73 101 -99l45 -20c64 -29 122 -61 122 -135
c0 -84 -74 -128 -154 -128z" />
    <glyph glyph-name="scaron" unicode="&#x161;" horiz-adv-x="455" 
d="M220 567l-125 187c-3 4 -4 7 -4 11c0 6 6 11 12 11s9 -3 11 -6l118 -173l118 173c2 3 5 6 11 6s12 -5 12 -11c0 -4 -1 -7 -4 -11l-125 -187c-3 -4 -7 -6 -12 -6s-9 2 -12 6zM264 253c64 -29 122 -61 122 -135c0 -84 -74 -128 -154 -128c-78 0 -140 43 -177 99
c-2 3 -4 8 -4 11c0 8 7 16 16 16c5 0 9 -2 13 -7c40 -58 90 -90 154 -90c63 0 120 31 120 97c0 63 -52 86 -109 112l-42 19c-58 26 -117 55 -117 124c0 76 72 119 146 119c65 0 111 -31 142 -67c5 -6 8 -11 8 -14c0 -8 -6 -16 -14 -16c-5 0 -9 2 -15 9
c-33 38 -72 59 -123 59c-55 0 -112 -26 -112 -89c0 -54 43 -73 101 -99z" />
    <glyph glyph-name="scedilla" unicode="&#x15f;" horiz-adv-x="455" 
d="M386 118c0 -70 -51 -112 -114 -124c17 -19 32 -47 32 -81c0 -60 -47 -103 -112 -103c-18 0 -37 2 -51 6c-12 3 -16 9 -16 15c0 8 6 14 14 14c9 0 23 -7 50 -7c51 0 83 30 83 77c0 40 -19 62 -38 75h-2c-78 0 -140 43 -177 99c-2 3 -4 8 -4 11c0 8 7 16 16 16
c5 0 9 -2 13 -7c40 -58 90 -90 154 -90c63 0 120 31 120 97c0 63 -52 86 -109 112l-42 19c-58 26 -117 55 -117 124c0 76 72 119 146 119c65 0 111 -31 142 -67c5 -6 8 -11 8 -14c0 -8 -6 -16 -14 -16c-5 0 -9 2 -15 9c-33 38 -72 59 -123 59c-55 0 -112 -26 -112 -89
c0 -54 43 -73 101 -99l45 -20c64 -29 122 -61 122 -135z" />
    <glyph glyph-name="scircumflex" unicode="&#x15d;" horiz-adv-x="455" 
d="M103 561c-6 0 -12 5 -12 11c0 4 1 7 4 11l125 187c3 4 7 6 12 6s9 -2 12 -6l125 -187c3 -4 4 -7 4 -11c0 -6 -6 -11 -12 -11s-9 3 -11 6l-118 173l-118 -173c-2 -3 -5 -6 -11 -6zM264 253c64 -29 122 -61 122 -135c0 -84 -74 -128 -154 -128c-78 0 -140 43 -177 99
c-2 3 -4 8 -4 11c0 8 7 16 16 16c5 0 9 -2 13 -7c40 -58 90 -90 154 -90c63 0 120 31 120 97c0 63 -52 86 -109 112l-42 19c-58 26 -117 55 -117 124c0 76 72 119 146 119c65 0 111 -31 142 -67c5 -6 8 -11 8 -14c0 -8 -6 -16 -14 -16c-5 0 -9 2 -15 9
c-33 38 -72 59 -123 59c-55 0 -112 -26 -112 -89c0 -54 43 -73 101 -99z" />
    <glyph glyph-name="scommaaccent" unicode="&#x219;" horiz-adv-x="455" 
d="M232 -10c-78 0 -140 43 -177 99c-2 3 -4 8 -4 11c0 8 7 16 16 16c5 0 9 -2 13 -7c40 -58 90 -90 154 -90c63 0 120 31 120 97c0 63 -52 86 -109 112l-42 19c-58 26 -117 55 -117 124c0 76 72 119 146 119c65 0 111 -31 142 -67c5 -6 8 -11 8 -14c0 -8 -6 -16 -14 -16
c-5 0 -9 2 -15 9c-33 38 -72 59 -123 59c-55 0 -112 -26 -112 -89c0 -54 43 -73 101 -99l45 -20c64 -29 122 -61 122 -135c0 -84 -74 -128 -154 -128zM223 -220c-8 0 -15 6 -12 16c5 18 13 64 13 141c0 8 7 15 15 15s15 -7 15 -15c-1 -78 -15 -128 -18 -143
c-2 -9 -7 -14 -13 -14z" />
    <glyph glyph-name="germandbls" unicode="&#xdf;" horiz-adv-x="579" 
d="M393 -12c-60 0 -114 25 -152 70c-4 5 -6 9 -6 13c0 8 7 15 15 15c5 0 9 -2 14 -8c32 -40 77 -61 133 -61c74 0 119 35 119 93c0 42 -17 60 -99 106c-84 47 -104 68 -104 110c0 19 4 39 18 82l47 150c7 26 12 54 12 72c0 63 -41 101 -109 101c-93 0 -152 -69 -152 -177
v-549c0 -8 -7 -15 -15 -15s-15 7 -15 15v549c0 123 74 206 184 206c84 0 139 -51 139 -129c0 -20 -4 -44 -14 -79l-48 -152c-12 -41 -16 -58 -16 -74c0 -31 13 -44 85 -85c95 -54 119 -81 119 -132c0 -72 -63 -121 -155 -121z" />
    <glyph glyph-name="uni0259" unicode="&#x259;" horiz-adv-x="573" 
d="M267 490c137 0 246 -111 246 -250c0 -140 -105 -250 -238 -250c-125 0 -215 91 -215 216v16c0 14 6 21 19 21h402c-1 124 -93 218 -214 218c-62 0 -123 -28 -162 -74c-5 -6 -8 -8 -13 -8c-8 0 -14 6 -14 13c0 5 2 9 7 15c48 54 111 83 182 83zM275 19
c108 0 194 84 205 196h-389c-4 -112 73 -196 184 -196z" />
    <glyph glyph-name="t" unicode="t" horiz-adv-x="350" 
d="M313 25c8 0 14 -5 14 -13s-5 -12 -16 -15c-20 -5 -40 -7 -59 -7c-86 0 -135 49 -135 135v327h-73c-8 0 -15 6 -15 14s7 14 15 14h73v129c0 9 7 15 15 15s15 -7 15 -15v-129h147c8 0 15 -6 15 -14s-7 -14 -15 -14h-147v-327c0 -71 36 -107 107 -107c31 0 49 7 59 7z" />
    <glyph glyph-name="tbar" unicode="&#x167;" horiz-adv-x="364" 
d="M323 25c8 0 14 -5 14 -13s-5 -12 -16 -15c-20 -5 -40 -7 -59 -7c-86 0 -135 49 -135 135v111h-75c-8 0 -14 6 -14 14s6 14 14 14h75v188h-75c-8 0 -14 6 -14 14s6 14 14 14h75v129c0 9 7 15 15 15s15 -7 15 -15v-129h147c8 0 14 -6 14 -14s-6 -14 -14 -14h-147v-188h147
c8 0 14 -6 14 -14s-6 -14 -14 -14h-147v-111c0 -71 36 -107 107 -107c31 0 49 7 59 7z" />
    <glyph glyph-name="tcaron" unicode="&#x165;" horiz-adv-x="350" 
d="M267 530c-8 0 -14 7 -13 15l24 198c2 13 8 17 16 17s16 -7 15 -17l-30 -202c-1 -5 -5 -11 -12 -11zM313 25c8 0 14 -5 14 -13s-5 -12 -16 -15c-20 -5 -40 -7 -59 -7c-86 0 -135 49 -135 135v327h-73c-8 0 -15 6 -15 14s7 14 15 14h73v129c0 9 7 15 15 15s15 -7 15 -15
v-129h147c8 0 15 -6 15 -14s-7 -14 -15 -14h-147v-327c0 -71 36 -107 107 -107c31 0 49 7 59 7z" />
    <glyph glyph-name="uni0163" unicode="&#x163;" horiz-adv-x="350" 
d="M313 25c8 0 14 -5 14 -13s-5 -12 -16 -15c-20 -5 -40 -7 -59 -7c15 -19 28 -45 28 -77c0 -60 -47 -103 -112 -103c-18 0 -37 2 -51 6c-12 3 -16 9 -16 15c0 8 6 14 14 14c9 0 23 -7 50 -7c51 0 83 30 83 77c0 41 -20 63 -40 76c-4 3 -7 5 -9 7c-53 16 -82 61 -82 127v327
h-73c-8 0 -15 6 -15 14s7 14 15 14h73v129c0 9 7 15 15 15s15 -7 15 -15v-129h147c8 0 15 -6 15 -14s-7 -14 -15 -14h-147v-327c0 -71 36 -107 107 -107c31 0 49 7 59 7z" />
    <glyph glyph-name="u" unicode="u" horiz-adv-x="543" 
d="M272 -10c-106 0 -181 77 -181 185v300c0 8 7 15 15 15s15 -7 15 -15v-300c0 -93 61 -156 151 -156c89 0 150 63 150 156v300c0 9 7 15 15 15s15 -7 15 -15v-300c0 -108 -75 -185 -180 -185z" />
    <glyph glyph-name="uacute" unicode="&#xfa;" horiz-adv-x="543" 
d="M277 561c-6 0 -12 5 -12 12c0 1 0 4 2 8l84 184c3 7 8 11 16 11s14 -7 14 -13c0 -5 -2 -9 -4 -14l-86 -176c-4 -8 -8 -12 -14 -12zM272 -10c-106 0 -181 77 -181 185v300c0 8 7 15 15 15s15 -7 15 -15v-300c0 -93 61 -156 151 -156c89 0 150 63 150 156v300
c0 9 7 15 15 15s15 -7 15 -15v-300c0 -108 -75 -185 -180 -185z" />
    <glyph glyph-name="ubreve" unicode="&#x16d;" horiz-adv-x="543" 
d="M272 593c-76 0 -135 58 -135 134c0 10 7 17 15 17s15 -7 15 -17c0 -60 46 -106 105 -106s105 46 105 106c0 10 7 17 15 17s15 -7 15 -17c0 -75 -59 -134 -135 -134zM272 -10c-106 0 -181 77 -181 185v300c0 8 7 15 15 15s15 -7 15 -15v-300c0 -93 61 -156 151 -156
c89 0 150 63 150 156v300c0 9 7 15 15 15s15 -7 15 -15v-300c0 -108 -75 -185 -180 -185z" />
    <glyph glyph-name="uni01D4" unicode="&#x1d4;" horiz-adv-x="543" 
d="M260 567l-125 187c-3 4 -4 7 -4 11c0 6 6 11 12 11s9 -3 11 -6l118 -173l118 173c2 3 5 6 11 6s12 -5 12 -11c0 -4 -1 -7 -4 -11l-125 -187c-3 -4 -7 -6 -12 -6s-9 2 -12 6zM437 490c8 0 15 -7 15 -15v-300c0 -108 -75 -185 -180 -185c-106 0 -181 77 -181 185v300
c0 8 7 15 15 15s15 -7 15 -15v-300c0 -93 61 -156 151 -156c89 0 150 63 150 156v300c0 9 7 15 15 15z" />
    <glyph glyph-name="ucircumflex" unicode="&#xfb;" horiz-adv-x="543" 
d="M143 561c-6 0 -12 5 -12 11c0 4 1 7 4 11l125 187c3 4 7 6 12 6s9 -2 12 -6l125 -187c3 -4 4 -7 4 -11c0 -6 -6 -11 -12 -11s-9 3 -11 6l-118 173l-118 -173c-2 -3 -5 -6 -11 -6zM437 490c8 0 15 -7 15 -15v-300c0 -108 -75 -185 -180 -185c-106 0 -181 77 -181 185v300
c0 8 7 15 15 15s15 -7 15 -15v-300c0 -93 61 -156 151 -156c89 0 150 63 150 156v300c0 9 7 15 15 15z" />
    <glyph glyph-name="udieresis" unicode="&#xfc;" horiz-adv-x="543" 
d="M176 699c19 0 33 -14 33 -33s-14 -33 -33 -33s-33 14 -33 33s14 33 33 33zM368 699c19 0 33 -14 33 -33s-14 -33 -33 -33s-33 14 -33 33s14 33 33 33zM272 -10c-106 0 -181 77 -181 185v300c0 8 7 15 15 15s15 -7 15 -15v-300c0 -93 61 -156 151 -156
c89 0 150 63 150 156v300c0 9 7 15 15 15s15 -7 15 -15v-300c0 -108 -75 -185 -180 -185z" />
    <glyph glyph-name="ugrave" unicode="&#xf9;" horiz-adv-x="543" 
d="M267 561c-6 0 -10 4 -14 12l-86 176c-2 5 -4 9 -4 14c0 6 6 13 14 13s13 -4 16 -11l84 -184c2 -4 2 -7 2 -8c0 -7 -6 -12 -12 -12zM272 -10c-106 0 -181 77 -181 185v300c0 8 7 15 15 15s15 -7 15 -15v-300c0 -93 61 -156 151 -156c89 0 150 63 150 156v300
c0 9 7 15 15 15s15 -7 15 -15v-300c0 -108 -75 -185 -180 -185z" />
    <glyph glyph-name="uhungarumlaut" unicode="&#x171;" horiz-adv-x="543" 
d="M212 561c-6 0 -12 5 -12 12c0 1 0 4 2 8l84 184c3 7 8 11 16 11s14 -7 14 -13c0 -5 -2 -9 -4 -14l-86 -176c-4 -8 -8 -12 -14 -12zM346 561c-6 0 -12 5 -12 12c0 1 0 4 2 8l84 184c3 7 8 11 16 11s14 -7 14 -13c0 -5 -2 -9 -4 -14l-86 -176c-4 -8 -8 -12 -14 -12z
M272 -10c-106 0 -181 77 -181 185v300c0 8 7 15 15 15s15 -7 15 -15v-300c0 -93 61 -156 151 -156c89 0 150 63 150 156v300c0 9 7 15 15 15s15 -7 15 -15v-300c0 -108 -75 -185 -180 -185z" />
    <glyph glyph-name="umacron" unicode="&#x16b;" horiz-adv-x="543" 
d="M386 680c8 0 14 -6 14 -14s-6 -14 -14 -14h-228c-8 0 -14 6 -14 14s6 14 14 14h228zM272 -10c-106 0 -181 77 -181 185v300c0 8 7 15 15 15s15 -7 15 -15v-300c0 -93 61 -156 151 -156c89 0 150 63 150 156v300c0 9 7 15 15 15s15 -7 15 -15v-300
c0 -108 -75 -185 -180 -185z" />
    <glyph glyph-name="uni021B" unicode="&#x21b;" horiz-adv-x="350" 
d="M313 25c8 0 14 -5 14 -13s-5 -12 -16 -15c-20 -5 -40 -7 -59 -7c-86 0 -135 49 -135 135v327h-73c-8 0 -15 6 -15 14s7 14 15 14h73v129c0 9 7 15 15 15s15 -7 15 -15v-129h147c8 0 15 -6 15 -14s-7 -14 -15 -14h-147v-327c0 -71 36 -107 107 -107c31 0 49 7 59 7z
M215 -48c8 0 15 -7 15 -15c-1 -78 -15 -128 -18 -143c-2 -9 -7 -14 -13 -14c-8 0 -15 6 -12 16c5 18 13 64 13 141c0 8 7 15 15 15z" />
    <glyph glyph-name="uogonek" unicode="&#x173;" horiz-adv-x="543" 
d="M437 490c8 0 15 -7 15 -15v-300c0 -68 -30 -124 -78 -156l-34 -26c-63 -49 -82 -78 -82 -105c0 -31 26 -50 64 -50c28 0 43 6 51 6s12 -5 12 -13c0 -7 -5 -11 -15 -14c-16 -5 -32 -7 -48 -7c-50 0 -95 26 -95 75c0 32 17 62 71 107c-8 -1 -17 -2 -26 -2
c-106 0 -181 77 -181 185v300c0 8 7 15 15 15s15 -7 15 -15v-300c0 -93 61 -156 151 -156c89 0 150 63 150 156v300c0 9 7 15 15 15z" />
    <glyph glyph-name="uring" unicode="&#x16f;" horiz-adv-x="543" 
d="M272 763c54 0 98 -43 98 -97s-44 -97 -98 -97s-98 43 -98 97s44 97 98 97zM272 735c-39 0 -68 -30 -68 -69s29 -69 68 -69c38 0 68 30 68 69s-30 69 -68 69zM272 -10c-106 0 -181 77 -181 185v300c0 8 7 15 15 15s15 -7 15 -15v-300c0 -93 61 -156 151 -156
c89 0 150 63 150 156v300c0 9 7 15 15 15s15 -7 15 -15v-300c0 -108 -75 -185 -180 -185z" />
    <glyph glyph-name="utilde" unicode="&#x169;" horiz-adv-x="543" 
d="M339 609c-23 0 -43 10 -63 33l-25 27c-18 19 -28 25 -43 25c-22 0 -34 -18 -34 -51c0 -11 -6 -18 -15 -18s-15 7 -15 18c0 47 25 79 61 79c23 0 43 -10 63 -33l25 -27c18 -19 28 -25 43 -25c22 0 34 19 34 51c0 11 6 18 15 18s15 -7 15 -18c0 -47 -25 -79 -61 -79z
M272 -10c-106 0 -181 77 -181 185v300c0 8 7 15 15 15s15 -7 15 -15v-300c0 -93 61 -156 151 -156c89 0 150 63 150 156v300c0 9 7 15 15 15s15 -7 15 -15v-300c0 -108 -75 -185 -180 -185z" />
    <glyph glyph-name="v" unicode="v" horiz-adv-x="519" 
d="M466 490c8 0 15 -7 15 -15c0 -3 -1 -6 -2 -8l-206 -466c-3 -7 -8 -11 -14 -11s-11 4 -14 11l-205 466c-1 2 -2 5 -2 8c0 8 7 15 15 15s13 -5 16 -12l190 -438l191 438c3 7 8 12 16 12z" />
    <glyph glyph-name="w" unicode="w" horiz-adv-x="840" 
d="M786 490c8 0 15 -7 15 -15c0 -2 0 -4 -2 -9l-174 -466c-3 -7 -9 -10 -15 -10s-12 4 -15 10l-175 429l-175 -429c-3 -6 -9 -10 -15 -10s-12 3 -15 10l-174 466c-2 5 -2 7 -2 9c0 8 7 15 15 15c7 0 13 -5 15 -11l160 -441l176 441c3 7 9 11 15 11s12 -4 15 -11l176 -441
l160 441c2 6 8 11 15 11z" />
    <glyph glyph-name="wacute" unicode="&#x1e83;" horiz-adv-x="840" 
d="M426 561c-6 0 -12 5 -12 12c0 1 0 4 2 8l84 184c3 7 8 11 16 11s14 -7 14 -13c0 -5 -2 -9 -4 -14l-86 -176c-4 -8 -8 -12 -14 -12zM786 490c8 0 15 -7 15 -15c0 -2 0 -4 -2 -9l-174 -466c-3 -7 -9 -10 -15 -10s-12 4 -15 10l-175 429l-175 -429c-3 -6 -9 -10 -15 -10
s-12 3 -15 10l-174 466c-2 5 -2 7 -2 9c0 8 7 15 15 15c7 0 13 -5 15 -11l160 -441l176 441c3 7 9 11 15 11s12 -4 15 -11l176 -441l160 441c2 6 8 11 15 11z" />
    <glyph glyph-name="wcircumflex" unicode="&#x175;" horiz-adv-x="840" 
d="M292 561c-6 0 -12 5 -12 11c0 4 1 7 4 11l125 187c3 4 7 6 12 6s9 -2 12 -6l125 -187c3 -4 4 -7 4 -11c0 -6 -6 -11 -12 -11s-9 3 -11 6l-118 173l-118 -173c-2 -3 -5 -6 -11 -6zM786 490c8 0 15 -7 15 -15c0 -2 0 -4 -2 -9l-174 -466c-3 -7 -9 -10 -15 -10s-12 4 -15 10
l-175 429l-175 -429c-3 -6 -9 -10 -15 -10s-12 3 -15 10l-174 466c-2 5 -2 7 -2 9c0 8 7 15 15 15c7 0 13 -5 15 -11l160 -441l176 441c3 7 9 11 15 11s12 -4 15 -11l176 -441l160 441c2 6 8 11 15 11z" />
    <glyph glyph-name="wdieresis" unicode="&#x1e85;" horiz-adv-x="840" 
d="M325 633c-19 0 -33 14 -33 33s14 33 33 33s33 -14 33 -33s-14 -33 -33 -33zM517 633c-19 0 -33 14 -33 33s14 33 33 33s33 -14 33 -33s-14 -33 -33 -33zM786 490c8 0 15 -7 15 -15c0 -2 0 -4 -2 -9l-174 -466c-3 -7 -9 -10 -15 -10s-12 4 -15 10l-175 429l-175 -429
c-3 -6 -9 -10 -15 -10s-12 3 -15 10l-174 466c-2 5 -2 7 -2 9c0 8 7 15 15 15c7 0 13 -5 15 -11l160 -441l176 441c3 7 9 11 15 11s12 -4 15 -11l176 -441l160 441c2 6 8 11 15 11z" />
    <glyph glyph-name="wgrave" unicode="&#x1e81;" horiz-adv-x="840" 
d="M402 573l-86 176c-2 5 -4 9 -4 14c0 6 6 13 14 13s13 -4 16 -11l84 -184c2 -4 2 -7 2 -8c0 -7 -6 -12 -12 -12s-10 4 -14 12zM786 490c8 0 15 -7 15 -15c0 -2 0 -4 -2 -9l-174 -466c-3 -7 -9 -10 -15 -10s-12 4 -15 10l-175 429l-175 -429c-3 -6 -9 -10 -15 -10
s-12 3 -15 10l-174 466c-2 5 -2 7 -2 9c0 8 7 15 15 15c7 0 13 -5 15 -11l160 -441l176 441c3 7 9 11 15 11s12 -4 15 -11l176 -441l160 441c2 6 8 11 15 11z" />
    <glyph glyph-name="x" unicode="x" horiz-adv-x="467" 
d="M426 15c2 -3 4 -6 4 -10c0 -8 -7 -15 -15 -15c-5 0 -10 2 -14 8l-168 230l-167 -230c-4 -6 -9 -8 -14 -8c-8 0 -15 7 -15 15c0 4 2 7 4 10l173 237l-157 213c-2 3 -4 6 -4 10c0 8 7 15 15 15c5 0 9 -2 13 -8l152 -206l153 206c4 6 8 8 13 8c8 0 15 -7 15 -15
c0 -4 -2 -7 -4 -10l-158 -213z" />
    <glyph glyph-name="y" unicode="y" horiz-adv-x="519" 
d="M466 490c8 0 15 -7 15 -15c0 -1 0 -3 -2 -8l-236 -548c-31 -71 -84 -109 -152 -109c-15 0 -31 2 -44 6c-8 2 -13 7 -13 14c0 8 6 14 14 14c6 0 25 -6 41 -6c60 0 101 30 128 94l31 73l-205 462l-2 8c0 8 7 15 15 15c7 0 13 -4 16 -12l192 -437l186 437c3 8 9 12 16 12z
" />
    <glyph glyph-name="yacute" unicode="&#xfd;" horiz-adv-x="519" 
d="M264 561c-6 0 -12 5 -12 12c0 1 0 4 2 8l84 184c3 7 8 11 16 11s14 -7 14 -13c0 -5 -2 -9 -4 -14l-86 -176c-4 -8 -8 -12 -14 -12zM466 490c8 0 15 -7 15 -15c0 -1 0 -3 -2 -8l-236 -548c-31 -71 -84 -109 -152 -109c-15 0 -31 2 -44 6c-8 2 -13 7 -13 14c0 8 6 14 14 14
c6 0 25 -6 41 -6c60 0 101 30 128 94l31 73l-205 462l-2 8c0 8 7 15 15 15c7 0 13 -4 16 -12l192 -437l186 437c3 8 9 12 16 12z" />
    <glyph glyph-name="ycircumflex" unicode="&#x177;" horiz-adv-x="519" 
d="M130 561c-6 0 -12 5 -12 11c0 4 1 7 4 11l125 187c3 4 7 6 12 6s9 -2 12 -6l125 -187c3 -4 4 -7 4 -11c0 -6 -6 -11 -12 -11s-9 3 -11 6l-118 173l-118 -173c-2 -3 -5 -6 -11 -6zM466 490c8 0 15 -7 15 -15c0 -1 0 -3 -2 -8l-236 -548c-31 -71 -84 -109 -152 -109
c-15 0 -31 2 -44 6c-8 2 -13 7 -13 14c0 8 6 14 14 14c6 0 25 -6 41 -6c60 0 101 30 128 94l31 73l-205 462l-2 8c0 8 7 15 15 15c7 0 13 -4 16 -12l192 -437l186 437c3 8 9 12 16 12z" />
    <glyph glyph-name="ydieresis" unicode="&#xff;" horiz-adv-x="519" 
d="M163 633c-19 0 -33 14 -33 33s14 33 33 33s33 -14 33 -33s-14 -33 -33 -33zM355 633c-19 0 -33 14 -33 33s14 33 33 33s33 -14 33 -33s-14 -33 -33 -33zM466 490c8 0 15 -7 15 -15c0 -1 0 -3 -2 -8l-236 -548c-31 -71 -84 -109 -152 -109c-15 0 -31 2 -44 6
c-8 2 -13 7 -13 14c0 8 6 14 14 14c6 0 25 -6 41 -6c60 0 101 30 128 94l31 73l-205 462l-2 8c0 8 7 15 15 15c7 0 13 -4 16 -12l192 -437l186 437c3 8 9 12 16 12z" />
    <glyph glyph-name="ygrave" unicode="&#x1ef3;" horiz-adv-x="519" 
d="M240 573l-86 176c-2 5 -4 9 -4 14c0 6 6 13 14 13s13 -4 16 -11l84 -184c2 -4 2 -7 2 -8c0 -7 -6 -12 -12 -12s-10 4 -14 12zM466 490c8 0 15 -7 15 -15c0 -1 0 -3 -2 -8l-236 -548c-31 -71 -84 -109 -152 -109c-15 0 -31 2 -44 6c-8 2 -13 7 -13 14c0 8 6 14 14 14
c6 0 25 -6 41 -6c60 0 101 30 128 94l31 73l-205 462l-2 8c0 8 7 15 15 15c7 0 13 -4 16 -12l192 -437l186 437c3 8 9 12 16 12z" />
    <glyph glyph-name="z" unicode="z" horiz-adv-x="447" 
d="M398 28c8 0 14 -6 14 -14s-6 -14 -14 -14h-346c-8 0 -14 6 -14 14c0 4 2 8 6 13l319 425h-290c-8 0 -14 6 -14 14s6 14 14 14h318c8 0 14 -6 14 -14c0 -4 -2 -9 -6 -14l-319 -424h318z" />
    <glyph glyph-name="zacute" unicode="&#x17a;" horiz-adv-x="447" 
d="M239 561c-6 0 -12 5 -12 12c0 1 0 4 2 8l84 184c3 7 8 11 16 11s14 -7 14 -13c0 -5 -2 -9 -4 -14l-86 -176c-4 -8 -8 -12 -14 -12zM398 28c8 0 14 -6 14 -14s-6 -14 -14 -14h-346c-8 0 -14 6 -14 14c0 4 2 8 6 13l319 425h-290c-8 0 -14 6 -14 14s6 14 14 14h318
c8 0 14 -6 14 -14c0 -4 -2 -9 -6 -14l-319 -424h318z" />
    <glyph glyph-name="zcaron" unicode="&#x17e;" horiz-adv-x="447" 
d="M222 567l-125 187c-3 4 -4 7 -4 11c0 6 6 11 12 11s9 -3 11 -6l118 -173l118 173c2 3 5 6 11 6s12 -5 12 -11c0 -4 -1 -7 -4 -11l-125 -187c-3 -4 -7 -6 -12 -6s-9 2 -12 6zM398 28c8 0 14 -6 14 -14s-6 -14 -14 -14h-346c-8 0 -14 6 -14 14c0 4 2 8 6 13l319 425h-290
c-8 0 -14 6 -14 14s6 14 14 14h318c8 0 14 -6 14 -14c0 -4 -2 -9 -6 -14l-319 -424h318z" />
    <glyph glyph-name="zdotaccent" unicode="&#x17c;" horiz-adv-x="447" 
d="M234 633c-19 0 -33 14 -33 33s14 33 33 33s33 -14 33 -33s-14 -33 -33 -33zM398 28c8 0 14 -6 14 -14s-6 -14 -14 -14h-346c-8 0 -14 6 -14 14c0 4 2 8 6 13l319 425h-290c-8 0 -14 6 -14 14s6 14 14 14h318c8 0 14 -6 14 -14c0 -4 -2 -9 -6 -14l-319 -424h318z" />
    <glyph glyph-name="iacute_j.loclNLD" horiz-adv-x="456" 
d="M124 558c-6 -1 -13 3 -14 10c0 1 -1 4 0 8l51 196c2 7 6 12 14 13c8 2 15 -4 16 -10c1 -5 0 -9 -1 -14l-55 -189c-2 -8 -5 -13 -11 -14zM352 558c-6 -1 -13 3 -14 10c0 1 -1 4 0 8l51 196c2 7 6 12 14 13c8 2 15 -4 16 -10c1 -5 0 -9 -1 -14l-55 -189
c-2 -8 -5 -13 -11 -14zM114 -10c-8 0 -15 7 -15 15v470c0 8 6 15 15 15c8 0 15 -7 15 -15v-470c0 -8 -7 -15 -15 -15zM221 -190c-16 0 -28 1 -40 4c-8 2 -14 7 -14 15c0 7 6 13 14 13c7 0 20 -4 38 -4c59 0 108 23 108 107v530c0 8 6 15 15 15c8 0 15 -7 15 -15v-530
c0 -99 -60 -135 -136 -135z" />
    <glyph glyph-name="cacute.loclPLK" horiz-adv-x="553" 
d="M319 553c-6 -2 -13 1 -15 8c0 1 -1 4 0 8l33 200c2 7 5 13 13 15s15 -4 17 -9c1 -5 0 -10 0 -15l-38 -192c-2 -9 -4 -14 -10 -15zM305 -10c-137 0 -245 112 -245 250c0 139 108 250 246 250c77 0 137 -28 186 -88c6 -7 8 -11 8 -16c0 -7 -7 -13 -14 -13c-4 0 -9 2 -13 7
c-43 56 -95 81 -167 81c-122 0 -214 -97 -214 -221c0 -123 92 -221 213 -221c72 0 123 26 167 81c4 5 9 7 13 7c7 0 14 -6 14 -13c0 -5 -2 -9 -8 -16c-50 -59 -109 -88 -186 -88z" />
    <glyph glyph-name="nacute.loclPLK" horiz-adv-x="551" 
d="M297 553c-6 -2 -13 1 -15 8c0 1 -1 4 0 8l33 200c2 7 5 13 13 15s15 -4 17 -9c1 -5 0 -10 0 -15l-38 -192c-2 -9 -4 -14 -10 -15zM286 490c106 0 174 -72 174 -185v-300c0 -8 -7 -15 -15 -15s-15 7 -15 15v300c0 94 -57 156 -145 156c-90 0 -156 -65 -156 -156v-300
c0 -8 -7 -15 -15 -15s-15 7 -15 15v470c0 8 7 15 15 15s15 -7 15 -15v-72c31 55 86 87 157 87z" />
    <glyph glyph-name="oacute.loclPLK" horiz-adv-x="613" 
d="M320 553c-6 -2 -13 1 -15 8c0 1 -1 4 0 8l33 200c2 7 5 13 13 15s15 -4 17 -9c1 -5 0 -10 0 -15l-38 -192c-2 -9 -4 -14 -10 -15zM306 490c138 0 247 -110 247 -250s-110 -250 -248 -250c-137 0 -245 110 -245 250c0 141 108 250 246 250zM306 461
c-121 0 -214 -96 -214 -221s92 -221 213 -221c122 0 216 97 216 221c0 125 -94 221 -215 221z" />
    <glyph glyph-name="sacute.loclPLK" horiz-adv-x="455" 
d="M245 553c-6 -2 -13 1 -15 8c0 1 -1 4 0 8l33 200c2 7 5 13 13 15s15 -4 17 -9c1 -5 0 -10 0 -15l-38 -192c-2 -9 -4 -14 -10 -15zM232 -10c-78 0 -140 43 -177 99c-2 3 -4 8 -4 11c0 8 7 16 16 16c5 0 9 -2 13 -7c40 -58 90 -90 154 -90c63 0 120 31 120 97
c0 63 -52 86 -109 112l-42 19c-58 26 -117 55 -117 124c0 76 72 119 146 119c65 0 111 -31 142 -67c5 -6 8 -11 8 -14c0 -8 -6 -16 -14 -16c-5 0 -9 2 -15 9c-33 38 -72 59 -123 59c-55 0 -112 -26 -112 -89c0 -54 43 -73 101 -99l45 -20c64 -29 122 -61 122 -135
c0 -84 -74 -128 -154 -128z" />
    <glyph glyph-name="zacute.loclPLK" horiz-adv-x="447" 
d="M247 553c-6 -2 -13 1 -15 8c0 1 -1 4 0 8l33 200c2 7 5 13 13 15s15 -4 17 -9c1 -5 0 -10 0 -15l-38 -192c-2 -9 -4 -14 -10 -15zM398 28c8 0 14 -6 14 -14s-6 -14 -14 -14h-346c-8 0 -14 6 -14 14c0 4 2 8 6 13l319 425h-290c-8 0 -14 6 -14 14s6 14 14 14h318
c8 0 14 -6 14 -14c0 -4 -2 -9 -6 -14l-319 -424h318z" />
    <glyph glyph-name="i.loclTRK.loclTRK" horiz-adv-x="228" 
d="M114 699c19 0 33 -14 33 -33s-14 -33 -33 -33s-33 14 -33 33s14 33 33 33zM114 -10c-8 0 -15 7 -15 15v470c0 8 6 15 15 15c8 0 15 -7 15 -15v-470c0 -8 -7 -15 -15 -15z" />
    <glyph glyph-name="c.ordn" horiz-adv-x="373" 
d="M207 238c-87 0 -157 70 -157 158s70 158 157 158c47 0 89 -20 115 -51c4 -5 5 -9 5 -12c0 -7 -6 -13 -13 -13c-3 0 -6 1 -9 4c-28 29 -59 44 -98 44c-72 0 -126 -57 -126 -130s54 -130 126 -130c39 0 69 15 98 44c3 3 6 4 9 4c7 0 13 -6 13 -13c0 -3 -1 -7 -5 -12
c-25 -32 -68 -51 -115 -51z" />
    <glyph glyph-name="d.ordn" horiz-adv-x="429" 
d="M340 722c8 0 15 -7 15 -15v-453c0 -8 -6 -15 -14 -15s-15 7 -15 15v53c-22 -40 -69 -68 -125 -68c-85 0 -151 68 -151 157s65 158 151 158c54 0 102 -27 124 -68v221c0 9 7 15 15 15zM204 267c73 0 121 52 121 129c0 78 -48 130 -121 130c-71 0 -123 -55 -123 -130
c0 -74 53 -129 123 -129z" />
    <glyph glyph-name="e.ordn" horiz-adv-x="390" 
d="M203 554c79 0 137 -57 137 -134c0 -7 0 -13 -1 -18c-1 -7 -8 -13 -15 -13h-244c3 -71 57 -124 127 -124c38 0 69 13 98 42c3 3 6 4 9 4c7 0 13 -6 13 -13c0 -3 -1 -6 -3 -8c-30 -34 -71 -52 -117 -52c-88 0 -157 69 -157 158c0 88 67 158 153 158zM202 527
c-62 0 -112 -46 -121 -110h228c2 63 -43 110 -107 110z" />
    <glyph glyph-name="egrave.ordn" horiz-adv-x="390" 
d="M195 599l-64 118c-2 4 -3 7 -3 10c0 8 7 15 15 15c5 0 11 -3 13 -8l56 -121c2 -4 4 -9 4 -12c0 -6 -4 -10 -10 -10c-5 0 -8 3 -11 8zM203 554c79 0 137 -57 137 -134c0 -7 0 -13 -1 -18c-1 -7 -8 -13 -15 -13h-244c3 -71 57 -124 127 -124c38 0 69 13 98 42c3 3 6 4 9 4
c7 0 13 -6 13 -13c0 -3 -1 -6 -3 -8c-30 -34 -71 -52 -117 -52c-88 0 -157 69 -157 158c0 88 67 158 153 158zM202 527c-62 0 -112 -46 -121 -110h228c2 63 -43 110 -107 110z" />
    <glyph glyph-name="g.ordn" horiz-adv-x="429" 
d="M341 554c8 0 14 -7 14 -15v-265c0 -90 -61 -150 -151 -150c-48 0 -95 18 -126 49c-4 4 -6 8 -6 13c0 8 6 14 15 14c4 0 8 -2 11 -5c29 -29 64 -43 105 -43c74 0 122 47 122 121v40c-23 -39 -70 -67 -125 -67c-84 0 -150 68 -150 154c0 87 66 154 150 154
c55 0 104 -28 126 -68v53c0 8 7 15 15 15zM205 274c72 0 120 51 120 127c0 75 -49 126 -121 126c-70 0 -123 -55 -123 -126c0 -72 53 -127 124 -127z" />
    <glyph glyph-name="h.ordn" horiz-adv-x="379" 
d="M201 554c67 0 110 -46 110 -118v-182c0 -8 -7 -15 -15 -15s-15 7 -15 15v180c0 56 -34 92 -85 92c-54 0 -92 -38 -92 -92v-180c0 -8 -7 -15 -15 -15s-15 7 -15 15v453c0 9 7 15 15 15s15 -7 15 -15v-205c19 33 53 52 97 52z" />
    <glyph glyph-name="i.ordn" horiz-adv-x="178" 
d="M89 691c15 0 27 -12 27 -27s-12 -27 -27 -27s-27 12 -27 27s12 27 27 27zM89 554c8 0 15 -7 15 -15v-285c0 -8 -7 -15 -15 -15s-15 7 -15 15v285c0 8 6 15 15 15z" />
    <glyph glyph-name="l.ordn" horiz-adv-x="178" 
d="M89 722c8 0 15 -7 15 -15v-453c0 -8 -7 -15 -15 -15s-15 7 -15 15v453c0 8 6 15 15 15z" />
    <glyph glyph-name="m.ordn" horiz-adv-x="574" 
d="M398 554c67 0 108 -45 108 -118v-182c0 -8 -7 -15 -15 -15s-15 7 -15 15v180c0 56 -32 92 -82 92c-51 0 -89 -38 -89 -87v-185c0 -8 -7 -15 -15 -15s-15 7 -15 15v180c0 56 -32 92 -82 92c-53 0 -89 -38 -89 -92v-180c0 -8 -7 -15 -15 -15s-15 7 -15 15v285
c0 8 7 15 15 15s14 -7 14 -15v-34c19 31 52 49 94 49c46 0 80 -22 97 -61c19 38 58 61 104 61z" />
    <glyph glyph-name="n.ordn" horiz-adv-x="379" 
d="M200 554c68 0 111 -46 111 -118v-183c0 -8 -7 -15 -15 -15s-15 7 -15 15v181c0 56 -34 92 -85 92c-54 0 -92 -38 -92 -92v-181c0 -8 -7 -15 -15 -15s-15 7 -15 15v286c0 8 7 15 15 15s14 -7 14 -15v-35c20 31 55 50 97 50z" />
    <glyph glyph-name="r.ordn" horiz-adv-x="237" 
d="M212 554c10 0 16 -6 16 -14s-6 -14 -14 -14c-64 0 -110 -44 -110 -99v-168c0 -8 -7 -15 -15 -15s-15 7 -15 15v280c0 8 7 15 15 15s14 -7 14 -15v-45c20 38 58 60 109 60z" />
    <glyph glyph-name="s.ordn" horiz-adv-x="304" 
d="M153 238c-49 0 -86 22 -109 57c-2 3 -3 6 -3 9c0 8 6 14 14 14c5 0 9 -3 11 -6c24 -31 51 -46 87 -46c39 0 69 17 69 53c0 34 -28 50 -59 64l-29 13c-42 18 -73 40 -73 81c0 49 44 77 95 77c42 0 67 -17 89 -41c4 -4 5 -8 5 -11c0 -8 -6 -14 -14 -14c-5 0 -8 2 -11 5
c-21 21 -41 33 -70 33c-35 0 -64 -15 -64 -49c0 -33 28 -43 56 -57l28 -12c42 -20 77 -41 77 -88c0 -53 -44 -82 -99 -82z" />
    <glyph glyph-name="y.ss01.ordn" horiz-adv-x="384" 
d="M295 554c8 0 15 -7 15 -15v-287c0 -78 -47 -128 -122 -128c-50 0 -87 23 -112 50c-5 5 -7 9 -7 13c0 8 6 14 14 14c4 0 7 -1 11 -5c22 -24 52 -44 93 -44c57 0 93 38 93 98v43c-21 -30 -55 -48 -97 -48c-67 0 -110 47 -110 120v174c0 8 7 15 15 15s15 -7 15 -15v-172
c0 -57 33 -93 85 -93c54 0 92 38 92 91v174c0 9 7 15 15 15z" />
    <glyph glyph-name="t.ordn" horiz-adv-x="235" 
d="M205 269c8 0 15 -4 15 -14c0 -8 -5 -12 -14 -14c-11 -2 -23 -3 -38 -3c-52 0 -92 25 -92 90v193h-41c-8 0 -14 7 -14 14s6 13 14 13h41v64c0 8 6 15 15 15c8 0 15 -7 15 -15v-64h88c8 0 14 -6 14 -13c0 -8 -6 -14 -14 -14h-88v-192c0 -50 29 -62 66 -62c15 0 23 2 33 2z
" />
    <glyph glyph-name="u.ordn" horiz-adv-x="373" 
d="M290 554c8 0 15 -7 15 -15v-180c0 -71 -48 -121 -118 -121s-119 50 -119 121v180c0 8 7 15 15 15s15 -7 15 -15v-181c0 -55 36 -92 89 -92c52 0 88 37 88 92v181c0 9 7 15 15 15z" />
    <glyph glyph-name="uacute.ordn" horiz-adv-x="373" 
d="M181 591c-6 0 -10 4 -10 10c0 3 2 8 4 12l56 121c2 5 8 8 13 8c8 0 15 -7 15 -15c0 -3 -1 -6 -3 -10l-64 -118c-3 -5 -6 -8 -11 -8zM290 554c8 0 15 -7 15 -15v-180c0 -71 -48 -121 -118 -121s-119 50 -119 121v180c0 8 7 15 15 15s15 -7 15 -15v-181
c0 -55 36 -92 89 -92c52 0 88 37 88 92v181c0 9 7 15 15 15z" />
    <glyph glyph-name="y.ordn" horiz-adv-x="339" 
d="M297 554c8 0 15 -7 15 -15c0 -2 0 -4 -2 -8l-144 -338c-19 -44 -57 -70 -102 -70c-7 0 -14 1 -20 2c-11 2 -17 7 -17 16c0 8 7 14 18 14c5 0 13 -2 18 -2c36 0 61 17 76 51l20 45l-122 282c-2 4 -2 6 -2 8c0 8 7 15 15 15c5 0 11 -2 14 -9l111 -259l108 259c3 7 9 9 14 9
z" />
    <glyph glyph-name="z.ordn" horiz-adv-x="282" 
d="M249 272c8 0 15 -6 15 -14s-7 -14 -15 -14h-213c-8 0 -15 7 -15 15c0 4 2 8 5 12l192 249h-170c-8 0 -15 6 -15 14s7 14 15 14h196c8 0 15 -7 15 -15c0 -4 -1 -7 -5 -12l-186 -249h181z" />
    <glyph glyph-name="a.ss01" horiz-adv-x="635" 
d="M521 490c8 0 15 -7 15 -17v-466c0 -10 -7 -17 -15 -17s-15 7 -15 17v109c-31 -74 -111 -126 -206 -126c-134 0 -240 110 -240 250c0 141 105 250 240 250c95 0 175 -52 206 -126v109c0 10 7 17 15 17zM300 19c124 0 206 88 206 221s-82 221 -206 221
c-119 0 -208 -94 -208 -221c0 -126 90 -221 208 -221z" />
    <glyph glyph-name="aacute.ss01" horiz-adv-x="635" 
d="M319 561c-6 0 -12 5 -12 12c0 1 0 4 2 8l84 184c3 7 8 11 16 11s14 -7 14 -13c0 -5 -2 -9 -4 -14l-86 -176c-4 -8 -8 -12 -14 -12zM521 490c8 0 15 -7 15 -17v-466c0 -10 -7 -17 -15 -17s-15 7 -15 17v109c-31 -74 -111 -126 -206 -126c-134 0 -240 110 -240 250
c0 141 105 250 240 250c95 0 175 -52 206 -126v109c0 10 7 17 15 17zM300 19c124 0 206 88 206 221s-82 221 -206 221c-119 0 -208 -94 -208 -221c0 -126 90 -221 208 -221z" />
    <glyph glyph-name="abreve.ss01" horiz-adv-x="635" 
d="M314 593c-76 0 -135 58 -135 134c0 10 7 17 15 17s15 -7 15 -17c0 -60 46 -106 105 -106s105 46 105 106c0 10 7 17 15 17s15 -7 15 -17c0 -75 -59 -134 -135 -134zM521 490c8 0 15 -7 15 -17v-466c0 -10 -7 -17 -15 -17s-15 7 -15 17v109c-31 -74 -111 -126 -206 -126
c-134 0 -240 110 -240 250c0 141 105 250 240 250c95 0 175 -52 206 -126v109c0 10 7 17 15 17zM300 19c124 0 206 88 206 221s-82 221 -206 221c-119 0 -208 -94 -208 -221c0 -126 90 -221 208 -221z" />
    <glyph glyph-name="acircumflex.ss01" horiz-adv-x="635" 
d="M185 561c-6 0 -12 5 -12 11c0 4 1 7 4 11l125 187c3 4 7 6 12 6s9 -2 12 -6l125 -187c3 -4 4 -7 4 -11c0 -6 -6 -11 -12 -11s-9 3 -11 6l-118 173l-118 -173c-2 -3 -5 -6 -11 -6zM521 490c8 0 15 -7 15 -17v-466c0 -10 -7 -17 -15 -17s-15 7 -15 17v109
c-31 -74 -111 -126 -206 -126c-134 0 -240 110 -240 250c0 141 105 250 240 250c95 0 175 -52 206 -126v109c0 10 7 17 15 17zM300 19c124 0 206 88 206 221s-82 221 -206 221c-119 0 -208 -94 -208 -221c0 -126 90 -221 208 -221z" />
    <glyph glyph-name="adieresis.ss01" horiz-adv-x="635" 
d="M218 633c-19 0 -33 14 -33 33s14 33 33 33s33 -14 33 -33s-14 -33 -33 -33zM410 633c-19 0 -33 14 -33 33s14 33 33 33s33 -14 33 -33s-14 -33 -33 -33zM521 490c8 0 15 -7 15 -17v-466c0 -10 -7 -17 -15 -17s-15 7 -15 17v109c-31 -74 -111 -126 -206 -126
c-134 0 -240 110 -240 250c0 141 105 250 240 250c95 0 175 -52 206 -126v109c0 10 7 17 15 17zM300 19c124 0 206 88 206 221s-82 221 -206 221c-119 0 -208 -94 -208 -221c0 -126 90 -221 208 -221z" />
    <glyph glyph-name="agrave.ss01" horiz-adv-x="635" 
d="M295 573l-86 176c-2 5 -4 9 -4 14c0 6 6 13 14 13s13 -4 16 -11l84 -184c2 -4 2 -7 2 -8c0 -7 -6 -12 -12 -12s-10 4 -14 12zM521 490c8 0 15 -7 15 -17v-466c0 -10 -7 -17 -15 -17s-15 7 -15 17v109c-31 -74 -111 -126 -206 -126c-134 0 -240 110 -240 250
c0 141 105 250 240 250c95 0 175 -52 206 -126v109c0 10 7 17 15 17zM300 19c124 0 206 88 206 221s-82 221 -206 221c-119 0 -208 -94 -208 -221c0 -126 90 -221 208 -221z" />
    <glyph glyph-name="amacron.ss01" horiz-adv-x="635" 
d="M200 652c-8 0 -14 6 -14 14s6 14 14 14h228c8 0 14 -6 14 -14s-6 -14 -14 -14h-228zM521 490c8 0 15 -7 15 -17v-466c0 -10 -7 -17 -15 -17s-15 7 -15 17v109c-31 -74 -111 -126 -206 -126c-134 0 -240 110 -240 250c0 141 105 250 240 250c95 0 175 -52 206 -126v109
c0 10 7 17 15 17zM300 19c124 0 206 88 206 221s-82 221 -206 221c-119 0 -208 -94 -208 -221c0 -126 90 -221 208 -221z" />
    <glyph glyph-name="aogonek.ss01" horiz-adv-x="635" 
d="M527 -156c8 0 12 -5 12 -13c0 -7 -5 -11 -15 -14c-16 -5 -32 -7 -48 -7c-50 0 -95 26 -95 75c0 43 29 73 125 122v109c-31 -74 -111 -126 -206 -126c-134 0 -240 110 -240 250c0 141 105 250 240 250c95 0 175 -52 206 -126v109c0 10 7 17 15 17s15 -7 15 -17v-466v-2v-1
c0 -5 -2 -9 -7 -12c-94 -56 -117 -74 -117 -104c0 -31 26 -50 64 -50c28 0 43 6 51 6zM300 19c124 0 206 88 206 221s-82 221 -206 221c-119 0 -208 -94 -208 -221c0 -126 90 -221 208 -221z" />
    <glyph glyph-name="aring.ss01" horiz-adv-x="635" 
d="M314 569c-54 0 -98 43 -98 97s44 97 98 97s98 -43 98 -97s-44 -97 -98 -97zM314 735c-39 0 -68 -30 -68 -69s29 -69 68 -69c38 0 68 30 68 69s-30 69 -68 69zM521 490c8 0 15 -7 15 -17v-466c0 -10 -7 -17 -15 -17s-15 7 -15 17v109c-31 -74 -111 -126 -206 -126
c-134 0 -240 110 -240 250c0 141 105 250 240 250c95 0 175 -52 206 -126v109c0 10 7 17 15 17zM300 19c124 0 206 88 206 221s-82 221 -206 221c-119 0 -208 -94 -208 -221c0 -126 90 -221 208 -221z" />
    <glyph glyph-name="atilde.ss01" horiz-adv-x="635" 
d="M201 625c-9 0 -15 7 -15 18c0 47 25 79 61 79c23 0 43 -10 63 -33l25 -27c18 -19 28 -25 43 -25c22 0 34 19 34 51c0 11 6 18 15 18s15 -7 15 -18c0 -47 -25 -79 -61 -79c-23 0 -43 10 -63 33l-25 27c-18 19 -28 25 -43 25c-22 0 -34 -18 -34 -51c0 -11 -6 -18 -15 -18z
M521 490c8 0 15 -7 15 -17v-466c0 -10 -7 -17 -15 -17s-15 7 -15 17v109c-31 -74 -111 -126 -206 -126c-134 0 -240 110 -240 250c0 141 105 250 240 250c95 0 175 -52 206 -126v109c0 10 7 17 15 17zM300 19c124 0 206 88 206 221s-82 221 -206 221
c-119 0 -208 -94 -208 -221c0 -126 90 -221 208 -221z" />
    <glyph glyph-name="y.ss01" horiz-adv-x="558" 
d="M444 490c8 0 15 -7 15 -17v-468c0 -130 -83 -195 -184 -195c-71 0 -127 27 -174 83c-5 6 -6 9 -6 13c0 7 6 14 14 14c5 0 10 -2 14 -7c33 -44 87 -75 151 -75c84 0 155 55 155 166v83c-30 -54 -86 -87 -158 -87c-114 0 -173 82 -173 189v284c0 10 7 17 15 17
s15 -7 15 -17v-284c0 -91 50 -160 144 -160c92 0 157 66 157 156v288c0 10 6 17 15 17z" />
    <glyph glyph-name="yacute.ss01" horiz-adv-x="558" 
d="M284 561c-6 0 -12 5 -12 12c0 1 0 4 2 8l84 184c3 7 8 11 16 11s14 -7 14 -13c0 -5 -2 -9 -4 -14l-86 -176c-4 -8 -8 -12 -14 -12zM444 490c8 0 15 -7 15 -17v-468c0 -130 -83 -195 -184 -195c-71 0 -127 27 -174 83c-5 6 -6 9 -6 13c0 7 6 14 14 14c5 0 10 -2 14 -7
c33 -44 87 -75 151 -75c84 0 155 55 155 166v83c-30 -54 -86 -87 -158 -87c-114 0 -173 82 -173 189v284c0 10 7 17 15 17s15 -7 15 -17v-284c0 -91 50 -160 144 -160c92 0 157 66 157 156v288c0 10 6 17 15 17z" />
    <glyph glyph-name="ycircumflex.ss01" horiz-adv-x="558" 
d="M150 561c-6 0 -12 5 -12 11c0 4 1 7 4 11l125 187c3 4 7 6 12 6s9 -2 12 -6l125 -187c3 -4 4 -7 4 -11c0 -6 -6 -11 -12 -11s-9 3 -11 6l-118 173l-118 -173c-2 -3 -5 -6 -11 -6zM444 490c8 0 15 -7 15 -17v-468c0 -130 -83 -195 -184 -195c-71 0 -127 27 -174 83
c-5 6 -6 9 -6 13c0 7 6 14 14 14c5 0 10 -2 14 -7c33 -44 87 -75 151 -75c84 0 155 55 155 166v83c-30 -54 -86 -87 -158 -87c-114 0 -173 82 -173 189v284c0 10 7 17 15 17s15 -7 15 -17v-284c0 -91 50 -160 144 -160c92 0 157 66 157 156v288c0 10 6 17 15 17z" />
    <glyph glyph-name="ydieresis.ss01" horiz-adv-x="558" 
d="M183 633c-19 0 -33 14 -33 33s14 33 33 33s33 -14 33 -33s-14 -33 -33 -33zM375 633c-19 0 -33 14 -33 33s14 33 33 33s33 -14 33 -33s-14 -33 -33 -33zM444 490c8 0 15 -7 15 -17v-468c0 -130 -83 -195 -184 -195c-71 0 -127 27 -174 83c-5 6 -6 9 -6 13c0 7 6 14 14 14
c5 0 10 -2 14 -7c33 -44 87 -75 151 -75c84 0 155 55 155 166v83c-30 -54 -86 -87 -158 -87c-114 0 -173 82 -173 189v284c0 10 7 17 15 17s15 -7 15 -17v-284c0 -91 50 -160 144 -160c92 0 157 66 157 156v288c0 10 6 17 15 17z" />
    <glyph glyph-name="ygrave.ss01" horiz-adv-x="558" 
d="M260 573l-86 176c-2 5 -4 9 -4 14c0 6 6 13 14 13s13 -4 16 -11l84 -184c2 -4 2 -7 2 -8c0 -7 -6 -12 -12 -12s-10 4 -14 12zM444 490c8 0 15 -7 15 -17v-468c0 -130 -83 -195 -184 -195c-71 0 -127 27 -174 83c-5 6 -6 9 -6 13c0 7 6 14 14 14c5 0 10 -2 14 -7
c33 -44 87 -75 151 -75c84 0 155 55 155 166v83c-30 -54 -86 -87 -158 -87c-114 0 -173 82 -173 189v284c0 10 7 17 15 17s15 -7 15 -17v-284c0 -91 50 -160 144 -160c92 0 157 66 157 156v288c0 10 6 17 15 17z" />
    <glyph glyph-name="ordfeminine" unicode="&#xaa;" horiz-adv-x="360" 
d="M178 554c66 0 114 -40 114 -119v-181c0 -8 -6 -15 -14 -15s-15 7 -15 15v40c-22 -35 -62 -55 -110 -55c-62 0 -104 33 -104 81c0 49 41 80 106 80h107v36c0 61 -36 89 -86 89c-36 0 -61 -17 -81 -39c-4 -4 -8 -6 -13 -6c-9 0 -15 6 -15 15c0 4 2 8 5 11
c27 30 62 48 106 48zM157 266c58 0 105 36 105 89v19h-105c-49 0 -76 -19 -76 -54c0 -34 29 -54 76 -54z" />
    <glyph glyph-name="ordmasculine" unicode="&#xba;" horiz-adv-x="415" 
d="M207 554c88 0 158 -70 158 -158s-70 -158 -158 -158s-157 70 -157 158s69 158 157 158zM207 525c-71 0 -125 -55 -125 -129s54 -129 125 -129c72 0 126 56 126 129s-54 129 -126 129z" />
    <glyph glyph-name="ordfeminine.ss01" horiz-adv-x="429" 
d="M341 554c8 0 14 -7 14 -15v-285c0 -8 -6 -15 -14 -15s-15 7 -15 15v55c-21 -42 -68 -70 -125 -70c-85 0 -151 68 -151 157s65 158 150 158c57 0 105 -28 126 -71v56c0 8 7 15 15 15zM204 268c73 0 121 51 121 128c0 78 -48 129 -120 129c-71 0 -123 -54 -123 -129
c0 -74 52 -128 122 -128z" />
    <glyph glyph-name="uni0410" unicode="&#x410;" horiz-adv-x="665" 
d="M614 14c2 -5 3 -8 3 -11c0 -7 -7 -13 -15 -13c-7 0 -13 4 -16 12l-71 173h-365l-71 -173c-3 -8 -9 -12 -16 -12c-8 0 -15 6 -15 13c0 3 1 6 3 11l267 645c2 7 8 11 15 11s13 -4 15 -11zM333 619l-171 -415h341z" />
    <glyph glyph-name="uni0411" unicode="&#x411;" horiz-adv-x="610" 
d="M486 660c8 0 15 -6 15 -14s-7 -15 -15 -15h-351v-258h222c124 0 203 -73 203 -186c0 -114 -80 -187 -203 -187h-237c-10 0 -17 7 -17 17v626c0 10 7 17 17 17h366zM356 344h-221v-315h221c106 0 172 61 172 158s-65 157 -172 157z" />
    <glyph glyph-name="uni0412" unicode="&#x412;" horiz-adv-x="610" 
d="M406 366c96 -16 154 -82 154 -179c0 -114 -80 -187 -203 -187h-237c-10 0 -17 7 -17 17v626c0 10 7 17 17 17h205c104 0 170 -61 170 -156c0 -65 -33 -114 -89 -138zM322 632l-187 -1v-257h187c87 0 140 49 140 129c0 81 -53 130 -140 129zM355 29c104 0 172 62 172 157
c0 96 -68 159 -172 159h-220v-316h220z" />
    <glyph glyph-name="uni0413" unicode="&#x413;" horiz-adv-x="496" 
d="M459 660c8 0 15 -6 15 -14s-7 -15 -15 -15h-324v-624c0 -10 -7 -17 -16 -17s-16 7 -16 17v636c0 10 7 17 17 17h339z" />
    <glyph glyph-name="uni0403" unicode="&#x403;" horiz-adv-x="496" 
d="M255 728c-8 0 -16 9 -11 18l82 158c4 8 11 9 14 9c11 0 18 -11 11 -24l-84 -153c-3 -5 -6 -8 -12 -8zM459 660c8 0 15 -6 15 -14s-7 -15 -15 -15h-324v-624c0 -10 -7 -17 -16 -17s-16 7 -16 17v636c0 10 7 17 17 17h339z" />
    <glyph glyph-name="uni0490" unicode="&#x490;" horiz-adv-x="480" 
d="M440 791c9 0 16 -7 16 -17v-126c0 -10 -7 -17 -17 -17h-304v-624c0 -10 -7 -17 -16 -17s-16 7 -16 17v636c0 10 7 17 17 17h304v114c0 10 7 17 16 17z" />
    <glyph glyph-name="uni0414" unicode="&#x414;" horiz-adv-x="661" 
d="M605 29c10 0 17 -7 17 -17v-146c0 -10 -7 -17 -16 -17s-16 7 -16 17v134h-533v-134c0 -10 -7 -17 -16 -17s-16 7 -16 17v146c0 10 7 17 17 17h36c99 101 151 298 151 577v37c0 10 7 17 17 17h285c10 0 17 -7 17 -17v-614h57zM261 631c-1 -302 -46 -493 -143 -602h398v602
h-255z" />
    <glyph glyph-name="uni0415" unicode="&#x415;" horiz-adv-x="561" 
d="M120 0c-10 0 -17 7 -17 17v626c0 10 7 17 17 17h376c8 0 15 -6 15 -14s-7 -15 -15 -15h-361v-257h281c8 0 15 -6 15 -14s-7 -15 -15 -15h-281v-316h373c8 0 15 -6 15 -14s-7 -15 -15 -15h-388z" />
    <glyph glyph-name="uni0400" unicode="&#x400;" horiz-adv-x="561" 
d="M293 728c-6 0 -9 3 -12 8l-84 153c-7 13 0 24 11 24c3 0 10 -1 14 -9l82 -158c5 -9 -3 -18 -11 -18zM120 0c-10 0 -17 7 -17 17v626c0 10 7 17 17 17h376c8 0 15 -6 15 -14s-7 -15 -15 -15h-361v-257h281c8 0 15 -6 15 -14s-7 -15 -15 -15h-281v-316h373
c8 0 15 -6 15 -14s-7 -15 -15 -15h-388z" />
    <glyph glyph-name="uni0401" unicode="&#x401;" horiz-adv-x="561" 
d="M190 773c-19 0 -33 14 -33 33s14 33 33 33s33 -14 33 -33s-14 -33 -33 -33zM411 773c-19 0 -33 14 -33 33s14 33 33 33s33 -14 33 -33s-14 -33 -33 -33zM120 0c-10 0 -17 7 -17 17v626c0 10 7 17 17 17h376c8 0 15 -6 15 -14s-7 -15 -15 -15h-361v-257h281
c8 0 15 -6 15 -14s-7 -15 -15 -15h-281v-316h373c8 0 15 -6 15 -14s-7 -15 -15 -15h-388z" />
    <glyph glyph-name="uni0416" unicode="&#x416;" horiz-adv-x="918" 
d="M412 371c5 -4 7 -8 7 -13c0 -4 -2 -8 -6 -12l-336 -349c-5 -5 -9 -7 -14 -7c-9 0 -16 7 -16 16c0 4 2 8 6 12l331 341l-306 283c-4 4 -6 8 -6 12c0 9 7 16 16 16c5 0 9 -2 14 -7zM460 670c9 0 16 -7 16 -17v-646c0 -10 -7 -17 -16 -17s-16 7 -16 17v646c0 10 7 17 16 17z
M865 18c4 -4 6 -8 6 -12c0 -9 -7 -16 -16 -16c-5 0 -9 2 -14 7l-334 349c-4 4 -6 8 -6 12c0 5 2 9 7 13l310 292c5 5 9 7 14 7c9 0 16 -7 16 -16c0 -4 -2 -8 -6 -12l-306 -283z" />
    <glyph glyph-name="uni0417" unicode="&#x417;" horiz-adv-x="577" 
d="M372 365c91 -19 150 -86 150 -177c0 -113 -97 -198 -228 -198c-93 0 -173 44 -228 123c-4 6 -5 9 -5 13c0 8 6 15 14 15c6 0 11 -3 15 -9c52 -73 121 -111 203 -111c112 0 196 71 196 166c0 91 -72 158 -172 158h-132c-9 0 -15 7 -15 15s6 15 15 15h109
c86 0 140 51 140 131c0 82 -58 133 -150 133c-67 0 -122 -26 -167 -79c-5 -6 -9 -8 -13 -8c-8 0 -16 6 -16 14c0 5 2 9 6 14c51 59 115 90 191 90c108 0 182 -66 182 -163c0 -67 -36 -118 -95 -142z" />
    <glyph glyph-name="uni0418" unicode="&#x418;" horiz-adv-x="714" 
d="M595 670c9 0 16 -7 16 -17v-646c0 -10 -7 -17 -16 -17s-16 7 -16 17v601l-447 -611c-4 -5 -8 -7 -13 -7c-9 0 -16 7 -16 17v646c0 10 7 17 16 17s16 -7 16 -17v-601l447 611c4 5 8 7 13 7z" />
    <glyph glyph-name="uni0419" unicode="&#x419;" horiz-adv-x="714" 
d="M349 747c-73 0 -134 54 -134 120c0 10 6 18 15 18s15 -6 15 -18c2 -51 48 -92 104 -92s103 41 104 92c0 11 6 18 15 18s15 -8 15 -18c0 -66 -61 -120 -134 -120zM595 670c9 0 16 -7 16 -17v-646c0 -10 -7 -17 -16 -17s-16 7 -16 17v601l-447 -611c-4 -5 -8 -7 -13 -7
c-9 0 -16 7 -16 17v646c0 10 7 17 16 17s16 -7 16 -17v-601l447 611c4 5 8 7 13 7z" />
    <glyph glyph-name="uni040D" unicode="&#x40d;" horiz-adv-x="714" 
d="M329 736l-84 153c-7 13 0 24 11 24c3 0 10 -1 14 -9l82 -158c5 -9 -3 -18 -11 -18c-6 0 -9 3 -12 8zM595 670c9 0 16 -7 16 -17v-646c0 -10 -7 -17 -16 -17s-16 7 -16 17v601l-447 -611c-4 -5 -8 -7 -13 -7c-9 0 -16 7 -16 17v646c0 10 7 17 16 17s16 -7 16 -17v-601
l447 611c4 5 8 7 13 7z" />
    <glyph glyph-name="uni041A" unicode="&#x41a;" horiz-adv-x="598" 
d="M119 670c9 0 16 -7 16 -17v-646c0 -10 -7 -17 -16 -17s-16 7 -16 17v646c0 10 7 17 16 17zM545 17c4 -4 6 -8 6 -13c0 -7 -7 -14 -15 -14c-6 0 -9 2 -17 10l-352 346c-3 3 -5 7 -5 12s2 9 6 13l320 284c13 12 18 15 24 15c9 0 15 -6 15 -15c0 -5 -3 -10 -9 -15l-319 -283
z" />
    <glyph glyph-name="uni040C" unicode="&#x40c;" horiz-adv-x="598" 
d="M307 728c-8 0 -16 9 -11 18l82 158c4 8 11 9 14 9c11 0 18 -11 11 -24l-84 -153c-3 -5 -6 -8 -12 -8zM119 670c9 0 16 -7 16 -17v-646c0 -10 -7 -17 -16 -17s-16 7 -16 17v646c0 10 7 17 16 17zM545 17c4 -4 6 -8 6 -13c0 -7 -7 -14 -15 -14c-6 0 -9 2 -17 10l-352 346
c-3 3 -5 7 -5 12s2 9 6 13l320 284c13 12 18 15 24 15c9 0 15 -6 15 -15c0 -5 -3 -10 -9 -15l-319 -283z" />
    <glyph glyph-name="uni041B" unicode="&#x41b;" horiz-adv-x="636" 
d="M516 660c10 0 17 -7 17 -17v-635c0 -10 -7 -17 -16 -17s-16 7 -16 17v623h-275c-1 -366 -68 -571 -207 -633c-2 -1 -5 -2 -8 -2c-7 0 -13 6 -13 14c0 6 3 10 11 14c123 63 185 251 185 562v57c0 10 7 17 17 17h305z" />
    <glyph glyph-name="uni041C" unicode="&#x41c;" horiz-adv-x="782" 
d="M664 670c8 0 15 -7 15 -16v-648c0 -9 -7 -16 -16 -16s-16 7 -16 16v594l-239 -366c-5 -8 -10 -12 -17 -12s-12 4 -17 12l-239 366v-594c0 -9 -7 -16 -16 -16s-16 7 -16 16v648c0 9 7 16 15 16s12 -3 18 -12l255 -390l255 390c6 9 10 12 18 12z" />
    <glyph glyph-name="uni041D" unicode="&#x41d;" horiz-adv-x="704" 
d="M119 -10c-9 0 -16 7 -16 16v648c0 9 7 16 16 16s16 -7 16 -16v-280h434v280c0 9 7 16 16 16s16 -7 16 -16v-648c0 -9 -7 -16 -16 -16s-16 7 -16 16v339h-434v-339c0 -9 -7 -16 -16 -16z" />
    <glyph glyph-name="uni041E" unicode="&#x41e;" horiz-adv-x="784" 
d="M391 670c188 0 336 -149 336 -340c0 -190 -148 -340 -336 -340c-187 0 -334 149 -334 340s146 340 334 340zM392 639c-171 0 -301 -134 -301 -308c0 -176 131 -310 301 -310s301 135 301 310c0 174 -131 308 -301 308z" />
    <glyph glyph-name="uni041F" unicode="&#x41f;" horiz-adv-x="674" 
d="M119 -10c-9 0 -16 7 -16 17v636c0 10 7 17 17 17h434c10 0 17 -7 17 -17v-636c0 -10 -7 -17 -16 -17s-16 7 -16 17v624h-404v-624c0 -10 -7 -17 -16 -17z" />
    <glyph glyph-name="uni0420" unicode="&#x420;" 
d="M119 -10c-9 0 -16 7 -16 17v636c0 10 7 17 17 17h202c115 0 190 -69 190 -174c0 -106 -75 -175 -190 -175h-187v-304c0 -10 -7 -17 -16 -17zM135 340h185c98 0 159 56 159 145c0 90 -61 146 -159 146h-185v-291z" />
    <glyph glyph-name="uni0421" unicode="&#x421;" horiz-adv-x="709" 
d="M391 -10c-189 0 -334 148 -334 340c0 191 146 340 334 340c101 0 192 -43 254 -120c4 -5 6 -9 6 -14c0 -8 -6 -15 -14 -15c-6 0 -10 2 -15 8c-56 71 -138 110 -231 110c-170 0 -300 -134 -300 -309c0 -176 129 -309 300 -309c93 0 175 39 231 110c5 6 9 8 15 8
c8 0 14 -7 14 -15c0 -5 -2 -9 -6 -14c-62 -77 -153 -120 -254 -120z" />
    <glyph glyph-name="uni0422" unicode="&#x422;" horiz-adv-x="574" 
d="M289 -10c-9 0 -16 7 -16 17v624h-236c-8 0 -15 7 -15 15s7 14 15 14h504c8 0 15 -6 15 -14s-7 -15 -15 -15h-236v-624c0 -10 -7 -17 -16 -17z" />
    <glyph glyph-name="uni0423" unicode="&#x423;" horiz-adv-x="593" 
d="M528 670c9 0 16 -7 16 -15c0 -3 -1 -6 -4 -13l-233 -539c-33 -76 -89 -113 -168 -113c-18 0 -41 2 -54 6c-9 2 -14 8 -14 16s7 15 16 15c8 0 30 -7 51 -7c70 0 117 31 144 95l10 23l-224 504c-3 7 -4 10 -4 13c0 8 7 15 16 15c7 0 11 -3 15 -12l213 -486l205 486
c4 9 9 12 15 12z" />
    <glyph glyph-name="uni040E" unicode="&#x40e;" horiz-adv-x="593" 
d="M298 747c-73 0 -134 54 -134 120c0 10 6 18 15 18s15 -6 15 -18c2 -51 48 -92 104 -92s103 41 104 92c0 11 6 18 15 18s15 -8 15 -18c0 -66 -61 -120 -134 -120zM528 670c9 0 16 -7 16 -15c0 -3 -1 -6 -4 -13l-233 -539c-33 -76 -89 -113 -168 -113c-18 0 -41 2 -54 6
c-9 2 -14 8 -14 16s7 15 16 15c8 0 30 -7 51 -7c70 0 117 31 144 95l10 23l-224 504c-3 7 -4 10 -4 13c0 8 7 15 16 15c7 0 11 -3 15 -12l213 -486l205 486c4 9 9 12 15 12z" />
    <glyph glyph-name="uni0424" unicode="&#x424;" horiz-adv-x="765" 
d="M398 597c186 0 310 -105 310 -263c0 -159 -124 -265 -310 -265v-92c0 -10 -7 -17 -16 -17s-16 7 -16 17v92c-186 0 -309 106 -309 265c0 158 123 263 309 263v86c0 10 7 17 16 17s16 -7 16 -17v-86zM91 334c0 -144 107 -235 275 -235v468c-169 0 -275 -90 -275 -233z
M398 99c168 0 276 92 276 235s-107 233 -276 233v-468z" />
    <glyph glyph-name="uni0425" unicode="&#x425;" horiz-adv-x="579" 
d="M529 15c2 -3 3 -7 3 -10c0 -9 -6 -15 -15 -15c-6 0 -10 3 -15 10l-212 313l-213 -313c-5 -7 -9 -10 -15 -10c-9 0 -15 6 -15 15c0 4 2 8 5 12l220 323l-205 305c-2 3 -3 7 -3 10c0 9 6 15 15 15c6 0 10 -3 15 -10l197 -295l194 295c5 7 9 10 15 10c9 0 15 -6 15 -15
c0 -4 -1 -7 -5 -13l-201 -303z" />
    <glyph glyph-name="uni0427" unicode="&#x427;" horiz-adv-x="606" 
d="M487 670c9 0 16 -7 16 -17v-646c0 -10 -7 -17 -16 -17s-16 7 -16 17v283c-43 -19 -104 -32 -160 -32c-159 0 -254 99 -254 264v131c0 10 7 17 16 17s16 -7 16 -17v-131c0 -148 81 -233 223 -233c56 0 119 14 159 33v331c0 10 7 17 16 17z" />
    <glyph glyph-name="uni0426" unicode="&#x426;" horiz-adv-x="674" 
d="M545 670c9 0 16 -7 16 -17v-624h57c10 0 17 -7 17 -17v-146c0 -10 -7 -17 -16 -17s-16 7 -16 17v134h-483c-10 0 -17 7 -17 17v636c0 10 7 17 16 17s16 -7 16 -17v-624h394v624c0 10 7 17 16 17z" />
    <glyph glyph-name="uni0428" unicode="&#x428;" horiz-adv-x="1010" 
d="M891 670c9 0 16 -7 16 -17v-636c0 -10 -7 -17 -17 -17h-770c-10 0 -17 7 -17 17v636c0 10 7 17 16 17s16 -7 16 -17v-624h354v624c0 10 7 17 16 17s16 -7 16 -17v-624h354v624c0 10 7 17 16 17z" />
    <glyph glyph-name="uni0429" unicode="&#x429;" horiz-adv-x="1020" 
d="M891 670c9 0 16 -7 16 -17v-624h57c10 0 17 -7 17 -17v-146c0 -10 -7 -17 -16 -17s-16 7 -16 17v134h-829c-10 0 -17 7 -17 17v636c0 10 7 17 16 17s16 -7 16 -17v-624h354v624c0 10 7 17 16 17s16 -7 16 -17v-624h354v624c0 10 7 17 16 17z" />
    <glyph glyph-name="uni040F" unicode="&#x40f;" horiz-adv-x="674" 
d="M555 670c9 0 16 -7 16 -17v-636c0 -10 -7 -17 -17 -17h-201v-134c0 -10 -7 -17 -16 -17s-16 7 -16 17v134h-201c-10 0 -17 7 -17 17v636c0 10 7 17 16 17s16 -7 16 -17v-624h404v624c0 10 7 17 16 17z" />
    <glyph glyph-name="uni042C" unicode="&#x42c;" horiz-adv-x="620" 
d="M119 670c9 0 16 -7 16 -17v-280h222c133 0 203 -81 203 -186s-70 -187 -203 -187h-237c-10 0 -17 7 -17 17v636c0 10 7 17 16 17zM355 344h-220v-315h220c113 0 172 70 172 157c0 88 -59 158 -172 158z" />
    <glyph glyph-name="uni042A" unicode="&#x42a;" horiz-adv-x="633" 
d="M133 0c-10 0 -17 7 -17 17v614h-113c-8 0 -15 7 -15 15s7 14 15 14h128c10 0 17 -7 17 -17v-270h222c124 0 203 -73 203 -186c0 -114 -80 -187 -203 -187h-237zM148 28h220c104 0 172 63 172 158c0 96 -68 158 -172 158h-220v-316z" />
    <glyph glyph-name="uni042B" unicode="&#x42b;" horiz-adv-x="858" 
d="M119 670c9 0 16 -7 16 -17v-280h222c133 0 203 -81 203 -186s-70 -187 -203 -187h-237c-10 0 -17 7 -17 17v636c0 10 7 17 16 17zM739 -10c-9 0 -16 7 -16 17v646c0 10 7 17 16 17s16 -7 16 -17v-646c0 -10 -7 -17 -16 -17zM355 344h-220v-315h220c113 0 172 70 172 157
c0 88 -59 158 -172 158z" />
    <glyph glyph-name="uni0409" unicode="&#x409;" horiz-adv-x="1018" 
d="M755 373c124 0 203 -73 203 -186c0 -114 -80 -187 -203 -187h-237c-10 0 -17 7 -17 17v614h-275c-1 -365 -69 -574 -207 -634c-2 -1 -5 -2 -8 -2c-7 0 -13 6 -13 14c0 6 3 10 11 14c120 60 185 254 185 563v57c0 10 7 17 17 17h305c10 0 17 -7 17 -17v-270h222zM753 29
c104 0 172 62 172 157c0 96 -68 158 -172 158h-220v-315h220z" />
    <glyph glyph-name="uni040A" unicode="&#x40a;" horiz-adv-x="1066" 
d="M119 -10c-9 0 -16 7 -16 17v646c0 10 7 17 16 17s16 -7 16 -17v-279h414v279c0 10 7 17 16 17s16 -7 16 -17v-279h222c123 0 203 -73 203 -187s-80 -187 -203 -187h-237c-10 0 -17 7 -17 17v328h-414v-338c0 -10 -7 -17 -16 -17zM581 29h220c104 0 172 62 172 157
c0 96 -68 159 -172 159h-220v-316z" />
    <glyph glyph-name="uni0405" unicode="&#x405;" horiz-adv-x="555" 
d="M283 -10c-91 0 -169 44 -224 126c-2 3 -4 7 -4 12c0 8 7 14 15 14c6 0 11 -4 15 -10c48 -72 118 -111 199 -111c98 0 163 55 163 138c0 69 -29 102 -131 151l-76 36c-105 50 -143 95 -143 168c0 101 86 156 186 156c72 0 136 -30 180 -85c4 -5 5 -9 5 -13
c0 -7 -6 -14 -14 -14c-5 0 -10 3 -14 8c-41 49 -92 73 -155 73c-71 0 -154 -31 -154 -123c0 -63 30 -97 124 -142l76 -36c112 -54 150 -99 150 -179c0 -99 -82 -169 -198 -169z" />
    <glyph glyph-name="uni0404" unicode="&#x404;" horiz-adv-x="709" 
d="M637 139c8 0 14 -7 14 -15c0 -5 -2 -9 -6 -14c-62 -77 -153 -120 -254 -120c-189 0 -334 148 -334 340c0 191 146 340 334 340c101 0 192 -43 254 -120c4 -5 6 -9 6 -14c0 -8 -6 -15 -14 -15c-6 0 -10 2 -15 8c-56 71 -138 110 -231 110c-155 0 -277 -112 -297 -265h403
c8 0 15 -6 15 -14s-7 -15 -15 -15h-404h-2v-15c0 -176 129 -309 300 -309c93 0 175 39 231 110c5 6 9 8 15 8z" />
    <glyph glyph-name="uni042D" unicode="&#x42d;" horiz-adv-x="709" 
d="M318 670c188 0 334 -149 334 -340c0 -192 -145 -340 -334 -340c-101 0 -192 43 -254 120c-4 5 -6 9 -6 14c0 8 6 15 14 15c6 0 10 -2 15 -8c56 -71 138 -110 231 -110c171 0 300 133 300 309v15h-2h-404c-8 0 -15 7 -15 15s7 14 15 14h403c-20 153 -142 265 -297 265
c-93 0 -175 -39 -231 -110c-5 -6 -9 -8 -15 -8c-8 0 -14 7 -14 15c0 5 2 9 6 14c62 77 153 120 254 120z" />
    <glyph glyph-name="uni0406" unicode="&#x406;" horiz-adv-x="238" 
d="M119 670c9 0 16 -7 16 -17v-646c0 -10 -7 -17 -16 -17s-16 7 -16 17v646c0 10 7 17 16 17z" />
    <glyph glyph-name="uni0407" unicode="&#x407;" horiz-adv-x="238" 
d="M8 773c-19 0 -33 14 -33 33s14 33 33 33s33 -14 33 -33s-14 -33 -33 -33zM229 773c-19 0 -33 14 -33 33s14 33 33 33s33 -14 33 -33s-14 -33 -33 -33zM119 670c9 0 16 -7 16 -17v-646c0 -10 -7 -17 -16 -17s-16 7 -16 17v646c0 10 7 17 16 17z" />
    <glyph glyph-name="uni0408" unicode="&#x408;" horiz-adv-x="361" 
d="M108 -10c-31 0 -45 1 -65 6c-9 2 -16 9 -16 17c0 9 7 16 17 16c13 0 33 -7 63 -7c79 0 119 38 119 113v518c0 10 7 17 16 17s16 -7 16 -17v-518c0 -93 -54 -145 -150 -145z" />
    <glyph glyph-name="uni040B" unicode="&#x40b;" horiz-adv-x="785" 
d="M466 392c138 0 214 -87 214 -244v-141c0 -10 -7 -17 -16 -17s-16 7 -16 17v141c0 140 -63 213 -183 213c-54 0 -118 -13 -160 -32v-322c0 -10 -7 -17 -16 -17s-16 7 -16 17v624h-236c-8 0 -15 7 -15 15s7 14 15 14h504c8 0 15 -6 15 -14s-7 -15 -15 -15h-236v-270
c46 19 109 31 161 31z" />
    <glyph glyph-name="uni042E" unicode="&#x42e;" horiz-adv-x="1088" 
d="M695 670c188 0 336 -149 336 -340c0 -190 -148 -340 -336 -340c-187 0 -334 149 -334 340v15h-226v-338c0 -10 -7 -17 -16 -17s-16 7 -16 17v646c0 10 7 17 16 17s16 -7 16 -17v-279h229c20 169 158 296 331 296zM696 21c170 0 301 134 301 310c0 175 -130 308 -301 308
s-301 -133 -301 -308c0 -176 130 -310 301 -310z" />
    <glyph glyph-name="uni042F" unicode="&#x42f;" horiz-adv-x="604" 
d="M484 660c10 0 17 -7 17 -17v-636c0 -10 -7 -17 -16 -17s-16 7 -16 17v280h-179c-7 0 -15 0 -22 1l-198 -290c-3 -5 -9 -8 -14 -8c-9 0 -16 7 -16 16c0 4 1 7 3 9l189 278c-90 19 -145 86 -145 180c0 114 80 187 203 187h194zM469 316v315h-177c-104 0 -172 -62 -172 -157
c0 -96 68 -158 172 -158h177z" />
    <glyph glyph-name="uni0402" unicode="&#x402;" horiz-adv-x="748" 
d="M289 -10c-9 0 -16 7 -16 17v624h-236c-8 0 -15 7 -15 15s7 14 15 14h504c8 0 15 -6 15 -14s-7 -15 -15 -15h-236v-238h170c130 0 213 -77 213 -198c0 -104 -67 -177 -181 -200c-16 -3 -23 -4 -28 -4c-9 0 -15 6 -15 15c0 8 5 13 15 15c113 20 176 83 176 174
c0 102 -72 169 -182 169h-168v-357c0 -10 -7 -17 -16 -17z" />
    <glyph glyph-name="uni0462" unicode="&#x462;" horiz-adv-x="620" 
d="M357 373c124 0 203 -73 203 -186c0 -114 -80 -187 -203 -187h-237c-10 0 -17 7 -17 17v497h-73c-8 0 -15 6 -15 14s7 14 15 14h73v111c0 10 7 17 16 17s16 -7 16 -17v-111h275c8 0 15 -6 15 -14s-7 -14 -15 -14h-275v-141h222zM355 29c104 0 172 62 172 157
c0 96 -68 158 -172 158h-220v-315h220z" />
    <glyph glyph-name="uni0472" unicode="&#x472;" horiz-adv-x="784" 
d="M391 670c188 0 336 -149 336 -340c0 -190 -148 -340 -336 -340c-187 0 -334 149 -334 340s146 340 334 340zM392 639c-160 0 -285 -117 -299 -276c61 25 110 37 158 37c109 0 180 -54 287 -54c47 0 94 10 152 33c-21 151 -143 260 -298 260zM392 21
c170 0 301 134 301 310v17c-57 -23 -105 -33 -155 -33c-112 0 -183 54 -287 54c-49 0 -97 -11 -160 -37v-1c0 -176 130 -310 301 -310z" />
    <glyph glyph-name="uni0474" unicode="&#x474;" horiz-adv-x="695" 
d="M669 670c21 0 31 -6 31 -17c0 -8 -6 -14 -15 -14c-5 0 -11 1 -16 1c-38 0 -66 -24 -87 -74l-235 -566c-3 -6 -7 -10 -14 -10s-12 4 -15 10l-268 646c-1 3 -2 6 -2 9c0 10 9 15 15 15c7 0 13 -4 16 -12l253 -618l222 540c26 63 61 90 115 90z" />
    <glyph glyph-name="uni0492" unicode="&#x492;" horiz-adv-x="484" 
d="M456 660c8 0 15 -6 15 -14s-7 -15 -15 -15h-318v-276h271c8 0 15 -6 15 -14s-7 -15 -15 -15h-271v-319c0 -10 -7 -17 -16 -17s-16 7 -16 17v319h-93c-8 0 -15 7 -15 15s7 14 15 14h93v288c0 10 7 17 17 17h333z" />
    <glyph glyph-name="uni0496" unicode="&#x496;" horiz-adv-x="917" 
d="M412 371c5 -4 7 -8 7 -13c0 -4 -2 -8 -6 -12l-336 -349c-5 -5 -9 -7 -14 -7c-9 0 -16 7 -16 16c0 4 2 8 6 12l331 341l-306 283c-4 4 -6 8 -6 12c0 9 7 16 16 16c5 0 9 -2 14 -7zM460 670c9 0 16 -7 16 -17v-646c0 -10 -7 -17 -16 -17s-16 7 -16 17v646c0 10 7 17 16 17z
M877 19c10 0 17 -7 17 -17v-136c0 -10 -7 -17 -16 -17s-16 7 -16 17v124h-7c-5 0 -9 2 -14 7l-334 349c-4 4 -6 8 -6 12c0 5 2 9 7 13l310 292c5 5 9 7 14 7c9 0 16 -7 16 -16c0 -4 -2 -8 -6 -12l-306 -283l328 -340h13z" />
    <glyph glyph-name="uni0498" unicode="&#x498;" horiz-adv-x="577" 
d="M522 188c0 -101 -78 -180 -188 -195c17 -19 31 -47 31 -80c0 -60 -47 -103 -112 -103c-18 0 -37 2 -51 6c-12 3 -16 9 -16 15c0 8 6 14 14 14c9 0 23 -7 50 -7c51 0 83 30 83 77c0 40 -19 62 -38 75h-1c-93 0 -173 44 -228 123c-4 6 -5 9 -5 13c0 8 6 15 14 15
c6 0 11 -3 15 -9c52 -73 121 -111 203 -111c112 0 196 71 196 166c0 91 -72 158 -172 158h-132c-9 0 -15 7 -15 15s6 15 15 15h109c86 0 140 51 140 131c0 82 -58 133 -150 133c-67 0 -122 -26 -167 -79c-5 -6 -9 -8 -13 -8c-8 0 -16 6 -16 14c0 5 2 9 6 14
c51 59 115 90 191 90c108 0 182 -66 182 -163c0 -67 -36 -118 -95 -142c91 -19 150 -86 150 -177z" />
    <glyph glyph-name="uni049A" unicode="&#x49a;" horiz-adv-x="598" 
d="M119 670c9 0 16 -7 16 -17v-646c0 -10 -7 -17 -16 -17s-16 7 -16 17v646c0 10 7 17 16 17zM558 19c10 0 17 -7 17 -17v-136c0 -10 -7 -17 -16 -17s-16 7 -16 17v124h-7c-6 0 -9 2 -17 10l-352 346c-4 4 -6 8 -6 12c0 5 2 9 7 13l320 284c10 9 16 15 23 15
c9 0 16 -7 16 -15c0 -5 -3 -10 -9 -15l-320 -282l345 -339h15z" />
    <glyph glyph-name="uni04A0" unicode="&#x4a0;" horiz-adv-x="629" 
d="M576 15c4 -4 6 -8 6 -13c0 -7 -7 -14 -15 -14c-6 0 -9 2 -17 10l-352 346c-3 3 -5 7 -5 12s2 9 6 13l320 284c13 12 18 15 24 15c9 0 15 -6 15 -15c0 -5 -3 -10 -9 -15l-319 -283zM149 660c10 0 17 -7 17 -17v-636c0 -10 -7 -17 -16 -17s-16 7 -16 17v624h-111
c-8 0 -15 7 -15 15s7 14 15 14h126z" />
    <glyph glyph-name="uni04A2" unicode="&#x4a2;" horiz-adv-x="714" 
d="M585 670c9 0 16 -7 16 -17v-624h57c10 0 17 -7 17 -17v-146c0 -10 -7 -17 -16 -17s-16 7 -16 17v134h-57c-10 0 -17 7 -17 17v328h-434v-338c0 -10 -7 -17 -16 -17s-16 7 -16 17v646c0 10 7 17 16 17s16 -7 16 -17v-279h434v279c0 10 7 17 16 17z" />
    <glyph glyph-name="uni04AA" unicode="&#x4aa;" horiz-adv-x="709" 
d="M637 139c8 0 14 -7 14 -15c0 -5 -2 -9 -6 -14c-54 -67 -130 -109 -216 -118c16 -19 30 -46 30 -79c0 -60 -47 -103 -112 -103c-18 0 -37 2 -51 6c-12 3 -16 9 -16 15c0 8 6 14 14 14c9 0 23 -7 50 -7c51 0 83 30 83 77c0 40 -19 62 -39 75c-187 1 -331 149 -331 340
s146 340 334 340c101 0 192 -43 254 -120c4 -5 6 -9 6 -14c0 -8 -6 -15 -14 -15c-6 0 -10 2 -15 8c-56 71 -138 110 -231 110c-170 0 -300 -134 -300 -309c0 -176 129 -309 300 -309c93 0 175 39 231 110c5 6 9 8 15 8z" />
    <glyph glyph-name="uni04AE" unicode="&#x4ae;" horiz-adv-x="610" 
d="M546 656c0 -4 -2 -7 -5 -12l-220 -359v-278c0 -10 -7 -17 -16 -17s-16 7 -16 17v279l-220 357c-4 6 -5 10 -5 13c0 8 6 14 15 14c6 0 10 -3 13 -8l213 -349l213 349c3 5 7 8 13 8c9 0 15 -6 15 -14z" />
    <glyph glyph-name="uni04B0" unicode="&#x4b0;" horiz-adv-x="614" 
d="M543 644l-220 -359v-7h198c8 0 15 -6 15 -14s-7 -15 -15 -15h-198v-242c0 -10 -7 -17 -16 -17s-16 7 -16 17v242h-200c-8 0 -15 7 -15 15s7 14 15 14h200v8l-220 357c-4 6 -5 10 -5 13c0 8 6 14 15 14c6 0 10 -3 13 -8l213 -349l213 349c3 5 7 8 13 8c9 0 15 -6 15 -14
c0 -4 -2 -7 -5 -12z" />
    <glyph glyph-name="uni04B2" unicode="&#x4b2;" horiz-adv-x="575" 
d="M544 19c10 0 17 -7 17 -17v-136c0 -10 -7 -17 -16 -17s-16 7 -16 17l-1 124h-11c-6 0 -10 3 -15 10l-212 313l-213 -313c-5 -7 -9 -10 -15 -10c-9 0 -15 6 -15 15c0 4 2 8 5 12l220 323l-205 305c-2 3 -3 7 -3 10c0 9 6 15 15 15c6 0 10 -3 15 -10l197 -295l194 295
c5 7 9 10 15 10c9 0 15 -6 15 -15c0 -4 -1 -7 -5 -13l-201 -303l217 -320h18z" />
    <glyph glyph-name="uni04B6" unicode="&#x4b6;" horiz-adv-x="616" 
d="M560 29c10 0 17 -7 17 -17v-146c0 -10 -7 -17 -16 -17s-16 7 -16 17v134h-57c-10 0 -17 7 -17 17v273c-44 -20 -105 -32 -160 -32c-152 0 -254 91 -254 264v131c0 10 7 17 16 17s16 -7 16 -17v-131c0 -159 92 -233 223 -233c50 0 115 11 159 33v331c0 10 7 17 16 17
s16 -7 16 -17v-624h57z" />
    <glyph glyph-name="uni04BA" unicode="&#x4ba;" horiz-adv-x="605" 
d="M286 392c138 0 214 -87 214 -244v-141c0 -10 -7 -17 -16 -17s-16 7 -16 17v141c0 140 -63 213 -183 213c-50 0 -107 -13 -150 -32v-322c0 -10 -7 -17 -16 -17s-16 7 -16 17v646c0 10 7 17 16 17s16 -7 16 -17v-292c48 20 102 31 151 31z" />
    <glyph glyph-name="uni04C0" unicode="&#x4c0;" horiz-adv-x="238" 
d="M119 670c9 0 16 -7 16 -17v-646c0 -10 -7 -17 -16 -17s-16 7 -16 17v646c0 10 7 17 16 17z" />
    <glyph glyph-name="uni04C1" unicode="&#x4c1;" horiz-adv-x="918" 
d="M460 747c-73 0 -134 54 -134 120c0 10 6 18 15 18s15 -6 15 -18c2 -51 48 -92 104 -92s103 41 104 92c0 11 6 18 15 18s15 -8 15 -18c0 -66 -61 -120 -134 -120zM412 371c5 -4 7 -8 7 -13c0 -4 -2 -8 -6 -12l-336 -349c-5 -5 -9 -7 -14 -7c-9 0 -16 7 -16 16
c0 4 2 8 6 12l331 341l-306 283c-4 4 -6 8 -6 12c0 9 7 16 16 16c5 0 9 -2 14 -7zM460 670c9 0 16 -7 16 -17v-646c0 -10 -7 -17 -16 -17s-16 7 -16 17v646c0 10 7 17 16 17zM865 18c4 -4 6 -8 6 -12c0 -9 -7 -16 -16 -16c-5 0 -9 2 -14 7l-334 349c-4 4 -6 8 -6 12
c0 5 2 9 7 13l310 292c5 5 9 7 14 7c9 0 16 -7 16 -16c0 -4 -2 -8 -6 -12l-306 -283z" />
    <glyph glyph-name="uni04D0" unicode="&#x4d0;" horiz-adv-x="665" 
d="M333 747c-73 0 -134 54 -134 120c0 10 6 18 15 18s15 -6 15 -18c2 -51 48 -92 104 -92s103 41 104 92c0 11 6 18 15 18s15 -8 15 -18c0 -66 -61 -120 -134 -120zM614 14c2 -5 3 -8 3 -11c0 -7 -7 -13 -15 -13c-7 0 -13 4 -16 12l-71 173h-365l-71 -173
c-3 -8 -9 -12 -16 -12c-8 0 -15 6 -15 13c0 3 1 6 3 11l267 645c2 7 8 11 15 11s13 -4 15 -11zM333 619l-171 -415h341z" />
    <glyph glyph-name="uni04D6" unicode="&#x4d6;" horiz-adv-x="561" 
d="M281 747c-73 0 -134 54 -134 120c0 10 6 18 15 18s15 -6 15 -18c2 -51 48 -92 104 -92s103 41 104 92c0 11 6 18 15 18s15 -8 15 -18c0 -66 -61 -120 -134 -120zM120 0c-10 0 -17 7 -17 17v626c0 10 7 17 17 17h376c8 0 15 -6 15 -14s-7 -15 -15 -15h-361v-257h281
c8 0 15 -6 15 -14s-7 -15 -15 -15h-281v-316h373c8 0 15 -6 15 -14s-7 -15 -15 -15h-388z" />
    <glyph glyph-name="uni04D8" unicode="&#x4d8;" horiz-adv-x="730" 
d="M350 670c182 0 323 -148 323 -338c0 -191 -143 -342 -326 -342c-169 0 -290 122 -290 292c0 8 0 15 2 33c1 11 8 17 16 17h564v2c0 173 -125 305 -290 305c-92 0 -177 -40 -234 -112c-6 -8 -10 -10 -15 -10c-9 0 -16 7 -16 16c0 4 2 8 8 16c64 77 155 121 258 121z
M349 21c153 0 275 121 289 282h-547c-12 -160 99 -282 258 -282z" />
    <glyph glyph-name="uni04E2" unicode="&#x4e2;" horiz-adv-x="714" 
d="M227 782c-8 0 -14 6 -14 14s6 14 14 14h244c8 0 14 -6 14 -14s-6 -14 -14 -14h-244zM595 670c9 0 16 -7 16 -17v-646c0 -10 -7 -17 -16 -17s-16 7 -16 17v601l-447 -611c-4 -5 -8 -7 -13 -7c-9 0 -16 7 -16 17v646c0 10 7 17 16 17s16 -7 16 -17v-601l447 611
c4 5 8 7 13 7z" />
    <glyph glyph-name="uni04E6" unicode="&#x4e6;" horiz-adv-x="784" 
d="M281 773c-19 0 -33 14 -33 33s14 33 33 33s33 -14 33 -33s-14 -33 -33 -33zM502 773c-19 0 -33 14 -33 33s14 33 33 33s33 -14 33 -33s-14 -33 -33 -33zM391 670c188 0 336 -149 336 -340c0 -190 -148 -340 -336 -340c-187 0 -334 149 -334 340s146 340 334 340zM392 639
c-171 0 -301 -134 -301 -308c0 -176 131 -310 301 -310s301 135 301 310c0 174 -131 308 -301 308z" />
    <glyph glyph-name="uni04E8" unicode="&#x4e8;" horiz-adv-x="784" 
d="M391 670c188 0 336 -149 336 -340c0 -190 -148 -340 -336 -340c-187 0 -334 149 -334 340s146 340 334 340zM392 639c-157 0 -279 -112 -298 -265h596c-19 153 -141 265 -298 265zM392 21c170 0 301 134 301 310v14h-602v-14c0 -176 130 -310 301 -310z" />
    <glyph glyph-name="uni04EE" unicode="&#x4ee;" horiz-adv-x="593" 
d="M176 782c-8 0 -14 6 -14 14s6 14 14 14h244c8 0 14 -6 14 -14s-6 -14 -14 -14h-244zM528 670c9 0 16 -7 16 -15c0 -3 -1 -6 -4 -13l-233 -539c-33 -76 -89 -113 -168 -113c-18 0 -41 2 -54 6c-9 2 -14 8 -14 16s7 15 16 15c8 0 30 -7 51 -7c70 0 117 31 144 95l10 23
l-224 504c-3 7 -4 10 -4 13c0 8 7 15 16 15c7 0 11 -3 15 -12l213 -486l205 486c4 9 9 12 15 12z" />
    <glyph glyph-name="uni04F2" unicode="&#x4f2;" horiz-adv-x="593" 
d="M241 728c-8 0 -16 9 -11 18l82 158c4 8 11 9 14 9c11 0 18 -11 11 -24l-84 -153c-3 -5 -6 -8 -12 -8zM395 728c-8 0 -16 9 -11 18l82 158c4 8 11 9 14 9c11 0 18 -11 11 -24l-84 -153c-3 -5 -6 -8 -12 -8zM528 670c9 0 16 -7 16 -15c0 -3 -1 -6 -4 -13l-233 -539
c-33 -76 -89 -113 -168 -113c-18 0 -41 2 -54 6c-9 2 -14 8 -14 16s7 15 16 15c8 0 30 -7 51 -7c70 0 117 31 144 95l10 23l-224 504c-3 7 -4 10 -4 13c0 8 7 15 16 15c7 0 11 -3 15 -12l213 -486l205 486c4 9 9 12 15 12z" />
    <glyph glyph-name="uni0414.loclBGR" horiz-adv-x="737" 
d="M690 29c10 0 17 -7 17 -17v-146c0 -10 -7 -17 -16 -17s-16 7 -16 17v134h-613v-134c0 -10 -7 -17 -16 -17s-16 7 -16 17v146c0 10 7 17 17 17h47l260 630c3 7 8 11 15 11s12 -4 15 -11l260 -630h46zM369 613l-242 -584h484z" />
    <glyph glyph-name="uni041B.loclBGR" horiz-adv-x="665" 
d="M614 14c2 -5 3 -8 3 -11c0 -7 -7 -13 -15 -13c-7 0 -13 4 -16 12l-253 615l-254 -615c-3 -8 -9 -12 -16 -12c-8 0 -15 6 -15 13c0 3 1 6 3 11l267 645c2 7 8 11 15 11s13 -4 15 -11z" />
    <glyph glyph-name="uni0410.ordn" horiz-adv-x="440" 
d="M398 262c1 -2 2 -6 2 -8c0 -9 -7 -15 -15 -15s-13 5 -16 13l-39 92h-220l-39 -92c-3 -8 -8 -13 -16 -13s-15 6 -15 14c0 3 1 7 2 9l162 390c4 10 9 14 16 14s12 -4 16 -14zM220 617l-98 -245h196z" />
    <glyph glyph-name="uni0413.ordn" horiz-adv-x="330" 
d="M308 660c10 0 17 -6 17 -14s-7 -15 -17 -15l-200 1v-376c0 -10 -6 -17 -15 -17s-16 7 -16 17v387c0 10 7 17 17 17h214z" />
    <glyph glyph-name="uni0415.ordn" horiz-adv-x="374" 
d="M324 660c8 0 15 -6 15 -14s-7 -15 -15 -15h-216v-147h172c8 0 15 -6 15 -14s-7 -15 -15 -15h-172v-182h223c8 0 15 -6 15 -14s-7 -15 -15 -15h-237c-10 0 -17 7 -17 17v382c0 10 7 17 17 17h230z" />
    <glyph glyph-name="uni0419.ordn" horiz-adv-x="481" 
d="M235 713c-44 0 -86 35 -88 74c-1 9 5 16 14 16c6 0 11 -5 13 -13c7 -31 31 -51 61 -51s53 20 61 51c2 9 7 13 14 13c8 0 14 -7 13 -16c-2 -39 -43 -74 -88 -74zM389 666c8 0 15 -7 15 -15v-395c0 -10 -6 -17 -15 -17s-16 7 -16 17v349l-268 -359c-3 -4 -8 -7 -13 -7
c-8 0 -15 7 -15 15v395c0 10 7 17 16 17c8 0 15 -7 15 -17v-350l268 360c3 4 8 7 13 7z" />
    <glyph glyph-name="uni041C.ordn" horiz-adv-x="524" 
d="M431 666c9 0 16 -7 16 -16v-394c0 -10 -6 -17 -15 -17s-16 7 -16 17v342l-139 -214c-4 -6 -8 -9 -15 -9c-6 0 -11 3 -15 9l-139 214v-342c0 -10 -6 -17 -15 -17s-16 7 -16 17v394c0 9 7 16 16 16c6 0 11 -4 14 -9l155 -241l155 241c3 5 8 9 14 9z" />
    <glyph glyph-name="uni041E.ordn" horiz-adv-x="510" 
d="M254 666c120 0 213 -94 213 -214c0 -119 -93 -213 -213 -213c-119 0 -211 92 -211 213s92 214 211 214zM255 636c-103 0 -180 -78 -180 -184c0 -105 77 -183 180 -183s180 79 180 183c0 105 -77 184 -180 184z" />
    <glyph glyph-name="uni0423.ordn" horiz-adv-x="394" 
d="M337 666c9 0 15 -7 15 -15c0 -2 0 -4 -2 -9l-141 -329c-21 -49 -58 -75 -109 -75c-12 0 -24 1 -36 4c-9 2 -13 9 -13 15c0 8 7 14 15 14c9 0 16 -3 31 -3c40 0 69 19 85 56l5 11l-138 307c-2 5 -2 7 -2 9c0 8 6 15 15 15c7 0 12 -4 15 -11l125 -287l120 287
c3 7 8 11 15 11z" />
    <glyph glyph-name="uni0425.ordn" horiz-adv-x="336" 
d="M318 263c2 -3 3 -6 3 -9c0 -8 -7 -15 -15 -15c-6 0 -11 3 -15 9l-123 184l-123 -184c-4 -6 -9 -9 -15 -9c-8 0 -15 7 -15 15c0 3 1 6 3 9l132 193l-124 186c-2 3 -3 6 -3 9c0 8 7 15 15 15c6 0 11 -3 15 -9l115 -175l115 175c4 6 9 9 15 9c8 0 15 -7 15 -15
c0 -3 -1 -6 -3 -9l-124 -186z" />
    <glyph glyph-name="uni042B.ordn" horiz-adv-x="569" 
d="M93 666c9 0 15 -7 15 -17v-393c0 -10 -6 -17 -15 -17s-16 7 -16 17v393c0 10 7 17 16 17zM248 666c9 0 15 -7 15 -17v-164h131c80 0 132 -47 132 -120s-52 -121 -132 -121h-145c-10 0 -17 7 -17 17v388c0 10 7 17 16 17zM393 457h-130v-185h130c61 0 101 36 101 92
c0 57 -39 93 -101 93z" />
    <glyph glyph-name="uni042E.ordn" horiz-adv-x="706" 
d="M450 666c120 0 213 -94 213 -214c0 -119 -93 -213 -213 -213c-119 0 -211 93 -211 213v2h-131v-198c0 -10 -6 -17 -15 -17s-16 7 -16 17v393c0 10 7 17 16 17s15 -7 15 -17v-166h133c14 106 100 183 209 183zM451 268c102 0 180 79 180 184s-77 184 -180 184
s-180 -79 -180 -184s77 -184 180 -184z" />
    <glyph glyph-name="uni042F.ordn" horiz-adv-x="403" 
d="M309 660c10 0 17 -7 17 -17v-387c0 -10 -6 -17 -15 -17s-16 7 -16 17v160h-104h-14l-114 -169c-5 -6 -9 -8 -14 -8c-8 0 -15 7 -15 15c0 3 1 6 3 9l108 159c-54 15 -87 57 -87 116c0 73 53 122 133 122h118zM295 444v188h-103c-62 0 -102 -37 -102 -94s40 -94 102 -94
h103z" />
    <glyph glyph-name="uni0409.ss01" horiz-adv-x="1015" 
d="M752 373c124 0 203 -73 203 -186c0 -114 -80 -187 -203 -187h-150c-10 0 -17 4 -21 13l-248 606l-254 -617c-3 -8 -9 -12 -16 -12c-8 0 -15 6 -15 13c0 3 1 6 3 11l267 645c3 7 8 11 15 11s12 -4 15 -11l118 -286h286zM750 29c104 0 172 62 172 157
c0 96 -68 158 -172 158h-272l130 -315h142z" />
    <glyph glyph-name="uni0430" unicode="&#x430;" horiz-adv-x="516" 
d="M252 490c108 0 173 -70 173 -185v-300c0 -8 -7 -15 -15 -15s-15 7 -15 15v80c-34 -58 -100 -95 -179 -95c-97 0 -164 52 -164 127c0 76 64 124 164 124h179v65c0 97 -54 155 -145 155c-55 0 -100 -23 -142 -73c-4 -5 -8 -7 -13 -7c-8 0 -14 6 -14 13c0 4 2 9 7 15
c47 55 99 81 164 81zM217 19c99 0 178 69 178 156v38h-178c-84 0 -133 -36 -133 -96c0 -59 53 -98 133 -98z" />
    <glyph glyph-name="uni0431" unicode="&#x431;" horiz-adv-x="631" 
d="M332 473c130 0 239 -97 239 -235s-105 -247 -247 -247c-128 0 -240 96 -240 257v97c0 234 110 305 305 376l96 35c5 2 9 3 12 3c7 0 13 -7 13 -15c0 -6 -3 -11 -13 -15l-104 -38c-188 -68 -279 -141 -279 -343v-14c34 79 116 139 218 139zM328 20c118 0 211 95 211 218
c0 125 -96 206 -208 206c-122 0 -215 -95 -215 -212c0 -118 94 -212 212 -212z" />
    <glyph glyph-name="uni0432" unicode="&#x432;" horiz-adv-x="554" 
d="M379 254c67 -16 105 -58 105 -118c0 -82 -65 -136 -163 -136h-200c-8 0 -15 7 -15 15v450c0 8 7 15 15 15h193c86 0 138 -43 138 -115c0 -51 -27 -92 -73 -111zM136 452v-187h175c68 0 109 37 109 99c0 57 -38 88 -109 88h-175zM319 28c80 0 133 43 133 107
c0 63 -51 102 -133 102h-183v-209h183z" />
    <glyph glyph-name="uni0433" unicode="&#x433;" horiz-adv-x="431" 
d="M121 -10c-8 0 -15 7 -15 15v460c0 8 7 15 15 15h287c8 0 15 -6 15 -14s-7 -14 -15 -14h-272v-447c0 -8 -7 -15 -15 -15z" />
    <glyph glyph-name="uni0453" unicode="&#x453;" horiz-adv-x="431" 
d="M244 561c-6 0 -12 5 -12 12c0 1 0 4 2 8l84 184c3 7 8 11 16 11s14 -7 14 -13c0 -5 -2 -9 -4 -14l-86 -176c-4 -8 -8 -12 -14 -12zM121 -10c-8 0 -15 7 -15 15v460c0 8 7 15 15 15h287c8 0 15 -6 15 -14s-7 -14 -15 -14h-272v-447c0 -8 -7 -15 -15 -15z" />
    <glyph glyph-name="uni0491" unicode="&#x491;" horiz-adv-x="431" 
d="M406 611c8 0 15 -7 15 -15v-129c0 -8 -7 -15 -15 -15h-270v-447c0 -8 -7 -15 -15 -15s-15 7 -15 15v460c0 8 7 15 15 15h270v116c0 8 6 15 15 15z" />
    <glyph glyph-name="uni0434" unicode="&#x434;" horiz-adv-x="575" 
d="M510 28c8 0 15 -7 15 -15v-149c0 -8 -7 -15 -15 -15s-15 7 -15 15v136h-425v-136c0 -8 -7 -15 -15 -15s-15 7 -15 15v149c0 8 7 15 15 15h35c68 73 99 209 99 435v2c0 8 7 15 15 15h231c8 0 15 -7 15 -15v-437h60zM219 452c0 -220 -27 -345 -92 -424h293v424h-201z" />
    <glyph glyph-name="uni0435" unicode="&#x435;" horiz-adv-x="573" 
d="M298 490c125 0 215 -91 215 -216v-16c0 -14 -6 -21 -19 -21h-402c1 -124 93 -218 214 -218c62 0 123 28 162 74c5 6 8 8 13 8c8 0 14 -6 14 -13c0 -5 -2 -9 -7 -15c-48 -54 -111 -83 -182 -83c-137 0 -246 111 -246 250c0 140 105 250 238 250zM298 461
c-108 0 -194 -84 -205 -196h389c4 112 -73 196 -184 196z" />
    <glyph glyph-name="uni0450" unicode="&#x450;" horiz-adv-x="573" 
d="M282 573l-86 176c-2 5 -4 9 -4 14c0 6 6 13 14 13s13 -4 16 -11l84 -184c2 -4 2 -7 2 -8c0 -7 -6 -12 -12 -12s-10 4 -14 12zM298 490c125 0 215 -91 215 -216v-16c0 -14 -6 -21 -19 -21h-402c1 -124 93 -218 214 -218c62 0 123 28 162 74c5 6 8 8 13 8c8 0 14 -6 14 -13
c0 -5 -2 -9 -7 -15c-48 -54 -111 -83 -182 -83c-137 0 -246 111 -246 250c0 140 105 250 238 250zM298 461c-108 0 -194 -84 -205 -196h389c4 112 -73 196 -184 196z" />
    <glyph glyph-name="uni0451" unicode="&#x451;" horiz-adv-x="573" 
d="M205 633c-19 0 -33 14 -33 33s14 33 33 33s33 -14 33 -33s-14 -33 -33 -33zM397 633c-19 0 -33 14 -33 33s14 33 33 33s33 -14 33 -33s-14 -33 -33 -33zM298 490c125 0 215 -91 215 -216v-16c0 -14 -6 -21 -19 -21h-402c1 -124 93 -218 214 -218c62 0 123 28 162 74
c5 6 8 8 13 8c8 0 14 -6 14 -13c0 -5 -2 -9 -7 -15c-48 -54 -111 -83 -182 -83c-137 0 -246 111 -246 250c0 140 105 250 238 250zM298 461c-108 0 -194 -84 -205 -196h389c4 112 -73 196 -184 196z" />
    <glyph glyph-name="uni0436" unicode="&#x436;" horiz-adv-x="718" 
d="M91 484l219 -210c6 -6 8 -10 8 -15c0 -4 -1 -8 -7 -14l-245 -249c-4 -4 -8 -6 -12 -6c-8 0 -15 7 -15 15c0 4 2 8 5 11l240 244l-215 204c-3 3 -5 7 -5 11c0 8 7 15 15 15c4 0 8 -2 12 -6zM359 490c8 0 15 -7 15 -17v-466c0 -10 -7 -17 -15 -17s-15 7 -15 17v466
c0 10 6 17 15 17zM674 16c3 -3 5 -7 5 -11c0 -8 -7 -15 -15 -15c-4 0 -8 2 -12 6l-245 250c-5 5 -7 9 -7 13c0 5 2 9 7 14l220 211c4 4 8 6 12 6c8 0 15 -7 15 -15c0 -4 -2 -8 -5 -11l-215 -204z" />
    <glyph glyph-name="uni0437" unicode="&#x437;" horiz-adv-x="487" 
d="M303 260c70 -19 110 -66 110 -128c0 -84 -74 -142 -181 -142c-81 0 -131 33 -169 84c-4 5 -5 9 -5 12c0 8 7 14 15 14c5 0 9 -2 14 -9c30 -40 69 -72 145 -72c89 0 149 46 149 115c0 67 -58 112 -145 112h-74c-8 0 -15 7 -15 15s7 14 15 14h81c69 0 114 37 114 95
s-46 91 -126 91c-62 0 -107 -22 -133 -57c-3 -4 -8 -7 -12 -7c-8 0 -15 7 -15 15c0 3 1 6 5 11c32 40 83 67 155 67c98 0 158 -45 158 -119c0 -53 -31 -94 -86 -111z" />
    <glyph glyph-name="uni0438" unicode="&#x438;" horiz-adv-x="589" 
d="M468 490c8 0 15 -7 15 -17v-466c0 -10 -7 -17 -15 -17s-15 7 -15 17v422l-319 -430c-5 -7 -8 -9 -13 -9c-8 0 -15 7 -15 17v466c0 10 7 17 15 17s15 -7 15 -17v-422l319 431c5 6 8 8 13 8z" />
    <glyph glyph-name="uni0439" unicode="&#x439;" horiz-adv-x="589" 
d="M287 593c-76 0 -135 58 -135 134c0 10 7 17 15 17s15 -7 15 -17c0 -60 46 -106 105 -106s105 46 105 106c0 10 7 17 15 17s15 -7 15 -17c0 -75 -59 -134 -135 -134zM468 490c8 0 15 -7 15 -17v-466c0 -10 -7 -17 -15 -17s-15 7 -15 17v422l-319 -430c-5 -7 -8 -9 -13 -9
c-8 0 -15 7 -15 17v466c0 10 7 17 15 17s15 -7 15 -17v-422l319 431c5 6 8 8 13 8z" />
    <glyph glyph-name="uni045D" unicode="&#x45d;" horiz-adv-x="589" 
d="M268 573l-86 176c-2 5 -4 9 -4 14c0 6 6 13 14 13s13 -4 16 -11l84 -184c2 -4 2 -7 2 -8c0 -7 -6 -12 -12 -12s-10 4 -14 12zM468 490c8 0 15 -7 15 -17v-466c0 -10 -7 -17 -15 -17s-15 7 -15 17v422l-319 -430c-5 -7 -8 -9 -13 -9c-8 0 -15 7 -15 17v466
c0 10 7 17 15 17s15 -7 15 -17v-422l319 431c5 6 8 8 13 8z" />
    <glyph glyph-name="uni043A" unicode="&#x43a;" horiz-adv-x="480" 
d="M121 490c8 0 15 -7 15 -17v-466c0 -10 -7 -17 -15 -17s-15 7 -15 17v466c0 10 6 17 15 17zM436 16c3 -3 5 -7 5 -11c0 -8 -7 -15 -15 -15c-4 0 -7 1 -10 4l-249 253c-3 4 -5 8 -5 12c0 5 2 9 6 13l222 214c3 3 6 4 10 4c8 0 15 -7 15 -15c0 -4 -2 -8 -5 -11l-213 -203z
" />
    <glyph glyph-name="uni045C" unicode="&#x45c;" horiz-adv-x="480" 
d="M254 561c-6 0 -12 5 -12 12c0 1 0 4 2 8l84 184c3 7 8 11 16 11s14 -7 14 -13c0 -5 -2 -9 -4 -14l-86 -176c-4 -8 -8 -12 -14 -12zM121 490c8 0 15 -7 15 -17v-466c0 -10 -7 -17 -15 -17s-15 7 -15 17v466c0 10 6 17 15 17zM436 16c3 -3 5 -7 5 -11c0 -8 -7 -15 -15 -15
c-4 0 -7 1 -10 4l-249 253c-3 4 -5 8 -5 12c0 5 2 9 6 13l222 214c3 3 6 4 10 4c8 0 15 -7 15 -15c0 -4 -2 -8 -5 -11l-213 -203z" />
    <glyph glyph-name="uni043B" unicode="&#x43b;" horiz-adv-x="539" 
d="M416 480c10 0 17 -7 17 -17v-456c0 -10 -7 -17 -15 -17s-15 7 -15 17v445h-212v-43c0 -234 -45 -359 -150 -410c-6 -3 -12 -5 -16 -5c-9 0 -15 5 -15 14c0 7 5 13 15 17c90 39 136 166 136 394v44c0 10 7 17 17 17h238z" />
    <glyph glyph-name="uni043C" unicode="&#x43c;" horiz-adv-x="700" 
d="M121 -10c-8 0 -15 7 -15 17v466c0 10 7 17 15 17c4 0 8 -2 11 -6l218 -290l218 290c3 4 7 6 11 6c8 0 15 -7 15 -17v-466c0 -10 -7 -17 -15 -17s-15 7 -15 17v421l-199 -263c-4 -5 -9 -9 -15 -9s-11 4 -15 9l-199 263v-421c0 -10 -7 -17 -15 -17z" />
    <glyph glyph-name="uni043D" unicode="&#x43d;" horiz-adv-x="573" 
d="M452 490c8 0 15 -7 15 -15v-470c0 -8 -7 -15 -15 -15s-15 7 -15 15v242h-301v-242c0 -8 -7 -15 -15 -15s-15 7 -15 15v470c0 8 7 15 15 15s15 -7 15 -15v-199h301v199c0 8 6 15 15 15z" />
    <glyph glyph-name="uni043E" unicode="&#x43e;" horiz-adv-x="613" 
d="M306 490c138 0 247 -110 247 -250s-110 -250 -248 -250c-137 0 -245 110 -245 250c0 141 108 250 246 250zM306 461c-121 0 -214 -96 -214 -221s92 -221 213 -221c122 0 216 97 216 221c0 125 -94 221 -215 221z" />
    <glyph glyph-name="uni043F" unicode="&#x43f;" horiz-adv-x="564" 
d="M121 -10c-8 0 -15 7 -15 15v460c0 8 7 15 15 15h322c8 0 15 -7 15 -15v-460c0 -8 -7 -15 -15 -15s-15 7 -15 15v447h-292v-447c0 -8 -7 -15 -15 -15z" />
    <glyph glyph-name="uni0440" unicode="&#x440;" horiz-adv-x="642" 
d="M342 490c134 0 240 -110 240 -250c0 -141 -105 -250 -240 -250c-95 0 -175 52 -206 126v-291c0 -8 -7 -15 -15 -15s-15 7 -15 15v650c0 8 7 15 15 15s15 -7 15 -15v-111c31 74 111 126 206 126zM342 19c119 0 208 94 208 221c0 126 -90 221 -208 221
c-124 0 -206 -88 -206 -221s82 -221 206 -221z" />
    <glyph glyph-name="uni0441" unicode="&#x441;" horiz-adv-x="553" 
d="M305 -10c-137 0 -245 112 -245 250c0 139 108 250 246 250c77 0 137 -28 186 -88c6 -7 8 -11 8 -16c0 -7 -7 -13 -14 -13c-4 0 -9 2 -13 7c-43 56 -95 81 -167 81c-122 0 -214 -97 -214 -221c0 -123 92 -221 213 -221c72 0 123 26 167 81c4 5 9 7 13 7c7 0 14 -6 14 -13
c0 -5 -2 -9 -8 -16c-50 -59 -109 -88 -186 -88z" />
    <glyph glyph-name="uni0442" unicode="&#x442;" horiz-adv-x="460" 
d="M230 -10c-8 0 -15 7 -15 15v447h-174c-8 0 -15 6 -15 14s7 14 15 14h378c8 0 15 -6 15 -14s-7 -14 -15 -14h-174v-447c0 -8 -7 -15 -15 -15z" />
    <glyph glyph-name="uni0443" unicode="&#x443;" horiz-adv-x="519" 
d="M466 490c8 0 15 -7 15 -15c0 -1 0 -3 -2 -8l-236 -548c-31 -71 -84 -109 -152 -109c-15 0 -31 2 -44 6c-8 2 -13 7 -13 14c0 8 6 14 14 14c6 0 25 -6 41 -6c60 0 101 30 128 94l31 73l-205 462l-2 8c0 8 7 15 15 15c7 0 13 -4 16 -12l192 -437l186 437c3 8 9 12 16 12z
" />
    <glyph glyph-name="uni045E" unicode="&#x45e;" horiz-adv-x="519" 
d="M259 593c-76 0 -135 58 -135 134c0 10 7 17 15 17s15 -7 15 -17c0 -60 46 -106 105 -106s105 46 105 106c0 10 7 17 15 17s15 -7 15 -17c0 -75 -59 -134 -135 -134zM466 490c8 0 15 -7 15 -15c0 -1 0 -3 -2 -8l-236 -548c-31 -71 -84 -109 -152 -109c-15 0 -31 2 -44 6
c-8 2 -13 7 -13 14c0 8 6 14 14 14c6 0 25 -6 41 -6c60 0 101 30 128 94l31 73l-205 462l-2 8c0 8 7 15 15 15c7 0 13 -4 16 -12l192 -437l186 437c3 8 9 12 16 12z" />
    <glyph glyph-name="uni0444" unicode="&#x444;" horiz-adv-x="685" 
d="M357 488c157 0 268 -102 268 -248c0 -149 -109 -250 -268 -250v-165c0 -8 -7 -15 -15 -15s-15 7 -15 15v165c-159 0 -267 101 -267 250c0 146 110 248 267 248v257c0 9 7 15 15 15s15 -7 15 -15v-257zM92 240c0 -134 94 -222 235 -222v442c-140 0 -235 -89 -235 -220z
M357 18c142 0 236 89 236 222c0 131 -96 220 -236 220v-442z" />
    <glyph glyph-name="uni0445" unicode="&#x445;" horiz-adv-x="467" 
d="M426 15c2 -3 4 -6 4 -10c0 -8 -7 -15 -15 -15c-5 0 -10 2 -14 8l-168 230l-167 -230c-4 -6 -9 -8 -14 -8c-8 0 -15 7 -15 15c0 4 2 7 4 10l173 237l-157 213c-2 3 -4 6 -4 10c0 8 7 15 15 15c5 0 9 -2 13 -8l152 -206l153 206c4 6 8 8 13 8c8 0 15 -7 15 -15
c0 -4 -2 -7 -4 -10l-158 -213z" />
    <glyph glyph-name="uni0447" unicode="&#x447;" horiz-adv-x="527" 
d="M406 490c8 0 15 -7 15 -15v-470c0 -8 -7 -15 -15 -15s-15 7 -15 15v196c-36 -16 -84 -26 -131 -26c-128 0 -200 74 -200 205v95c0 9 7 15 15 15s15 -7 15 -15v-95c0 -116 58 -176 169 -176c48 0 99 11 132 27v244c0 9 7 15 15 15z" />
    <glyph glyph-name="uni0446" unicode="&#x446;" horiz-adv-x="573" 
d="M433 490c8 0 15 -7 15 -15v-447h60c8 0 15 -7 15 -15v-149c0 -8 -7 -15 -15 -15s-15 7 -15 15v136h-372c-8 0 -15 7 -15 15v460c0 8 7 15 15 15s15 -7 15 -15v-447h282v447c0 8 6 15 15 15z" />
    <glyph glyph-name="uni0448" unicode="&#x448;" horiz-adv-x="846" 
d="M121 0c-8 0 -15 7 -15 15v460c0 8 7 15 15 15s15 -7 15 -15v-447h272v447c0 8 7 15 15 15s15 -7 15 -15v-447h272v447c0 8 6 15 15 15c8 0 15 -7 15 -15v-460c0 -8 -7 -15 -15 -15h-604z" />
    <glyph glyph-name="uni0449" unicode="&#x449;" horiz-adv-x="865" 
d="M800 -151c-8 0 -15 7 -15 15v136h-664c-8 0 -15 7 -15 15v460c0 8 7 15 15 15s15 -7 15 -15v-447h272v447c0 8 7 15 15 15s15 -7 15 -15v-447h272v447c0 8 6 15 15 15c8 0 15 -7 15 -15v-447h60c8 0 15 -7 15 -15v-149c0 -8 -7 -15 -15 -15z" />
    <glyph glyph-name="uni045F" unicode="&#x45f;" horiz-adv-x="554" 
d="M433 490c8 0 15 -7 15 -15v-460c0 -8 -7 -15 -15 -15h-141v-136c0 -8 -7 -15 -15 -15s-15 7 -15 15v136h-141c-8 0 -15 7 -15 15v460c0 8 7 15 15 15s15 -7 15 -15v-446h282v446c0 8 6 15 15 15z" />
    <glyph glyph-name="uni044C" unicode="&#x44c;" horiz-adv-x="535" 
d="M121 490c8 0 15 -7 15 -15v-177h170c110 0 169 -64 169 -148c0 -85 -59 -150 -169 -150h-185c-8 0 -15 7 -15 15v460c0 8 6 15 15 15zM304 270h-168v-242h168c92 0 139 54 139 121s-47 121 -139 121z" />
    <glyph glyph-name="uni044A" unicode="&#x44a;" horiz-adv-x="555" 
d="M141 0c-8 0 -15 7 -15 15v437h-103c-8 0 -15 6 -15 14s7 14 15 14h118c8 0 15 -7 15 -15v-167h170c103 0 169 -58 169 -148c0 -91 -66 -150 -169 -150h-185zM156 28h168c85 0 139 47 139 121s-54 121 -139 121h-168v-242z" />
    <glyph glyph-name="uni044B" unicode="&#x44b;" horiz-adv-x="756" 
d="M121 490c8 0 15 -7 15 -15v-177h170c110 0 169 -64 169 -148c0 -85 -59 -150 -169 -150h-185c-8 0 -15 7 -15 15v460c0 8 6 15 15 15zM635 -10c-8 0 -15 7 -15 15v470c0 8 6 15 15 15c8 0 15 -7 15 -15v-470c0 -8 -7 -15 -15 -15zM304 270h-168v-242h168
c92 0 139 54 139 121s-47 121 -139 121z" />
    <glyph glyph-name="uni0459" unicode="&#x459;" horiz-adv-x="832" 
d="M603 298c103 0 169 -58 169 -148c0 -91 -66 -150 -169 -150h-183c-10 0 -17 7 -17 17v435h-212v-43c0 -234 -45 -359 -150 -410c-6 -3 -12 -5 -16 -5c-9 0 -15 5 -15 14c0 7 5 13 15 17c91 36 136 167 136 394v44c0 10 7 17 17 17h238c10 0 17 -7 17 -17v-165h170z
M601 28c85 0 139 47 139 121s-54 121 -139 121h-168v-242h168z" />
    <glyph glyph-name="uni045A" unicode="&#x45a;" horiz-adv-x="856" 
d="M627 285c106 0 169 -52 169 -140c0 -90 -64 -145 -169 -145h-185c-8 0 -15 7 -15 15v242h-291v-252c0 -8 -7 -15 -15 -15s-15 7 -15 15v470c0 8 7 15 15 15s15 -7 15 -15v-190h291v190c0 9 7 15 15 15s15 -7 15 -15v-190h170zM625 28c86 0 139 44 139 116
c0 71 -52 113 -139 113h-168v-229h168z" />
    <glyph glyph-name="uni0455" unicode="&#x455;" horiz-adv-x="455" 
d="M232 -10c-78 0 -140 43 -177 99c-2 3 -4 8 -4 11c0 8 7 16 16 16c5 0 9 -2 13 -7c40 -58 90 -90 154 -90c63 0 120 31 120 97c0 63 -52 86 -109 112l-42 19c-58 26 -117 55 -117 124c0 76 72 119 146 119c65 0 111 -31 142 -67c5 -6 8 -11 8 -14c0 -8 -6 -16 -14 -16
c-5 0 -9 2 -15 9c-33 38 -72 59 -123 59c-55 0 -112 -26 -112 -89c0 -54 43 -73 101 -99l45 -20c64 -29 122 -61 122 -135c0 -84 -74 -128 -154 -128z" />
    <glyph glyph-name="uni0454" unicode="&#x454;" horiz-adv-x="558" 
d="M485 107c7 0 14 -6 14 -13c0 -5 -2 -9 -8 -16c-50 -59 -109 -88 -186 -88c-137 0 -245 112 -245 250c0 139 108 250 246 250c77 0 137 -28 186 -88c6 -7 8 -11 8 -16c0 -7 -7 -13 -14 -13c-4 0 -9 2 -13 7c-43 56 -95 81 -167 81c-114 0 -202 -85 -213 -197h271
c10 0 15 -6 15 -14s-5 -14 -15 -14h-272c2 -121 93 -217 213 -217c72 0 123 26 167 81c4 5 9 7 13 7z" />
    <glyph glyph-name="uni044D" unicode="&#x44d;" horiz-adv-x="556" 
d="M252 490c138 0 246 -111 246 -250c0 -138 -108 -250 -245 -250c-77 0 -136 29 -186 88c-6 7 -8 11 -8 16c0 7 7 13 14 13c4 0 9 -2 13 -7c44 -55 95 -81 167 -81c120 0 211 96 213 217h-272c-10 0 -15 6 -15 14s5 14 15 14h271c-11 112 -99 197 -213 197
c-72 0 -124 -25 -167 -81c-4 -5 -9 -7 -13 -7c-7 0 -14 6 -14 13c0 5 2 9 8 16c49 60 109 88 186 88z" />
    <glyph glyph-name="uni0456" unicode="&#x456;" horiz-adv-x="260" 
d="M130 699c19 0 33 -14 33 -33s-14 -33 -33 -33s-33 14 -33 33s14 33 33 33zM130 -10c-8 0 -15 7 -15 15v470c0 8 6 15 15 15c8 0 15 -7 15 -15v-470c0 -8 -7 -15 -15 -15z" />
    <glyph glyph-name="uni0457" unicode="&#x457;" horiz-adv-x="260" 
d="M49 700c19 0 34 -15 34 -34s-15 -34 -34 -34s-34 15 -34 34s15 34 34 34zM210 700c19 0 34 -15 34 -34s-15 -34 -34 -34s-34 15 -34 34s15 34 34 34zM130 -10c-8 0 -15 7 -15 15v470c0 8 6 15 15 15c8 0 15 -7 15 -15v-470c0 -8 -7 -15 -15 -15z" />
    <glyph glyph-name="uni0458" unicode="&#x458;" horiz-adv-x="260" 
d="M130 699c19 0 33 -14 33 -33s-14 -33 -33 -33s-33 14 -33 33s14 33 33 33zM9 -190c-16 0 -28 1 -40 4c-8 2 -14 7 -14 15c0 7 6 13 14 13c7 0 20 -4 38 -4c59 0 108 23 108 107v530c0 8 6 15 15 15c8 0 15 -7 15 -15v-530c0 -99 -60 -135 -136 -135z" />
    <glyph glyph-name="uni045B" unicode="&#x45b;" horiz-adv-x="565" 
d="M286 490c106 0 174 -72 174 -185v-300c0 -8 -7 -15 -15 -15s-15 7 -15 15v300c0 94 -57 156 -145 156c-90 0 -156 -65 -156 -156v-300c0 -8 -7 -15 -15 -15s-15 7 -15 15v599h-73c-8 0 -15 6 -15 14s7 14 15 14h73v113c0 9 7 15 15 15s15 -7 15 -15v-113h197
c8 0 15 -6 15 -14s-7 -14 -15 -14h-197v-201c31 55 86 87 157 87z" />
    <glyph glyph-name="uni044E" unicode="&#x44e;" horiz-adv-x="847" 
d="M540 490c137 0 247 -112 247 -250s-111 -250 -248 -250c-136 0 -245 112 -245 250v6h-158v-241c0 -8 -7 -15 -15 -15s-15 7 -15 15v470c0 9 7 15 15 15s15 -7 15 -15v-201h160c16 123 118 216 244 216zM539 19c122 0 216 97 216 221c0 125 -94 221 -215 221
s-214 -96 -214 -221c0 -124 93 -221 213 -221z" />
    <glyph glyph-name="uni044F" unicode="&#x44f;" horiz-adv-x="555" 
d="M432 480c10 0 17 -7 17 -17v-456c0 -10 -7 -17 -15 -17s-15 7 -15 17v175h-170h-15l-162 -186c-3 -3 -7 -6 -12 -6c-8 0 -15 7 -15 15c0 3 1 6 5 11l150 171c-75 16 -120 68 -120 143c0 91 66 150 169 150h183zM419 210v242h-168c-85 0 -139 -47 -139 -121
s54 -121 139 -121h168z" />
    <glyph glyph-name="uni0452" unicode="&#x452;" horiz-adv-x="565" 
d="M286 490c111 0 174 -78 174 -185v-360c0 -99 -60 -135 -136 -135c-15 0 -29 1 -42 4c-9 2 -15 7 -15 15s6 14 14 14c11 0 18 -5 41 -5c59 0 108 23 108 107v360c0 91 -54 156 -145 156s-156 -66 -156 -156v-288c0 -10 -7 -17 -15 -17s-15 7 -15 17v587h-73
c-8 0 -15 6 -15 14s7 14 15 14h73v101c0 10 6 17 15 17c8 0 15 -7 15 -17v-101h197c8 0 15 -6 15 -14s-7 -14 -15 -14h-197v-201c30 54 86 87 157 87z" />
    <glyph glyph-name="uni0463" unicode="&#x463;" horiz-adv-x="528" 
d="M114 0c-8 0 -15 7 -15 15v437h-73c-8 0 -15 6 -15 14s7 14 15 14h73v265c0 9 7 15 15 15s15 -7 15 -15v-265h197c8 0 15 -6 15 -14s-7 -14 -15 -14h-197v-154h170c103 0 169 -58 169 -148c0 -91 -66 -150 -169 -150h-185zM129 28h168c85 0 139 47 139 121
s-54 121 -139 121h-168v-242z" />
    <glyph glyph-name="uni0473" unicode="&#x473;" horiz-adv-x="613" 
d="M306 490c136 0 247 -111 247 -250c0 -138 -111 -250 -248 -250c-136 0 -245 112 -245 250c0 139 109 250 246 250zM306 461c-115 0 -203 -86 -213 -199c39 15 73 22 107 22c81 0 134 -40 213 -40c34 0 67 7 107 22c-13 111 -101 195 -214 195zM306 19
c122 0 214 97 215 220c-40 -16 -74 -23 -108 -23c-83 0 -136 40 -213 40c-34 0 -68 -8 -108 -23c4 -121 94 -214 214 -214z" />
    <glyph glyph-name="uni0475" unicode="&#x475;" horiz-adv-x="534" 
d="M507 483c19 0 27 -4 27 -15c0 -9 -7 -14 -17 -14c-36 0 -49 -10 -70 -55l-175 -398c-3 -7 -8 -11 -14 -11s-11 4 -14 11l-203 464c-2 4 -3 7 -3 10c0 8 7 15 15 15c7 0 13 -4 16 -12l189 -437l162 372c21 48 49 70 87 70z" />
    <glyph glyph-name="uni0493" unicode="&#x493;" horiz-adv-x="454" 
d="M421 480c8 0 15 -6 15 -14s-7 -14 -15 -14h-292v-191h248c8 0 15 -6 15 -14s-7 -14 -15 -14h-248v-228c0 -8 -7 -15 -15 -15s-15 7 -15 15v228h-73c-8 0 -15 6 -15 14s7 14 15 14h73v204c0 8 7 15 15 15h307z" />
    <glyph glyph-name="uni0497" unicode="&#x497;" horiz-adv-x="752" 
d="M91 484l219 -210c6 -6 8 -10 8 -15c0 -4 -1 -8 -7 -14l-245 -249c-4 -4 -8 -6 -12 -6c-8 0 -15 7 -15 15c0 4 2 8 5 11l240 244l-215 204c-3 3 -5 7 -5 11c0 8 7 15 15 15c4 0 8 -2 12 -6zM359 490c8 0 15 -7 15 -17v-466c0 -10 -7 -17 -15 -17s-15 7 -15 17v466
c0 10 6 17 15 17zM685 18c10 0 17 -7 17 -17v-135c0 -10 -7 -17 -15 -17s-15 7 -15 17v124h-8c-4 0 -8 2 -12 6l-245 250c-5 5 -7 9 -7 13c0 5 2 9 7 14l220 211c4 4 8 6 12 6c8 0 15 -7 15 -15c0 -4 -2 -8 -5 -11l-215 -204l238 -242h13z" />
    <glyph glyph-name="uni0499" unicode="&#x499;" horiz-adv-x="487" 
d="M413 132c0 -75 -59 -129 -148 -140c16 -19 30 -46 30 -79c0 -60 -47 -103 -112 -103c-18 0 -37 2 -51 6c-12 3 -16 9 -16 15c0 8 6 14 14 14c9 0 23 -7 50 -7c51 0 83 30 83 77c0 40 -19 62 -39 75c-76 2 -124 35 -161 84c-4 5 -5 9 -5 12c0 8 7 14 15 14c5 0 9 -2 14 -9
c30 -40 69 -72 145 -72c89 0 149 46 149 115c0 67 -58 112 -145 112h-74c-8 0 -15 7 -15 15s7 14 15 14h81c69 0 114 37 114 95s-46 91 -126 91c-62 0 -107 -22 -133 -57c-3 -4 -8 -7 -12 -7c-8 0 -15 7 -15 15c0 3 1 6 5 11c32 40 83 67 155 67c98 0 158 -45 158 -119
c0 -53 -31 -94 -86 -111c70 -19 110 -66 110 -128z" />
    <glyph glyph-name="uni049B" unicode="&#x49b;" horiz-adv-x="514" 
d="M121 490c8 0 15 -7 15 -17v-466c0 -10 -7 -17 -15 -17s-15 7 -15 17v466c0 10 6 17 15 17zM447 18c10 0 17 -7 17 -17v-135c0 -10 -7 -17 -15 -17s-15 7 -15 17v124h-8c-4 0 -7 1 -10 4l-249 253c-3 4 -5 8 -5 12c0 5 2 9 6 13l222 214c3 3 6 4 10 4c8 0 15 -7 15 -15
c0 -4 -2 -8 -5 -11l-213 -203l237 -243h13z" />
    <glyph glyph-name="uni04A1" unicode="&#x4a1;" horiz-adv-x="500" 
d="M456 16c3 -3 5 -7 5 -11c0 -8 -7 -15 -15 -15c-4 0 -7 1 -10 4l-249 253c-3 4 -5 8 -5 12c0 5 2 9 6 13l222 214c3 3 6 4 10 4c8 0 15 -7 15 -15c0 -4 -2 -8 -5 -11l-213 -203zM139 480c10 0 17 -7 17 -17v-456c0 -10 -7 -17 -15 -17s-15 7 -15 17v445h-101
c-8 0 -15 6 -15 14s7 14 15 14h114z" />
    <glyph glyph-name="uni04A3" unicode="&#x4a3;" horiz-adv-x="592" 
d="M527 -151c-8 0 -15 7 -15 15v136h-60c-8 0 -15 7 -15 15v232h-301v-242c0 -8 -7 -15 -15 -15s-15 7 -15 15v470c0 8 7 15 15 15s15 -7 15 -15v-200h301v200c0 8 6 15 15 15c8 0 15 -7 15 -15v-447h60c8 0 15 -7 15 -15v-149c0 -8 -7 -15 -15 -15z" />
    <glyph glyph-name="uni04AB" unicode="&#x4ab;" horiz-adv-x="553" 
d="M485 107c7 0 14 -6 14 -13c0 -5 -2 -9 -8 -16c-42 -49 -90 -78 -149 -86c16 -18 30 -46 30 -79c0 -60 -47 -103 -112 -103c-18 0 -37 2 -51 6c-12 3 -16 9 -16 15c0 8 6 14 14 14c9 0 23 -7 50 -7c51 0 83 30 83 77c0 40 -19 62 -39 75c-135 2 -241 113 -241 250
c0 139 108 250 246 250c77 0 137 -28 186 -88c6 -7 8 -11 8 -16c0 -7 -7 -13 -14 -13c-4 0 -9 2 -13 7c-43 56 -95 81 -167 81c-122 0 -214 -97 -214 -221c0 -123 92 -221 213 -221c72 0 123 26 167 81c4 5 9 7 13 7z" />
    <glyph glyph-name="uni04AF" unicode="&#x4af;" horiz-adv-x="514" 
d="M462 490c8 0 15 -7 15 -15c0 -3 -1 -6 -2 -8l-204 -466v-174c0 -10 -7 -17 -15 -17s-15 7 -15 17v179l-202 461c-1 2 -2 5 -2 8c0 8 7 15 15 15s13 -5 16 -12l189 -437l189 437c3 7 8 12 16 12z" />
    <glyph glyph-name="uni04B1" unicode="&#x4b1;" horiz-adv-x="536" 
d="M488 475c0 -3 -1 -6 -2 -8l-192 -439h139c8 0 15 -6 15 -14s-7 -14 -15 -14h-151v-173c0 -10 -7 -17 -15 -17s-15 7 -15 17v173h-149c-8 0 -15 6 -15 14s7 14 15 14h139l-192 439c-1 2 -2 5 -2 8c0 8 7 15 15 15s13 -5 16 -12l189 -437l189 437c3 7 8 12 16 12
s15 -7 15 -15z" />
    <glyph glyph-name="uni04B3" unicode="&#x4b3;" horiz-adv-x="467" 
d="M437 18c10 0 17 -7 17 -17v-135c0 -10 -7 -17 -15 -17s-15 7 -15 17v124h-8h-1c-5 0 -10 2 -14 8l-168 230l-167 -230c-4 -6 -9 -8 -14 -8c-8 0 -15 7 -15 15c0 4 2 7 4 10l173 237l-157 213c-2 3 -4 6 -4 10c0 8 7 15 15 15c5 0 9 -2 13 -8l152 -206l153 206
c4 6 8 8 13 8c8 0 15 -7 15 -15c0 -4 -2 -7 -4 -10l-158 -213l172 -234h13z" />
    <glyph glyph-name="uni04B7" unicode="&#x4b7;" horiz-adv-x="546" 
d="M481 28c8 0 15 -7 15 -15v-149c0 -8 -7 -15 -15 -15s-15 7 -15 15v136h-60c-8 0 -15 7 -15 15v186c-36 -16 -84 -26 -131 -26c-128 0 -200 74 -200 205v95c0 9 7 15 15 15s15 -7 15 -15v-95c0 -116 58 -176 169 -176c48 0 99 11 132 27v244c0 9 7 15 15 15s15 -7 15 -15
v-447h60z" />
    <glyph glyph-name="uni04BB" unicode="&#x4bb;" horiz-adv-x="572" 
d="M293 490c106 0 174 -72 174 -185v-300c0 -8 -7 -15 -15 -15s-15 7 -15 15v300c0 94 -57 156 -145 156c-90 0 -156 -65 -156 -156v-300c0 -8 -7 -15 -15 -15s-15 7 -15 15v740c0 8 7 15 15 15s15 -7 15 -15v-342c31 55 86 87 157 87z" />
    <glyph glyph-name="uni04CF" unicode="&#x4cf;" horiz-adv-x="242" 
d="M121 -10c-8 0 -15 7 -15 15v740c0 8 6 15 15 15c8 0 15 -7 15 -15v-740c0 -8 -7 -15 -15 -15z" />
    <glyph glyph-name="uni04C2" unicode="&#x4c2;" horiz-adv-x="718" 
d="M359 593c-76 0 -135 58 -135 134c0 10 7 17 15 17s15 -7 15 -17c0 -60 46 -106 105 -106s105 46 105 106c0 10 7 17 15 17s15 -7 15 -17c0 -75 -59 -134 -135 -134zM91 484l219 -210c6 -6 8 -10 8 -15c0 -4 -1 -8 -7 -14l-245 -249c-4 -4 -8 -6 -12 -6c-8 0 -15 7 -15 15
c0 4 2 8 5 11l240 244l-215 204c-3 3 -5 7 -5 11c0 8 7 15 15 15c4 0 8 -2 12 -6zM359 490c8 0 15 -7 15 -17v-466c0 -10 -7 -17 -15 -17s-15 7 -15 17v466c0 10 6 17 15 17zM674 16c3 -3 5 -7 5 -11c0 -8 -7 -15 -15 -15c-4 0 -8 2 -12 6l-245 250c-5 5 -7 9 -7 13
c0 5 2 9 7 14l220 211c4 4 8 6 12 6c8 0 15 -7 15 -15c0 -4 -2 -8 -5 -11l-215 -204z" />
    <glyph glyph-name="uni04D1" unicode="&#x4d1;" horiz-adv-x="516" 
d="M251 593c-76 0 -135 58 -135 134c0 10 7 17 15 17s15 -7 15 -17c0 -60 46 -106 105 -106s105 46 105 106c0 10 7 17 15 17s15 -7 15 -17c0 -75 -59 -134 -135 -134zM252 490c108 0 173 -70 173 -185v-300c0 -8 -7 -15 -15 -15s-15 7 -15 15v80c-34 -58 -100 -95 -179 -95
c-97 0 -164 52 -164 127c0 76 64 124 164 124h179v65c0 97 -54 155 -145 155c-55 0 -100 -23 -142 -73c-4 -5 -8 -7 -13 -7c-8 0 -14 6 -14 13c0 4 2 9 7 15c47 55 99 81 164 81zM217 19c99 0 178 69 178 156v38h-178c-84 0 -133 -36 -133 -96c0 -59 53 -98 133 -98z" />
    <glyph glyph-name="uni04D7" unicode="&#x4d7;" horiz-adv-x="573" 
d="M287 593c-76 0 -135 58 -135 134c0 10 7 17 15 17s15 -7 15 -17c0 -60 46 -106 105 -106s105 46 105 106c0 10 7 17 15 17s15 -7 15 -17c0 -75 -59 -134 -135 -134zM298 490c125 0 215 -91 215 -216v-16c0 -14 -6 -21 -19 -21h-402c1 -124 93 -218 214 -218
c62 0 123 28 162 74c5 6 8 8 13 8c8 0 14 -6 14 -13c0 -5 -2 -9 -7 -15c-48 -54 -111 -83 -182 -83c-137 0 -246 111 -246 250c0 140 105 250 238 250zM298 461c-108 0 -194 -84 -205 -196h389c4 112 -73 196 -184 196z" />
    <glyph glyph-name="uni04D9" unicode="&#x4d9;" horiz-adv-x="573" 
d="M267 490c137 0 246 -111 246 -250c0 -140 -105 -250 -238 -250c-125 0 -215 91 -215 216v16c0 14 6 21 19 21h402c-1 124 -93 218 -214 218c-62 0 -123 -28 -162 -74c-5 -6 -8 -8 -13 -8c-8 0 -14 6 -14 13c0 5 2 9 7 15c48 54 111 83 182 83zM275 19
c108 0 194 84 205 196h-389c-4 -112 73 -196 184 -196z" />
    <glyph glyph-name="uni04E3" unicode="&#x4e3;" horiz-adv-x="589" 
d="M173 652c-8 0 -14 6 -14 14s6 14 14 14h228c8 0 14 -6 14 -14s-6 -14 -14 -14h-228zM468 490c8 0 15 -7 15 -17v-466c0 -10 -7 -17 -15 -17s-15 7 -15 17v422l-319 -430c-5 -7 -8 -9 -13 -9c-8 0 -15 7 -15 17v466c0 10 7 17 15 17s15 -7 15 -17v-422l319 431
c5 6 8 8 13 8z" />
    <glyph glyph-name="uni04E7" unicode="&#x4e7;" horiz-adv-x="613" 
d="M211 699c19 0 33 -14 33 -33s-14 -33 -33 -33s-33 14 -33 33s14 33 33 33zM403 699c19 0 33 -14 33 -33s-14 -33 -33 -33s-33 14 -33 33s14 33 33 33zM306 490c138 0 247 -110 247 -250s-110 -250 -248 -250c-137 0 -245 110 -245 250c0 141 108 250 246 250zM306 461
c-121 0 -214 -96 -214 -221s92 -221 213 -221c122 0 216 97 216 221c0 125 -94 221 -215 221z" />
    <glyph glyph-name="uni04E9" unicode="&#x4e9;" horiz-adv-x="613" 
d="M306 490c137 0 247 -112 247 -250s-111 -250 -248 -250c-136 0 -245 112 -245 250c0 139 109 250 246 250zM306 461c-113 0 -202 -84 -213 -197h427c-11 113 -101 197 -214 197zM305 19c121 0 214 95 216 217h-429c2 -122 94 -217 213 -217z" />
    <glyph glyph-name="uni04EF" unicode="&#x4ef;" horiz-adv-x="519" 
d="M145 652c-8 0 -14 6 -14 14s6 14 14 14h228c8 0 14 -6 14 -14s-6 -14 -14 -14h-228zM466 490c8 0 15 -7 15 -15c0 -1 0 -3 -2 -8l-236 -548c-31 -71 -84 -109 -152 -109c-15 0 -31 2 -44 6c-8 2 -13 7 -13 14c0 8 6 14 14 14c6 0 25 -6 41 -6c60 0 101 30 128 94l31 73
l-205 462l-2 8c0 8 7 15 15 15c7 0 13 -4 16 -12l192 -437l186 437c3 8 9 12 16 12z" />
    <glyph glyph-name="uni04F3" unicode="&#x4f3;" horiz-adv-x="519" 
d="M199 561c-6 0 -12 5 -12 12c0 1 0 4 2 8l84 184c3 7 8 11 16 11s14 -7 14 -13c0 -5 -2 -9 -4 -14l-86 -176c-4 -8 -8 -12 -14 -12zM333 561c-6 0 -12 5 -12 12c0 1 0 4 2 8l84 184c3 7 8 11 16 11s14 -7 14 -13c0 -5 -2 -9 -4 -14l-86 -176c-4 -8 -8 -12 -14 -12z
M466 490c8 0 15 -7 15 -15c0 -1 0 -3 -2 -8l-236 -548c-31 -71 -84 -109 -152 -109c-15 0 -31 2 -44 6c-8 2 -13 7 -13 14c0 8 6 14 14 14c6 0 25 -6 41 -6c60 0 101 30 128 94l31 73l-205 462l-2 8c0 8 7 15 15 15c7 0 13 -4 16 -12l192 -437l186 437c3 8 9 12 16 12z" />
    <glyph glyph-name="uni0432.loclBGR" horiz-adv-x="568" 
d="M338 417c103 -25 170 -104 170 -211c0 -125 -89 -216 -211 -216c-118 0 -192 81 -192 209v361c0 123 69 200 179 200c101 0 172 -72 172 -174c0 -81 -46 -144 -118 -169zM281 731c-92 0 -146 -63 -146 -171v-133h120c101 0 169 64 169 161c0 87 -56 143 -143 143zM295 19
c108 0 181 75 181 186c0 117 -83 194 -208 194h-133v-198c0 -115 59 -182 160 -182z" />
    <glyph glyph-name="uni0433.loclBGR" horiz-adv-x="455" 
d="M223 -10c-80 0 -154 42 -154 126c0 74 58 108 122 137l45 20c80 36 101 57 101 99c0 53 -45 89 -112 89c-47 0 -88 -19 -122 -58c-5 -6 -9 -8 -14 -8c-8 0 -15 7 -15 14c0 6 3 9 7 14c27 32 75 67 143 67c84 0 145 -50 145 -117c0 -55 -34 -89 -117 -126l-42 -19
c-57 -26 -109 -49 -109 -112c0 -66 57 -97 120 -97c65 0 113 32 151 84c4 5 8 7 13 7c8 0 15 -7 15 -15c0 -3 -1 -6 -5 -12c-35 -50 -92 -93 -172 -93z" />
    <glyph glyph-name="uni0453.loclBGR" horiz-adv-x="455" 
d="M228 561c-6 0 -12 5 -12 12c0 1 0 4 2 8l84 184c3 7 8 11 16 11s14 -7 14 -13c0 -5 -2 -9 -4 -14l-86 -176c-4 -8 -8 -12 -14 -12zM223 -10c-80 0 -154 42 -154 126c0 74 58 108 122 137l45 20c80 36 101 57 101 99c0 53 -45 89 -112 89c-47 0 -88 -19 -122 -58
c-5 -6 -9 -8 -14 -8c-8 0 -15 7 -15 14c0 6 3 9 7 14c27 32 75 67 143 67c84 0 145 -50 145 -117c0 -55 -34 -89 -117 -126l-42 -19c-57 -26 -109 -49 -109 -112c0 -66 57 -97 120 -97c65 0 113 32 151 84c4 5 8 7 13 7c8 0 15 -7 15 -15c0 -3 -1 -6 -5 -12
c-35 -50 -92 -93 -172 -93z" />
    <glyph glyph-name="uni0491.loclBGR" horiz-adv-x="455" 
d="M385 110c8 0 15 -7 15 -15c0 -3 -1 -6 -5 -12c-35 -50 -92 -93 -172 -93s-154 42 -154 126c0 74 58 108 122 137l45 20c80 36 101 57 101 99c0 53 -45 89 -112 89c-47 0 -88 -19 -122 -58c-5 -6 -9 -8 -14 -8c-8 0 -15 7 -15 14c0 6 3 9 7 14c25 30 69 63 131 67v104
c0 10 7 17 15 17s15 -7 15 -17v-105c75 -6 127 -54 127 -116c0 -55 -34 -89 -117 -126l-42 -19c-57 -26 -109 -49 -109 -112c0 -66 57 -97 120 -97c65 0 113 32 151 84c4 5 8 7 13 7z" />
    <glyph glyph-name="uni0434.loclBGR" horiz-adv-x="642" 
d="M521 480c8 0 15 -7 15 -15v-425c0 -138 -91 -230 -227 -230c-77 0 -155 31 -207 83c-5 5 -7 9 -7 13c0 8 7 15 14 15c4 0 8 -2 12 -6c48 -48 117 -76 188 -76c120 0 197 78 197 201v83c-32 -72 -113 -123 -207 -123c-133 0 -239 109 -239 245c0 137 106 246 239 246
c95 0 176 -51 207 -123v97c0 8 7 15 15 15zM301 29c122 0 205 87 205 216s-83 217 -205 217c-119 0 -209 -94 -209 -217s90 -216 209 -216z" />
    <glyph glyph-name="uni0436.loclBGR" horiz-adv-x="718" 
d="M359 670c8 0 15 -7 15 -17v-646c0 -10 -7 -17 -15 -17s-15 7 -15 17v646c0 10 6 17 15 17zM91 484l219 -210c6 -6 8 -10 8 -15c0 -4 -1 -8 -7 -14l-245 -249c-4 -4 -8 -6 -12 -6c-8 0 -15 7 -15 15c0 4 2 8 5 11l240 244l-215 204c-3 3 -5 7 -5 11c0 8 7 15 15 15
c4 0 8 -2 12 -6zM674 16c3 -3 5 -7 5 -11c0 -8 -7 -15 -15 -15c-4 0 -8 2 -12 6l-245 250c-5 5 -7 9 -7 13c0 5 2 9 7 14l220 211c4 4 8 6 12 6c8 0 15 -7 15 -15c0 -4 -2 -8 -5 -11l-215 -204z" />
    <glyph glyph-name="uni0437.loclBGR" horiz-adv-x="498" 
d="M282 175c92 -22 142 -95 142 -177c0 -90 -62 -188 -186 -188c-75 0 -138 35 -177 93c-2 3 -3 6 -3 9c0 8 7 15 15 15c4 0 8 -1 11 -5c36 -48 87 -83 153 -83c99 0 155 74 155 159c0 94 -68 160 -183 160h-58c-8 0 -15 6 -15 14s7 14 15 14h54c103 0 156 65 156 140
c0 71 -49 135 -133 135c-55 0 -105 -30 -138 -71c-4 -5 -8 -8 -13 -8c-7 0 -13 6 -13 14c0 3 1 7 4 11c39 52 100 83 160 83c101 0 165 -79 165 -163c0 -65 -38 -127 -111 -152z" />
    <glyph glyph-name="uni0438.loclBGR" horiz-adv-x="572" 
d="M451 490c8 0 15 -7 15 -15v-470c0 -8 -7 -15 -15 -15s-15 7 -15 15v72c-31 -55 -86 -87 -157 -87c-106 0 -174 72 -174 185v300c0 8 7 15 15 15s15 -7 15 -15v-300c0 -94 57 -156 145 -156c91 0 156 66 156 156v300c0 8 7 15 15 15z" />
    <glyph glyph-name="uni0439.loclBGR" horiz-adv-x="572" 
d="M286 593c-76 0 -135 58 -135 134c0 10 7 17 15 17s15 -7 15 -17c0 -60 46 -106 105 -106s105 46 105 106c0 10 7 17 15 17s15 -7 15 -17c0 -75 -59 -134 -135 -134zM451 490c8 0 15 -7 15 -15v-470c0 -8 -7 -15 -15 -15s-15 7 -15 15v72c-31 -55 -86 -87 -157 -87
c-106 0 -174 72 -174 185v300c0 8 7 15 15 15s15 -7 15 -15v-300c0 -94 57 -156 145 -156c91 0 156 66 156 156v300c0 8 7 15 15 15z" />
    <glyph glyph-name="uni045D.loclBGR" horiz-adv-x="572" 
d="M267 573l-86 176c-2 5 -4 9 -4 14c0 6 6 13 14 13s13 -4 16 -11l84 -184c2 -4 2 -7 2 -8c0 -7 -6 -12 -12 -12s-10 4 -14 12zM451 490c8 0 15 -7 15 -15v-470c0 -8 -7 -15 -15 -15s-15 7 -15 15v72c-31 -55 -86 -87 -157 -87c-106 0 -174 72 -174 185v300c0 8 7 15 15 15
s15 -7 15 -15v-300c0 -94 57 -156 145 -156c91 0 156 66 156 156v300c0 8 7 15 15 15z" />
    <glyph glyph-name="uni043A.loclBGR" horiz-adv-x="480" 
d="M121 750c8 0 15 -7 15 -15v-720c0 -8 -7 -15 -15 -15s-15 7 -15 15v720c0 8 6 15 15 15zM435 16c4 -4 5 -8 5 -12c0 -8 -6 -14 -14 -14c-5 0 -9 2 -13 6l-246 262c-4 4 -6 8 -6 12s2 8 7 12l221 203c4 4 8 5 12 5c8 0 14 -6 14 -14c0 -5 -2 -9 -6 -13l-212 -194z" />
    <glyph glyph-name="uni045C.loclBGR" horiz-adv-x="480" 
d="M285 561c-6 0 -12 5 -12 12c0 1 0 4 2 8l84 184c3 7 8 11 16 11s14 -7 14 -13c0 -5 -2 -9 -4 -14l-86 -176c-4 -8 -8 -12 -14 -12zM121 750c8 0 15 -7 15 -15v-720c0 -8 -7 -15 -15 -15s-15 7 -15 15v720c0 8 6 15 15 15zM435 16c4 -4 5 -8 5 -12c0 -8 -6 -14 -14 -14
c-5 0 -9 2 -13 6l-246 262c-4 4 -6 8 -6 12s2 8 7 12l221 203c4 4 8 5 12 5c8 0 14 -6 14 -14c0 -5 -2 -9 -6 -13l-212 -194z" />
    <glyph glyph-name="uni043B.loclBGR" horiz-adv-x="518" 
d="M478 13c2 -4 2 -6 2 -8c0 -8 -7 -15 -15 -15c-6 0 -11 4 -14 10l-192 440l-192 -440c-3 -6 -8 -10 -14 -10c-8 0 -15 7 -15 15c0 2 0 4 2 8l204 466c3 6 8 11 15 11s12 -5 15 -11z" />
    <glyph glyph-name="uni043F.loclBGR" horiz-adv-x="572" 
d="M293 490c106 0 174 -72 174 -185v-300c0 -8 -7 -15 -15 -15s-15 7 -15 15v300c0 94 -57 156 -145 156c-90 0 -156 -65 -156 -156v-300c0 -8 -7 -15 -15 -15s-15 7 -15 15v470c0 8 7 15 15 15s15 -7 15 -15v-72c31 55 86 87 157 87z" />
    <glyph glyph-name="uni0442.loclBGR" horiz-adv-x="881" 
d="M608 490c103 0 168 -71 168 -185v-300c0 -8 -7 -15 -15 -15s-15 7 -15 15v300c0 95 -54 156 -138 156c-85 0 -152 -64 -152 -147v-309c0 -8 -7 -15 -15 -15s-15 7 -15 15v300c0 95 -54 156 -139 156c-88 0 -151 -65 -151 -156v-300c0 -8 -7 -15 -15 -15s-15 7 -15 15v470
c0 8 7 15 15 15s15 -7 15 -15v-70c30 53 84 85 152 85c75 0 130 -37 154 -103c29 63 91 103 166 103z" />
    <glyph glyph-name="uni0447.loclBGR" horiz-adv-x="527" 
d="M406 490c8 0 15 -7 15 -15v-470c0 -8 -7 -15 -15 -15s-15 7 -15 15v156c-36 -16 -84 -26 -131 -26c-128 0 -200 74 -200 205v135c0 9 7 15 15 15s15 -7 15 -15v-135c0 -116 58 -176 169 -176c48 0 99 11 132 27v284c0 9 7 15 15 15z" />
    <glyph glyph-name="uni0446.loclBGR" horiz-adv-x="591" 
d="M523 24c14 0 18 -7 18 -15v-145c0 -8 -6 -15 -15 -15c-8 0 -15 7 -15 15v132c-41 4 -70 36 -73 85c-30 -57 -86 -91 -159 -91c-111 0 -174 78 -174 195v280c0 8 7 15 15 15s15 -7 15 -15v-280c0 -101 54 -166 145 -166s156 66 156 156v290c0 8 7 15 15 15s15 -7 15 -15
v-373c0 -42 23 -68 57 -68z" />
    <glyph glyph-name="uni0448.loclBGR" horiz-adv-x="881" 
d="M760 490c8 0 15 -7 15 -15v-470c0 -8 -7 -15 -15 -15s-15 7 -15 15v70c-29 -53 -83 -85 -152 -85c-79 0 -131 41 -154 103c-26 -57 -81 -103 -166 -103c-109 0 -168 78 -168 185v300c0 8 7 15 15 15s15 -7 15 -15v-300c0 -90 50 -156 138 -156c90 0 152 69 152 147v309
c0 8 7 15 15 15s15 -7 15 -15v-300c0 -91 50 -156 139 -156s151 66 151 156v300c0 8 6 15 15 15z" />
    <glyph glyph-name="uni0449.loclBGR" horiz-adv-x="900" 
d="M832 24c14 0 18 -7 18 -15v-145c0 -8 -7 -15 -15 -15s-15 7 -15 15v132c-42 4 -70 34 -74 80c-30 -54 -83 -86 -153 -86c-79 0 -131 41 -154 103c-26 -57 -81 -103 -166 -103c-109 0 -168 78 -168 185v300c0 8 7 15 15 15s15 -7 15 -15v-300c0 -90 50 -156 138 -156
c90 0 152 69 152 147v309c0 8 7 15 15 15s15 -7 15 -15v-300c0 -91 50 -156 139 -156s151 66 151 156v300c0 8 6 15 15 15c8 0 15 -7 15 -15v-383c0 -42 23 -68 57 -68z" />
    <glyph glyph-name="uni044C.loclBGR" horiz-adv-x="524" 
d="M295 298c104 0 169 -58 169 -150c0 -95 -69 -158 -172 -158c-112 0 -187 74 -187 185v300c0 9 7 15 15 15s15 -7 15 -15v-177h160zM290 19c86 0 142 51 142 128c0 76 -53 123 -139 123h-158v-95c0 -95 60 -156 155 -156z" />
    <glyph glyph-name="uni044A.loclBGR" horiz-adv-x="545" 
d="M316 298c104 0 169 -58 169 -150c0 -95 -69 -158 -172 -158c-112 0 -187 74 -187 185v277h-103c-8 0 -15 6 -15 14s7 14 15 14h118c8 0 15 -7 15 -15v-167h160zM311 19c86 0 142 51 142 128c0 76 -53 123 -139 123h-158v-95c0 -95 60 -156 155 -156z" />
    <glyph glyph-name="uni044B.loclBGR" horiz-adv-x="752" 
d="M295 298c104 0 169 -58 169 -150c0 -95 -69 -158 -172 -158c-112 0 -187 74 -187 185v300c0 9 7 15 15 15s15 -7 15 -15v-177h160zM624 490c8 0 15 -7 15 -15v-470c0 -8 -7 -15 -15 -15s-15 7 -15 15v470c0 8 6 15 15 15zM290 19c86 0 142 51 142 128
c0 76 -53 123 -139 123h-158v-95c0 -95 60 -156 155 -156z" />
    <glyph glyph-name="uni044E.loclBGR" horiz-adv-x="847" 
d="M540 490c137 0 247 -112 247 -250s-111 -250 -248 -250c-136 0 -245 112 -245 250v7h-158v-242c0 -8 -7 -15 -15 -15s-15 7 -15 15v740c0 9 7 15 15 15s15 -7 15 -15v-470h160c17 122 119 215 244 215zM539 19c122 0 216 97 216 221c0 125 -94 221 -215 221
s-214 -96 -214 -221c0 -124 93 -221 213 -221z" />
    <glyph glyph-name="uni0431.loclSRB" horiz-adv-x="578" 
d="M416 412c72 -63 102 -118 102 -190c0 -129 -101 -231 -228 -231c-126 0 -230 102 -230 226c0 125 104 228 231 228c17 0 32 -1 47 -5l-170 149c-47 43 -61 64 -61 93c0 41 33 68 83 68h257c8 0 15 -6 15 -14s-7 -14 -15 -14h-256c-33 0 -52 -15 -52 -40
c0 -22 11 -37 53 -74zM289 20c110 0 198 88 198 198s-88 198 -198 198c-109 0 -197 -88 -197 -198s87 -198 197 -198z" />
    <glyph glyph-name="uni0438.loclSRB" horiz-adv-x="573" 
d="M453 490c8 0 14 -7 14 -17v-466c0 -10 -6 -17 -14 -17s-15 7 -15 17v375l-302 -323v-52c0 -10 -7 -17 -15 -17s-15 7 -15 17v466c0 10 6 17 15 17c8 0 15 -7 15 -17v-374l302 322v52c0 10 6 17 15 17z" />
    <glyph glyph-name="uni0430.ordn" horiz-adv-x="360" 
d="M178 554c66 0 114 -40 114 -119v-181c0 -8 -6 -15 -14 -15s-15 7 -15 15v40c-22 -35 -62 -55 -110 -55c-62 0 -104 33 -104 81c0 49 41 80 106 80h107v36c0 61 -36 89 -86 89c-36 0 -61 -17 -81 -39c-4 -4 -8 -6 -13 -6c-9 0 -15 6 -15 15c0 4 2 8 5 11
c27 30 62 48 106 48zM157 266c58 0 105 36 105 89v19h-105c-49 0 -76 -19 -76 -54c0 -34 29 -54 76 -54z" />
    <glyph glyph-name="uni0433.ordn" horiz-adv-x="285" 
d="M265 548c8 0 15 -6 15 -13c0 -8 -7 -14 -15 -14h-161v-267c0 -8 -7 -15 -15 -15s-15 7 -15 15v279c0 8 7 15 15 15h176z" />
    <glyph glyph-name="uni0435.ordn" horiz-adv-x="390" 
d="M203 554c79 0 137 -57 137 -134c0 -7 0 -13 -1 -18c-1 -7 -8 -13 -15 -13h-244c3 -71 57 -124 127 -124c38 0 69 13 98 42c3 3 6 4 9 4c7 0 13 -6 13 -13c0 -3 -1 -6 -3 -8c-30 -34 -71 -52 -117 -52c-88 0 -157 69 -157 158c0 88 67 158 153 158zM202 527
c-62 0 -112 -46 -121 -110h228c2 63 -43 110 -107 110z" />
    </font>
</defs>
</svg>
