<?xml version="1.0" standalone="no"?>
<!DOCTYPE svg PUBLIC "-//W3C//DTD SVG 1.1//EN" "http://www.w3.org/Graphics/SVG/1.1/DTD/svg11.dtd" >
<svg xmlns="http://www.w3.org/2000/svg" xmlns:xlink="http://www.w3.org/1999/xlink" version="1.1">
<metadata>
Created by FontForge 20201107 at Fri Mar  3 12:32:56 2017
 By Jimmy Wärting
Copyright \(c\) 2016 by Jakob Runge and Lisa Fischbach, under exclusive license to TypeMates. All rights reserved.
</metadata>
<defs>
<font id="CeraRoundPro-Black" horiz-adv-x="560" >
  <font-face 
    font-family="Cera Round Pro Black"
    font-weight="900"
    font-stretch="normal"
    units-per-em="1000"
    panose-1="0 0 10 0 0 0 0 0 0 0"
    ascent="808"
    descent="-192"
    x-height="500"
    cap-height="672"
    bbox="-209 -276 1416 1045"
    underline-thickness="100"
    underline-position="-100"
    stemh="144"
    stemv="172"
    unicode-range="U+0020-FB02"
  />
<missing-glyph horiz-adv-x="717" 
d="M569 660c47 0 82 -35 82 -82v-496c0 -47 -35 -82 -82 -82h-421c-47 0 -82 35 -82 82v496c0 47 35 82 82 82h421zM536 94v462h-357z" />
    <glyph glyph-name="fi" unicode="fi" horiz-adv-x="667" 
d="M524 579c-56 0 -102 43 -102 98c0 56 46 99 102 99s103 -43 103 -99c0 -55 -47 -98 -103 -98zM362 746c23 -12 38 -37 38 -67c0 -43 -30 -71 -76 -71h-4c-39 0 -62 -24 -62 -66v-42h39c42 0 72 -30 72 -72c0 -41 -30 -72 -72 -72h-39v-281c0 -50 -37 -87 -86 -87
c-50 0 -86 37 -86 87v281h-8c-41 0 -72 31 -72 72c0 42 31 72 72 72h8v59c0 128 75 203 201 203c31 0 54 -5 75 -16zM525 512c49 0 86 -37 86 -87v-350c0 -50 -36 -87 -86 -87c-49 0 -86 37 -86 87v350c0 50 36 87 86 87z" />
    <glyph glyph-name="fl" unicode="fl" horiz-adv-x="667" 
d="M362 746c23 -12 38 -37 38 -67c0 -43 -30 -71 -76 -71h-4c-39 0 -62 -24 -62 -66v-42h39c42 0 72 -30 72 -72c0 -41 -30 -72 -72 -72h-39v-281c0 -50 -37 -87 -86 -87c-50 0 -86 37 -86 87v281h-8c-41 0 -72 31 -72 72c0 42 31 72 72 72h8v59c0 128 75 203 201 203
c31 0 54 -5 75 -16zM525 762c49 0 86 -37 86 -87v-600c0 -50 -37 -87 -86 -87s-86 37 -86 87v600c0 50 36 87 86 87z" />
    <glyph glyph-name=".notdef" horiz-adv-x="717" 
d="M569 660c47 0 82 -35 82 -82v-496c0 -47 -35 -82 -82 -82h-421c-47 0 -82 35 -82 82v496c0 47 35 82 82 82h421zM536 94v462h-357z" />
    <glyph glyph-name="A" unicode="A" horiz-adv-x="660" 
d="M619 112c6 -15 9 -30 9 -42c0 -47 -36 -82 -85 -82c-37 0 -65 21 -81 62l-14 35h-236l-14 -35c-16 -41 -44 -62 -81 -62c-49 0 -85 35 -85 82c0 12 3 27 9 42l207 503c15 37 43 57 82 57s67 -20 82 -57zM330 416l-67 -193h134z" />
    <glyph glyph-name="Aacute" unicode="&#xc1;" horiz-adv-x="660" 
d="M348 714c-65 0 -89 70 -67 112l44 84c20 38 56 45 77 45c69 0 107 -84 66 -136l-61 -75c-22 -28 -51 -30 -59 -30zM619 112c6 -15 9 -30 9 -42c0 -47 -36 -82 -85 -82c-37 0 -65 21 -81 62l-14 35h-236l-14 -35c-16 -41 -44 -62 -81 -62c-49 0 -85 35 -85 82
c0 12 3 27 9 42l207 503c15 37 43 57 82 57s67 -20 82 -57zM330 416l-67 -193h134z" />
    <glyph glyph-name="Abreve" unicode="&#x102;" horiz-adv-x="660" 
d="M330 723c-91 0 -179 67 -179 141c0 37 27 65 64 65c25 0 43 -12 63 -43c16 -25 31 -35 52 -35s38 11 52 35c18 30 37 43 63 43c37 0 64 -28 64 -65c0 -73 -89 -141 -179 -141zM619 112c6 -15 9 -30 9 -42c0 -47 -36 -82 -85 -82c-37 0 -65 21 -81 62l-14 35h-236l-14 -35
c-16 -41 -44 -62 -81 -62c-49 0 -85 35 -85 82c0 12 3 27 9 42l207 503c15 37 43 57 82 57s67 -20 82 -57zM330 416l-67 -193h134z" />
    <glyph glyph-name="Acircumflex" unicode="&#xc2;" horiz-adv-x="660" 
d="M210 723c-34 0 -62 28 -62 63c0 26 18 40 42 63l76 72c20 18 40 27 63 27s43 -8 63 -27l76 -72c24 -23 42 -37 42 -63c0 -35 -28 -63 -62 -63c-12 0 -29 3 -50 21l-69 61l-69 -61c-20 -19 -38 -21 -50 -21zM619 112c6 -15 9 -30 9 -42c0 -47 -36 -82 -85 -82
c-37 0 -65 21 -81 62l-14 35h-236l-14 -35c-16 -41 -44 -62 -81 -62c-49 0 -85 35 -85 82c0 12 3 27 9 42l207 503c15 37 43 57 82 57s67 -20 82 -57zM330 416l-67 -193h134z" />
    <glyph glyph-name="Adieresis" unicode="&#xc4;" horiz-adv-x="660" 
d="M192 724c-49 0 -97 44 -97 93c0 54 48 94 97 94c54 0 98 -40 98 -94c0 -49 -44 -93 -98 -93zM467 723c-49 0 -97 44 -97 93c0 54 48 94 97 94c54 0 98 -40 98 -94c0 -49 -44 -93 -98 -93zM619 112c6 -15 9 -30 9 -42c0 -47 -36 -82 -85 -82c-37 0 -65 21 -81 62l-14 35
h-236l-14 -35c-16 -41 -44 -62 -81 -62c-49 0 -85 35 -85 82c0 12 3 27 9 42l207 503c15 37 43 57 82 57s67 -20 82 -57zM330 416l-67 -193h134z" />
    <glyph glyph-name="Agrave" unicode="&#xc0;" horiz-adv-x="660" 
d="M253 744l-61 75c-41 52 -3 136 66 136c21 0 57 -7 77 -45l44 -84c22 -42 -2 -112 -67 -112c-8 0 -37 2 -59 30zM619 112c6 -15 9 -30 9 -42c0 -47 -36 -82 -85 -82c-37 0 -65 21 -81 62l-14 35h-236l-14 -35c-16 -41 -44 -62 -81 -62c-49 0 -85 35 -85 82c0 12 3 27 9 42
l207 503c15 37 43 57 82 57s67 -20 82 -57zM330 416l-67 -193h134z" />
    <glyph glyph-name="Amacron" unicode="&#x100;" horiz-adv-x="660" 
d="M218 749c-39 0 -68 29 -68 67s29 67 68 67h224c39 0 68 -29 68 -67s-29 -67 -68 -67h-224zM619 112c6 -15 9 -30 9 -42c0 -47 -36 -82 -85 -82c-37 0 -65 21 -81 62l-14 35h-236l-14 -35c-16 -41 -44 -62 -81 -62c-49 0 -85 35 -85 82c0 12 3 27 9 42l207 503
c15 37 43 57 82 57s67 -20 82 -57zM330 416l-67 -193h134z" />
    <glyph glyph-name="Aogonek" unicode="&#x104;" horiz-adv-x="660" 
d="M588 -72c31 0 51 -22 51 -54c0 -28 -17 -51 -48 -59c-18 -5 -38 -7 -63 -7c-78 0 -129 42 -129 108c0 43 20 78 68 122c-2 4 -3 8 -5 12l-14 35h-236l-14 -35c-16 -41 -44 -62 -81 -62c-49 0 -85 35 -85 82c0 12 3 27 9 42l207 503c15 37 43 57 82 57s67 -20 82 -57
l207 -503c6 -15 9 -30 9 -42c0 -16 -4 -30 -12 -43c-2 -4 -5 -9 -9 -13c-28 -28 -47 -50 -47 -67c0 -12 9 -19 25 -19h3zM330 416l-67 -193h134z" />
    <glyph glyph-name="Aring" unicode="&#xc5;" horiz-adv-x="660" 
d="M619 112c6 -15 9 -30 9 -42c0 -47 -36 -82 -85 -82c-37 0 -65 21 -81 62l-14 35h-236l-14 -35c-16 -41 -44 -62 -81 -62c-49 0 -85 35 -85 82c0 12 3 27 9 42l207 503c10 24 25 40 44 49c-59 15 -99 65 -99 128c0 75 58 131 136 131c79 0 137 -56 137 -131
c0 -63 -40 -112 -99 -127c20 -9 35 -26 45 -50zM330 827c-20 0 -35 -14 -35 -35s15 -36 35 -36s35 16 35 36s-15 35 -35 35zM330 416l-67 -193h134z" />
    <glyph glyph-name="Atilde" unicode="&#xc3;" horiz-adv-x="660" 
d="M174 701c-42 0 -67 27 -67 71c0 88 55 147 136 147c24 0 51 -7 77 -20l28 -14c22 -11 34 -15 45 -15c16 0 24 7 31 25c9 24 31 38 61 38c42 0 67 -27 67 -71c0 -88 -55 -147 -136 -147c-24 0 -51 7 -77 20l-28 14c-22 11 -34 15 -45 15c-16 0 -24 -7 -31 -25
c-9 -24 -31 -38 -61 -38zM619 112c6 -15 9 -30 9 -42c0 -47 -36 -82 -85 -82c-37 0 -65 21 -81 62l-14 35h-236l-14 -35c-16 -41 -44 -62 -81 -62c-49 0 -85 35 -85 82c0 12 3 27 9 42l207 503c15 37 43 57 82 57s67 -20 82 -57zM330 416l-67 -193h134z" />
    <glyph glyph-name="AE" unicode="&#xc6;" horiz-adv-x="873" 
d="M763 155c46 0 79 -33 79 -77c0 -45 -34 -78 -79 -78h-243c-37 0 -67 22 -78 55h-229l-13 -25c-13 -26 -39 -42 -68 -42c-50 0 -86 34 -86 81c0 15 3 29 10 41l249 492c20 41 47 58 90 58h356c46 0 79 -33 79 -77c0 -45 -34 -78 -79 -78h-218l15 -91h128
c42 0 72 -30 72 -72c0 -41 -30 -72 -72 -72h-105l19 -115h173zM383 415l-103 -222h137z" />
    <glyph glyph-name="AEacute" unicode="&#x1fc;" horiz-adv-x="873" 
d="M441 714c-65 0 -89 70 -67 112l44 84c20 38 56 45 77 45c69 0 107 -84 66 -136l-61 -75c-22 -28 -51 -30 -59 -30zM763 155c46 0 79 -33 79 -77c0 -45 -34 -78 -79 -78h-243c-37 0 -67 22 -78 55h-229l-13 -25c-13 -26 -39 -42 -68 -42c-50 0 -86 34 -86 81
c0 15 3 29 10 41l249 492c20 41 47 58 90 58h356c46 0 79 -33 79 -77c0 -45 -34 -78 -79 -78h-218l15 -91h128c42 0 72 -30 72 -72c0 -41 -30 -72 -72 -72h-105l19 -115h173zM383 415l-103 -222h137z" />
    <glyph glyph-name="B" unicode="B" horiz-adv-x="623" 
d="M486 354c69 -28 110 -83 110 -158c0 -114 -94 -196 -223 -196h-221c-50 0 -87 37 -87 87v486c0 50 37 87 87 87h151c130 0 223 -81 223 -195c0 -44 -14 -82 -40 -111zM292 515h-62v-116h62c40 0 66 22 66 58s-26 58 -66 58zM362 145c42 0 66 21 66 58s-24 58 -66 58h-132
v-116h132z" />
    <glyph glyph-name="C" unicode="C" horiz-adv-x="723" 
d="M388 -12c-201 0 -356 149 -356 342s156 342 357 342c101 0 196 -41 254 -110c16 -18 25 -39 25 -61c0 -43 -35 -78 -79 -78c-24 0 -46 11 -66 32c-37 40 -81 59 -135 59c-106 0 -180 -76 -180 -185s73 -183 180 -183c52 0 95 19 134 59c20 21 42 32 66 32
c44 0 79 -35 79 -78c0 -19 -8 -39 -25 -61c-58 -69 -153 -110 -254 -110z" />
    <glyph glyph-name="Cacute" unicode="&#x106;" horiz-adv-x="723" 
d="M406 726c-65 0 -89 70 -67 112l44 84c20 38 56 45 77 45c69 0 107 -84 66 -136l-61 -75c-22 -28 -51 -30 -59 -30zM388 -12c-201 0 -356 149 -356 342s156 342 357 342c101 0 196 -41 254 -110c16 -18 25 -39 25 -61c0 -43 -35 -78 -79 -78c-24 0 -46 11 -66 32
c-37 40 -81 59 -135 59c-106 0 -180 -76 -180 -185s73 -183 180 -183c52 0 95 19 134 59c20 21 42 32 66 32c44 0 79 -35 79 -78c0 -19 -8 -39 -25 -61c-58 -69 -153 -110 -254 -110z" />
    <glyph glyph-name="Ccaron" unicode="&#x10c;" horiz-adv-x="723" 
d="M248 834c-24 23 -42 37 -42 63c0 35 28 63 62 63c12 0 30 -2 50 -21l69 -61l69 61c21 18 38 21 50 21c34 0 62 -28 62 -63c0 -26 -18 -40 -42 -63l-76 -72c-20 -19 -40 -27 -63 -27s-43 9 -63 27zM588 237c44 0 79 -35 79 -78c0 -19 -8 -39 -25 -61
c-58 -69 -153 -110 -254 -110c-201 0 -356 149 -356 342s156 342 357 342c101 0 196 -41 254 -110c16 -18 25 -39 25 -61c0 -43 -35 -78 -79 -78c-24 0 -46 11 -66 32c-37 40 -81 59 -135 59c-106 0 -180 -76 -180 -185s73 -183 180 -183c52 0 95 19 134 59
c20 21 42 32 66 32z" />
    <glyph glyph-name="Ccedilla" unicode="&#xc7;" horiz-adv-x="723" 
d="M588 237c44 0 79 -35 79 -78c0 -19 -8 -39 -25 -61c-36 -43 -87 -76 -145 -94c9 -19 14 -40 14 -59c0 -85 -64 -137 -167 -137c-33 0 -55 3 -71 10c-25 10 -37 28 -37 52c0 33 26 60 60 60h23c32 0 51 9 51 30c0 11 -3 20 -7 29c-188 11 -331 156 -331 341
c0 193 156 342 357 342c101 0 196 -41 254 -110c16 -18 25 -39 25 -61c0 -43 -35 -78 -79 -78c-24 0 -46 11 -66 32c-37 40 -81 59 -135 59c-106 0 -180 -76 -180 -185s73 -183 180 -183c52 0 95 19 134 59c20 21 42 32 66 32z" />
    <glyph glyph-name="Ccircumflex" unicode="&#x108;" horiz-adv-x="723" 
d="M268 735c-34 0 -62 28 -62 63c0 26 18 40 42 63l76 72c20 18 40 27 63 27s43 -8 63 -27l76 -72c24 -23 42 -37 42 -63c0 -35 -28 -63 -62 -63c-12 0 -29 3 -50 21l-69 61l-69 -61c-20 -19 -38 -21 -50 -21zM588 237c44 0 79 -35 79 -78c0 -19 -8 -39 -25 -61
c-58 -69 -153 -110 -254 -110c-201 0 -356 149 -356 342s156 342 357 342c101 0 196 -41 254 -110c16 -18 25 -39 25 -61c0 -43 -35 -78 -79 -78c-24 0 -46 11 -66 32c-37 40 -81 59 -135 59c-106 0 -180 -76 -180 -185s73 -183 180 -183c52 0 95 19 134 59
c20 21 42 32 66 32z" />
    <glyph glyph-name="Cdotaccent" unicode="&#x10a;" horiz-adv-x="723" 
d="M387 929c56 0 103 -43 103 -99c0 -55 -47 -98 -103 -98s-102 43 -102 98c0 56 46 99 102 99zM388 -12c-201 0 -356 149 -356 342s156 342 357 342c101 0 196 -41 254 -110c16 -18 25 -39 25 -61c0 -43 -35 -78 -79 -78c-24 0 -46 11 -66 32c-37 40 -81 59 -135 59
c-106 0 -180 -76 -180 -185s73 -183 180 -183c52 0 95 19 134 59c20 21 42 32 66 32c44 0 79 -35 79 -78c0 -19 -8 -39 -25 -61c-58 -69 -153 -110 -254 -110z" />
    <glyph glyph-name="D" unicode="D" horiz-adv-x="687" 
d="M295 660c213 0 360 -134 360 -328s-150 -332 -360 -332h-143c-50 0 -87 37 -87 87v486c0 50 37 87 87 87h143zM294 504h-57v-349h57c111 0 185 71 185 177c0 107 -70 172 -185 172z" />
    <glyph glyph-name="Eth" unicode="&#xd0;" horiz-adv-x="688" 
d="M295 660c213 0 360 -134 360 -328s-150 -332 -360 -332h-143c-50 0 -87 37 -87 87v159h-6c-45 0 -79 31 -79 72s34 72 79 72h6v183c0 50 37 87 87 87h143zM294 155c111 0 185 71 185 177c0 107 -70 172 -185 172h-57v-114h25c45 0 79 -31 79 -72s-34 -72 -79 -72h-25v-91
h57z" />
    <glyph glyph-name="Dcaron" unicode="&#x10e;" horiz-adv-x="687" 
d="M165 822c-24 23 -42 37 -42 63c0 35 28 63 62 63c12 0 30 -2 50 -21l69 -61l69 61c21 18 38 21 50 21c34 0 62 -28 62 -63c0 -26 -18 -40 -42 -63l-76 -72c-20 -19 -40 -27 -63 -27s-43 9 -63 27zM295 660c213 0 360 -134 360 -328s-150 -332 -360 -332h-143
c-50 0 -87 37 -87 87v486c0 50 37 87 87 87h143zM294 155c111 0 185 71 185 177c0 107 -70 172 -185 172h-57v-349h57z" />
    <glyph glyph-name="Dcroat" unicode="&#x110;" horiz-adv-x="688" 
d="M295 660c213 0 360 -134 360 -328s-150 -332 -360 -332h-143c-50 0 -87 37 -87 87v159h-6c-45 0 -79 31 -79 72s34 72 79 72h6v183c0 50 37 87 87 87h143zM294 155c111 0 185 71 185 177c0 107 -70 172 -185 172h-57v-114h25c45 0 79 -31 79 -72s-34 -72 -79 -72h-25v-91
h57z" />
    <glyph glyph-name="E" unicode="E" horiz-adv-x="576" 
d="M152 0c-50 0 -87 37 -87 87v486c0 50 37 87 87 87h302c46 0 79 -33 79 -77c0 -45 -34 -78 -79 -78h-217v-91h138c42 0 73 -31 73 -72s-31 -72 -73 -72h-138v-115h229c46 0 79 -33 79 -77c0 -45 -34 -78 -79 -78h-314z" />
    <glyph glyph-name="Eacute" unicode="&#xc9;" horiz-adv-x="576" 
d="M306 714c-65 0 -89 70 -67 112l44 84c20 38 56 45 77 45c69 0 107 -84 66 -136l-61 -75c-22 -28 -51 -30 -59 -30zM152 0c-50 0 -87 37 -87 87v486c0 50 37 87 87 87h302c46 0 79 -33 79 -77c0 -45 -34 -78 -79 -78h-217v-91h138c42 0 73 -31 73 -72s-31 -72 -73 -72
h-138v-115h229c46 0 79 -33 79 -77c0 -45 -34 -78 -79 -78h-314z" />
    <glyph glyph-name="Ebreve" unicode="&#x114;" horiz-adv-x="576" 
d="M288 723c-91 0 -179 67 -179 141c0 37 27 65 64 65c25 0 43 -12 63 -43c16 -25 31 -35 52 -35s38 11 52 35c18 30 37 43 63 43c37 0 64 -28 64 -65c0 -73 -89 -141 -179 -141zM152 0c-50 0 -87 37 -87 87v486c0 50 37 87 87 87h302c46 0 79 -33 79 -77
c0 -45 -34 -78 -79 -78h-217v-91h138c42 0 73 -31 73 -72s-31 -72 -73 -72h-138v-115h229c46 0 79 -33 79 -77c0 -45 -34 -78 -79 -78h-314z" />
    <glyph glyph-name="Ecaron" unicode="&#x11a;" horiz-adv-x="576" 
d="M148 822c-24 23 -42 37 -42 63c0 35 28 63 62 63c12 0 30 -2 50 -21l69 -61l69 61c21 18 38 21 50 21c34 0 62 -28 62 -63c0 -26 -18 -40 -42 -63l-76 -72c-20 -19 -40 -27 -63 -27s-43 9 -63 27zM466 155c46 0 79 -33 79 -77c0 -45 -34 -78 -79 -78h-314
c-50 0 -87 37 -87 87v486c0 50 37 87 87 87h302c46 0 79 -33 79 -77c0 -45 -34 -78 -79 -78h-217v-91h138c42 0 73 -31 73 -72s-31 -72 -73 -72h-138v-115h229z" />
    <glyph glyph-name="Ecircumflex" unicode="&#xca;" horiz-adv-x="576" 
d="M168 723c-34 0 -62 28 -62 63c0 26 18 40 42 63l76 72c20 18 40 27 63 27s43 -8 63 -27l76 -72c24 -23 42 -37 42 -63c0 -35 -28 -63 -62 -63c-12 0 -29 3 -50 21l-69 61l-69 -61c-20 -19 -38 -21 -50 -21zM466 155c46 0 79 -33 79 -77c0 -45 -34 -78 -79 -78h-314
c-50 0 -87 37 -87 87v486c0 50 37 87 87 87h302c46 0 79 -33 79 -77c0 -45 -34 -78 -79 -78h-217v-91h138c42 0 73 -31 73 -72s-31 -72 -73 -72h-138v-115h229z" />
    <glyph glyph-name="Edieresis" unicode="&#xcb;" horiz-adv-x="576" 
d="M150 724c-49 0 -97 44 -97 93c0 54 48 94 97 94c54 0 98 -40 98 -94c0 -49 -44 -93 -98 -93zM425 723c-49 0 -97 44 -97 93c0 54 48 94 97 94c54 0 98 -40 98 -94c0 -49 -44 -93 -98 -93zM152 0c-50 0 -87 37 -87 87v486c0 50 37 87 87 87h302c46 0 79 -33 79 -77
c0 -45 -34 -78 -79 -78h-217v-91h138c42 0 73 -31 73 -72s-31 -72 -73 -72h-138v-115h229c46 0 79 -33 79 -77c0 -45 -34 -78 -79 -78h-314z" />
    <glyph glyph-name="Edotaccent" unicode="&#x116;" horiz-adv-x="576" 
d="M287 917c56 0 103 -43 103 -99c0 -55 -47 -98 -103 -98s-102 43 -102 98c0 56 46 99 102 99zM152 0c-50 0 -87 37 -87 87v486c0 50 37 87 87 87h302c46 0 79 -33 79 -77c0 -45 -34 -78 -79 -78h-217v-91h138c42 0 73 -31 73 -72s-31 -72 -73 -72h-138v-115h229
c46 0 79 -33 79 -77c0 -45 -34 -78 -79 -78h-314z" />
    <glyph glyph-name="Egrave" unicode="&#xc8;" horiz-adv-x="576" 
d="M270 714c-8 0 -37 2 -59 30l-61 75c-41 52 -3 136 66 136c21 0 57 -7 77 -45l44 -84c22 -42 -2 -112 -67 -112zM152 0c-50 0 -87 37 -87 87v486c0 50 37 87 87 87h302c46 0 79 -33 79 -77c0 -45 -34 -78 -79 -78h-217v-91h138c42 0 73 -31 73 -72s-31 -72 -73 -72h-138
v-115h229c46 0 79 -33 79 -77c0 -45 -34 -78 -79 -78h-314z" />
    <glyph glyph-name="Emacron" unicode="&#x112;" horiz-adv-x="576" 
d="M400 883c39 0 68 -29 68 -67s-29 -67 -68 -67h-224c-39 0 -68 29 -68 67s29 67 68 67h224zM152 0c-50 0 -87 37 -87 87v486c0 50 37 87 87 87h302c46 0 79 -33 79 -77c0 -45 -34 -78 -79 -78h-217v-91h138c42 0 73 -31 73 -72s-31 -72 -73 -72h-138v-115h229
c46 0 79 -33 79 -77c0 -45 -34 -78 -79 -78h-314z" />
    <glyph glyph-name="Eogonek" unicode="&#x118;" horiz-adv-x="577" 
d="M494 -72c31 0 51 -22 51 -54c0 -28 -17 -51 -48 -59c-18 -5 -38 -7 -63 -7c-78 0 -129 42 -129 108c0 26 17 56 38 84h-191c-50 0 -87 37 -87 87v486c0 50 37 87 87 87h302c46 0 79 -33 79 -77c0 -45 -34 -78 -79 -78h-217v-91h138c42 0 73 -31 73 -72s-31 -72 -73 -72
h-138v-115h229c41 0 72 -26 78 -63c1 -4 2 -7 2 -11c0 -27 -8 -44 -23 -59l-33 -33c-20 -20 -24 -30 -24 -42s9 -19 25 -19h3z" />
    <glyph glyph-name="F" unicode="F" horiz-adv-x="541" 
d="M151 -12c-50 0 -86 37 -86 87v498c0 50 37 87 87 87h292c46 0 79 -33 79 -77c0 -45 -34 -78 -79 -78h-207v-126h155c46 0 79 -33 79 -77c0 -45 -34 -78 -79 -78h-155v-149c0 -50 -36 -87 -86 -87z" />
    <glyph glyph-name="G" unicode="G" horiz-adv-x="747" 
d="M391 -12c-203 0 -359 148 -359 342s156 342 359 342c81 0 163 -27 216 -72c43 -39 61 -68 61 -100c0 -42 -36 -77 -78 -77c-27 0 -46 10 -71 36c-36 37 -78 55 -131 55c-109 0 -180 -72 -180 -184c0 -115 75 -189 190 -189c61 0 112 21 145 59v31h-87
c-44 0 -77 32 -77 74s33 74 77 74h172c50 0 87 -37 87 -87v-72c0 -36 -7 -61 -25 -88c-59 -86 -180 -144 -299 -144z" />
    <glyph glyph-name="Gbreve" unicode="&#x11e;" horiz-adv-x="747" 
d="M385 723c-91 0 -179 67 -179 141c0 37 27 65 64 65c25 0 43 -12 63 -43c16 -25 31 -35 52 -35s38 11 52 35c18 30 37 43 63 43c37 0 64 -28 64 -65c0 -73 -89 -141 -179 -141zM391 -12c-203 0 -359 148 -359 342s156 342 359 342c81 0 163 -27 216 -72
c43 -39 61 -68 61 -100c0 -42 -36 -77 -78 -77c-27 0 -46 10 -71 36c-36 37 -78 55 -131 55c-109 0 -180 -72 -180 -184c0 -115 75 -189 190 -189c61 0 112 21 145 59v31h-87c-44 0 -77 32 -77 74s33 74 77 74h172c50 0 87 -37 87 -87v-72c0 -36 -7 -61 -25 -88
c-59 -86 -180 -144 -299 -144z" />
    <glyph glyph-name="Gcircumflex" unicode="&#x11c;" horiz-adv-x="747" 
d="M265 723c-34 0 -62 28 -62 63c0 26 18 40 42 63l76 72c20 18 40 27 63 27s43 -8 63 -27l76 -72c24 -23 42 -37 42 -63c0 -35 -28 -63 -62 -63c-12 0 -29 3 -50 21l-69 61l-69 -61c-20 -19 -38 -21 -50 -21zM628 379c50 0 87 -37 87 -87v-72c0 -36 -7 -61 -25 -88
c-59 -86 -180 -144 -299 -144c-203 0 -359 148 -359 342s156 342 359 342c81 0 163 -27 216 -72c43 -39 61 -68 61 -100c0 -42 -36 -77 -78 -77c-27 0 -46 10 -71 36c-36 37 -78 55 -131 55c-109 0 -180 -72 -180 -184c0 -115 75 -189 190 -189c61 0 112 21 145 59v31h-87
c-44 0 -77 32 -77 74s33 74 77 74h172z" />
    <glyph glyph-name="Gcommaaccent" unicode="&#x122;" horiz-adv-x="747" 
d="M391 -12c-203 0 -359 148 -359 342s156 342 359 342c81 0 163 -27 216 -72c43 -39 61 -68 61 -100c0 -42 -36 -77 -78 -77c-27 0 -46 10 -71 36c-36 37 -78 55 -131 55c-109 0 -180 -72 -180 -184c0 -115 75 -189 190 -189c61 0 112 21 145 59v31h-87
c-44 0 -77 32 -77 74s33 74 77 74h172c50 0 87 -37 87 -87v-72c0 -36 -7 -61 -25 -88c-59 -86 -180 -144 -299 -144zM347 -276c-38 0 -75 32 -75 72c0 32 12 48 12 83c0 47 39 86 86 86s86 -39 86 -86c0 -40 -16 -93 -49 -127c-18 -19 -38 -28 -60 -28z" />
    <glyph glyph-name="Gdotaccent" unicode="&#x120;" horiz-adv-x="747" 
d="M384 917c56 0 103 -43 103 -99c0 -55 -47 -98 -103 -98s-102 43 -102 98c0 56 46 99 102 99zM391 -12c-203 0 -359 148 -359 342s156 342 359 342c81 0 163 -27 216 -72c43 -39 61 -68 61 -100c0 -42 -36 -77 -78 -77c-27 0 -46 10 -71 36c-36 37 -78 55 -131 55
c-109 0 -180 -72 -180 -184c0 -115 75 -189 190 -189c61 0 112 21 145 59v31h-87c-44 0 -77 32 -77 74s33 74 77 74h172c50 0 87 -37 87 -87v-72c0 -36 -7 -61 -25 -88c-59 -86 -180 -144 -299 -144z" />
    <glyph glyph-name="H" unicode="H" horiz-adv-x="715" 
d="M151 -12c-49 0 -86 38 -86 89v506c0 51 36 89 86 89s86 -38 86 -89v-164h241v166c0 51 36 87 86 87s86 -36 86 -87v-508c0 -51 -37 -89 -86 -89s-86 38 -86 89v187h-241v-187c0 -51 -37 -89 -86 -89z" />
    <glyph glyph-name="Hbar" unicode="&#x126;" horiz-adv-x="741" 
d="M164 -12c-49 0 -86 37 -86 87v345h-26c-41 0 -72 31 -72 72c0 42 31 72 72 72h26v21c0 50 37 87 86 87s86 -37 86 -87v-21h241v21c0 50 36 87 86 87c49 0 86 -37 86 -87v-21h26c42 0 72 -30 72 -72c0 -41 -30 -72 -72 -72h-26v-345c0 -50 -37 -87 -86 -87s-86 37 -86 87
v114h-241v-114c0 -50 -37 -87 -86 -87zM250 334h241v86h-241v-86z" />
    <glyph glyph-name="Hcircumflex" unicode="&#x124;" horiz-adv-x="715" 
d="M238 723c-34 0 -62 28 -62 63c0 26 18 40 42 63l76 72c20 18 40 27 63 27s43 -8 63 -27l76 -72c24 -23 42 -37 42 -63c0 -35 -28 -63 -62 -63c-12 0 -29 3 -50 21l-69 61l-69 -61c-20 -19 -38 -21 -50 -21zM564 672c50 0 86 -36 86 -87v-508c0 -51 -37 -89 -86 -89
s-86 38 -86 89v187h-241v-187c0 -51 -37 -89 -86 -89s-86 38 -86 89v506c0 51 36 89 86 89s86 -38 86 -89v-164h241v166c0 51 36 87 86 87z" />
    <glyph glyph-name="I" unicode="I" horiz-adv-x="302" 
d="M151 -12c-50 0 -86 37 -86 87v510c0 50 36 87 86 87s86 -37 86 -87v-510c0 -50 -36 -87 -86 -87z" />
    <glyph glyph-name="IJ" unicode="&#x132;" horiz-adv-x="700" 
d="M151 -12c-50 0 -86 37 -86 87v510c0 50 36 87 86 87s86 -37 86 -87v-510c0 -50 -36 -87 -86 -87zM405 -12c-25 0 -45 3 -60 10c-28 13 -46 41 -46 70c0 41 34 74 78 74c13 0 26 -1 37 -1c29 0 49 19 49 46v398c0 50 36 87 86 87s86 -37 86 -87v-394
c0 -135 -77 -203 -230 -203z" />
    <glyph glyph-name="Iacute" unicode="&#xcd;" horiz-adv-x="302" 
d="M169 714c-65 0 -89 70 -67 112l44 84c20 38 56 45 77 45c69 0 107 -84 66 -136l-61 -75c-22 -28 -51 -30 -59 -30zM151 -12c-50 0 -86 37 -86 87v510c0 50 36 87 86 87s86 -37 86 -87v-510c0 -50 -36 -87 -86 -87z" />
    <glyph glyph-name="Ibreve" unicode="&#x12c;" horiz-adv-x="302" 
d="M151 723c-91 0 -179 67 -179 141c0 37 27 65 64 65c25 0 43 -12 63 -43c16 -25 31 -35 52 -35s38 11 52 35c18 30 37 43 63 43c37 0 64 -28 64 -65c0 -73 -89 -141 -179 -141zM151 -12c-50 0 -86 37 -86 87v510c0 50 36 87 86 87s86 -37 86 -87v-510
c0 -50 -36 -87 -86 -87z" />
    <glyph glyph-name="Icircumflex" unicode="&#xce;" horiz-adv-x="302" 
d="M289 849c24 -23 42 -37 42 -63c0 -35 -28 -63 -62 -63c-12 0 -29 3 -50 21l-69 61l-69 -61c-20 -19 -38 -21 -50 -21c-34 0 -62 28 -62 63c0 26 18 40 42 63l76 72c20 18 40 27 63 27s43 -8 63 -27zM151 672c50 0 86 -37 86 -87v-510c0 -50 -36 -87 -86 -87
s-86 37 -86 87v510c0 50 36 87 86 87z" />
    <glyph glyph-name="Idieresis" unicode="&#xcf;" horiz-adv-x="302" 
d="M13 724c-49 0 -97 44 -97 93c0 54 48 94 97 94c54 0 98 -40 98 -94c0 -49 -44 -93 -98 -93zM288 723c-49 0 -97 44 -97 93c0 54 48 94 97 94c54 0 98 -40 98 -94c0 -49 -44 -93 -98 -93zM151 -12c-50 0 -86 37 -86 87v510c0 50 36 87 86 87s86 -37 86 -87v-510
c0 -50 -36 -87 -86 -87z" />
    <glyph glyph-name="Idotaccent" unicode="&#x130;" horiz-adv-x="302" 
d="M150 917c56 0 103 -43 103 -99c0 -55 -47 -98 -103 -98s-102 43 -102 98c0 56 46 99 102 99zM151 -12c-50 0 -86 37 -86 87v510c0 50 36 87 86 87s86 -37 86 -87v-510c0 -50 -36 -87 -86 -87z" />
    <glyph glyph-name="Igrave" unicode="&#xcc;" horiz-adv-x="302" 
d="M133 714c-8 0 -37 2 -59 30l-61 75c-41 52 -3 136 66 136c21 0 57 -7 77 -45l44 -84c22 -42 -2 -112 -67 -112zM151 -12c-50 0 -86 37 -86 87v510c0 50 36 87 86 87s86 -37 86 -87v-510c0 -50 -36 -87 -86 -87z" />
    <glyph glyph-name="Imacron" unicode="&#x12a;" horiz-adv-x="302" 
d="M263 883c39 0 68 -29 68 -67s-29 -67 -68 -67h-224c-39 0 -68 29 -68 67s29 67 68 67h224zM151 -12c-50 0 -86 37 -86 87v510c0 50 36 87 86 87s86 -37 86 -87v-510c0 -50 -36 -87 -86 -87z" />
    <glyph glyph-name="Iogonek" unicode="&#x12e;" horiz-adv-x="302" 
d="M201 -72c31 0 51 -22 51 -54c0 -28 -17 -51 -48 -59c-18 -5 -38 -7 -63 -7c-78 0 -129 42 -129 108c0 42 18 75 63 117c-7 13 -10 27 -10 42v510c0 50 36 87 86 87s86 -37 86 -87v-510c0 -4 0 -8 -1 -12c1 -2 1 -5 1 -7c0 -15 -6 -30 -17 -42c-28 -28 -47 -50 -47 -67
c0 -12 9 -19 25 -19h3z" />
    <glyph glyph-name="Itilde" unicode="&#x128;" horiz-adv-x="302" 
d="M-5 701c-42 0 -67 27 -67 71c0 88 55 147 136 147c24 0 51 -7 77 -20l28 -14c22 -11 34 -15 45 -15c16 0 24 7 31 25c9 24 31 38 61 38c42 0 67 -27 67 -71c0 -88 -55 -147 -136 -147c-24 0 -51 7 -77 20l-28 14c-22 11 -34 15 -45 15c-16 0 -24 -7 -31 -25
c-9 -24 -31 -38 -61 -38zM151 -12c-50 0 -86 37 -86 87v510c0 50 36 87 86 87s86 -37 86 -87v-510c0 -50 -36 -87 -86 -87z" />
    <glyph glyph-name="J" unicode="J" horiz-adv-x="398" 
d="M103 -12c-25 0 -45 3 -60 10c-28 13 -46 41 -46 70c0 41 34 74 78 74c13 0 26 -1 37 -1c29 0 49 19 49 46v398c0 50 36 87 86 87s86 -37 86 -87v-394c0 -135 -77 -203 -230 -203z" />
    <glyph glyph-name="Jcircumflex" unicode="&#x134;" horiz-adv-x="398" 
d="M361 849c24 -23 42 -37 42 -63c0 -35 -28 -63 -62 -63c-12 0 -29 3 -50 21l-69 61l-69 -61c-20 -19 -38 -21 -50 -21c-34 0 -62 28 -62 63c0 26 18 40 42 63l76 72c20 18 40 27 63 27s43 -8 63 -27zM247 672c50 0 86 -37 86 -87v-394c0 -135 -77 -203 -230 -203
c-25 0 -45 3 -60 10c-28 13 -46 41 -46 70c0 41 34 74 78 74c13 0 26 -1 37 -1c29 0 49 19 49 46v398c0 50 36 87 86 87z" />
    <glyph glyph-name="K" unicode="K" horiz-adv-x="694" 
d="M151 672c49 0 86 -37 86 -87v-510c0 -50 -37 -87 -86 -87s-86 37 -86 87v510c0 50 36 87 86 87zM629 119c13 -17 19 -33 19 -49c0 -43 -38 -82 -82 -82c-26 0 -51 13 -68 35l-209 268c-14 17 -21 36 -21 57c0 17 7 36 21 52l208 246c16 18 35 26 61 26
c42 0 78 -36 78 -80c0 -20 -7 -37 -22 -55l-162 -191z" />
    <glyph glyph-name="Kcommaaccent" unicode="&#x136;" horiz-adv-x="694" 
d="M151 672c49 0 86 -37 86 -87v-510c0 -50 -37 -87 -86 -87s-86 37 -86 87v510c0 50 36 87 86 87zM629 119c13 -17 19 -33 19 -49c0 -43 -38 -82 -82 -82c-26 0 -51 13 -68 35l-209 268c-14 17 -21 36 -21 57c0 17 7 36 21 52l208 246c16 18 35 26 61 26
c42 0 78 -36 78 -80c0 -20 -7 -37 -22 -55l-162 -191zM347 -35c47 0 86 -39 86 -86c0 -40 -16 -93 -49 -127c-18 -19 -38 -28 -60 -28c-38 0 -75 32 -75 72c0 32 12 48 12 83c0 47 39 86 86 86z" />
    <glyph glyph-name="L" unicode="L" horiz-adv-x="534" 
d="M152 0c-50 0 -87 37 -87 87v498c0 45 36 87 86 87s86 -37 86 -87v-430h205c45 0 78 -33 78 -78s-33 -77 -78 -77h-290z" />
    <glyph glyph-name="Lacute" unicode="&#x139;" horiz-adv-x="534" 
d="M169 714c-65 0 -89 70 -67 112l44 84c20 38 56 45 77 45c69 0 107 -84 66 -136l-61 -75c-22 -28 -51 -30 -59 -30zM152 0c-50 0 -87 37 -87 87v498c0 45 36 87 86 87s86 -37 86 -87v-430h205c45 0 78 -33 78 -78s-33 -77 -78 -77h-290z" />
    <glyph glyph-name="Lcaron" unicode="&#x13d;" horiz-adv-x="534" 
d="M445 507c-42 0 -83 38 -75 91l14 90c5 36 38 74 85 74c55 0 103 -54 79 -119l-33 -88c-8 -21 -27 -48 -70 -48zM152 0c-50 0 -87 37 -87 87v498c0 45 36 87 86 87s86 -37 86 -87v-430h205c45 0 78 -33 78 -78s-33 -77 -78 -77h-290z" />
    <glyph glyph-name="Lcommaaccent" unicode="&#x13b;" horiz-adv-x="534" 
d="M152 0c-50 0 -87 37 -87 87v498c0 45 36 87 86 87s86 -37 86 -87v-430h205c45 0 78 -33 78 -78s-33 -77 -78 -77h-290zM258 -276c-38 0 -75 32 -75 72c0 32 12 48 12 83c0 47 39 86 86 86s86 -39 86 -86c0 -40 -16 -93 -49 -127c-18 -19 -38 -28 -60 -28z" />
    <glyph glyph-name="Ldot" unicode="&#x13f;" horiz-adv-x="535" 
d="M152 0c-50 0 -87 37 -87 87v498c0 45 36 87 86 87s86 -37 86 -87v-430h205c45 0 78 -33 78 -78s-33 -77 -78 -77h-290zM420 272c-67 0 -114 49 -114 112c0 62 47 112 114 112c64 0 111 -50 111 -112c0 -63 -47 -112 -111 -112z" />
    <glyph glyph-name="Lslash" unicode="&#x141;" horiz-adv-x="535" 
d="M442 155c45 0 78 -33 78 -78s-33 -77 -78 -77h-290c-50 0 -87 37 -87 87v88c-40 -3 -77 29 -77 71c0 34 16 55 56 73l21 10v256c0 45 36 87 86 87s86 -37 86 -87v-185l95 43c47 21 101 -14 101 -65c0 -34 -16 -55 -56 -73l-140 -64v-86h205z" />
    <glyph glyph-name="M" unicode="M" horiz-adv-x="802" 
d="M651 672c50 0 86 -38 86 -89v-508c0 -50 -37 -87 -86 -87s-86 37 -86 87v231l-86 -137c-24 -38 -46 -53 -78 -53s-54 15 -78 53l-86 137v-231c0 -50 -37 -87 -86 -87s-86 37 -86 87v508c0 51 36 89 86 89c35 0 59 -17 87 -63l163 -262l163 262c28 46 52 63 87 63z" />
    <glyph glyph-name="N" unicode="N" horiz-adv-x="715" 
d="M564 672c49 0 86 -37 86 -87v-510c0 -49 -36 -87 -84 -87c-47 0 -66 27 -89 55l-240 297v-265c0 -50 -37 -87 -86 -87s-86 37 -86 87v510c0 49 36 87 84 87c47 0 66 -27 89 -55l240 -296v264c0 50 37 87 86 87z" />
    <glyph glyph-name="Nacute" unicode="&#x143;" horiz-adv-x="715" 
d="M376 714c-65 0 -89 70 -67 112l44 84c20 38 56 45 77 45c69 0 107 -84 66 -136l-61 -75c-22 -28 -51 -30 -59 -30zM564 672c49 0 86 -37 86 -87v-510c0 -49 -36 -87 -84 -87c-47 0 -66 27 -89 55l-240 297v-265c0 -50 -37 -87 -86 -87s-86 37 -86 87v510
c0 49 36 87 84 87c47 0 66 -27 89 -55l240 -296v264c0 50 37 87 86 87z" />
    <glyph glyph-name="Ncaron" unicode="&#x147;" horiz-adv-x="715" 
d="M218 822c-24 23 -42 37 -42 63c0 35 28 63 62 63c12 0 30 -2 50 -21l69 -61l69 61c21 18 38 21 50 21c34 0 62 -28 62 -63c0 -26 -18 -40 -42 -63l-76 -72c-20 -19 -40 -27 -63 -27s-43 9 -63 27zM564 672c49 0 86 -37 86 -87v-510c0 -49 -36 -87 -84 -87
c-47 0 -66 27 -89 55l-240 297v-265c0 -50 -37 -87 -86 -87s-86 37 -86 87v510c0 49 36 87 84 87c47 0 66 -27 89 -55l240 -296v264c0 50 37 87 86 87z" />
    <glyph glyph-name="Ncommaaccent" unicode="&#x145;" horiz-adv-x="715" 
d="M564 672c49 0 86 -37 86 -87v-510c0 -49 -36 -87 -84 -87c-47 0 -66 27 -89 55l-240 297v-265c0 -50 -37 -87 -86 -87s-86 37 -86 87v510c0 49 36 87 84 87c47 0 66 -27 89 -55l240 -296v264c0 50 37 87 86 87zM355 -35c47 0 86 -39 86 -86c0 -40 -16 -93 -49 -127
c-18 -19 -38 -28 -60 -28c-38 0 -75 32 -75 72c0 32 12 48 12 83c0 47 39 86 86 86z" />
    <glyph glyph-name="Eng" unicode="&#x14a;" horiz-adv-x="716" 
d="M650 128h1v-117c0 -134 -72 -203 -209 -203c-28 0 -52 6 -69 17c-24 16 -35 37 -35 65c0 48 35 82 86 82h3c30 0 52 21 52 50v19c-1 0 -1 1 -2 2l-240 297v-265c0 -50 -37 -87 -86 -87s-86 37 -86 87v510c0 49 36 87 84 87c47 0 66 -27 89 -55l240 -296v264
c0 50 37 87 86 87s86 -37 86 -87v-457z" />
    <glyph glyph-name="Ntilde" unicode="&#xd1;" horiz-adv-x="715" 
d="M202 701c-42 0 -67 27 -67 71c0 88 55 147 136 147c24 0 51 -7 77 -20l28 -14c22 -11 34 -15 45 -15c16 0 24 7 31 25c9 24 31 38 61 38c42 0 67 -27 67 -71c0 -88 -55 -147 -136 -147c-24 0 -51 7 -77 20l-28 14c-22 11 -34 15 -45 15c-16 0 -24 -7 -31 -25
c-9 -24 -31 -38 -61 -38zM564 672c49 0 86 -37 86 -87v-510c0 -49 -36 -87 -84 -87c-47 0 -66 27 -89 55l-240 297v-265c0 -50 -37 -87 -86 -87s-86 37 -86 87v510c0 49 36 87 84 87c47 0 66 -27 89 -55l240 -296v264c0 50 37 87 86 87z" />
    <glyph glyph-name="O" unicode="O" horiz-adv-x="776" 
d="M387 672c200 0 357 -151 357 -342c0 -192 -157 -342 -357 -342s-355 150 -355 342s156 342 355 342zM388 514c-107 0 -180 -75 -180 -184c0 -110 72 -184 180 -184c106 0 180 76 180 184c0 107 -75 184 -180 184z" />
    <glyph glyph-name="Oacute" unicode="&#xd3;" horiz-adv-x="776" 
d="M406 714c-65 0 -89 70 -67 112l44 84c20 38 56 45 77 45c69 0 107 -84 66 -136l-61 -75c-22 -28 -51 -30 -59 -30zM387 672c200 0 357 -151 357 -342c0 -192 -157 -342 -357 -342s-355 150 -355 342s156 342 355 342zM388 514c-107 0 -180 -75 -180 -184
c0 -110 72 -184 180 -184c106 0 180 76 180 184c0 107 -75 184 -180 184z" />
    <glyph glyph-name="Obreve" unicode="&#x14e;" horiz-adv-x="776" 
d="M388 723c-91 0 -179 67 -179 141c0 37 27 65 64 65c25 0 43 -12 63 -43c16 -25 31 -35 52 -35s38 11 52 35c18 30 37 43 63 43c37 0 64 -28 64 -65c0 -73 -89 -141 -179 -141zM387 672c200 0 357 -151 357 -342c0 -192 -157 -342 -357 -342s-355 150 -355 342
s156 342 355 342zM388 514c-107 0 -180 -75 -180 -184c0 -110 72 -184 180 -184c106 0 180 76 180 184c0 107 -75 184 -180 184z" />
    <glyph glyph-name="Ocircumflex" unicode="&#xd4;" horiz-adv-x="776" 
d="M268 723c-34 0 -62 28 -62 63c0 26 18 40 42 63l76 72c20 18 40 27 63 27s43 -8 63 -27l76 -72c24 -23 42 -37 42 -63c0 -35 -28 -63 -62 -63c-12 0 -29 3 -50 21l-69 61l-69 -61c-20 -19 -38 -21 -50 -21zM387 672c200 0 357 -151 357 -342c0 -192 -157 -342 -357 -342
s-355 150 -355 342s156 342 355 342zM388 146c106 0 180 76 180 184c0 107 -75 184 -180 184c-107 0 -180 -75 -180 -184c0 -110 72 -184 180 -184z" />
    <glyph glyph-name="Odieresis" unicode="&#xd6;" horiz-adv-x="776" 
d="M250 724c-49 0 -97 44 -97 93c0 54 48 94 97 94c54 0 98 -40 98 -94c0 -49 -44 -93 -98 -93zM525 723c-49 0 -97 44 -97 93c0 54 48 94 97 94c54 0 98 -40 98 -94c0 -49 -44 -93 -98 -93zM387 672c200 0 357 -151 357 -342c0 -192 -157 -342 -357 -342s-355 150 -355 342
s156 342 355 342zM388 514c-107 0 -180 -75 -180 -184c0 -110 72 -184 180 -184c106 0 180 76 180 184c0 107 -75 184 -180 184z" />
    <glyph glyph-name="Ograve" unicode="&#xd2;" horiz-adv-x="776" 
d="M370 714c-8 0 -37 2 -59 30l-61 75c-41 52 -3 136 66 136c21 0 57 -7 77 -45l44 -84c22 -42 -2 -112 -67 -112zM387 672c200 0 357 -151 357 -342c0 -192 -157 -342 -357 -342s-355 150 -355 342s156 342 355 342zM388 514c-107 0 -180 -75 -180 -184
c0 -110 72 -184 180 -184c106 0 180 76 180 184c0 107 -75 184 -180 184z" />
    <glyph glyph-name="Ohungarumlaut" unicode="&#x150;" horiz-adv-x="776" 
d="M281 714c-65 0 -89 70 -67 112l44 84c20 38 56 45 77 45c69 0 107 -84 66 -136l-61 -75c-22 -28 -51 -30 -59 -30zM518 714c-65 0 -89 70 -67 112l44 84c20 38 56 45 77 45c69 0 107 -84 66 -136l-61 -75c-22 -28 -51 -30 -59 -30zM387 672c200 0 357 -151 357 -342
c0 -192 -157 -342 -357 -342s-355 150 -355 342s156 342 355 342zM388 514c-107 0 -180 -75 -180 -184c0 -110 72 -184 180 -184c106 0 180 76 180 184c0 107 -75 184 -180 184z" />
    <glyph glyph-name="Omacron" unicode="&#x14c;" horiz-adv-x="776" 
d="M500 883c39 0 68 -29 68 -67s-29 -67 -68 -67h-224c-39 0 -68 29 -68 67s29 67 68 67h224zM387 672c200 0 357 -151 357 -342c0 -192 -157 -342 -357 -342s-355 150 -355 342s156 342 355 342zM388 514c-107 0 -180 -75 -180 -184c0 -110 72 -184 180 -184
c106 0 180 76 180 184c0 107 -75 184 -180 184z" />
    <glyph glyph-name="Oslash" unicode="&#xd8;" horiz-adv-x="776" 
d="M683 523c39 -55 61 -121 61 -193c0 -192 -157 -342 -357 -342c-70 0 -134 18 -188 50l-24 -24c-17 -17 -38 -26 -58 -26c-38 0 -70 33 -70 71c0 20 8 40 25 57l20 20c-38 55 -60 122 -60 194c0 192 156 342 355 342c70 0 135 -18 189 -51l25 25c17 17 38 26 58 26
c38 0 70 -33 70 -71c0 -20 -8 -40 -25 -57zM200 330c0 -27 4 -51 12 -74l251 252c-23 9 -48 14 -75 14c-111 0 -188 -79 -188 -192zM388 138c112 0 188 78 188 192c0 26 -4 51 -13 73l-251 -251c23 -9 48 -14 76 -14z" />
    <glyph glyph-name="Oslashacute" unicode="&#x1fe;" horiz-adv-x="776" 
d="M406 714c-65 0 -89 70 -67 112l44 84c20 38 56 45 77 45c69 0 107 -84 66 -136l-61 -75c-22 -28 -51 -30 -59 -30zM683 523c39 -55 61 -121 61 -193c0 -192 -157 -342 -357 -342c-70 0 -134 18 -188 50l-24 -24c-17 -17 -38 -26 -58 -26c-38 0 -70 33 -70 71
c0 20 8 40 25 57l20 20c-38 55 -60 122 -60 194c0 192 156 342 355 342c70 0 135 -18 189 -51l25 25c17 17 38 26 58 26c38 0 70 -33 70 -71c0 -20 -8 -40 -25 -57zM200 330c0 -27 4 -51 12 -74l251 252c-23 9 -48 14 -75 14c-111 0 -188 -79 -188 -192zM388 138
c112 0 188 78 188 192c0 26 -4 51 -13 73l-251 -251c23 -9 48 -14 76 -14z" />
    <glyph glyph-name="Otilde" unicode="&#xd5;" horiz-adv-x="776" 
d="M232 701c-42 0 -67 27 -67 71c0 88 55 147 136 147c24 0 51 -7 77 -20l28 -14c22 -11 34 -15 45 -15c16 0 24 7 31 25c9 24 31 38 61 38c42 0 67 -27 67 -71c0 -88 -55 -147 -136 -147c-24 0 -51 7 -77 20l-28 14c-22 11 -34 15 -45 15c-16 0 -24 -7 -31 -25
c-9 -24 -31 -38 -61 -38zM387 672c200 0 357 -151 357 -342c0 -192 -157 -342 -357 -342s-355 150 -355 342s156 342 355 342zM388 514c-107 0 -180 -75 -180 -184c0 -110 72 -184 180 -184c106 0 180 76 180 184c0 107 -75 184 -180 184z" />
    <glyph glyph-name="OE" unicode="&#x152;" horiz-adv-x="1079" 
d="M968 155c46 0 79 -33 79 -77c0 -45 -34 -78 -79 -78h-314c-35 0 -64 18 -78 47c-48 -38 -114 -59 -190 -59c-201 0 -354 147 -354 342c0 194 153 342 355 342c75 0 141 -21 189 -59c14 29 43 47 78 47h302c46 0 79 -33 79 -77c0 -45 -34 -78 -79 -78h-217v-91h138
c42 0 73 -31 73 -72s-31 -72 -73 -72h-138v-115h229zM387 146c99 0 171 65 180 162v42c-9 98 -81 164 -180 164c-106 0 -179 -75 -179 -185c0 -109 73 -183 179 -183z" />
    <glyph glyph-name="P" unicode="P" horiz-adv-x="606" 
d="M151 -12c-49 0 -86 37 -86 87v498c0 50 37 87 87 87h172c151 0 255 -92 255 -227c0 -133 -106 -228 -255 -228h-87v-130c0 -50 -37 -87 -86 -87zM237 355h88c48 0 79 31 79 78c0 46 -31 77 -79 77h-88v-155z" />
    <glyph glyph-name="Thorn" unicode="&#xde;" horiz-adv-x="606" 
d="M151 672c49 0 86 -37 86 -87v-16h87c151 0 255 -92 255 -227c0 -133 -106 -228 -255 -228h-87v-39c0 -50 -37 -87 -86 -87s-86 37 -86 87v510c0 50 36 87 86 87zM325 419h-88v-155h88c48 0 79 31 79 78c0 46 -31 77 -79 77z" />
    <glyph glyph-name="Q" unicode="Q" horiz-adv-x="776" 
d="M1012 -85c43 0 70 -26 70 -67c0 -27 -12 -48 -35 -61s-56 -19 -107 -19c-188 0 -350 83 -455 233c-31 -9 -64 -13 -98 -13c-200 0 -355 150 -355 342s156 342 355 342c200 0 357 -151 357 -342c0 -102 -45 -193 -117 -255c88 -111 196 -161 345 -161c21 0 32 1 40 1z
M208 330c0 -109 72 -184 179 -184s181 76 181 184s-75 184 -181 184s-179 -75 -179 -184z" />
    <glyph glyph-name="R" unicode="R" horiz-adv-x="651" 
d="M577 132c16 -23 24 -45 24 -66c0 -42 -38 -78 -81 -78c-32 0 -58 14 -77 43l-116 174h-3h-87v-130c0 -50 -37 -87 -86 -87s-86 37 -86 87v498c0 50 37 87 87 87h172c151 0 255 -92 255 -226c0 -75 -33 -138 -89 -179zM237 510v-155h88c48 0 79 31 79 78
c0 46 -31 77 -79 77h-88z" />
    <glyph glyph-name="Racute" unicode="&#x154;" horiz-adv-x="651" 
d="M300 714c-65 0 -89 70 -67 112l44 84c20 38 56 45 77 45c69 0 107 -84 66 -136l-61 -75c-22 -28 -51 -30 -59 -30zM577 132c16 -23 24 -45 24 -66c0 -42 -38 -78 -81 -78c-32 0 -58 14 -77 43l-116 174h-3h-87v-130c0 -50 -37 -87 -86 -87s-86 37 -86 87v498
c0 50 37 87 87 87h172c151 0 255 -92 255 -226c0 -75 -33 -138 -89 -179zM237 510v-155h88c48 0 79 31 79 78c0 46 -31 77 -79 77h-88z" />
    <glyph glyph-name="Rcaron" unicode="&#x158;" horiz-adv-x="651" 
d="M142 822c-24 23 -42 37 -42 63c0 35 28 63 62 63c12 0 30 -2 50 -21l69 -61l69 61c21 18 38 21 50 21c34 0 62 -28 62 -63c0 -26 -18 -40 -42 -63l-76 -72c-20 -19 -40 -27 -63 -27s-43 9 -63 27zM577 132c16 -23 24 -45 24 -66c0 -42 -38 -78 -81 -78
c-32 0 -58 14 -77 43l-116 174h-3h-87v-130c0 -50 -37 -87 -86 -87s-86 37 -86 87v498c0 50 37 87 87 87h172c151 0 255 -92 255 -226c0 -75 -33 -138 -89 -179zM237 510v-155h88c48 0 79 31 79 78c0 46 -31 77 -79 77h-88z" />
    <glyph glyph-name="Rcommaaccent" unicode="&#x156;" horiz-adv-x="651" 
d="M577 132c16 -23 24 -45 24 -66c0 -42 -38 -78 -81 -78c-32 0 -58 14 -77 43l-116 174h-3h-87v-130c0 -50 -37 -87 -86 -87s-86 37 -86 87v498c0 50 37 87 87 87h172c151 0 255 -92 255 -226c0 -75 -33 -138 -89 -179zM237 510v-155h88c48 0 79 31 79 78
c0 46 -31 77 -79 77h-88zM322 -35c47 0 86 -39 86 -86c0 -40 -16 -93 -49 -127c-18 -19 -38 -28 -60 -28c-38 0 -75 32 -75 72c0 32 12 48 12 83c0 47 39 86 86 86z" />
    <glyph glyph-name="S" unicode="S" 
d="M286 -12c-73 0 -160 29 -207 73c-22 21 -35 44 -35 70c1 46 38 76 77 76c13 0 27 -4 39 -12c15 -10 57 -56 126 -56c46 0 68 16 68 48c0 31 -21 41 -67 61l-68 30c-105 46 -167 106 -167 199c0 118 100 195 231 195c116 1 172 -57 188 -76c15 -17 20 -35 20 -51
c0 -44 -39 -77 -77 -77c-14 0 -29 4 -44 15c-22 15 -41 38 -85 38c-34 0 -59 -12 -59 -42c0 -25 16 -37 57 -54l76 -32c110 -46 169 -102 169 -199c0 -130 -106 -206 -242 -206z" />
    <glyph glyph-name="Sacute" unicode="&#x15a;" 
d="M298 714c-65 0 -89 70 -67 112l44 84c20 38 56 45 77 45c69 0 107 -84 66 -136l-61 -75c-22 -28 -51 -30 -59 -30zM286 -12c-73 0 -160 29 -207 73c-22 21 -35 44 -35 70c1 46 38 76 77 76c13 0 27 -4 39 -12c15 -10 57 -56 126 -56c46 0 68 16 68 48c0 31 -21 41 -67 61
l-68 30c-105 46 -167 106 -167 199c0 118 100 195 231 195c116 1 172 -57 188 -76c15 -17 20 -35 20 -51c0 -44 -39 -77 -77 -77c-14 0 -29 4 -44 15c-22 15 -41 38 -85 38c-34 0 -59 -12 -59 -42c0 -25 16 -37 57 -54l76 -32c110 -46 169 -102 169 -199
c0 -130 -106 -206 -242 -206z" />
    <glyph glyph-name="Scaron" unicode="&#x160;" 
d="M140 822c-24 23 -42 37 -42 63c0 35 28 63 62 63c12 0 30 -2 50 -21l69 -61l69 61c21 18 38 21 50 21c34 0 62 -28 62 -63c0 -26 -18 -40 -42 -63l-76 -72c-20 -19 -40 -27 -63 -27s-43 9 -63 27zM359 393c110 -46 169 -102 169 -199c0 -130 -106 -206 -242 -206
c-73 0 -160 29 -207 73c-22 21 -35 44 -35 70c1 46 38 76 77 76c13 0 27 -4 39 -12c15 -10 57 -56 126 -56c46 0 68 16 68 48c0 31 -21 41 -67 61l-68 30c-105 46 -167 106 -167 199c0 118 100 195 231 195c116 1 172 -57 188 -76c15 -17 20 -35 20 -51
c0 -44 -39 -77 -77 -77c-14 0 -29 4 -44 15c-22 15 -41 38 -85 38c-34 0 -59 -12 -59 -42c0 -25 16 -37 57 -54z" />
    <glyph glyph-name="Scedilla" unicode="&#x15e;" 
d="M528 194c0 -95 -57 -162 -141 -190c9 -19 14 -40 14 -59c0 -85 -64 -137 -167 -137c-33 0 -55 3 -71 10c-25 10 -37 28 -37 52c0 33 26 60 60 60h23c32 0 51 9 51 30c0 11 -3 21 -7 30c-65 7 -134 33 -174 71c-22 21 -35 44 -35 70c1 46 38 76 77 76c13 0 27 -4 39 -12
c15 -10 57 -56 126 -56c46 0 68 16 68 48c0 31 -21 41 -67 61l-68 30c-105 46 -167 106 -167 199c0 118 100 195 231 195c116 1 172 -57 188 -76c15 -17 20 -35 20 -51c0 -44 -39 -77 -77 -77c-14 0 -29 4 -44 15c-22 15 -41 38 -85 38c-34 0 -59 -12 -59 -42
c0 -25 16 -37 57 -54l76 -32c110 -46 169 -102 169 -199z" />
    <glyph glyph-name="Scircumflex" unicode="&#x15c;" 
d="M160 723c-34 0 -62 28 -62 63c0 26 18 40 42 63l76 72c20 18 40 27 63 27s43 -8 63 -27l76 -72c24 -23 42 -37 42 -63c0 -35 -28 -63 -62 -63c-12 0 -29 3 -50 21l-69 61l-69 -61c-20 -19 -38 -21 -50 -21zM359 393c110 -46 169 -102 169 -199
c0 -130 -106 -206 -242 -206c-73 0 -160 29 -207 73c-22 21 -35 44 -35 70c1 46 38 76 77 76c13 0 27 -4 39 -12c15 -10 57 -56 126 -56c46 0 68 16 68 48c0 31 -21 41 -67 61l-68 30c-105 46 -167 106 -167 199c0 118 100 195 231 195c116 1 172 -57 188 -76
c15 -17 20 -35 20 -51c0 -44 -39 -77 -77 -77c-14 0 -29 4 -44 15c-22 15 -41 38 -85 38c-34 0 -59 -12 -59 -42c0 -25 16 -37 57 -54z" />
    <glyph glyph-name="Scommaaccent" unicode="&#x218;" 
d="M286 -12c-73 0 -160 29 -207 73c-22 21 -35 44 -35 70c1 46 38 76 77 76c13 0 27 -4 39 -12c15 -10 57 -56 126 -56c46 0 68 16 68 48c0 31 -21 41 -67 61l-68 30c-105 46 -167 106 -167 199c0 118 100 195 231 195c116 1 172 -57 188 -76c15 -17 20 -35 20 -51
c0 -44 -39 -77 -77 -77c-14 0 -29 4 -44 15c-22 15 -41 38 -85 38c-34 0 -59 -12 -59 -42c0 -25 16 -37 57 -54l76 -32c110 -46 169 -102 169 -199c0 -130 -106 -206 -242 -206zM254 -276c-38 0 -75 32 -75 72c0 32 12 48 12 83c0 47 39 86 86 86s86 -39 86 -86
c0 -40 -16 -93 -49 -127c-18 -19 -38 -28 -60 -28z" />
    <glyph glyph-name="uni1E9E" unicode="&#x1e9e;" horiz-adv-x="743" 
d="M559 426c92 -27 154 -110 154 -212c0 -132 -99 -226 -237 -226c-46 0 -95 12 -129 31c-32 18 -54 49 -54 79c0 41 31 72 74 72c20 0 36 -9 50 -15c17 -7 31 -10 48 -10c46 0 75 28 75 72c0 50 -36 72 -117 72c-46 0 -82 34 -82 79c0 22 10 42 30 62l73 75h-207v-430
c0 -50 -37 -87 -86 -87s-86 37 -86 87v498c0 50 37 87 87 87h448c41 0 74 -33 74 -75c0 -24 -11 -46 -38 -75z" />
    <glyph glyph-name="uni018F" unicode="&#x18f;" horiz-adv-x="734" 
d="M352 672c196 0 350 -150 350 -341c0 -192 -157 -343 -355 -343c-183 0 -315 130 -315 308v18c0 43 36 78 80 78h408c-22 75 -85 123 -167 123c-55 0 -102 -21 -141 -63c-18 -20 -38 -30 -62 -30c-43 0 -77 34 -77 78c0 20 7 39 26 59c73 77 151 113 253 113zM349 146
c77 0 135 39 163 101h-312c10 -61 68 -101 149 -101z" />
    <glyph glyph-name="T" unicode="T" horiz-adv-x="588" 
d="M294 -12c-49 0 -86 37 -86 87v430h-129c-45 0 -79 33 -79 78c0 44 34 77 79 77h430c46 0 79 -33 79 -77c0 -45 -34 -78 -79 -78h-129v-430c0 -50 -37 -87 -86 -87z" />
    <glyph glyph-name="Tbar" unicode="&#x166;" horiz-adv-x="588" 
d="M294 -12c-49 0 -86 37 -86 87v131h-102c-41 0 -72 31 -72 72c0 42 31 72 72 72h102v155h-129c-45 0 -79 33 -79 78c0 44 34 77 79 77h430c46 0 79 -33 79 -77c0 -45 -34 -78 -79 -78h-129v-155h102c42 0 72 -30 72 -72c0 -41 -30 -72 -72 -72h-102v-131
c0 -50 -37 -87 -86 -87z" />
    <glyph glyph-name="Tcaron" unicode="&#x164;" horiz-adv-x="588" 
d="M154 822c-24 23 -42 37 -42 63c0 35 28 63 62 63c12 0 30 -2 50 -21l69 -61l69 61c21 18 38 21 50 21c34 0 62 -28 62 -63c0 -26 -18 -40 -42 -63l-76 -72c-20 -19 -40 -27 -63 -27s-43 9 -63 27zM509 660c46 0 79 -33 79 -77c0 -45 -34 -78 -79 -78h-129v-430
c0 -50 -37 -87 -86 -87s-86 37 -86 87v430h-129c-45 0 -79 33 -79 78c0 44 34 77 79 77h430z" />
    <glyph glyph-name="uni0162" unicode="&#x162;" horiz-adv-x="588" 
d="M509 660c46 0 79 -33 79 -77c0 -45 -34 -78 -79 -78h-129v-430c0 -7 -1 -14 -2 -21c27 -31 47 -72 47 -109c0 -85 -64 -137 -167 -137c-33 0 -55 3 -71 10c-25 10 -37 28 -37 52c0 33 26 60 60 60h23c32 0 51 9 51 30c0 11 -3 21 -7 30c-40 7 -69 41 -69 85v430h-129
c-45 0 -79 33 -79 78c0 44 34 77 79 77h430z" />
    <glyph glyph-name="U" unicode="U" horiz-adv-x="708" 
d="M354 -12c-172 0 -292 120 -292 292v305c0 50 37 87 86 87s86 -37 86 -87v-318c0 -73 47 -121 120 -121s120 48 120 121v318c0 50 36 87 86 87c49 0 86 -37 86 -87v-305c0 -172 -120 -292 -292 -292z" />
    <glyph glyph-name="Uacute" unicode="&#xda;" horiz-adv-x="708" 
d="M372 714c-65 0 -89 70 -67 112l44 84c20 38 56 45 77 45c69 0 107 -84 66 -136l-61 -75c-22 -28 -51 -30 -59 -30zM354 -12c-172 0 -292 120 -292 292v305c0 50 37 87 86 87s86 -37 86 -87v-318c0 -73 47 -121 120 -121s120 48 120 121v318c0 50 36 87 86 87
c49 0 86 -37 86 -87v-305c0 -172 -120 -292 -292 -292z" />
    <glyph glyph-name="Ubreve" unicode="&#x16c;" horiz-adv-x="708" 
d="M354 723c-91 0 -179 67 -179 141c0 37 27 65 64 65c25 0 43 -12 63 -43c16 -25 31 -35 52 -35s38 11 52 35c18 30 37 43 63 43c37 0 64 -28 64 -65c0 -73 -89 -141 -179 -141zM354 -12c-172 0 -292 120 -292 292v305c0 50 37 87 86 87s86 -37 86 -87v-318
c0 -73 47 -121 120 -121s120 48 120 121v318c0 50 36 87 86 87c49 0 86 -37 86 -87v-305c0 -172 -120 -292 -292 -292z" />
    <glyph glyph-name="Ucircumflex" unicode="&#xdb;" horiz-adv-x="708" 
d="M234 723c-34 0 -62 28 -62 63c0 26 18 40 42 63l76 72c20 18 40 27 63 27s43 -8 63 -27l76 -72c24 -23 42 -37 42 -63c0 -35 -28 -63 -62 -63c-12 0 -29 3 -50 21l-69 61l-69 -61c-20 -19 -38 -21 -50 -21zM560 672c49 0 86 -37 86 -87v-305c0 -172 -120 -292 -292 -292
s-292 120 -292 292v305c0 50 37 87 86 87s86 -37 86 -87v-318c0 -73 47 -121 120 -121s120 48 120 121v318c0 50 36 87 86 87z" />
    <glyph glyph-name="Udieresis" unicode="&#xdc;" horiz-adv-x="708" 
d="M216 724c-49 0 -97 44 -97 93c0 54 48 94 97 94c54 0 98 -40 98 -94c0 -49 -44 -93 -98 -93zM491 723c-49 0 -97 44 -97 93c0 54 48 94 97 94c54 0 98 -40 98 -94c0 -49 -44 -93 -98 -93zM354 -12c-172 0 -292 120 -292 292v305c0 50 37 87 86 87s86 -37 86 -87v-318
c0 -73 47 -121 120 -121s120 48 120 121v318c0 50 36 87 86 87c49 0 86 -37 86 -87v-305c0 -172 -120 -292 -292 -292z" />
    <glyph glyph-name="Ugrave" unicode="&#xd9;" horiz-adv-x="708" 
d="M336 714c-8 0 -37 2 -59 30l-61 75c-41 52 -3 136 66 136c21 0 57 -7 77 -45l44 -84c22 -42 -2 -112 -67 -112zM354 -12c-172 0 -292 120 -292 292v305c0 50 37 87 86 87s86 -37 86 -87v-318c0 -73 47 -121 120 -121s120 48 120 121v318c0 50 36 87 86 87
c49 0 86 -37 86 -87v-305c0 -172 -120 -292 -292 -292z" />
    <glyph glyph-name="Uhungarumlaut" unicode="&#x170;" horiz-adv-x="708" 
d="M247 714c-65 0 -89 70 -67 112l44 84c20 38 56 45 77 45c69 0 107 -84 66 -136l-61 -75c-22 -28 -51 -30 -59 -30zM484 714c-65 0 -89 70 -67 112l44 84c20 38 56 45 77 45c69 0 107 -84 66 -136l-61 -75c-22 -28 -51 -30 -59 -30zM354 -12c-172 0 -292 120 -292 292v305
c0 50 37 87 86 87s86 -37 86 -87v-318c0 -73 47 -121 120 -121s120 48 120 121v318c0 50 36 87 86 87c49 0 86 -37 86 -87v-305c0 -172 -120 -292 -292 -292z" />
    <glyph glyph-name="Umacron" unicode="&#x16a;" horiz-adv-x="708" 
d="M466 883c39 0 68 -29 68 -67s-29 -67 -68 -67h-224c-39 0 -68 29 -68 67s29 67 68 67h224zM354 -12c-172 0 -292 120 -292 292v305c0 50 37 87 86 87s86 -37 86 -87v-318c0 -73 47 -121 120 -121s120 48 120 121v318c0 50 36 87 86 87c49 0 86 -37 86 -87v-305
c0 -172 -120 -292 -292 -292z" />
    <glyph glyph-name="Uogonek" unicode="&#x172;" horiz-adv-x="708" 
d="M433 -192c-77 0 -129 41 -129 102c0 30 16 58 45 79h-14c-152 0 -273 128 -273 291v305c0 50 37 87 86 87s86 -37 86 -87v-318c0 -73 47 -121 120 -121s120 48 120 121v318c0 50 36 87 86 87c49 0 86 -37 86 -87v-305c0 -90 -36 -173 -100 -230l-31 -28
c-39 -35 -51 -53 -51 -69c0 -17 9 -25 26 -25h3c31 0 51 -22 51 -54c0 -29 -18 -50 -46 -58c-17 -5 -36 -8 -65 -8z" />
    <glyph glyph-name="Uring" unicode="&#x16e;" horiz-adv-x="708" 
d="M353 923c79 0 137 -56 137 -131c0 -76 -58 -132 -137 -132c-78 0 -136 56 -136 132c0 75 58 131 136 131zM354 827c-20 0 -35 -14 -35 -35s15 -36 35 -36s35 16 35 36s-15 35 -35 35zM354 -12c-172 0 -292 120 -292 292v305c0 50 37 87 86 87s86 -37 86 -87v-318
c0 -73 47 -121 120 -121s120 48 120 121v318c0 50 36 87 86 87c49 0 86 -37 86 -87v-305c0 -172 -120 -292 -292 -292z" />
    <glyph glyph-name="Utilde" unicode="&#x168;" horiz-adv-x="708" 
d="M198 701c-42 0 -67 27 -67 71c0 88 55 147 136 147c24 0 51 -7 77 -20l28 -14c22 -11 34 -15 45 -15c16 0 24 7 31 25c9 24 31 38 61 38c42 0 67 -27 67 -71c0 -88 -55 -147 -136 -147c-24 0 -51 7 -77 20l-28 14c-22 11 -34 15 -45 15c-16 0 -24 -7 -31 -25
c-9 -24 -31 -38 -61 -38zM354 -12c-172 0 -292 120 -292 292v305c0 50 37 87 86 87s86 -37 86 -87v-318c0 -73 47 -121 120 -121s120 48 120 121v318c0 50 36 87 86 87c49 0 86 -37 86 -87v-305c0 -172 -120 -292 -292 -292z" />
    <glyph glyph-name="V" unicode="V" horiz-adv-x="660" 
d="M543 672c49 0 85 -35 85 -82c0 -15 -3 -31 -9 -42l-207 -503c-16 -38 -43 -57 -82 -57s-66 19 -82 57l-207 503c-6 11 -9 27 -9 42c0 47 36 82 85 82c37 0 65 -21 81 -62l132 -329l132 329c16 41 44 62 81 62z" />
    <glyph glyph-name="W" unicode="W" horiz-adv-x="1016" 
d="M902 672c47 0 86 -38 86 -84c0 -13 -3 -24 -9 -39l-195 -503c-14 -38 -42 -58 -80 -58c-37 0 -65 20 -79 58l-117 317l-117 -317c-14 -38 -42 -58 -79 -58c-38 0 -66 20 -80 58l-195 503c-7 16 -9 27 -9 39c0 46 39 84 86 84c37 0 67 -20 79 -54l120 -329l110 318
c15 42 45 65 85 65s70 -23 85 -65l110 -318l119 326c13 36 43 57 80 57z" />
    <glyph glyph-name="Wacute" unicode="&#x1e82;" horiz-adv-x="1016" 
d="M526 714c-65 0 -89 70 -67 112l44 84c20 38 56 45 77 45c69 0 107 -84 66 -136l-61 -75c-22 -28 -51 -30 -59 -30zM902 672c47 0 86 -38 86 -84c0 -13 -3 -24 -9 -39l-195 -503c-14 -38 -42 -58 -80 -58c-37 0 -65 20 -79 58l-117 317l-117 -317c-14 -38 -42 -58 -79 -58
c-38 0 -66 20 -80 58l-195 503c-7 16 -9 27 -9 39c0 46 39 84 86 84c37 0 67 -20 79 -54l120 -329l110 318c15 42 45 65 85 65s70 -23 85 -65l110 -318l119 326c13 36 43 57 80 57z" />
    <glyph glyph-name="Wcircumflex" unicode="&#x174;" horiz-adv-x="1016" 
d="M388 723c-34 0 -62 28 -62 63c0 26 18 40 42 63l76 72c20 18 40 27 63 27s43 -8 63 -27l76 -72c24 -23 42 -37 42 -63c0 -35 -28 -63 -62 -63c-12 0 -29 3 -50 21l-69 61l-69 -61c-20 -19 -38 -21 -50 -21zM902 672c47 0 86 -38 86 -84c0 -13 -3 -24 -9 -39l-195 -503
c-14 -38 -42 -58 -80 -58c-37 0 -65 20 -79 58l-117 317l-117 -317c-14 -38 -42 -58 -79 -58c-38 0 -66 20 -80 58l-195 503c-7 16 -9 27 -9 39c0 46 39 84 86 84c37 0 67 -20 79 -54l120 -329l110 318c15 42 45 65 85 65s70 -23 85 -65l110 -318l119 326c13 36 43 57 80 57
z" />
    <glyph glyph-name="Wdieresis" unicode="&#x1e84;" horiz-adv-x="1016" 
d="M370 724c-49 0 -97 44 -97 93c0 54 48 94 97 94c54 0 98 -40 98 -94c0 -49 -44 -93 -98 -93zM645 723c-49 0 -97 44 -97 93c0 54 48 94 97 94c54 0 98 -40 98 -94c0 -49 -44 -93 -98 -93zM902 672c47 0 86 -38 86 -84c0 -13 -3 -24 -9 -39l-195 -503
c-14 -38 -42 -58 -80 -58c-37 0 -65 20 -79 58l-117 317l-117 -317c-14 -38 -42 -58 -79 -58c-38 0 -66 20 -80 58l-195 503c-7 16 -9 27 -9 39c0 46 39 84 86 84c37 0 67 -20 79 -54l120 -329l110 318c15 42 45 65 85 65s70 -23 85 -65l110 -318l119 326c13 36 43 57 80 57
z" />
    <glyph glyph-name="Wgrave" unicode="&#x1e80;" horiz-adv-x="1016" 
d="M431 744l-61 75c-41 52 -3 136 66 136c21 0 57 -7 77 -45l44 -84c22 -42 -2 -112 -67 -112c-8 0 -37 2 -59 30zM902 672c47 0 86 -38 86 -84c0 -13 -3 -24 -9 -39l-195 -503c-14 -38 -42 -58 -80 -58c-37 0 -65 20 -79 58l-117 317l-117 -317c-14 -38 -42 -58 -79 -58
c-38 0 -66 20 -80 58l-195 503c-7 16 -9 27 -9 39c0 46 39 84 86 84c37 0 67 -20 79 -54l120 -329l110 318c15 42 45 65 85 65s70 -23 85 -65l110 -318l119 326c13 36 43 57 80 57z" />
    <glyph glyph-name="X" unicode="X" horiz-adv-x="622" 
d="M563 129c16 -23 23 -41 23 -60c0 -43 -40 -81 -86 -81c-27 0 -53 13 -70 37l-119 167l-119 -167c-17 -24 -42 -37 -71 -37c-46 0 -85 38 -85 83c0 20 8 40 25 63l143 200l-130 191c-17 24 -25 47 -25 68c0 43 38 79 84 79c31 0 54 -12 73 -39l105 -155l111 154
c18 26 44 40 73 40c46 0 84 -36 84 -80c0 -23 -8 -46 -27 -71l-134 -187z" />
    <glyph glyph-name="Y" unicode="Y" horiz-adv-x="630" 
d="M591 591c0 -19 -5 -36 -17 -55l-173 -286v-175c0 -50 -37 -87 -86 -87s-86 37 -86 87v175l-173 286c-12 19 -17 36 -17 55c0 46 36 81 83 81c36 0 62 -16 80 -50l113 -204l113 204c18 33 44 50 80 50c47 0 83 -35 83 -81z" />
    <glyph glyph-name="Yacute" unicode="&#xdd;" horiz-adv-x="630" 
d="M333 714c-65 0 -89 70 -67 112l44 84c20 38 56 45 77 45c69 0 107 -84 66 -136l-61 -75c-22 -28 -51 -30 -59 -30zM591 591c0 -19 -5 -36 -17 -55l-173 -286v-175c0 -50 -37 -87 -86 -87s-86 37 -86 87v175l-173 286c-12 19 -17 36 -17 55c0 46 36 81 83 81
c36 0 62 -16 80 -50l113 -204l113 204c18 33 44 50 80 50c47 0 83 -35 83 -81z" />
    <glyph glyph-name="Ycircumflex" unicode="&#x176;" horiz-adv-x="630" 
d="M195 723c-34 0 -62 28 -62 63c0 26 18 40 42 63l76 72c20 18 40 27 63 27s43 -8 63 -27l76 -72c24 -23 42 -37 42 -63c0 -35 -28 -63 -62 -63c-12 0 -29 3 -50 21l-69 61l-69 -61c-20 -19 -38 -21 -50 -21zM591 591c0 -19 -5 -36 -17 -55l-173 -286v-175
c0 -50 -37 -87 -86 -87s-86 37 -86 87v175l-173 286c-12 19 -17 36 -17 55c0 46 36 81 83 81c36 0 62 -16 80 -50l113 -204l113 204c18 33 44 50 80 50c47 0 83 -35 83 -81z" />
    <glyph glyph-name="Ydieresis" unicode="&#x178;" horiz-adv-x="630" 
d="M177 724c-49 0 -97 44 -97 93c0 54 48 94 97 94c54 0 98 -40 98 -94c0 -49 -44 -93 -98 -93zM452 723c-49 0 -97 44 -97 93c0 54 48 94 97 94c54 0 98 -40 98 -94c0 -49 -44 -93 -98 -93zM591 591c0 -19 -5 -36 -17 -55l-173 -286v-175c0 -50 -37 -87 -86 -87
s-86 37 -86 87v175l-173 286c-12 19 -17 36 -17 55c0 46 36 81 83 81c36 0 62 -16 80 -50l113 -204l113 204c18 33 44 50 80 50c47 0 83 -35 83 -81z" />
    <glyph glyph-name="Ygrave" unicode="&#x1ef2;" horiz-adv-x="630" 
d="M238 744l-61 75c-41 52 -3 136 66 136c21 0 57 -7 77 -45l44 -84c22 -42 -2 -112 -67 -112c-8 0 -37 2 -59 30zM591 591c0 -19 -5 -36 -17 -55l-173 -286v-175c0 -50 -37 -87 -86 -87s-86 37 -86 87v175l-173 286c-12 19 -17 36 -17 55c0 46 36 81 83 81
c36 0 62 -16 80 -50l113 -204l113 204c18 33 44 50 80 50c47 0 83 -35 83 -81z" />
    <glyph glyph-name="Z" unicode="Z" horiz-adv-x="587" 
d="M495 155c46 0 79 -33 79 -77c0 -45 -34 -78 -79 -78h-403c-45 0 -80 35 -80 78c0 19 7 34 21 52l292 375h-201c-45 0 -79 33 -79 78c0 44 34 77 79 77h360c44 0 79 -35 79 -77c0 -18 -6 -34 -21 -54l-289 -374h242z" />
    <glyph glyph-name="Zacute" unicode="&#x179;" horiz-adv-x="587" 
d="M317 714c-65 0 -89 70 -67 112l44 84c20 38 56 45 77 45c69 0 107 -84 66 -136l-61 -75c-22 -28 -51 -30 -59 -30zM495 155c46 0 79 -33 79 -77c0 -45 -34 -78 -79 -78h-403c-45 0 -80 35 -80 78c0 19 7 34 21 52l292 375h-201c-45 0 -79 33 -79 78c0 44 34 77 79 77h360
c44 0 79 -35 79 -77c0 -18 -6 -34 -21 -54l-289 -374h242z" />
    <glyph glyph-name="Zcaron" unicode="&#x17d;" horiz-adv-x="587" 
d="M159 822c-24 23 -42 37 -42 63c0 35 28 63 62 63c12 0 30 -2 50 -21l69 -61l69 61c21 18 38 21 50 21c34 0 62 -28 62 -63c0 -26 -18 -40 -42 -63l-76 -72c-20 -19 -40 -27 -63 -27s-43 9 -63 27zM495 155c46 0 79 -33 79 -77c0 -45 -34 -78 -79 -78h-403
c-45 0 -80 35 -80 78c0 19 7 34 21 52l292 375h-201c-45 0 -79 33 -79 78c0 44 34 77 79 77h360c44 0 79 -35 79 -77c0 -18 -6 -34 -21 -54l-289 -374h242z" />
    <glyph glyph-name="Zdotaccent" unicode="&#x17b;" horiz-adv-x="587" 
d="M298 720c-56 0 -102 43 -102 98c0 56 46 99 102 99s103 -43 103 -99c0 -55 -47 -98 -103 -98zM495 155c46 0 79 -33 79 -77c0 -45 -34 -78 -79 -78h-403c-45 0 -80 35 -80 78c0 19 7 34 21 52l292 375h-201c-45 0 -79 33 -79 78c0 44 34 77 79 77h360c44 0 79 -35 79 -77
c0 -18 -6 -34 -21 -54l-289 -374h242z" />
    <glyph glyph-name="uni021A" unicode="&#x21a;" horiz-adv-x="588" 
d="M294 -12c-49 0 -86 37 -86 87v430h-129c-45 0 -79 33 -79 78c0 44 34 77 79 77h430c46 0 79 -33 79 -77c0 -45 -34 -78 -79 -78h-129v-430c0 -50 -37 -87 -86 -87zM268 -276c-38 0 -75 32 -75 72c0 32 12 48 12 83c0 47 39 86 86 86s86 -39 86 -86
c0 -40 -16 -93 -49 -127c-18 -19 -38 -28 -60 -28z" />
    <glyph glyph-name="Iacute_J.loclNLD" horiz-adv-x="700" 
d="M169 714c-65 0 -89 70 -67 112l44 84c20 38 56 45 77 45c69 0 107 -84 66 -136l-61 -75c-22 -28 -51 -30 -59 -30zM543 714c-65 0 -89 70 -67 112l44 84c20 38 56 45 77 45c69 0 107 -84 66 -136l-61 -75c-22 -28 -51 -30 -59 -30zM151 -12c-50 0 -86 37 -86 87v510
c0 50 36 87 86 87s86 -37 86 -87v-510c0 -50 -36 -87 -86 -87zM405 -12c-25 0 -45 3 -60 10c-28 13 -46 41 -46 70c0 41 34 74 78 74c13 0 26 -1 37 -1c29 0 49 19 49 46v398c0 50 36 87 86 87s86 -37 86 -87v-394c0 -135 -77 -203 -230 -203z" />
    <glyph glyph-name="Cacute.loclPLK" horiz-adv-x="723" 
d="M401 726c-43 0 -82 44 -71 90l19 79c14 59 59 72 85 72c60 0 108 -65 76 -124l-41 -76c-12 -22 -32 -41 -68 -41zM388 -12c-201 0 -356 149 -356 342s156 342 357 342c101 0 196 -41 254 -110c16 -18 25 -39 25 -61c0 -43 -35 -78 -79 -78c-24 0 -46 11 -66 32
c-37 40 -81 59 -135 59c-106 0 -180 -76 -180 -185s73 -183 180 -183c52 0 95 19 134 59c20 21 42 32 66 32c44 0 79 -35 79 -78c0 -19 -8 -39 -25 -61c-58 -69 -153 -110 -254 -110z" />
    <glyph glyph-name="Nacute.loclPLK" horiz-adv-x="715" 
d="M371 714c-43 0 -82 44 -71 90l19 79c14 59 59 72 85 72c60 0 108 -65 76 -124l-41 -76c-12 -22 -32 -41 -68 -41zM564 672c49 0 86 -37 86 -87v-510c0 -49 -36 -87 -84 -87c-47 0 -66 27 -89 55l-240 297v-265c0 -50 -37 -87 -86 -87s-86 37 -86 87v510c0 49 36 87 84 87
c47 0 66 -27 89 -55l240 -296v264c0 50 37 87 86 87z" />
    <glyph glyph-name="Oacute.loclPLK" horiz-adv-x="776" 
d="M401 714c-43 0 -82 44 -71 90l19 79c14 59 59 72 85 72c60 0 108 -65 76 -124l-41 -76c-12 -22 -32 -41 -68 -41zM387 672c200 0 357 -151 357 -342c0 -192 -157 -342 -357 -342s-355 150 -355 342s156 342 355 342zM388 514c-107 0 -180 -75 -180 -184
c0 -110 72 -184 180 -184c106 0 180 76 180 184c0 107 -75 184 -180 184z" />
    <glyph glyph-name="Sacute.loclPLK" 
d="M293 714c-43 0 -82 44 -71 90l19 79c14 59 59 72 85 72c60 0 108 -65 76 -124l-41 -76c-12 -22 -32 -41 -68 -41zM286 -12c-73 0 -160 29 -207 73c-22 21 -35 44 -35 70c1 46 38 76 77 76c13 0 27 -4 39 -12c15 -10 57 -56 126 -56c46 0 68 16 68 48c0 31 -21 41 -67 61
l-68 30c-105 46 -167 106 -167 199c0 118 100 195 231 195c116 1 172 -57 188 -76c15 -17 20 -35 20 -51c0 -44 -39 -77 -77 -77c-14 0 -29 4 -44 15c-22 15 -41 38 -85 38c-34 0 -59 -12 -59 -42c0 -25 16 -37 57 -54l76 -32c110 -46 169 -102 169 -199
c0 -130 -106 -206 -242 -206z" />
    <glyph glyph-name="Zacute.loclPLK" horiz-adv-x="587" 
d="M312 714c-43 0 -82 44 -71 90l19 79c14 59 59 72 85 72c60 0 108 -65 76 -124l-41 -76c-12 -22 -32 -41 -68 -41zM495 155c46 0 79 -33 79 -77c0 -45 -34 -78 -79 -78h-403c-45 0 -80 35 -80 78c0 19 7 34 21 52l292 375h-201c-45 0 -79 33 -79 78c0 44 34 77 79 77h360
c44 0 79 -35 79 -77c0 -18 -6 -34 -21 -54l-289 -374h242z" />
    <glyph glyph-name="Idotaccent.loclTRK" horiz-adv-x="302" 
d="M150 917c56 0 103 -43 103 -99c0 -55 -47 -98 -103 -98s-102 43 -102 98c0 56 46 99 102 99zM151 -12c-50 0 -86 37 -86 87v510c0 50 36 87 86 87s86 -37 86 -87v-510c0 -50 -36 -87 -86 -87z" />
    <glyph glyph-name="A.ordn" horiz-adv-x="426" 
d="M412 330c5 -12 7 -20 7 -29c0 -36 -29 -65 -65 -65c-29 0 -50 15 -60 41l-9 26h-144l-9 -26c-10 -26 -31 -41 -60 -41c-36 0 -65 29 -65 65c0 9 2 17 7 29l139 298c12 26 33 41 60 41s48 -15 60 -41zM252 394l-39 108l-39 -108h78z" />
    <glyph glyph-name="C.ordn" horiz-adv-x="472" 
d="M251 236c-128 0 -227 94 -227 216s100 216 228 216c72 0 137 -31 172 -82c11 -15 15 -26 15 -39c0 -33 -27 -60 -59 -60c-26 0 -41 22 -63 40c-20 16 -41 24 -66 24c-59 0 -97 -40 -97 -100s38 -98 97 -98c25 0 46 8 66 24c22 18 37 40 63 40c32 0 59 -27 59 -60
c0 -13 -4 -24 -15 -39c-36 -52 -100 -82 -173 -82z" />
    <glyph glyph-name="D.ordn" horiz-adv-x="452" 
d="M201 660c133 0 227 -85 227 -207c0 -121 -96 -209 -227 -209h-85c-39 0 -67 28 -67 67v282c0 39 28 67 67 67h85zM200 545h-24v-187h24c59 0 98 38 98 95c0 58 -36 92 -98 92z" />
    <glyph glyph-name="E.ordn" horiz-adv-x="382" 
d="M296 660c33 0 58 -24 58 -57s-25 -58 -58 -58h-120v-39h83c29 0 50 -21 50 -49s-21 -49 -50 -49h-83v-50h128c33 0 58 -24 58 -57s-25 -57 -58 -57h-189c-38 0 -66 28 -66 66v284c0 38 28 66 66 66h181z" />
    <glyph glyph-name="Egrave.ordn" horiz-adv-x="382" 
d="M190 692c-5 0 -25 1 -40 20l-42 51c-8 10 -12 21 -12 33c0 30 24 60 57 60c15 0 39 -5 53 -31l30 -57c4 -7 6 -15 6 -23c0 -26 -19 -53 -52 -53zM296 660c33 0 58 -24 58 -57s-25 -58 -58 -58h-120v-39h83c29 0 50 -21 50 -49s-21 -49 -50 -49h-83v-50h128
c33 0 58 -24 58 -57s-25 -57 -58 -57h-189c-38 0 -66 28 -66 66v284c0 38 28 66 66 66h181z" />
    <glyph glyph-name="G.ordn" horiz-adv-x="486" 
d="M253 236c-130 0 -229 94 -229 216s99 216 229 216c57 0 104 -17 146 -53c15 -13 23 -30 23 -47c0 -32 -27 -60 -60 -60c-19 0 -31 10 -45 21c-23 16 -41 22 -66 22c-61 0 -97 -37 -97 -99c0 -64 39 -103 105 -103c31 0 59 10 76 27v7h-42c-29 0 -51 22 -51 51
s22 50 51 50h105c37 0 64 -27 64 -64v-23c0 -33 -7 -55 -26 -79c-36 -48 -112 -82 -183 -82z" />
    <glyph glyph-name="H.ordn" horiz-adv-x="478" 
d="M366 668c36 0 63 -26 63 -65v-303c0 -39 -27 -64 -63 -64c-37 0 -64 25 -64 64v100h-126v-100c0 -39 -27 -64 -63 -64c-37 0 -64 25 -64 64v303c0 39 28 65 64 65s63 -26 63 -65v-89h126v89c0 39 27 65 64 65z" />
    <glyph glyph-name="I.ordn" horiz-adv-x="225" 
d="M113 668c36 0 63 -26 63 -65v-302c0 -39 -27 -65 -63 -65c-37 0 -64 26 -64 65v302c0 39 27 65 64 65z" />
    <glyph glyph-name="L.ordn" horiz-adv-x="355" 
d="M113 668c36 0 63 -26 63 -65v-245h114c33 0 57 -24 57 -57s-24 -57 -57 -57h-174c-39 0 -67 28 -67 67v292c0 39 27 65 64 65z" />
    <glyph glyph-name="M.ordn" horiz-adv-x="534" 
d="M422 668c36 0 63 -27 63 -63v-307c0 -36 -26 -62 -63 -62s-64 27 -64 62v113l-46 -62c-11 -15 -27 -23 -45 -23s-34 8 -45 23l-46 62v-113c0 -35 -27 -62 -64 -62s-63 26 -63 62v307c0 36 28 63 63 63c23 0 41 -10 57 -33l98 -140l98 140c16 23 35 33 57 33z" />
    <glyph glyph-name="N.ordn" horiz-adv-x="478" 
d="M365 668c37 0 64 -25 64 -61v-308c0 -37 -29 -63 -63 -63c-23 0 -40 15 -60 38l-130 156v-131c0 -37 -27 -63 -63 -63c-37 0 -64 26 -64 63v306c0 36 29 63 63 63c23 0 41 -16 60 -38l130 -150v127c0 36 27 61 63 61z" />
    <glyph glyph-name="O.ordn" horiz-adv-x="502" 
d="M250 668c127 0 228 -95 228 -216s-100 -216 -228 -216c-127 0 -226 95 -226 216s100 216 226 216zM251 551c-58 0 -97 -40 -97 -99c0 -60 38 -99 97 -99c58 0 98 41 98 99c0 57 -41 99 -98 99z" />
    <glyph glyph-name="R.ordn" horiz-adv-x="431" 
d="M389 342c11 -13 16 -27 16 -42c0 -36 -30 -65 -66 -65c-16 0 -31 7 -41 19l-87 105h-35v-58c0 -39 -26 -65 -63 -65s-64 27 -64 65v292c0 39 28 67 67 67h101c101 0 170 -61 170 -150c0 -44 -18 -82 -48 -109zM176 549v-79h42c24 0 40 16 40 40c0 23 -16 39 -40 39h-42z
" />
    <glyph glyph-name="S.ordn" horiz-adv-x="354" 
d="M179 236c-60 0 -113 22 -147 61c-10 11 -15 25 -15 40c0 32 25 57 58 57c14 0 28 -5 40 -15c20 -17 43 -26 64 -26c18 0 29 6 29 17c0 10 -9 16 -33 23l-43 15c-70 25 -108 70 -108 130c0 77 62 130 152 130c55 0 100 -20 128 -57c9 -11 13 -23 13 -36
c0 -32 -26 -58 -57 -58c-14 0 -25 5 -45 20c-13 10 -24 14 -39 14c-14 0 -22 -5 -22 -14c0 -8 8 -14 26 -20l49 -16c74 -25 109 -66 109 -128c0 -82 -63 -137 -159 -137z" />
    <glyph glyph-name="T.ordn" horiz-adv-x="377" 
d="M323 660c33 0 58 -24 58 -57s-25 -58 -58 -58h-71v-244c0 -38 -26 -65 -63 -65c-38 0 -64 27 -64 65v244h-71c-33 0 -58 25 -58 58s25 57 58 57h269z" />
    <glyph glyph-name="U.ordn" horiz-adv-x="472" 
d="M363 668c37 0 63 -27 63 -65v-179c0 -108 -80 -188 -190 -188s-190 79 -190 188v179c0 38 27 65 64 65s63 -27 63 -65v-189c0 -36 26 -61 63 -61s63 25 63 61v189c0 38 26 65 64 65z" />
    <glyph glyph-name="Uacute.ordn" horiz-adv-x="472" 
d="M243 692c-36 0 -53 26 -53 51c0 9 3 17 7 25l30 57c14 26 38 31 53 31c33 0 57 -30 57 -60c0 -12 -4 -23 -12 -33l-42 -51c-15 -19 -35 -20 -40 -20zM236 236c-109 0 -190 78 -190 188v181c0 36 28 63 64 63s63 -27 63 -63v-191c0 -35 25 -61 63 -61s63 26 63 61v191
c0 36 27 63 64 63c36 0 63 -27 63 -63v-181c0 -110 -82 -188 -190 -188z" />
    <glyph glyph-name="Y.ordn" horiz-adv-x="413" 
d="M391 608c0 -13 -4 -24 -14 -40l-107 -175v-93c0 -36 -27 -64 -63 -64s-63 28 -63 64v90l-109 178c-9 16 -13 27 -13 40c0 32 28 60 62 60c24 0 42 -11 56 -35l67 -116l66 116c14 24 32 35 56 35c34 0 62 -28 62 -60z" />
    <glyph glyph-name="Z.ordn" horiz-adv-x="380" 
d="M315 358c33 0 58 -24 58 -57s-25 -57 -58 -57h-248c-33 0 -58 24 -58 57c0 15 5 27 16 41l166 203h-108c-33 0 -58 25 -58 58s25 57 58 57h221c33 0 58 -24 58 -57c0 -12 -4 -24 -16 -42l-150 -203h119z" />
    <glyph glyph-name="a" unicode="a" horiz-adv-x="555" 
d="M273 512c148 0 230 -80 230 -222v-216c0 -49 -35 -85 -83 -85c-35 0 -64 19 -77 49c-35 -32 -84 -50 -140 -50c-103 0 -173 62 -173 154c0 94 73 150 196 150h105v8c0 41 -28 64 -77 64c-28 0 -53 -8 -79 -25c-20 -13 -31 -17 -46 -17c-41 0 -72 31 -72 70
c0 25 13 48 37 67c42 34 106 53 179 53zM255 110c45 0 76 29 76 73v4h-81c-29 0 -46 -14 -46 -38c0 -25 19 -39 51 -39z" />
    <glyph glyph-name="aacute" unicode="&#xe1;" horiz-adv-x="555" 
d="M297 560c-50 4 -76 43 -73 82c1 14 6 27 11 38l37 86c13 31 49 49 78 49c52 0 86 -42 86 -87c0 -16 -5 -33 -15 -48l-56 -83c-17 -25 -44 -39 -68 -37zM273 512c148 0 230 -80 230 -222v-216c0 -49 -35 -85 -83 -85c-35 0 -64 19 -77 49c-35 -32 -84 -50 -140 -50
c-103 0 -173 62 -173 154c0 94 73 150 196 150h105v8c0 41 -28 64 -77 64c-28 0 -53 -8 -79 -25c-20 -13 -31 -17 -46 -17c-41 0 -72 31 -72 70c0 25 13 48 37 67c42 34 106 53 179 53zM255 110c45 0 76 29 76 73v4h-81c-29 0 -46 -14 -46 -38c0 -25 19 -39 51 -39z" />
    <glyph glyph-name="abreve" unicode="&#x103;" horiz-adv-x="555" 
d="M279 568c-99 0 -182 67 -182 146c0 38 28 67 64 67c33 0 53 -14 65 -46c10 -28 27 -42 53 -42s43 14 53 42c12 32 32 46 63 46c37 0 66 -30 66 -67c0 -79 -83 -146 -182 -146zM273 512c148 0 230 -80 230 -222v-216c0 -49 -35 -85 -83 -85c-35 0 -64 19 -77 49
c-35 -32 -84 -50 -140 -50c-103 0 -173 62 -173 154c0 94 73 150 196 150h105v8c0 41 -28 64 -77 64c-28 0 -53 -8 -79 -25c-20 -13 -31 -17 -46 -17c-41 0 -72 31 -72 70c0 25 13 48 37 67c42 34 106 53 179 53zM255 110c45 0 76 29 76 73v4h-81c-29 0 -46 -14 -46 -38
c0 -25 19 -39 51 -39z" />
    <glyph glyph-name="acircumflex" unicode="&#xe2;" horiz-adv-x="555" 
d="M165 567c-30 0 -61 22 -61 60c0 21 9 34 23 49l88 96c21 23 43 29 64 29s43 -6 64 -29l88 -96c14 -15 23 -28 23 -49c0 -38 -31 -60 -61 -60c-15 0 -28 5 -39 15l-75 69l-75 -69c-11 -10 -24 -15 -39 -15zM273 512c148 0 230 -80 230 -222v-216c0 -49 -35 -85 -83 -85
c-35 0 -64 19 -77 49c-35 -32 -84 -50 -140 -50c-103 0 -173 62 -173 154c0 94 73 150 196 150h105v8c0 41 -28 64 -77 64c-28 0 -53 -8 -79 -25c-20 -13 -31 -17 -46 -17c-41 0 -72 31 -72 70c0 25 13 48 37 67c42 34 106 53 179 53zM255 110c45 0 76 29 76 73v4h-81
c-29 0 -46 -14 -46 -38c0 -25 19 -39 51 -39z" />
    <glyph glyph-name="adieresis" unicode="&#xe4;" horiz-adv-x="555" 
d="M151 584c-51 0 -97 44 -97 93c0 52 44 94 97 94c56 0 98 -40 98 -94c0 -51 -44 -93 -98 -93zM406 584c-51 0 -97 44 -97 93c0 52 44 94 97 94c56 0 98 -40 98 -94c0 -51 -44 -93 -98 -93zM273 512c148 0 230 -80 230 -222v-216c0 -49 -35 -85 -83 -85
c-35 0 -64 19 -77 49c-35 -32 -84 -50 -140 -50c-103 0 -173 62 -173 154c0 94 73 150 196 150h105v8c0 41 -28 64 -77 64c-28 0 -53 -8 -79 -25c-20 -13 -31 -17 -46 -17c-41 0 -72 31 -72 70c0 25 13 48 37 67c42 34 106 53 179 53zM255 110c45 0 76 29 76 73v4h-81
c-29 0 -46 -14 -46 -38c0 -25 19 -39 51 -39z" />
    <glyph glyph-name="agrave" unicode="&#xe0;" horiz-adv-x="555" 
d="M193 597l-56 83c-10 15 -15 32 -15 48c0 45 34 87 86 87c29 0 65 -18 78 -49l37 -86c5 -11 10 -24 11 -38c3 -39 -23 -78 -73 -82c-24 -2 -51 12 -68 37zM273 512c148 0 230 -80 230 -222v-216c0 -49 -35 -85 -83 -85c-35 0 -64 19 -77 49c-35 -32 -84 -50 -140 -50
c-103 0 -173 62 -173 154c0 94 73 150 196 150h105v8c0 41 -28 64 -77 64c-28 0 -53 -8 -79 -25c-20 -13 -31 -17 -46 -17c-41 0 -72 31 -72 70c0 25 13 48 37 67c42 34 106 53 179 53zM255 110c45 0 76 29 76 73v4h-81c-29 0 -46 -14 -46 -38c0 -25 19 -39 51 -39z" />
    <glyph glyph-name="amacron" unicode="&#x101;" horiz-adv-x="555" 
d="M179 610c-40 0 -70 29 -70 67s30 67 70 67h200c40 0 70 -29 70 -67s-30 -67 -70 -67h-200zM273 512c148 0 230 -80 230 -222v-216c0 -49 -35 -85 -83 -85c-35 0 -64 19 -77 49c-35 -32 -84 -50 -140 -50c-103 0 -173 62 -173 154c0 94 73 150 196 150h105v8
c0 41 -28 64 -77 64c-28 0 -53 -8 -79 -25c-20 -13 -31 -17 -46 -17c-41 0 -72 31 -72 70c0 25 13 48 37 67c42 34 106 53 179 53zM255 110c45 0 76 29 76 73v4h-81c-29 0 -46 -14 -46 -38c0 -25 19 -39 51 -39z" />
    <glyph glyph-name="aogonek" unicode="&#x105;" horiz-adv-x="555" 
d="M467 -72c31 0 51 -22 51 -54c0 -28 -17 -51 -48 -59c-18 -5 -38 -7 -63 -7c-78 0 -129 42 -129 108c0 43 19 77 66 120c0 1 -1 2 -1 2c-35 -32 -84 -50 -140 -50c-103 0 -173 62 -173 154c0 94 73 150 196 150h105v8c0 41 -28 64 -77 64c-28 0 -53 -8 -79 -25
c-20 -13 -31 -17 -46 -17c-41 0 -72 31 -72 70c0 25 13 48 37 67c42 34 106 53 179 53c148 0 230 -80 230 -222v-216c0 -4 0 -8 -1 -11c1 -2 1 -5 1 -7c0 -15 -6 -30 -17 -42c-28 -28 -47 -50 -47 -67c0 -12 9 -19 25 -19h3zM255 110c45 0 76 29 76 73v4h-81
c-29 0 -46 -14 -46 -38c0 -25 19 -39 51 -39z" />
    <glyph glyph-name="aring" unicode="&#xe5;" horiz-adv-x="555" 
d="M278 541c-78 0 -136 56 -136 132c0 75 58 131 136 131c79 0 137 -56 137 -131c0 -76 -58 -132 -137 -132zM279 708c-20 0 -35 -14 -35 -35s15 -36 35 -36s35 16 35 36s-15 35 -35 35zM273 512c148 0 230 -80 230 -222v-216c0 -49 -35 -85 -83 -85c-35 0 -64 19 -77 49
c-35 -32 -84 -50 -140 -50c-103 0 -173 62 -173 154c0 94 73 150 196 150h105v8c0 41 -28 64 -77 64c-28 0 -53 -8 -79 -25c-20 -13 -31 -17 -46 -17c-41 0 -72 31 -72 70c0 25 13 48 37 67c42 34 106 53 179 53zM255 110c45 0 76 29 76 73v4h-81c-29 0 -46 -14 -46 -38
c0 -25 19 -39 51 -39z" />
    <glyph glyph-name="atilde" unicode="&#xe3;" horiz-adv-x="555" 
d="M129 558c-42 0 -67 27 -67 71c0 90 57 147 136 147c25 0 52 -10 73 -21l29 -15c15 -7 26 -16 42 -16c14 0 19 7 27 25c10 24 31 37 61 37c42 0 67 -27 67 -71c0 -88 -54 -147 -130 -147c-27 0 -55 8 -79 21l-29 16c-14 8 -24 16 -38 16c-16 0 -24 -7 -31 -25
c-10 -24 -31 -38 -61 -38zM273 512c148 0 230 -80 230 -222v-216c0 -49 -35 -85 -83 -85c-35 0 -64 19 -77 49c-35 -32 -84 -50 -140 -50c-103 0 -173 62 -173 154c0 94 73 150 196 150h105v8c0 41 -28 64 -77 64c-28 0 -53 -8 -79 -25c-20 -13 -31 -17 -46 -17
c-41 0 -72 31 -72 70c0 25 13 48 37 67c42 34 106 53 179 53zM255 110c45 0 76 29 76 73v4h-81c-29 0 -46 -14 -46 -38c0 -25 19 -39 51 -39z" />
    <glyph glyph-name="ae" unicode="&#xe6;" horiz-adv-x="868" 
d="M598 512c138 0 239 -100 239 -237v-3c0 -48 -37 -83 -90 -83h-240c19 -37 56 -56 111 -56c32 0 65 6 87 17c14 6 22 8 31 8c38 0 68 -29 68 -67c0 -28 -13 -49 -43 -66c-43 -24 -95 -37 -149 -37c-86 0 -157 33 -203 88c-41 -58 -106 -88 -191 -88
c-116 0 -188 59 -188 154s74 152 196 152h105v6c0 41 -27 64 -77 64c-28 0 -53 -8 -79 -25c-20 -13 -31 -17 -46 -17c-41 0 -72 31 -72 70c0 25 13 48 37 67c42 34 106 53 179 53c69 0 126 -19 166 -55c42 35 96 55 159 55zM592 377c-47 0 -82 -32 -94 -83h176
c-2 50 -35 83 -82 83zM254 110c46 0 77 29 77 73v6h-81c-29 0 -46 -15 -46 -39c0 -25 18 -40 50 -40z" />
    <glyph glyph-name="aeacute" unicode="&#x1fd;" horiz-adv-x="868" 
d="M454 560c-50 4 -76 43 -73 82c1 14 6 27 11 38l37 86c13 31 49 49 78 49c52 0 86 -42 86 -87c0 -16 -5 -33 -15 -48l-56 -83c-17 -25 -44 -39 -68 -37zM598 512c138 0 239 -100 239 -237v-3c0 -48 -37 -83 -90 -83h-240c19 -37 56 -56 111 -56c32 0 65 6 87 17
c14 6 22 8 31 8c38 0 68 -29 68 -67c0 -28 -13 -49 -43 -66c-43 -24 -95 -37 -149 -37c-86 0 -157 33 -203 88c-41 -58 -106 -88 -191 -88c-116 0 -188 59 -188 154s74 152 196 152h105v6c0 41 -27 64 -77 64c-28 0 -53 -8 -79 -25c-20 -13 -31 -17 -46 -17
c-41 0 -72 31 -72 70c0 25 13 48 37 67c42 34 106 53 179 53c69 0 126 -19 166 -55c42 35 96 55 159 55zM592 377c-47 0 -82 -32 -94 -83h176c-2 50 -35 83 -82 83zM254 110c46 0 77 29 77 73v6h-81c-29 0 -46 -15 -46 -39c0 -25 18 -40 50 -40z" />
    <glyph glyph-name="b" unicode="b" horiz-adv-x="627" 
d="M356 512c140 0 240 -110 240 -263s-100 -261 -240 -261c-60 0 -106 20 -138 57c-11 -34 -40 -57 -78 -57c-48 0 -84 37 -84 87v600c0 50 37 87 86 87s86 -37 86 -87v-209c31 30 74 46 128 46zM322 144c58 0 98 43 98 106c0 62 -41 106 -98 106s-97 -44 -97 -107
c0 -62 39 -105 97 -105z" />
    <glyph glyph-name="c" unicode="c" horiz-adv-x="553" 
d="M304 -12c-154 0 -273 115 -273 262s119 262 273 262c81 0 163 -39 200 -96c11 -17 16 -31 16 -46c0 -42 -34 -76 -76 -76c-26 0 -45 8 -59 25c-19 23 -47 35 -79 35c-60 0 -99 -41 -99 -104s39 -104 99 -104c30 0 57 12 79 35c18 18 35 25 59 25c42 0 76 -34 76 -76
c0 -16 -4 -29 -13 -43c-43 -64 -115 -99 -203 -99z" />
    <glyph glyph-name="cacute" unicode="&#x107;" horiz-adv-x="553" 
d="M322 560c-50 4 -76 43 -73 82c1 14 6 27 11 38l37 86c13 31 49 49 78 49c52 0 86 -42 86 -87c0 -16 -5 -33 -15 -48l-56 -83c-17 -25 -44 -39 -68 -37zM304 -12c-154 0 -273 115 -273 262s119 262 273 262c81 0 163 -39 200 -96c11 -17 16 -31 16 -46
c0 -42 -34 -76 -76 -76c-26 0 -45 8 -59 25c-19 23 -47 35 -79 35c-60 0 -99 -41 -99 -104s39 -104 99 -104c30 0 57 12 79 35c18 18 35 25 59 25c42 0 76 -34 76 -76c0 -16 -4 -29 -13 -43c-43 -64 -115 -99 -203 -99z" />
    <glyph glyph-name="ccaron" unicode="&#x10d;" horiz-adv-x="553" 
d="M240 597l-88 96c-14 15 -23 28 -23 49c0 38 31 60 61 60c15 0 28 -5 39 -15l75 -69l75 69c11 10 24 15 39 15c30 0 61 -22 61 -60c0 -21 -9 -34 -23 -49l-88 -96c-21 -23 -43 -29 -64 -29s-43 6 -64 29zM444 206c42 0 76 -34 76 -76c0 -16 -4 -29 -13 -43
c-43 -64 -115 -99 -203 -99c-154 0 -273 115 -273 262s119 262 273 262c81 0 163 -39 200 -96c11 -17 16 -31 16 -46c0 -42 -34 -76 -76 -76c-26 0 -45 8 -59 25c-19 23 -47 35 -79 35c-60 0 -99 -41 -99 -104s39 -104 99 -104c30 0 57 12 79 35c18 18 35 25 59 25z" />
    <glyph glyph-name="ccedilla" unicode="&#xe7;" horiz-adv-x="553" 
d="M444 206c42 0 76 -34 76 -76c0 -16 -4 -29 -13 -43c-23 -34 -54 -60 -91 -77c10 -21 17 -43 17 -65c0 -85 -64 -137 -167 -137c-33 0 -55 3 -71 10c-25 10 -37 28 -37 52c0 33 26 60 60 60h23c32 0 51 9 51 30c0 11 -3 20 -6 29c-145 8 -255 120 -255 261
c0 147 119 262 273 262c81 0 163 -39 200 -96c11 -17 16 -31 16 -46c0 -42 -34 -76 -76 -76c-26 0 -45 8 -59 25c-19 23 -47 35 -79 35c-60 0 -99 -41 -99 -104s39 -104 99 -104c30 0 57 12 79 35c18 18 35 25 59 25z" />
    <glyph glyph-name="ccircumflex" unicode="&#x109;" horiz-adv-x="553" 
d="M190 567c-30 0 -61 22 -61 60c0 21 9 34 23 49l88 96c21 23 43 29 64 29s43 -6 64 -29l88 -96c14 -15 23 -28 23 -49c0 -38 -31 -60 -61 -60c-15 0 -28 5 -39 15l-75 69l-75 -69c-11 -10 -24 -15 -39 -15zM444 206c42 0 76 -34 76 -76c0 -16 -4 -29 -13 -43
c-43 -64 -115 -99 -203 -99c-154 0 -273 115 -273 262s119 262 273 262c81 0 163 -39 200 -96c11 -17 16 -31 16 -46c0 -42 -34 -76 -76 -76c-26 0 -45 8 -59 25c-19 23 -47 35 -79 35c-60 0 -99 -41 -99 -104s39 -104 99 -104c30 0 57 12 79 35c18 18 35 25 59 25z" />
    <glyph glyph-name="cdotaccent" unicode="&#x10b;" horiz-adv-x="553" 
d="M303 776c56 0 103 -43 103 -99c0 -55 -47 -98 -103 -98s-102 43 -102 98c0 56 46 99 102 99zM304 -12c-154 0 -273 115 -273 262s119 262 273 262c81 0 163 -39 200 -96c11 -17 16 -31 16 -46c0 -42 -34 -76 -76 -76c-26 0 -45 8 -59 25c-19 23 -47 35 -79 35
c-60 0 -99 -41 -99 -104s39 -104 99 -104c30 0 57 12 79 35c18 18 35 25 59 25c42 0 76 -34 76 -76c0 -16 -4 -29 -13 -43c-43 -64 -115 -99 -203 -99z" />
    <glyph glyph-name="d" unicode="d" horiz-adv-x="627" 
d="M485 762c49 0 86 -37 86 -87v-601c0 -49 -35 -86 -83 -86c-38 0 -68 23 -79 57c-32 -37 -78 -57 -138 -57c-140 0 -240 108 -240 261s100 263 240 263c54 0 97 -16 128 -46v209c0 50 36 87 86 87zM305 144c58 0 97 43 97 105c0 63 -40 107 -97 107s-98 -44 -98 -106
c0 -63 40 -106 98 -106z" />
    <glyph glyph-name="eth" unicode="&#xf0;" horiz-adv-x="575" 
d="M420 496c90 -116 124 -190 124 -266c0 -140 -107 -242 -254 -242c-150 0 -259 99 -259 234c0 122 92 216 218 224l-39 54l-83 -42c-12 -6 -24 -9 -36 -9c-36 0 -66 30 -66 67c0 25 14 48 37 59l67 34l-18 24c-10 17 -16 34 -16 49c0 44 36 80 80 80c26 0 49 -12 67 -36
l33 -43l114 57c12 6 24 9 36 9c36 0 66 -30 66 -67c0 -25 -14 -48 -37 -59l-95 -48zM287 139c50 0 84 34 84 84s-34 84 -84 84s-83 -34 -83 -84s33 -84 83 -84z" />
    <glyph glyph-name="dcaron" unicode="&#x10f;" horiz-adv-x="817" 
d="M738 792c55 0 103 -54 79 -119l-33 -88c-8 -21 -27 -48 -70 -48c-42 0 -83 38 -75 91l14 90c5 36 38 74 85 74zM485 762c49 0 86 -37 86 -87v-601c0 -49 -35 -86 -83 -86c-38 0 -68 23 -79 57c-32 -37 -78 -57 -138 -57c-140 0 -240 108 -240 261s100 263 240 263
c54 0 97 -16 128 -46v209c0 50 36 87 86 87zM305 144c58 0 97 43 97 105c0 63 -40 107 -97 107s-98 -44 -98 -106c0 -63 40 -106 98 -106z" />
    <glyph glyph-name="dcroat" unicode="&#x111;" horiz-adv-x="637" 
d="M587 672c40 0 70 -29 70 -69s-30 -69 -70 -69h-16v-459c0 -50 -35 -87 -83 -87c-38 0 -68 23 -79 57c-33 -37 -81 -57 -142 -57c-138 0 -236 100 -236 241s98 243 235 243c55 0 101 -18 133 -50v112h-134c-40 0 -70 29 -70 69s30 69 70 69h134v3c0 50 36 87 86 87
c49 0 86 -37 86 -87v-3h16zM305 131c58 0 97 39 97 97c0 60 -40 101 -97 101s-98 -41 -98 -100c0 -58 40 -98 98 -98z" />
    <glyph glyph-name="e" unicode="e" horiz-adv-x="568" 
d="M294 512c139 0 243 -101 243 -237v-2c0 -49 -38 -83 -90 -83h-240c18 -38 55 -57 111 -57c28 0 61 6 87 17c12 5 21 8 31 8c38 0 68 -29 68 -67c0 -28 -13 -49 -43 -66c-43 -24 -95 -37 -149 -37c-162 0 -281 111 -281 262c0 149 113 262 263 262zM291 377
c-44 0 -77 -29 -90 -75h173c-2 43 -36 75 -83 75z" />
    <glyph glyph-name="eacute" unicode="&#xe9;" horiz-adv-x="568" 
d="M316 560c-50 4 -76 43 -73 82c1 14 6 27 11 38l37 86c13 31 49 49 78 49c52 0 86 -42 86 -87c0 -16 -5 -33 -15 -48l-56 -83c-17 -25 -44 -39 -68 -37zM294 512c139 0 243 -101 243 -237v-2c0 -49 -38 -83 -90 -83h-240c18 -38 55 -57 111 -57c28 0 61 6 87 17
c12 5 21 8 31 8c38 0 68 -29 68 -67c0 -28 -13 -49 -43 -66c-43 -24 -95 -37 -149 -37c-162 0 -281 111 -281 262c0 149 113 262 263 262zM291 377c-44 0 -77 -29 -90 -75h173c-2 43 -36 75 -83 75z" />
    <glyph glyph-name="ebreve" unicode="&#x115;" horiz-adv-x="568" 
d="M298 568c-99 0 -182 67 -182 146c0 38 28 67 64 67c33 0 53 -14 65 -46c10 -28 27 -42 53 -42s43 14 53 42c12 32 32 46 63 46c37 0 66 -30 66 -67c0 -79 -83 -146 -182 -146zM294 512c139 0 243 -101 243 -237v-2c0 -49 -38 -83 -90 -83h-240c18 -38 55 -57 111 -57
c28 0 61 6 87 17c12 5 21 8 31 8c38 0 68 -29 68 -67c0 -28 -13 -49 -43 -66c-43 -24 -95 -37 -149 -37c-162 0 -281 111 -281 262c0 149 113 262 263 262zM291 377c-44 0 -77 -29 -90 -75h173c-2 43 -36 75 -83 75z" />
    <glyph glyph-name="ecaron" unicode="&#x11b;" horiz-adv-x="568" 
d="M234 597l-88 96c-14 15 -23 28 -23 49c0 38 31 60 61 60c15 0 28 -5 39 -15l75 -69l75 69c11 10 24 15 39 15c30 0 61 -22 61 -60c0 -21 -9 -34 -23 -49l-88 -96c-21 -23 -43 -29 -64 -29s-43 6 -64 29zM294 512c139 0 243 -101 243 -237v-2c0 -49 -38 -83 -90 -83h-240
c18 -38 55 -57 111 -57c28 0 61 6 87 17c12 5 21 8 31 8c38 0 68 -29 68 -67c0 -28 -13 -49 -43 -66c-43 -24 -95 -37 -149 -37c-162 0 -281 111 -281 262c0 149 113 262 263 262zM291 377c-44 0 -77 -29 -90 -75h173c-2 43 -36 75 -83 75z" />
    <glyph glyph-name="ecircumflex" unicode="&#xea;" horiz-adv-x="568" 
d="M184 567c-30 0 -61 22 -61 60c0 21 9 34 23 49l88 96c21 23 43 29 64 29s43 -6 64 -29l88 -96c14 -15 23 -28 23 -49c0 -38 -31 -60 -61 -60c-15 0 -28 5 -39 15l-75 69l-75 -69c-11 -10 -24 -15 -39 -15zM294 512c139 0 243 -101 243 -237v-2c0 -49 -38 -83 -90 -83
h-240c18 -38 55 -57 111 -57c28 0 61 6 87 17c12 5 21 8 31 8c38 0 68 -29 68 -67c0 -28 -13 -49 -43 -66c-43 -24 -95 -37 -149 -37c-162 0 -281 111 -281 262c0 149 113 262 263 262zM291 377c-44 0 -77 -29 -90 -75h173c-2 43 -36 75 -83 75z" />
    <glyph glyph-name="edieresis" unicode="&#xeb;" horiz-adv-x="568" 
d="M170 584c-51 0 -97 44 -97 93c0 52 44 94 97 94c56 0 98 -40 98 -94c0 -51 -44 -93 -98 -93zM425 584c-51 0 -97 44 -97 93c0 52 44 94 97 94c56 0 98 -40 98 -94c0 -51 -44 -93 -98 -93zM294 512c139 0 243 -101 243 -237v-2c0 -49 -38 -83 -90 -83h-240
c18 -38 55 -57 111 -57c28 0 61 6 87 17c12 5 21 8 31 8c38 0 68 -29 68 -67c0 -28 -13 -49 -43 -66c-43 -24 -95 -37 -149 -37c-162 0 -281 111 -281 262c0 149 113 262 263 262zM291 377c-44 0 -77 -29 -90 -75h173c-2 43 -36 75 -83 75z" />
    <glyph glyph-name="edotaccent" unicode="&#x117;" horiz-adv-x="568" 
d="M297 579c-56 0 -102 43 -102 98c0 56 46 99 102 99s103 -43 103 -99c0 -55 -47 -98 -103 -98zM294 512c139 0 243 -101 243 -237v-2c0 -49 -38 -83 -90 -83h-240c18 -38 55 -57 111 -57c28 0 61 6 87 17c12 5 21 8 31 8c38 0 68 -29 68 -67c0 -28 -13 -49 -43 -66
c-43 -24 -95 -37 -149 -37c-162 0 -281 111 -281 262c0 149 113 262 263 262zM291 377c-44 0 -77 -29 -90 -75h173c-2 43 -36 75 -83 75z" />
    <glyph glyph-name="egrave" unicode="&#xe8;" horiz-adv-x="568" 
d="M212 597l-56 83c-10 15 -15 32 -15 48c0 45 34 87 86 87c29 0 65 -18 78 -49l37 -86c5 -11 10 -24 11 -38c3 -39 -23 -78 -73 -82c-24 -2 -51 12 -68 37zM294 512c139 0 243 -101 243 -237v-2c0 -49 -38 -83 -90 -83h-240c18 -38 55 -57 111 -57c28 0 61 6 87 17
c12 5 21 8 31 8c38 0 68 -29 68 -67c0 -28 -13 -49 -43 -66c-43 -24 -95 -37 -149 -37c-162 0 -281 111 -281 262c0 149 113 262 263 262zM291 377c-44 0 -77 -29 -90 -75h173c-2 43 -36 75 -83 75z" />
    <glyph glyph-name="emacron" unicode="&#x113;" horiz-adv-x="568" 
d="M198 610c-40 0 -70 29 -70 67s30 67 70 67h200c40 0 70 -29 70 -67s-30 -67 -70 -67h-200zM294 512c139 0 243 -101 243 -237v-2c0 -49 -38 -83 -90 -83h-240c18 -38 55 -57 111 -57c28 0 61 6 87 17c12 5 21 8 31 8c38 0 68 -29 68 -67c0 -28 -13 -49 -43 -66
c-43 -24 -95 -37 -149 -37c-162 0 -281 111 -281 262c0 149 113 262 263 262zM291 377c-44 0 -77 -29 -90 -75h173c-2 43 -36 75 -83 75z" />
    <glyph glyph-name="eogonek" unicode="&#x119;" horiz-adv-x="568" 
d="M294 512c139 0 243 -101 243 -237v-2c0 -49 -38 -83 -90 -83h-240c18 -38 55 -57 111 -57c28 0 61 6 87 17c12 5 21 8 31 8c38 0 68 -29 68 -67c0 -25 -11 -45 -35 -61l-33 -26c-27 -20 -39 -36 -39 -53c0 -13 10 -23 25 -23h3c31 0 51 -22 51 -54c0 -28 -17 -51 -48 -59
c-18 -5 -38 -7 -63 -7c-78 0 -129 42 -129 108c0 25 12 50 31 75c-139 18 -236 122 -236 259c0 149 113 262 263 262zM291 377c-44 0 -77 -29 -90 -75h173c-2 43 -36 75 -83 75z" />
    <glyph glyph-name="f" unicode="f" horiz-adv-x="368" 
d="M320 608c-39 0 -62 -24 -62 -66v-42h39c42 0 72 -30 72 -72c0 -41 -30 -72 -72 -72h-39v-281c0 -50 -37 -87 -86 -87c-50 0 -86 37 -86 87v281h-8c-41 0 -72 31 -72 72c0 42 31 72 72 72h8v59c0 128 75 203 201 203c31 0 54 -5 75 -16c23 -12 38 -37 38 -67
c0 -43 -30 -71 -76 -71h-4z" />
    <glyph glyph-name="g" unicode="g" horiz-adv-x="627" 
d="M488 512c48 0 83 -37 83 -87v-364c0 -162 -97 -253 -268 -253c-83 0 -156 21 -214 62c-24 16 -37 40 -37 64c0 42 34 76 76 76c14 0 29 -5 45 -15c35 -22 72 -33 112 -33c71 0 114 33 114 88v18c-31 -30 -75 -46 -131 -46c-141 0 -237 100 -237 246c0 145 96 244 237 244
c62 0 109 -19 141 -57c11 34 41 57 79 57zM305 164c57 0 97 44 97 107c0 60 -38 99 -97 99s-98 -40 -98 -100c0 -62 41 -106 98 -106z" />
    <glyph glyph-name="gbreve" unicode="&#x11f;" horiz-adv-x="627" 
d="M307 568c-99 0 -182 67 -182 146c0 38 28 67 64 67c33 0 53 -14 65 -46c10 -28 27 -42 53 -42s43 14 53 42c12 32 32 46 63 46c37 0 66 -30 66 -67c0 -79 -83 -146 -182 -146zM488 512c48 0 83 -37 83 -87v-364c0 -162 -97 -253 -268 -253c-83 0 -156 21 -214 62
c-24 16 -37 40 -37 64c0 42 34 76 76 76c14 0 29 -5 45 -15c35 -22 72 -33 112 -33c71 0 114 33 114 88v18c-31 -30 -75 -46 -131 -46c-141 0 -237 100 -237 246c0 145 96 244 237 244c62 0 109 -19 141 -57c11 34 41 57 79 57zM305 164c57 0 97 44 97 107
c0 60 -38 99 -97 99s-98 -40 -98 -100c0 -62 41 -106 98 -106z" />
    <glyph glyph-name="gcircumflex" unicode="&#x11d;" horiz-adv-x="627" 
d="M193 567c-30 0 -61 22 -61 60c0 21 9 34 23 49l88 96c21 23 43 29 64 29s43 -6 64 -29l88 -96c14 -15 23 -28 23 -49c0 -38 -31 -60 -61 -60c-15 0 -28 5 -39 15l-75 69l-75 -69c-11 -10 -24 -15 -39 -15zM488 512c48 0 83 -37 83 -87v-364c0 -162 -97 -253 -268 -253
c-83 0 -156 21 -214 62c-24 16 -37 40 -37 64c0 42 34 76 76 76c14 0 29 -5 45 -15c35 -22 72 -33 112 -33c71 0 114 33 114 88v18c-31 -30 -75 -46 -131 -46c-141 0 -237 100 -237 246c0 145 96 244 237 244c62 0 109 -19 141 -57c11 34 41 57 79 57zM305 164
c57 0 97 44 97 107c0 60 -38 99 -97 99s-98 -40 -98 -100c0 -62 41 -106 98 -106z" />
    <glyph glyph-name="gcommaaccent" unicode="&#x123;" horiz-adv-x="627" 
d="M307 556c-45 0 -82 37 -82 82c0 43 10 92 31 132c18 34 44 59 80 59c40 0 74 -32 74 -73c0 -17 -5 -35 -10 -54s-9 -39 -9 -64c0 -45 -37 -82 -84 -82zM488 512c48 0 83 -37 83 -87v-364c0 -162 -97 -253 -268 -253c-83 0 -156 21 -214 62c-24 16 -37 40 -37 64
c0 42 34 76 76 76c14 0 29 -5 45 -15c35 -22 72 -33 112 -33c71 0 114 33 114 88v18c-31 -30 -75 -46 -131 -46c-141 0 -237 100 -237 246c0 145 96 244 237 244c62 0 109 -19 141 -57c11 34 41 57 79 57zM305 164c57 0 97 44 97 107c0 60 -38 99 -97 99s-98 -40 -98 -100
c0 -62 41 -106 98 -106z" />
    <glyph glyph-name="gdotaccent" unicode="&#x121;" horiz-adv-x="627" 
d="M306 579c-56 0 -102 43 -102 98c0 56 46 99 102 99s103 -43 103 -99c0 -55 -47 -98 -103 -98zM488 512c48 0 83 -37 83 -87v-364c0 -162 -97 -253 -268 -253c-83 0 -156 21 -214 62c-24 16 -37 40 -37 64c0 42 34 76 76 76c14 0 29 -5 45 -15c35 -22 72 -33 112 -33
c71 0 114 33 114 88v18c-31 -30 -75 -46 -131 -46c-141 0 -237 100 -237 246c0 145 96 244 237 244c62 0 109 -19 141 -57c11 34 41 57 79 57zM305 164c57 0 97 44 97 107c0 60 -38 99 -97 99s-98 -40 -98 -100c0 -62 41 -106 98 -106z" />
    <glyph glyph-name="h" unicode="h" horiz-adv-x="597" 
d="M358 512c112 0 187 -82 187 -204v-233c0 -50 -37 -87 -86 -87s-86 37 -86 87v208c0 44 -30 74 -73 74s-72 -30 -72 -74v-208c0 -50 -37 -87 -86 -87s-86 37 -86 87v600c0 50 37 87 86 87s86 -37 86 -87v-210c34 30 79 47 130 47z" />
    <glyph glyph-name="hbar" unicode="&#x127;" horiz-adv-x="607" 
d="M368 472c112 0 187 -82 187 -204v-193c0 -50 -37 -87 -86 -87s-86 37 -86 87v168c0 44 -30 74 -73 74s-72 -30 -72 -74v-168c0 -50 -37 -87 -86 -87s-86 37 -86 87v458h-16c-40 0 -70 30 -70 70s30 69 70 69h16v3c0 50 36 87 86 87c49 0 86 -37 86 -87v-3h124
c40 0 70 -29 70 -69s-30 -70 -70 -70h-124v-108c34 30 79 47 130 47z" />
    <glyph glyph-name="hcircumflex" unicode="&#x125;" horiz-adv-x="597" 
d="M108 813c-34 0 -62 28 -62 63c0 26 18 40 42 63l76 72c20 18 40 27 63 27s43 -8 63 -27l76 -72c24 -23 42 -37 42 -63c0 -35 -28 -63 -62 -63c-12 0 -29 3 -50 21l-69 61l-69 -61c-20 -19 -38 -21 -50 -21zM358 512c112 0 187 -82 187 -204v-233c0 -50 -37 -87 -86 -87
s-86 37 -86 87v208c0 44 -30 74 -73 74s-72 -30 -72 -74v-208c0 -50 -37 -87 -86 -87s-86 37 -86 87v600c0 50 37 87 86 87s86 -37 86 -87v-210c34 30 79 47 130 47z" />
    <glyph glyph-name="i" unicode="i" horiz-adv-x="284" 
d="M141 776c56 0 103 -43 103 -99c0 -55 -47 -98 -103 -98s-102 43 -102 98c0 56 46 99 102 99zM142 -12c-49 0 -86 37 -86 87v350c0 50 36 87 86 87c49 0 86 -37 86 -87v-350c0 -50 -36 -87 -86 -87z" />
    <glyph glyph-name="dotlessi" unicode="&#x131;" horiz-adv-x="284" 
d="M142 -12c-49 0 -86 37 -86 87v350c0 50 36 87 86 87c49 0 86 -37 86 -87v-350c0 -50 -36 -87 -86 -87z" />
    <glyph glyph-name="iacute" unicode="&#xed;" horiz-adv-x="284" 
d="M172 569c-50 -5 -82 29 -86 68c-2 14 1 28 4 39l21 91c8 33 40 57 69 62c51 9 92 -26 100 -71c2 -15 0 -33 -7 -49l-41 -92c-12 -27 -36 -46 -60 -48zM142 -12c-49 0 -86 37 -86 87v350c0 50 36 87 86 87c49 0 86 -37 86 -87v-350c0 -50 -36 -87 -86 -87z" />
    <glyph glyph-name="ibreve" unicode="&#x12d;" horiz-adv-x="284" 
d="M142 568c-99 0 -182 67 -182 146c0 38 28 67 64 67c33 0 53 -14 65 -46c10 -28 27 -42 53 -42s43 14 53 42c12 32 32 46 63 46c37 0 66 -30 66 -67c0 -79 -83 -146 -182 -146zM142 -12c-49 0 -86 37 -86 87v350c0 50 36 87 86 87c49 0 86 -37 86 -87v-350
c0 -50 -36 -87 -86 -87z" />
    <glyph glyph-name="icircumflex" unicode="&#xee;" horiz-adv-x="284" 
d="M294 676c14 -15 23 -28 23 -49c0 -38 -31 -60 -61 -60c-15 0 -28 5 -39 15l-75 69l-75 -69c-11 -10 -24 -15 -39 -15c-30 0 -61 22 -61 60c0 21 9 34 23 49l88 96c21 23 43 29 64 29s43 -6 64 -29zM142 512c49 0 86 -37 86 -87v-350c0 -50 -36 -87 -86 -87
c-49 0 -86 37 -86 87v350c0 50 36 87 86 87z" />
    <glyph glyph-name="idieresis" unicode="&#xef;" horiz-adv-x="284" 
d="M20 584c-53 0 -98 43 -98 94s44 93 98 93s97 -41 97 -93s-44 -94 -97 -94zM265 584c-53 0 -98 43 -98 94s44 93 98 93s97 -41 97 -93s-44 -94 -97 -94zM142 -12c-49 0 -86 37 -86 87v350c0 50 36 87 86 87c49 0 86 -37 86 -87v-350c0 -50 -36 -87 -86 -87z" />
    <glyph glyph-name="igrave" unicode="&#xec;" horiz-adv-x="284" 
d="M110 569c-23 5 -46 25 -56 54l-32 94c-6 17 -7 35 -2 51c11 43 55 75 105 61c28 -7 58 -34 63 -67l13 -93c2 -12 4 -26 1 -39c-7 -39 -42 -70 -92 -61zM142 -12c-49 0 -86 37 -86 87v350c0 50 36 87 86 87c49 0 86 -37 86 -87v-350c0 -50 -36 -87 -86 -87z" />
    <glyph glyph-name="ij" unicode="&#x133;" horiz-adv-x="568" 
d="M141 776c56 0 103 -43 103 -99c0 -55 -47 -98 -103 -98s-102 43 -102 98c0 56 46 99 102 99zM425 776c56 0 103 -43 103 -99c0 -55 -47 -98 -103 -98s-102 43 -102 98c0 56 46 99 102 99zM142 -12c-49 0 -86 37 -86 87v350c0 50 36 87 86 87c49 0 86 -37 86 -87v-350
c0 -50 -36 -87 -86 -87zM312 -192c-30 0 -51 5 -68 13c-29 14 -45 36 -45 67c0 43 31 74 73 74h3c51 0 65 18 65 86v377c0 50 36 87 86 87c49 0 86 -37 86 -87v-414c0 -128 -74 -203 -200 -203z" />
    <glyph glyph-name="imacron" unicode="&#x12b;" horiz-adv-x="284" 
d="M225 744c39 0 67 -29 67 -67s-28 -67 -67 -67h-166c-39 0 -67 29 -67 67s28 67 67 67h166zM142 -12c-49 0 -86 37 -86 87v350c0 50 36 87 86 87c49 0 86 -37 86 -87v-350c0 -50 -36 -87 -86 -87z" />
    <glyph glyph-name="iogonek" unicode="&#x12f;" horiz-adv-x="284" 
d="M141 579c-56 0 -102 43 -102 98c0 56 46 99 102 99s103 -43 103 -99c0 -55 -47 -98 -103 -98zM192 -72c31 0 51 -22 51 -54c0 -28 -17 -51 -48 -59c-18 -5 -38 -7 -63 -7c-78 0 -129 42 -129 108c0 42 18 75 63 117c-7 13 -10 27 -10 42v350c0 50 36 87 86 87
c49 0 86 -37 86 -87v-350c0 -4 0 -8 -1 -12c1 -2 1 -5 1 -7c0 -15 -6 -30 -17 -42c-28 -28 -47 -50 -47 -67c0 -12 9 -19 25 -19h3z" />
    <glyph glyph-name="itilde" unicode="&#x129;" horiz-adv-x="284" 
d="M216 568c-26 0 -45 7 -70 24l-20 13c-14 9 -21 12 -29 12c-15 0 -22 -7 -29 -25c-9 -24 -31 -38 -61 -38c-42 0 -67 27 -67 71c0 88 52 147 129 147c26 0 45 -7 70 -24l20 -13c14 -9 21 -12 29 -12c15 0 22 7 29 25c9 24 31 38 61 38c42 0 67 -27 67 -71
c0 -88 -52 -147 -129 -147zM142 -12c-49 0 -86 37 -86 87v350c0 50 36 87 86 87c49 0 86 -37 86 -87v-350c0 -50 -36 -87 -86 -87z" />
    <glyph glyph-name="j" unicode="j" horiz-adv-x="284" 
d="M141 776c56 0 103 -43 103 -99c0 -55 -47 -98 -103 -98s-102 43 -102 98c0 56 46 99 102 99zM28 -192c-30 0 -51 5 -68 13c-29 14 -45 36 -45 67c0 43 31 74 73 74h3c51 0 65 18 65 86v377c0 50 36 87 86 87c49 0 86 -37 86 -87v-414c0 -128 -74 -203 -200 -203z" />
    <glyph glyph-name="uni0237" unicode="&#x237;" horiz-adv-x="284" 
d="M28 -192c-30 0 -51 5 -68 13c-29 14 -45 36 -45 67c0 43 31 74 73 74h3c51 0 65 18 65 86v377c0 50 36 87 86 87c49 0 86 -37 86 -87v-414c0 -128 -74 -203 -200 -203z" />
    <glyph glyph-name="jcircumflex" unicode="&#x135;" horiz-adv-x="284" 
d="M294 676c14 -15 23 -28 23 -49c0 -38 -31 -60 -61 -60c-15 0 -28 5 -39 15l-75 69l-75 -69c-11 -10 -24 -15 -39 -15c-30 0 -61 22 -61 60c0 21 9 34 23 49l88 96c21 23 43 29 64 29s43 -6 64 -29zM142 512c49 0 86 -37 86 -87v-414c0 -128 -74 -203 -200 -203
c-30 0 -51 5 -68 13c-29 14 -45 36 -45 67c0 43 31 74 73 74h3c51 0 65 18 65 86v377c0 50 36 87 86 87z" />
    <glyph glyph-name="k" unicode="k" horiz-adv-x="595" 
d="M142 762c50 0 86 -37 86 -87v-600c0 -50 -37 -87 -86 -87s-86 37 -86 87v600c0 50 37 87 86 87zM424 267l107 -150c13 -18 19 -34 19 -51c0 -44 -34 -78 -77 -78c-27 0 -46 9 -61 29l-138 190c-19 26 -26 43 -26 62c0 20 9 38 31 64l135 152c16 18 36 27 59 27
c44 -1 77 -34 77 -77c0 -20 -9 -41 -25 -58z" />
    <glyph glyph-name="kcommaaccent" unicode="&#x137;" horiz-adv-x="595" 
d="M228 75c0 -50 -37 -87 -86 -87s-86 37 -86 87v600c0 50 37 87 86 87c50 0 86 -37 86 -87v-600zM424 267l107 -150c13 -18 19 -34 19 -51c0 -44 -34 -78 -77 -78c-27 0 -46 9 -61 29l-138 190c-19 26 -26 43 -26 62c0 20 9 38 31 64l135 152c16 18 36 27 59 27
c44 -1 77 -34 77 -77c0 -20 -9 -41 -25 -58zM301 -35c47 0 86 -39 86 -86c0 -40 -16 -93 -49 -127c-18 -19 -38 -28 -60 -28c-38 0 -75 32 -75 72c0 32 12 48 12 83c0 47 39 86 86 86z" />
    <glyph glyph-name="l" unicode="l" horiz-adv-x="284" 
d="M142 -12c-49 0 -86 37 -86 87v600c0 50 36 87 86 87c49 0 86 -37 86 -87v-600c0 -50 -37 -87 -86 -87z" />
    <glyph glyph-name="lacute" unicode="&#x13a;" horiz-adv-x="284" 
d="M160 804c-65 0 -89 70 -67 112l44 84c20 38 56 45 77 45c69 0 107 -84 66 -136l-61 -75c-22 -28 -51 -30 -59 -30zM142 -12c-49 0 -86 37 -86 87v600c0 50 36 87 86 87c49 0 86 -37 86 -87v-600c0 -50 -37 -87 -86 -87z" />
    <glyph glyph-name="lcaron" unicode="&#x13e;" horiz-adv-x="475" 
d="M372 537c-42 0 -83 38 -75 91l14 90c5 36 38 74 85 74c55 0 103 -54 79 -119l-33 -88c-8 -21 -27 -48 -70 -48zM142 -12c-49 0 -86 37 -86 87v600c0 50 36 87 86 87c49 0 86 -37 86 -87v-600c0 -50 -37 -87 -86 -87z" />
    <glyph glyph-name="lcommaaccent" unicode="&#x13c;" horiz-adv-x="284" 
d="M142 -12c-49 0 -86 37 -86 87v600c0 50 36 87 86 87c49 0 86 -37 86 -87v-600c0 -50 -37 -87 -86 -87zM116 -276c-38 0 -75 32 -75 72c0 32 12 48 12 83c0 47 39 86 86 86s86 -39 86 -86c0 -40 -16 -93 -49 -127c-18 -19 -38 -28 -60 -28z" />
    <glyph glyph-name="ldot" unicode="&#x140;" horiz-adv-x="474" 
d="M142 -12c-49 0 -86 37 -86 87v600c0 50 36 87 86 87c49 0 86 -37 86 -87v-600c0 -50 -37 -87 -86 -87zM378 212c-67 0 -114 49 -114 112c0 62 47 112 114 112c64 0 111 -50 111 -112c0 -63 -47 -112 -111 -112z" />
    <glyph glyph-name="lslash" unicode="&#x142;" horiz-adv-x="308" 
d="M253 442c39 0 73 -34 73 -73c0 -27 -18 -53 -45 -65l-47 -22v-207c0 -50 -37 -87 -86 -87s-86 37 -86 87v146c-4 -1 -8 -1 -12 -1c-39 0 -73 34 -73 73c0 27 18 53 45 65l40 18v299c0 50 36 87 86 87c49 0 86 -37 86 -87v-235c6 1 12 2 19 2z" />
    <glyph glyph-name="m" unicode="m" horiz-adv-x="904" 
d="M659 512c118 0 193 -79 193 -204v-233c0 -50 -37 -87 -86 -87s-86 37 -86 87v208c0 45 -28 74 -71 74c-42 0 -69 -29 -69 -74v-208c0 -50 -37 -87 -86 -87s-86 37 -86 87v208c0 45 -28 74 -71 74c-42 0 -69 -29 -69 -74v-208c0 -50 -37 -87 -86 -87s-86 37 -86 87v350
c0 50 36 87 84 87c35 0 63 -19 75 -49c35 31 82 49 135 49c61 0 111 -23 145 -64c40 40 99 64 164 64z" />
    <glyph glyph-name="n" unicode="n" horiz-adv-x="597" 
d="M354 512c116 0 191 -80 191 -204v-233c0 -50 -37 -87 -86 -87s-86 37 -86 87v208c0 44 -30 74 -73 74s-72 -30 -72 -74v-208c0 -50 -37 -87 -86 -87s-86 37 -86 87v350c0 50 36 87 84 87c35 0 63 -20 76 -50c35 31 84 50 138 50z" />
    <glyph glyph-name="nacute" unicode="&#x144;" horiz-adv-x="597" 
d="M297 560c-50 4 -76 43 -73 82c1 14 6 27 11 38l37 86c13 31 49 49 78 49c52 0 86 -42 86 -87c0 -16 -5 -33 -15 -48l-56 -83c-17 -25 -44 -39 -68 -37zM354 512c116 0 191 -80 191 -204v-233c0 -50 -37 -87 -86 -87s-86 37 -86 87v208c0 44 -30 74 -73 74
s-72 -30 -72 -74v-208c0 -50 -37 -87 -86 -87s-86 37 -86 87v350c0 50 36 87 84 87c35 0 63 -20 76 -50c35 31 84 50 138 50z" />
    <glyph glyph-name="ncaron" unicode="&#x148;" horiz-adv-x="597" 
d="M215 597l-88 96c-14 15 -23 28 -23 49c0 38 31 60 61 60c15 0 28 -5 39 -15l75 -69l75 69c11 10 24 15 39 15c30 0 61 -22 61 -60c0 -21 -9 -34 -23 -49l-88 -96c-21 -23 -43 -29 -64 -29s-43 6 -64 29zM354 512c116 0 191 -80 191 -204v-233c0 -50 -37 -87 -86 -87
s-86 37 -86 87v208c0 44 -30 74 -73 74s-72 -30 -72 -74v-208c0 -50 -37 -87 -86 -87s-86 37 -86 87v350c0 50 36 87 84 87c35 0 63 -20 76 -50c35 31 84 50 138 50z" />
    <glyph glyph-name="ncommaaccent" unicode="&#x146;" horiz-adv-x="597" 
d="M354 512c116 0 191 -80 191 -204v-233c0 -50 -37 -87 -86 -87s-86 37 -86 87v208c0 44 -30 74 -73 74s-72 -30 -72 -74v-208c0 -50 -37 -87 -86 -87s-86 37 -86 87v350c0 50 36 87 84 87c35 0 63 -20 76 -50c35 31 84 50 138 50zM302 -35c47 0 86 -39 86 -86
c0 -40 -16 -93 -49 -127c-18 -19 -38 -28 -60 -28c-38 0 -75 32 -75 72c0 32 12 48 12 83c0 47 39 86 86 86z" />
    <glyph glyph-name="eng" unicode="&#x14b;" horiz-adv-x="597" 
d="M354 512c116 0 191 -80 191 -204v-297c0 -118 -84 -203 -200 -203c-30 0 -54 5 -70 12c-29 13 -43 37 -43 68c0 43 31 74 73 74h3c46 0 65 25 65 66v255c0 44 -30 74 -73 74s-72 -30 -72 -74v-208c0 -50 -37 -87 -86 -87s-86 37 -86 87v350c0 50 36 87 84 87
c35 0 63 -20 76 -50c35 31 84 50 138 50z" />
    <glyph glyph-name="ntilde" unicode="&#xf1;" horiz-adv-x="597" 
d="M129 558c-42 0 -67 27 -67 71c0 90 57 147 136 147c25 0 52 -10 73 -21l29 -15c15 -7 26 -16 42 -16c14 0 19 7 27 25c10 24 31 37 61 37c42 0 67 -27 67 -71c0 -88 -54 -147 -130 -147c-27 0 -55 8 -79 21l-29 16c-14 8 -24 16 -38 16c-16 0 -24 -7 -31 -25
c-10 -24 -31 -38 -61 -38zM354 512c116 0 191 -80 191 -204v-233c0 -50 -37 -87 -86 -87s-86 37 -86 87v208c0 44 -30 74 -73 74s-72 -30 -72 -74v-208c0 -50 -37 -87 -86 -87s-86 37 -86 87v350c0 50 36 87 84 87c35 0 63 -20 76 -50c35 31 84 50 138 50z" />
    <glyph glyph-name="o" unicode="o" horiz-adv-x="607" 
d="M303 512c153 0 273 -116 273 -262s-120 -262 -273 -262s-272 115 -272 262s119 262 272 262zM304 354c-57 0 -97 -42 -97 -104s39 -104 97 -104c56 0 96 44 96 104s-41 104 -96 104z" />
    <glyph glyph-name="oacute" unicode="&#xf3;" horiz-adv-x="607" 
d="M322 560c-50 4 -76 43 -73 82c1 14 6 27 11 38l37 86c13 31 49 49 78 49c52 0 86 -42 86 -87c0 -16 -5 -33 -15 -48l-56 -83c-17 -25 -44 -39 -68 -37zM303 512c153 0 273 -116 273 -262s-120 -262 -273 -262s-272 115 -272 262s119 262 272 262zM304 354
c-57 0 -97 -42 -97 -104s39 -104 97 -104c56 0 96 44 96 104s-41 104 -96 104z" />
    <glyph glyph-name="obreve" unicode="&#x14f;" horiz-adv-x="607" 
d="M304 568c-99 0 -182 67 -182 146c0 38 28 67 64 67c33 0 53 -14 65 -46c10 -28 27 -42 53 -42s43 14 53 42c12 32 32 46 63 46c37 0 66 -30 66 -67c0 -79 -83 -146 -182 -146zM303 512c153 0 273 -116 273 -262s-120 -262 -273 -262s-272 115 -272 262s119 262 272 262z
M304 354c-57 0 -97 -42 -97 -104s39 -104 97 -104c56 0 96 44 96 104s-41 104 -96 104z" />
    <glyph glyph-name="ocircumflex" unicode="&#xf4;" horiz-adv-x="607" 
d="M190 567c-30 0 -61 22 -61 60c0 21 9 34 23 49l88 96c21 23 43 29 64 29s43 -6 64 -29l88 -96c14 -15 23 -28 23 -49c0 -38 -31 -60 -61 -60c-15 0 -28 5 -39 15l-75 69l-75 -69c-11 -10 -24 -15 -39 -15zM303 512c153 0 273 -116 273 -262s-120 -262 -273 -262
s-272 115 -272 262s119 262 272 262zM304 146c56 0 96 44 96 104s-41 104 -96 104c-57 0 -97 -42 -97 -104s39 -104 97 -104z" />
    <glyph glyph-name="odieresis" unicode="&#xf6;" horiz-adv-x="607" 
d="M176 771c56 0 98 -40 98 -94c0 -51 -44 -93 -98 -93c-51 0 -97 44 -97 93c0 52 44 94 97 94zM431 771c56 0 98 -40 98 -94c0 -51 -44 -93 -98 -93c-51 0 -97 44 -97 93c0 52 44 94 97 94zM303 512c153 0 273 -116 273 -262s-120 -262 -273 -262s-272 115 -272 262
s119 262 272 262zM304 354c-57 0 -97 -42 -97 -104s39 -104 97 -104c56 0 96 44 96 104s-41 104 -96 104z" />
    <glyph glyph-name="ograve" unicode="&#xf2;" horiz-adv-x="607" 
d="M286 560c-24 -2 -51 12 -68 37l-56 83c-10 15 -15 32 -15 48c0 45 34 87 86 87c29 0 65 -18 78 -49l37 -86c5 -11 10 -24 11 -38c3 -39 -23 -78 -73 -82zM303 512c153 0 273 -116 273 -262s-120 -262 -273 -262s-272 115 -272 262s119 262 272 262zM304 354
c-57 0 -97 -42 -97 -104s39 -104 97 -104c56 0 96 44 96 104s-41 104 -96 104z" />
    <glyph glyph-name="ohungarumlaut" unicode="&#x151;" horiz-adv-x="607" 
d="M235 560c-50 4 -76 43 -73 82c1 14 6 27 11 38l37 86c13 31 49 49 78 49c52 0 86 -42 86 -87c0 -16 -5 -33 -15 -48l-56 -83c-17 -25 -44 -39 -68 -37zM447 560c-50 4 -76 43 -73 82c1 14 6 27 11 38l37 86c13 31 49 49 78 49c52 0 86 -42 86 -87c0 -16 -5 -33 -15 -48
l-56 -83c-17 -25 -44 -39 -68 -37zM303 512c153 0 273 -116 273 -262s-120 -262 -273 -262s-272 115 -272 262s119 262 272 262zM304 354c-57 0 -97 -42 -97 -104s39 -104 97 -104c56 0 96 44 96 104s-41 104 -96 104z" />
    <glyph glyph-name="omacron" unicode="&#x14d;" horiz-adv-x="607" 
d="M404 744c40 0 70 -29 70 -67s-30 -67 -70 -67h-200c-40 0 -70 29 -70 67s30 67 70 67h200zM303 512c153 0 273 -116 273 -262s-120 -262 -273 -262s-272 115 -272 262s119 262 272 262zM304 354c-57 0 -97 -42 -97 -104s39 -104 97 -104c56 0 96 44 96 104
s-41 104 -96 104z" />
    <glyph glyph-name="oslash" unicode="&#xf8;" horiz-adv-x="606" 
d="M539 384c23 -39 37 -85 37 -134c0 -146 -120 -262 -273 -262c-48 0 -92 11 -131 31l-15 -15c-18 -19 -35 -27 -57 -27c-40 0 -72 32 -72 72c0 20 9 38 27 55l13 13c-24 38 -37 84 -37 133c0 147 119 262 272 262c47 0 91 -11 129 -31l15 15c17 17 36 26 55 26
c41 0 73 -32 73 -72c0 -21 -7 -37 -24 -54zM303 367c-67 0 -111 -46 -111 -117c0 -11 1 -21 3 -30l142 142c-10 3 -22 5 -34 5zM303 133c67 0 112 47 112 117c0 11 -1 21 -3 31l-144 -144c11 -2 23 -4 35 -4z" />
    <glyph glyph-name="oslashacute" unicode="&#x1ff;" horiz-adv-x="606" 
d="M322 560c-50 4 -76 43 -73 82c1 14 6 27 11 38l37 86c13 31 49 49 78 49c52 0 86 -42 86 -87c0 -16 -5 -33 -15 -48l-56 -83c-17 -25 -44 -39 -68 -37zM539 384c23 -39 37 -85 37 -134c0 -146 -120 -262 -273 -262c-48 0 -92 11 -131 31l-15 -15c-18 -19 -35 -27 -57 -27
c-40 0 -72 32 -72 72c0 20 9 38 27 55l13 13c-24 38 -37 84 -37 133c0 147 119 262 272 262c47 0 91 -11 129 -31l15 15c17 17 36 26 55 26c41 0 73 -32 73 -72c0 -21 -7 -37 -24 -54zM303 367c-67 0 -111 -46 -111 -117c0 -11 1 -21 3 -30l142 142c-10 3 -22 5 -34 5z
M303 133c67 0 112 47 112 117c0 11 -1 21 -3 31l-144 -144c11 -2 23 -4 35 -4z" />
    <glyph glyph-name="otilde" unicode="&#xf5;" horiz-adv-x="607" 
d="M392 568c-27 0 -55 8 -79 21l-29 16c-14 8 -24 16 -38 16c-16 0 -24 -7 -31 -25c-10 -24 -31 -38 -61 -38c-42 0 -67 27 -67 71c0 90 57 147 136 147c25 0 52 -10 73 -21l29 -15c15 -7 26 -16 42 -16c14 0 19 7 27 25c10 24 31 37 61 37c42 0 67 -27 67 -71
c0 -88 -54 -147 -130 -147zM303 512c153 0 273 -116 273 -262s-120 -262 -273 -262s-272 115 -272 262s119 262 272 262zM304 354c-57 0 -97 -42 -97 -104s39 -104 97 -104c56 0 96 44 96 104s-41 104 -96 104z" />
    <glyph glyph-name="oe" unicode="&#x153;" horiz-adv-x="917" 
d="M643 512c139 0 243 -101 243 -237v-2c0 -48 -37 -83 -90 -83h-237c17 -38 53 -57 108 -57c30 0 63 6 87 17c14 6 22 8 31 8c38 0 68 -29 68 -67c0 -28 -13 -49 -43 -66c-43 -24 -95 -37 -149 -37c-77 0 -142 28 -187 76c-42 -48 -103 -76 -174 -76
c-149 0 -269 116 -269 262s120 262 269 262c70 0 130 -27 172 -74c42 47 102 74 171 74zM640 377c-43 0 -74 -28 -86 -75h169c-2 43 -36 75 -83 75zM303 146c55 0 92 42 92 104s-37 104 -92 104c-57 0 -96 -43 -96 -104s39 -104 96 -104z" />
    <glyph glyph-name="p" unicode="p" horiz-adv-x="627" 
d="M356 512c140 0 240 -108 240 -261s-100 -263 -240 -263c-54 0 -97 16 -128 46v-139c0 -50 -37 -87 -86 -87s-86 37 -86 87v533c0 48 36 84 84 84c38 0 68 -23 79 -56c31 37 78 56 137 56zM322 144c57 0 98 44 98 106c0 63 -40 106 -98 106s-97 -43 -97 -105
c0 -63 40 -107 97 -107z" />
    <glyph glyph-name="thorn" unicode="&#xfe;" horiz-adv-x="627" 
d="M356 512c140 0 240 -108 240 -261s-100 -263 -240 -263c-54 0 -97 16 -128 46v-139c0 -50 -37 -87 -86 -87s-86 37 -86 87v780c0 50 36 87 86 87c49 0 86 -37 86 -87v-209c31 30 74 46 128 46zM322 144c57 0 98 44 98 106c0 63 -40 106 -98 106s-97 -43 -97 -105
c0 -63 40 -107 97 -107z" />
    <glyph glyph-name="q" unicode="q" horiz-adv-x="627" 
d="M488 512c48 0 83 -37 83 -87v-530c0 -50 -37 -87 -86 -87s-86 37 -86 87v139c-31 -30 -74 -46 -128 -46c-140 0 -240 110 -240 263s100 261 240 261c60 0 106 -20 138 -57c11 34 41 57 79 57zM305 144c57 0 97 44 97 107c0 62 -39 105 -97 105s-98 -43 -98 -106
c0 -62 41 -106 98 -106z" />
    <glyph glyph-name="r" unicode="r" horiz-adv-x="405" 
d="M324 508c44 0 75 -31 75 -77s-30 -77 -79 -84c-62 -9 -92 -47 -92 -119v-153c0 -50 -37 -87 -86 -87s-86 37 -86 87v350c0 50 36 87 84 87c38 0 68 -23 79 -58c28 34 65 54 105 54z" />
    <glyph glyph-name="racute" unicode="&#x155;" horiz-adv-x="405" 
d="M221 560c-50 4 -76 43 -73 82c1 14 6 27 11 38l37 86c13 31 49 49 78 49c52 0 86 -42 86 -87c0 -16 -5 -33 -15 -48l-56 -83c-17 -25 -44 -39 -68 -37zM324 508c44 0 75 -31 75 -77s-30 -77 -79 -84c-62 -9 -92 -47 -92 -119v-153c0 -50 -37 -87 -86 -87s-86 37 -86 87
v350c0 50 36 87 84 87c38 0 68 -23 79 -58c28 34 65 54 105 54z" />
    <glyph glyph-name="rcaron" unicode="&#x159;" horiz-adv-x="405" 
d="M203 568c-21 0 -43 6 -64 29l-88 96c-14 15 -23 28 -23 49c0 38 31 60 61 60c15 0 28 -5 39 -15l75 -69l75 69c11 10 24 15 39 15c30 0 61 -22 61 -60c0 -21 -9 -34 -23 -49l-88 -96c-21 -23 -43 -29 -64 -29zM324 508c44 0 75 -31 75 -77s-30 -77 -79 -84
c-62 -9 -92 -47 -92 -119v-153c0 -50 -37 -87 -86 -87s-86 37 -86 87v350c0 50 36 87 84 87c38 0 68 -23 79 -58c28 34 65 54 105 54z" />
    <glyph glyph-name="rcommaaccent" unicode="&#x157;" horiz-adv-x="405" 
d="M324 508c44 0 75 -31 75 -77s-30 -77 -79 -84c-62 -9 -92 -47 -92 -119v-153c0 -50 -37 -87 -86 -87s-86 37 -86 87v350c0 50 36 87 84 87c38 0 68 -23 79 -58c28 34 65 54 105 54zM139 -35c47 0 86 -39 86 -86c0 -40 -16 -93 -49 -127c-18 -19 -38 -28 -60 -28
c-38 0 -75 32 -75 72c0 32 12 48 12 83c0 47 39 86 86 86z" />
    <glyph glyph-name="s" unicode="s" horiz-adv-x="456" 
d="M226 -12c-72 0 -137 23 -184 63c-17 14 -26 33 -26 54c0 38 31 69 70 69c14 0 28 -4 46 -17c26 -18 61 -33 97 -33c24 0 44 5 44 22c0 12 -10 17 -29 25l-56 23c-91 37 -145 78 -145 161c0 100 79 158 194 158c55 0 114 -15 157 -44c21 -14 33 -36 33 -59
c0 -39 -31 -70 -69 -70c-14 0 -28 6 -40 13c-26 15 -52 24 -80 24c-22 0 -35 -5 -35 -19c0 -13 11 -18 34 -27l50 -20c89 -36 146 -73 146 -157c0 -105 -88 -166 -207 -166z" />
    <glyph glyph-name="sacute" unicode="&#x15b;" horiz-adv-x="456" 
d="M252 560c-50 4 -76 43 -73 82c1 14 6 27 11 38l37 86c13 31 49 49 78 49c52 0 86 -42 86 -87c0 -16 -5 -33 -15 -48l-56 -83c-17 -25 -44 -39 -68 -37zM226 -12c-72 0 -137 23 -184 63c-17 14 -26 33 -26 54c0 38 31 69 70 69c14 0 28 -4 46 -17c26 -18 61 -33 97 -33
c24 0 44 5 44 22c0 12 -10 17 -29 25l-56 23c-91 37 -145 78 -145 161c0 100 79 158 194 158c55 0 114 -15 157 -44c21 -14 33 -36 33 -59c0 -39 -31 -70 -69 -70c-14 0 -28 6 -40 13c-26 15 -52 24 -80 24c-22 0 -35 -5 -35 -19c0 -13 11 -18 34 -27l50 -20
c89 -36 146 -73 146 -157c0 -105 -88 -166 -207 -166z" />
    <glyph glyph-name="scaron" unicode="&#x161;" horiz-adv-x="456" 
d="M170 597l-88 96c-14 15 -23 28 -23 49c0 38 31 60 61 60c15 0 28 -5 39 -15l75 -69l75 69c11 10 24 15 39 15c30 0 61 -22 61 -60c0 -21 -9 -34 -23 -49l-88 -96c-21 -23 -43 -29 -64 -29s-43 6 -64 29zM287 311c89 -36 146 -73 146 -157c0 -105 -88 -166 -207 -166
c-72 0 -137 23 -184 63c-17 14 -26 33 -26 54c0 38 31 69 70 69c14 0 28 -4 46 -17c26 -18 61 -33 97 -33c24 0 44 5 44 22c0 12 -10 17 -29 25l-56 23c-91 37 -145 78 -145 161c0 100 79 158 194 158c55 0 114 -15 157 -44c21 -14 33 -36 33 -59c0 -39 -31 -70 -69 -70
c-14 0 -28 6 -40 13c-26 15 -52 24 -80 24c-22 0 -35 -5 -35 -19c0 -13 11 -18 34 -27z" />
    <glyph glyph-name="scedilla" unicode="&#x15f;" horiz-adv-x="456" 
d="M433 154c0 -69 -38 -119 -98 -145c10 -21 16 -43 16 -64c0 -85 -64 -137 -167 -137c-33 0 -55 3 -71 10c-25 10 -37 28 -37 52c0 33 26 60 60 60h23c32 0 51 9 51 30c0 11 -3 20 -7 29c-63 4 -119 26 -161 62c-17 14 -26 33 -26 54c0 38 31 69 70 69c14 0 28 -4 46 -17
c26 -18 61 -33 97 -33c24 0 44 5 44 22c0 12 -10 17 -29 25l-56 23c-91 37 -145 78 -145 161c0 100 79 158 194 158c55 0 114 -15 157 -44c21 -14 33 -36 33 -59c0 -39 -31 -70 -69 -70c-14 0 -28 6 -40 13c-26 15 -52 24 -80 24c-22 0 -35 -5 -35 -19c0 -13 11 -18 34 -27
l50 -20c89 -36 146 -73 146 -157z" />
    <glyph glyph-name="scircumflex" unicode="&#x15d;" horiz-adv-x="456" 
d="M120 567c-30 0 -61 22 -61 60c0 21 9 34 23 49l88 96c21 23 43 29 64 29s43 -6 64 -29l88 -96c14 -15 23 -28 23 -49c0 -38 -31 -60 -61 -60c-15 0 -28 5 -39 15l-75 69l-75 -69c-11 -10 -24 -15 -39 -15zM287 311c89 -36 146 -73 146 -157c0 -105 -88 -166 -207 -166
c-72 0 -137 23 -184 63c-17 14 -26 33 -26 54c0 38 31 69 70 69c14 0 28 -4 46 -17c26 -18 61 -33 97 -33c24 0 44 5 44 22c0 12 -10 17 -29 25l-56 23c-91 37 -145 78 -145 161c0 100 79 158 194 158c55 0 114 -15 157 -44c21 -14 33 -36 33 -59c0 -39 -31 -70 -69 -70
c-14 0 -28 6 -40 13c-26 15 -52 24 -80 24c-22 0 -35 -5 -35 -19c0 -13 11 -18 34 -27z" />
    <glyph glyph-name="scommaaccent" unicode="&#x219;" horiz-adv-x="456" 
d="M226 -12c-72 0 -137 23 -184 63c-17 14 -26 33 -26 54c0 38 31 69 70 69c14 0 28 -4 46 -17c26 -18 61 -33 97 -33c24 0 44 5 44 22c0 12 -10 17 -29 25l-56 23c-91 37 -145 78 -145 161c0 100 79 158 194 158c55 0 114 -15 157 -44c21 -14 33 -36 33 -59
c0 -39 -31 -70 -69 -70c-14 0 -28 6 -40 13c-26 15 -52 24 -80 24c-22 0 -35 -5 -35 -19c0 -13 11 -18 34 -27l50 -20c89 -36 146 -73 146 -157c0 -105 -88 -166 -207 -166zM204 -276c-38 0 -75 32 -75 72c0 32 12 48 12 83c0 47 39 86 86 86s86 -39 86 -86
c0 -40 -16 -93 -49 -127c-18 -19 -38 -28 -60 -28z" />
    <glyph glyph-name="germandbls" unicode="&#xdf;" horiz-adv-x="675" 
d="M453 -12c-58 0 -112 12 -152 36c-23 14 -37 37 -37 62c0 38 31 69 70 69c9 0 19 -3 38 -10c30 -10 57 -16 76 -16c26 0 39 10 39 30c0 16 -7 22 -71 61c-72 44 -99 76 -99 119c0 16 7 44 18 70l29 67c8 21 13 49 13 63c0 44 -24 68 -67 68c-54 0 -84 -38 -84 -105v-427
c0 -50 -36 -87 -85 -87s-85 37 -85 87v435c0 160 96 252 261 252c142 0 232 -67 232 -172c0 -33 -6 -57 -19 -86l-32 -75c-9 -19 -14 -33 -14 -47c0 -25 8 -35 78 -79c66 -42 91 -82 91 -144c0 -105 -77 -171 -200 -171z" />
    <glyph glyph-name="uni0259" unicode="&#x259;" horiz-adv-x="568" 
d="M256 512c162 0 281 -111 281 -262c0 -149 -113 -262 -263 -262c-139 0 -243 101 -243 237v2c0 49 38 83 90 83h240c-18 38 -55 57 -111 57c-28 0 -61 -6 -87 -17c-12 -5 -21 -8 -31 -8c-38 0 -68 29 -68 67c0 28 13 49 43 66c43 24 95 37 149 37zM277 123
c44 0 77 29 90 75h-173c2 -43 36 -75 83 -75z" />
    <glyph glyph-name="t" unicode="t" horiz-adv-x="439" 
d="M343 142c46 0 76 -28 76 -71c0 -30 -15 -54 -38 -66c-21 -11 -44 -17 -75 -17c-143 0 -220 71 -220 203v165h-14c-41 0 -72 31 -72 72c0 42 31 72 72 72h14v45c0 50 36 87 86 87c49 0 86 -37 86 -87v-45h72c42 0 72 -30 72 -72c0 -41 -30 -72 -72 -72h-72v-148
c0 -48 23 -66 81 -66h4z" />
    <glyph glyph-name="tbar" unicode="&#x167;" horiz-adv-x="455" 
d="M353 142c46 0 76 -28 76 -71c0 -30 -15 -55 -38 -67c-21 -11 -48 -16 -85 -16c-140 0 -217 68 -220 195h-9c-38 0 -67 29 -67 67c0 39 29 67 67 67h9v47h-9c-38 0 -67 29 -67 67c0 39 29 67 67 67h9v47c0 50 36 87 86 87c49 0 86 -37 86 -87v-47h87c39 0 67 -28 67 -67
c0 -38 -28 -67 -67 -67h-87v-47h87c39 0 67 -28 67 -67c0 -38 -28 -67 -67 -67h-84c7 -29 31 -41 78 -41h14z" />
    <glyph glyph-name="tcaron" unicode="&#x165;" horiz-adv-x="439" 
d="M428 792c55 0 103 -54 79 -119l-33 -88c-8 -21 -27 -48 -70 -48c-42 0 -83 38 -75 91l14 90c5 36 38 74 85 74zM343 142c46 0 76 -28 76 -71c0 -30 -15 -54 -38 -66c-21 -11 -44 -17 -75 -17c-143 0 -220 71 -220 203v165h-14c-41 0 -72 31 -72 72c0 42 31 72 72 72h14
v45c0 50 36 87 86 87c49 0 86 -37 86 -87v-45h72c42 0 72 -30 72 -72c0 -41 -30 -72 -72 -72h-72v-148c0 -48 23 -66 81 -66h4z" />
    <glyph glyph-name="uni0163" unicode="&#x163;" horiz-adv-x="439" 
d="M343 142c46 0 76 -28 76 -71c0 -30 -15 -54 -38 -66c-11 -6 -22 -10 -35 -13c6 -16 9 -32 9 -47c0 -85 -64 -137 -167 -137c-33 0 -55 3 -71 10c-25 10 -37 28 -37 52c0 33 26 60 60 60h23c32 0 51 9 51 30c0 19 -8 33 -17 46c-73 29 -111 92 -111 185v165h-14
c-41 0 -72 31 -72 72c0 42 31 72 72 72h14v45c0 50 36 87 86 87c49 0 86 -37 86 -87v-45h72c42 0 72 -30 72 -72c0 -41 -30 -72 -72 -72h-72v-148c0 -48 23 -66 81 -66h4z" />
    <glyph glyph-name="u" unicode="u" horiz-adv-x="593" 
d="M297 -12c-145 0 -245 100 -245 245v192c0 50 37 87 86 87s86 -37 86 -87v-206c0 -42 31 -73 73 -73s72 31 72 73v206c0 50 36 87 86 87c49 0 86 -37 86 -87v-192c0 -145 -100 -245 -244 -245z" />
    <glyph glyph-name="uacute" unicode="&#xfa;" horiz-adv-x="593" 
d="M315 560c-50 4 -76 43 -73 82c1 14 6 27 11 38l37 86c13 31 49 49 78 49c52 0 86 -42 86 -87c0 -16 -5 -33 -15 -48l-56 -83c-17 -25 -44 -39 -68 -37zM297 -12c-145 0 -245 100 -245 245v192c0 50 37 87 86 87s86 -37 86 -87v-206c0 -42 31 -73 73 -73s72 31 72 73v206
c0 50 36 87 86 87c49 0 86 -37 86 -87v-192c0 -145 -100 -245 -244 -245z" />
    <glyph glyph-name="ubreve" unicode="&#x16d;" horiz-adv-x="593" 
d="M297 568c-99 0 -182 67 -182 146c0 38 28 67 64 67c33 0 53 -14 65 -46c10 -28 27 -42 53 -42s43 14 53 42c12 32 32 46 63 46c37 0 66 -30 66 -67c0 -79 -83 -146 -182 -146zM297 -12c-145 0 -245 100 -245 245v192c0 50 37 87 86 87s86 -37 86 -87v-206
c0 -42 31 -73 73 -73s72 31 72 73v206c0 50 36 87 86 87c49 0 86 -37 86 -87v-192c0 -145 -100 -245 -244 -245z" />
    <glyph glyph-name="uni01D4" unicode="&#x1d4;" horiz-adv-x="593" 
d="M233 597l-88 96c-14 15 -23 28 -23 49c0 38 31 60 61 60c15 0 28 -5 39 -15l75 -69l75 69c11 10 24 15 39 15c30 0 61 -22 61 -60c0 -21 -9 -34 -23 -49l-88 -96c-21 -23 -43 -29 -64 -29s-43 6 -64 29zM455 512c49 0 86 -37 86 -87v-192c0 -145 -100 -245 -244 -245
c-145 0 -245 100 -245 245v192c0 50 37 87 86 87s86 -37 86 -87v-206c0 -42 31 -73 73 -73s72 31 72 73v206c0 50 36 87 86 87z" />
    <glyph glyph-name="ucircumflex" unicode="&#xfb;" horiz-adv-x="593" 
d="M183 567c-30 0 -61 22 -61 60c0 21 9 34 23 49l88 96c21 23 43 29 64 29s43 -6 64 -29l88 -96c14 -15 23 -28 23 -49c0 -38 -31 -60 -61 -60c-15 0 -28 5 -39 15l-75 69l-75 -69c-11 -10 -24 -15 -39 -15zM455 512c49 0 86 -37 86 -87v-192c0 -145 -100 -245 -244 -245
c-145 0 -245 100 -245 245v192c0 50 37 87 86 87s86 -37 86 -87v-206c0 -42 31 -73 73 -73s72 31 72 73v206c0 50 36 87 86 87z" />
    <glyph glyph-name="udieresis" unicode="&#xfc;" horiz-adv-x="593" 
d="M169 771c56 0 98 -40 98 -94c0 -51 -44 -93 -98 -93c-51 0 -97 44 -97 93c0 52 44 94 97 94zM424 771c56 0 98 -40 98 -94c0 -51 -44 -93 -98 -93c-51 0 -97 44 -97 93c0 52 44 94 97 94zM297 -12c-145 0 -245 100 -245 245v192c0 50 37 87 86 87s86 -37 86 -87v-206
c0 -42 31 -73 73 -73s72 31 72 73v206c0 50 36 87 86 87c49 0 86 -37 86 -87v-192c0 -145 -100 -245 -244 -245z" />
    <glyph glyph-name="ugrave" unicode="&#xf9;" horiz-adv-x="593" 
d="M279 560c-24 -2 -51 12 -68 37l-56 83c-10 15 -15 32 -15 48c0 45 34 87 86 87c29 0 65 -18 78 -49l37 -86c5 -11 10 -24 11 -38c3 -39 -23 -78 -73 -82zM297 -12c-145 0 -245 100 -245 245v192c0 50 37 87 86 87s86 -37 86 -87v-206c0 -42 31 -73 73 -73s72 31 72 73
v206c0 50 36 87 86 87c49 0 86 -37 86 -87v-192c0 -145 -100 -245 -244 -245z" />
    <glyph glyph-name="uhungarumlaut" unicode="&#x171;" horiz-adv-x="593" 
d="M228 560c-50 4 -76 43 -73 82c1 14 6 27 11 38l37 86c13 31 49 49 78 49c52 0 86 -42 86 -87c0 -16 -5 -33 -15 -48l-56 -83c-17 -25 -44 -39 -68 -37zM440 560c-50 4 -76 43 -73 82c1 14 6 27 11 38l37 86c13 31 49 49 78 49c52 0 86 -42 86 -87c0 -16 -5 -33 -15 -48
l-56 -83c-17 -25 -44 -39 -68 -37zM297 -12c-145 0 -245 100 -245 245v192c0 50 37 87 86 87s86 -37 86 -87v-206c0 -42 31 -73 73 -73s72 31 72 73v206c0 50 36 87 86 87c49 0 86 -37 86 -87v-192c0 -145 -100 -245 -244 -245z" />
    <glyph glyph-name="umacron" unicode="&#x16b;" horiz-adv-x="593" 
d="M397 744c40 0 70 -29 70 -67s-30 -67 -70 -67h-200c-40 0 -70 29 -70 67s30 67 70 67h200zM297 -12c-145 0 -245 100 -245 245v192c0 50 37 87 86 87s86 -37 86 -87v-206c0 -42 31 -73 73 -73s72 31 72 73v206c0 50 36 87 86 87c49 0 86 -37 86 -87v-192
c0 -145 -100 -245 -244 -245z" />
    <glyph glyph-name="uni021B" unicode="&#x21b;" horiz-adv-x="439" 
d="M343 142c46 0 76 -28 76 -71c0 -30 -15 -54 -38 -66c-21 -11 -44 -17 -75 -17c-143 0 -220 71 -220 203v165h-14c-41 0 -72 31 -72 72c0 42 31 72 72 72h14v45c0 50 36 87 86 87c49 0 86 -37 86 -87v-45h72c42 0 72 -30 72 -72c0 -41 -30 -72 -72 -72h-72v-148
c0 -48 23 -66 81 -66h4zM231 -35c47 0 86 -39 86 -86c0 -40 -16 -93 -49 -127c-18 -19 -38 -28 -60 -28c-38 0 -75 32 -75 72c0 32 12 48 12 83c0 47 39 86 86 86z" />
    <glyph glyph-name="uogonek" unicode="&#x173;" horiz-adv-x="593" 
d="M455 512c49 0 86 -37 86 -87v-192c0 -77 -28 -141 -76 -185l-57 -59c-20 -20 -24 -30 -24 -42s9 -19 25 -19h3c31 0 51 -22 51 -54c0 -28 -17 -50 -48 -59c-18 -5 -38 -7 -63 -7c-78 0 -129 42 -129 108c0 27 10 51 30 75c-121 18 -201 112 -201 242v192
c0 50 37 87 86 87s86 -37 86 -87v-206c0 -42 31 -73 73 -73s72 31 72 73v206c0 50 36 87 86 87z" />
    <glyph glyph-name="uring" unicode="&#x16f;" horiz-adv-x="593" 
d="M296 804c79 0 137 -56 137 -131c0 -76 -58 -132 -137 -132c-78 0 -136 56 -136 132c0 75 58 131 136 131zM297 708c-20 0 -35 -14 -35 -35s15 -36 35 -36s35 16 35 36s-15 35 -35 35zM297 -12c-145 0 -245 100 -245 245v192c0 50 37 87 86 87s86 -37 86 -87v-206
c0 -42 31 -73 73 -73s72 31 72 73v206c0 50 36 87 86 87c49 0 86 -37 86 -87v-192c0 -145 -100 -245 -244 -245z" />
    <glyph glyph-name="utilde" unicode="&#x169;" horiz-adv-x="593" 
d="M385 568c-27 0 -55 8 -79 21l-29 16c-14 8 -24 16 -38 16c-16 0 -24 -7 -31 -25c-10 -24 -31 -38 -61 -38c-42 0 -67 27 -67 71c0 90 57 147 136 147c25 0 52 -10 73 -21l29 -15c15 -7 26 -16 42 -16c14 0 19 7 27 25c10 24 31 37 61 37c42 0 67 -27 67 -71
c0 -88 -54 -147 -130 -147zM297 -12c-145 0 -245 100 -245 245v192c0 50 37 87 86 87s86 -37 86 -87v-206c0 -42 31 -73 73 -73s72 31 72 73v206c0 50 36 87 86 87c49 0 86 -37 86 -87v-192c0 -145 -100 -245 -244 -245z" />
    <glyph glyph-name="v" unicode="v" horiz-adv-x="572" 
d="M471 512c45 0 83 -38 83 -83c0 -15 -4 -28 -15 -49l-173 -339c-17 -34 -47 -53 -80 -53s-62 19 -79 53l-174 339c-11 21 -15 34 -15 49c0 45 38 83 83 83c33 0 58 -14 75 -48l110 -220l110 220c17 34 42 48 75 48z" />
    <glyph glyph-name="w" unicode="w" horiz-adv-x="860" 
d="M765 512c46 0 83 -37 83 -83c0 -15 -4 -30 -11 -46l-165 -341c-17 -35 -44 -54 -78 -54s-61 19 -78 54l-86 185l-86 -185c-17 -35 -44 -54 -78 -54s-61 19 -78 54l-165 341c-7 16 -11 31 -11 46c0 46 37 83 83 83c32 0 60 -17 74 -45l101 -208l77 187c18 44 46 66 83 66
s65 -22 83 -66l77 -187l101 208c14 28 42 45 74 45z" />
    <glyph glyph-name="wacute" unicode="&#x1e83;" horiz-adv-x="860" 
d="M449 560c-50 4 -76 43 -73 82c1 14 6 27 11 38l37 86c13 31 49 49 78 49c52 0 86 -42 86 -87c0 -16 -5 -33 -15 -48l-56 -83c-17 -25 -44 -39 -68 -37zM765 512c46 0 83 -37 83 -83c0 -15 -4 -30 -11 -46l-165 -341c-17 -35 -44 -54 -78 -54s-61 19 -78 54l-86 185
l-86 -185c-17 -35 -44 -54 -78 -54s-61 19 -78 54l-165 341c-7 16 -11 31 -11 46c0 46 37 83 83 83c32 0 60 -17 74 -45l101 -208l77 187c18 44 46 66 83 66s65 -22 83 -66l77 -187l101 208c14 28 42 45 74 45z" />
    <glyph glyph-name="wcircumflex" unicode="&#x175;" horiz-adv-x="860" 
d="M317 567c-30 0 -61 22 -61 60c0 21 9 34 23 49l88 96c21 23 43 29 64 29s43 -6 64 -29l88 -96c14 -15 23 -28 23 -49c0 -38 -31 -60 -61 -60c-15 0 -28 5 -39 15l-75 69l-75 -69c-11 -10 -24 -15 -39 -15zM765 512c46 0 83 -37 83 -83c0 -15 -4 -30 -11 -46l-165 -341
c-17 -35 -44 -54 -78 -54s-61 19 -78 54l-86 185l-86 -185c-17 -35 -44 -54 -78 -54s-61 19 -78 54l-165 341c-7 16 -11 31 -11 46c0 46 37 83 83 83c32 0 60 -17 74 -45l101 -208l77 187c18 44 46 66 83 66s65 -22 83 -66l77 -187l101 208c14 28 42 45 74 45z" />
    <glyph glyph-name="wdieresis" unicode="&#x1e85;" horiz-adv-x="860" 
d="M303 584c-51 0 -97 44 -97 93c0 52 44 94 97 94c56 0 98 -40 98 -94c0 -51 -44 -93 -98 -93zM558 584c-51 0 -97 44 -97 93c0 52 44 94 97 94c56 0 98 -40 98 -94c0 -51 -44 -93 -98 -93zM765 512c46 0 83 -37 83 -83c0 -15 -4 -30 -11 -46l-165 -341
c-17 -35 -44 -54 -78 -54s-61 19 -78 54l-86 185l-86 -185c-17 -35 -44 -54 -78 -54s-61 19 -78 54l-165 341c-7 16 -11 31 -11 46c0 46 37 83 83 83c32 0 60 -17 74 -45l101 -208l77 187c18 44 46 66 83 66s65 -22 83 -66l77 -187l101 208c14 28 42 45 74 45z" />
    <glyph glyph-name="wgrave" unicode="&#x1e81;" horiz-adv-x="860" 
d="M345 597l-56 83c-10 15 -15 32 -15 48c0 45 34 87 86 87c29 0 65 -18 78 -49l37 -86c5 -11 10 -24 11 -38c3 -39 -23 -78 -73 -82c-24 -2 -51 12 -68 37zM765 512c46 0 83 -37 83 -83c0 -15 -4 -30 -11 -46l-165 -341c-17 -35 -44 -54 -78 -54s-61 19 -78 54l-86 185
l-86 -185c-17 -35 -44 -54 -78 -54s-61 19 -78 54l-165 341c-7 16 -11 31 -11 46c0 46 37 83 83 83c32 0 60 -17 74 -45l101 -208l77 187c18 44 46 66 83 66s65 -22 83 -66l77 -187l101 208c14 28 42 45 74 45z" />
    <glyph glyph-name="x" unicode="x" horiz-adv-x="553" 
d="M487 137c20 -25 29 -45 29 -66c0 -46 -37 -83 -83 -83c-28 0 -51 12 -71 37l-85 103l-86 -103c-20 -25 -44 -37 -71 -37c-46 0 -83 37 -83 83c0 21 9 41 29 66l98 117l-88 112c-21 27 -28 44 -28 63c0 46 37 83 83 83c27 0 50 -12 69 -36l77 -96l81 96c21 25 43 36 69 36
c46 0 83 -37 83 -83c0 -20 -9 -40 -28 -63l-92 -111z" />
    <glyph glyph-name="y" unicode="y" horiz-adv-x="572" 
d="M471 512c45 0 83 -38 83 -83c0 -12 -3 -25 -11 -41l-208 -415c-59 -117 -122 -165 -218 -165c-28 0 -52 5 -69 15c-24 13 -37 38 -37 65c0 43 34 74 77 74h3c39 0 64 12 82 51l14 31l-159 344c-8 16 -11 29 -11 41c0 45 38 83 83 83c33 0 62 -18 75 -48l109 -246l112 246
c13 29 42 48 75 48z" />
    <glyph glyph-name="yacute" unicode="&#xfd;" horiz-adv-x="572" 
d="M304 560c-50 4 -76 43 -73 82c1 14 6 27 11 38l37 86c13 31 49 49 78 49c52 0 86 -42 86 -87c0 -16 -5 -33 -15 -48l-56 -83c-17 -25 -44 -39 -68 -37zM471 512c45 0 83 -38 83 -83c0 -12 -3 -25 -11 -41l-208 -415c-59 -117 -122 -165 -218 -165c-28 0 -52 5 -69 15
c-24 13 -37 38 -37 65c0 43 34 74 77 74h3c39 0 64 12 82 51l14 31l-159 344c-8 16 -11 29 -11 41c0 45 38 83 83 83c33 0 62 -18 75 -48l109 -246l112 246c13 29 42 48 75 48z" />
    <glyph glyph-name="ycircumflex" unicode="&#x177;" horiz-adv-x="572" 
d="M172 567c-30 0 -61 22 -61 60c0 21 9 34 23 49l88 96c21 23 43 29 64 29s43 -6 64 -29l88 -96c14 -15 23 -28 23 -49c0 -38 -31 -60 -61 -60c-15 0 -28 5 -39 15l-75 69l-75 -69c-11 -10 -24 -15 -39 -15zM471 512c45 0 83 -38 83 -83c0 -12 -3 -25 -11 -41l-208 -415
c-59 -117 -122 -165 -218 -165c-28 0 -52 5 -69 15c-24 13 -37 38 -37 65c0 43 34 74 77 74h3c39 0 64 12 82 51l14 31l-159 344c-8 16 -11 29 -11 41c0 45 38 83 83 83c33 0 62 -18 75 -48l109 -246l112 246c13 29 42 48 75 48z" />
    <glyph glyph-name="ydieresis" unicode="&#xff;" horiz-adv-x="572" 
d="M158 584c-51 0 -97 44 -97 93c0 52 44 94 97 94c56 0 98 -40 98 -94c0 -51 -44 -93 -98 -93zM413 584c-51 0 -97 44 -97 93c0 52 44 94 97 94c56 0 98 -40 98 -94c0 -51 -44 -93 -98 -93zM471 512c45 0 83 -38 83 -83c0 -12 -3 -25 -11 -41l-208 -415
c-59 -117 -122 -165 -218 -165c-28 0 -52 5 -69 15c-24 13 -37 38 -37 65c0 43 34 74 77 74h3c39 0 64 12 82 51l14 31l-159 344c-8 16 -11 29 -11 41c0 45 38 83 83 83c33 0 62 -18 75 -48l109 -246l112 246c13 29 42 48 75 48z" />
    <glyph glyph-name="ygrave" unicode="&#x1ef3;" horiz-adv-x="572" 
d="M200 597l-56 83c-10 15 -15 32 -15 48c0 45 34 87 86 87c29 0 65 -18 78 -49l37 -86c5 -11 10 -24 11 -38c3 -39 -23 -78 -73 -82c-24 -2 -51 12 -68 37zM471 512c45 0 83 -38 83 -83c0 -12 -3 -25 -11 -41l-208 -415c-59 -117 -122 -165 -218 -165c-28 0 -52 5 -69 15
c-24 13 -37 38 -37 65c0 43 34 74 77 74h3c39 0 64 12 82 51l14 31l-159 344c-8 16 -11 29 -11 41c0 45 38 83 83 83c33 0 62 -18 75 -48l109 -246l112 246c13 29 42 48 75 48z" />
    <glyph glyph-name="z" unicode="z" horiz-adv-x="478" 
d="M406 144c42 0 72 -30 72 -72c0 -41 -30 -72 -72 -72h-321c-40 0 -72 31 -72 71c0 22 7 37 27 60l197 225h-142c-41 0 -72 31 -72 72c0 42 31 72 72 72h301c41 0 72 -30 72 -70c0 -22 -6 -38 -21 -55l-197 -231h156z" />
    <glyph glyph-name="zacute" unicode="&#x17a;" horiz-adv-x="478" 
d="M257 560c-50 4 -76 43 -73 82c1 14 6 27 11 38l37 86c13 31 49 49 78 49c52 0 86 -42 86 -87c0 -16 -5 -33 -15 -48l-56 -83c-17 -25 -44 -39 -68 -37zM406 144c42 0 72 -30 72 -72c0 -41 -30 -72 -72 -72h-321c-40 0 -72 31 -72 71c0 22 7 37 27 60l197 225h-142
c-41 0 -72 31 -72 72c0 42 31 72 72 72h301c41 0 72 -30 72 -70c0 -22 -6 -38 -21 -55l-197 -231h156z" />
    <glyph glyph-name="zcaron" unicode="&#x17e;" horiz-adv-x="478" 
d="M175 597l-88 96c-14 15 -23 28 -23 49c0 38 31 60 61 60c15 0 28 -5 39 -15l75 -69l75 69c11 10 24 15 39 15c30 0 61 -22 61 -60c0 -21 -9 -34 -23 -49l-88 -96c-21 -23 -43 -29 -64 -29s-43 6 -64 29zM406 144c42 0 72 -30 72 -72c0 -41 -30 -72 -72 -72h-321
c-40 0 -72 31 -72 71c0 22 7 37 27 60l197 225h-142c-41 0 -72 31 -72 72c0 42 31 72 72 72h301c41 0 72 -30 72 -70c0 -22 -6 -38 -21 -55l-197 -231h156z" />
    <glyph glyph-name="zdotaccent" unicode="&#x17c;" horiz-adv-x="478" 
d="M238 579c-56 0 -102 43 -102 98c0 56 46 99 102 99s103 -43 103 -99c0 -55 -47 -98 -103 -98zM406 144c42 0 72 -30 72 -72c0 -41 -30 -72 -72 -72h-321c-40 0 -72 31 -72 71c0 22 7 37 27 60l197 225h-142c-41 0 -72 31 -72 72c0 42 31 72 72 72h301c41 0 72 -30 72 -70
c0 -22 -6 -38 -21 -55l-197 -231h156z" />
    <glyph glyph-name="iacute_j.loclNLD" horiz-adv-x="568" 
d="M172 569c-50 -5 -82 29 -86 68c-2 14 1 28 4 39l21 91c8 33 40 57 69 62c51 9 92 -26 100 -71c2 -15 0 -33 -7 -49l-41 -92c-12 -27 -36 -46 -60 -48zM456 569c-50 -5 -82 29 -86 68c-2 14 1 28 4 39l21 91c8 33 40 57 69 62c51 9 92 -26 100 -71c2 -15 0 -33 -7 -49
l-41 -92c-12 -27 -36 -46 -60 -48zM142 -12c-49 0 -86 37 -86 87v350c0 50 36 87 86 87c49 0 86 -37 86 -87v-350c0 -50 -36 -87 -86 -87zM312 -192c-30 0 -51 5 -68 13c-29 14 -45 36 -45 67c0 43 31 74 73 74h3c51 0 65 18 65 86v377c0 50 36 87 86 87c49 0 86 -37 86 -87
v-414c0 -128 -74 -203 -200 -203z" />
    <glyph glyph-name="cacute.loclPLK" horiz-adv-x="553" 
d="M336 569c-50 -9 -85 22 -92 61c-3 13 -1 27 1 39l13 93c5 33 35 60 63 67c50 14 94 -18 105 -61c5 -16 4 -34 -2 -51l-32 -94c-10 -29 -33 -49 -56 -54zM304 -12c-154 0 -273 115 -273 262s119 262 273 262c81 0 163 -39 200 -96c11 -17 16 -31 16 -46
c0 -42 -34 -76 -76 -76c-26 0 -45 8 -59 25c-19 23 -47 35 -79 35c-60 0 -99 -41 -99 -104s39 -104 99 -104c30 0 57 12 79 35c18 18 35 25 59 25c42 0 76 -34 76 -76c0 -16 -4 -29 -13 -43c-43 -64 -115 -99 -203 -99z" />
    <glyph glyph-name="nacute.loclPLK" horiz-adv-x="597" 
d="M311 569c-50 -9 -85 22 -92 61c-3 13 -1 27 1 39l13 93c5 33 35 60 63 67c50 14 94 -18 105 -61c5 -16 4 -34 -2 -51l-32 -94c-10 -29 -33 -49 -56 -54zM354 512c116 0 191 -80 191 -204v-233c0 -50 -37 -87 -86 -87s-86 37 -86 87v208c0 44 -30 74 -73 74
s-72 -30 -72 -74v-208c0 -50 -37 -87 -86 -87s-86 37 -86 87v350c0 50 36 87 84 87c35 0 63 -20 76 -50c35 31 84 50 138 50z" />
    <glyph glyph-name="oacute.loclPLK" horiz-adv-x="607" 
d="M336 569c-50 -9 -85 22 -92 61c-3 13 -1 27 1 39l13 93c5 33 35 60 63 67c50 14 94 -18 105 -61c5 -16 4 -34 -2 -51l-32 -94c-10 -29 -33 -49 -56 -54zM303 512c153 0 273 -116 273 -262s-120 -262 -273 -262s-272 115 -272 262s119 262 272 262zM304 354
c-57 0 -97 -42 -97 -104s39 -104 97 -104c56 0 96 44 96 104s-41 104 -96 104z" />
    <glyph glyph-name="sacute.loclPLK" horiz-adv-x="456" 
d="M266 569c-50 -9 -85 22 -92 61c-3 13 -1 27 1 39l13 93c5 33 35 60 63 67c50 14 94 -18 105 -61c5 -16 4 -34 -2 -51l-32 -94c-10 -29 -33 -49 -56 -54zM226 -12c-72 0 -137 23 -184 63c-17 14 -26 33 -26 54c0 38 31 69 70 69c14 0 28 -4 46 -17c26 -18 61 -33 97 -33
c24 0 44 5 44 22c0 12 -10 17 -29 25l-56 23c-91 37 -145 78 -145 161c0 100 79 158 194 158c55 0 114 -15 157 -44c21 -14 33 -36 33 -59c0 -39 -31 -70 -69 -70c-14 0 -28 6 -40 13c-26 15 -52 24 -80 24c-22 0 -35 -5 -35 -19c0 -13 11 -18 34 -27l50 -20
c89 -36 146 -73 146 -157c0 -105 -88 -166 -207 -166z" />
    <glyph glyph-name="zacute.loclPLK" horiz-adv-x="478" 
d="M271 569c-50 -9 -85 22 -92 61c-3 13 -1 27 1 39l13 93c5 33 35 60 63 67c50 14 94 -18 105 -61c5 -16 4 -34 -2 -51l-32 -94c-10 -29 -33 -49 -56 -54zM406 144c42 0 72 -30 72 -72c0 -41 -30 -72 -72 -72h-321c-40 0 -72 31 -72 71c0 22 7 37 27 60l197 225h-142
c-41 0 -72 31 -72 72c0 42 31 72 72 72h301c41 0 72 -30 72 -70c0 -22 -6 -38 -21 -55l-197 -231h156z" />
    <glyph glyph-name="i.loclTRK.loclTRK" horiz-adv-x="284" 
d="M141 776c56 0 103 -43 103 -99c0 -55 -47 -98 -103 -98s-102 43 -102 98c0 56 46 99 102 99zM142 -12c-49 0 -86 37 -86 87v350c0 50 36 87 86 87c49 0 86 -37 86 -87v-350c0 -50 -36 -87 -86 -87z" />
    <glyph glyph-name="c.ordn" horiz-adv-x="364" 
d="M199 237c-99 0 -176 72 -176 166s77 166 176 166c49 0 100 -24 128 -60c9 -11 13 -23 13 -36c0 -31 -25 -56 -55 -56c-17 0 -30 10 -43 20c-14 11 -27 16 -42 16c-29 0 -47 -19 -47 -50s18 -50 47 -50c15 0 28 5 42 16c13 10 26 20 43 20c30 0 55 -25 55 -56
c0 -13 -4 -25 -13 -36c-29 -35 -79 -60 -128 -60z" />
    <glyph glyph-name="d.ordn" horiz-adv-x="414" 
d="M309 722c36 0 63 -27 63 -64v-357c0 -37 -27 -64 -63 -64c-24 0 -44 12 -55 30c-19 -21 -45 -31 -80 -31c-89 0 -151 68 -151 166s63 167 151 167c29 0 53 -7 71 -22v111c0 37 27 64 64 64zM200 351c28 0 47 21 47 51c0 31 -19 52 -47 52s-47 -21 -47 -51
c0 -31 19 -52 47 -52z" />
    <glyph glyph-name="e.ordn" horiz-adv-x="372" 
d="M349 424c0 -32 -24 -56 -57 -56h-146c10 -22 29 -32 61 -32c16 0 32 3 50 10c14 5 21 8 28 8c27 0 49 -22 49 -50c0 -20 -11 -37 -31 -46c-26 -13 -66 -22 -99 -22c-104 0 -181 71 -181 167c0 94 75 166 172 166c87 0 154 -62 154 -142v-3zM189 476
c-24 0 -40 -14 -47 -39h92c-3 25 -20 39 -45 39z" />
    <glyph glyph-name="egrave.ordn" horiz-adv-x="372" 
d="M143 621l-42 51c-8 10 -12 21 -12 33c0 30 24 60 57 60c15 0 39 -5 53 -31l30 -57c4 -7 6 -15 6 -23c0 -26 -19 -53 -52 -53c-5 0 -25 1 -40 20zM349 424c0 -32 -24 -56 -57 -56h-146c10 -22 29 -32 61 -32c16 0 32 3 50 10c14 5 21 8 28 8c27 0 49 -22 49 -50
c0 -20 -11 -37 -31 -46c-26 -13 -66 -22 -99 -22c-104 0 -181 71 -181 167c0 94 75 166 172 166c87 0 154 -62 154 -142v-3zM189 476c-24 0 -40 -14 -47 -39h92c-3 25 -20 39 -45 39z" />
    <glyph glyph-name="g.ordn" horiz-adv-x="414" 
d="M309 569c36 0 63 -27 63 -64v-209c0 -106 -69 -173 -177 -173c-48 0 -92 12 -122 30c-22 13 -33 30 -33 51c0 31 25 56 56 56c13 0 24 -5 37 -12c16 -9 31 -12 52 -12c39 0 60 18 60 51v15c-18 -15 -42 -22 -74 -22c-89 0 -148 57 -148 144s59 145 149 145
c36 0 63 -10 82 -30c11 18 31 30 55 30zM200 377c28 0 47 20 47 48s-19 47 -47 47s-47 -18 -47 -47s19 -48 47 -48z" />
    <glyph glyph-name="h.ordn" horiz-adv-x="406" 
d="M247 569c72 0 120 -53 120 -131v-138c0 -37 -27 -64 -63 -64c-37 0 -64 27 -64 64v119c0 21 -15 36 -37 36c-21 0 -34 -14 -34 -36v-119c0 -37 -27 -64 -63 -64c-37 0 -64 27 -64 64v358c0 37 27 64 64 64c36 0 63 -27 63 -64v-114c22 16 49 25 78 25z" />
    <glyph glyph-name="i.ordn" horiz-adv-x="211" 
d="M104 741c42 0 77 -31 77 -73c0 -41 -35 -72 -77 -72c-41 0 -75 31 -75 72c0 42 34 73 75 73zM106 569c36 0 63 -27 63 -64v-205c0 -37 -27 -64 -63 -64c-37 0 -64 27 -64 64v205c0 37 27 64 64 64z" />
    <glyph glyph-name="l.ordn" horiz-adv-x="211" 
d="M106 722c36 0 63 -27 63 -64v-358c0 -37 -27 -64 -63 -64c-37 0 -64 27 -64 64v358c0 37 27 64 64 64z" />
    <glyph glyph-name="m.ordn" horiz-adv-x="599" 
d="M435 569c77 0 125 -51 125 -131v-138c0 -37 -27 -64 -63 -64c-37 0 -64 27 -64 64v119c0 22 -14 36 -36 36c-21 0 -32 -13 -32 -37v-118c0 -37 -27 -64 -63 -64c-37 0 -64 27 -64 64v119c0 22 -14 36 -36 36c-21 0 -33 -13 -33 -36v-119c0 -37 -27 -64 -63 -64
c-37 0 -64 27 -64 64v205c0 37 28 64 64 64c23 0 42 -11 53 -28c22 18 50 28 83 28c37 0 68 -13 90 -36c26 23 63 36 103 36z" />
    <glyph glyph-name="n.ordn" horiz-adv-x="406" 
d="M244 569c75 0 123 -51 123 -131v-138c0 -37 -27 -64 -63 -64c-37 0 -64 27 -64 64v119c0 21 -15 36 -37 36c-21 0 -34 -14 -34 -36v-119c0 -37 -27 -64 -63 -64c-37 0 -64 27 -64 64v205c0 37 28 64 64 64c23 0 42 -11 53 -29c23 18 52 29 85 29z" />
    <glyph glyph-name="r.ordn" horiz-adv-x="277" 
d="M223 569c35 0 58 -23 58 -58c0 -34 -20 -56 -54 -59c-42 -4 -58 -25 -58 -74v-78c0 -37 -27 -64 -63 -64c-37 0 -64 27 -64 64v205c0 37 28 64 64 64c23 0 43 -11 54 -30c16 20 38 30 63 30z" />
    <glyph glyph-name="s.ordn" horiz-adv-x="294" 
d="M145 236c-44 0 -89 14 -116 36c-14 11 -21 24 -21 40c0 26 21 47 48 47c9 0 16 -3 23 -6c24 -11 45 -21 69 -21c12 0 17 3 17 10c0 5 -3 7 -14 11l-32 11c-69 23 -96 51 -96 100c0 65 49 106 126 106c40 0 76 -10 100 -28c16 -11 24 -25 24 -41c0 -27 -21 -48 -47 -48
c-9 0 -17 2 -24 6c-16 9 -35 15 -48 15c-10 0 -15 -3 -15 -10c0 -5 3 -7 15 -11l32 -10c70 -22 96 -48 96 -96c0 -67 -55 -111 -137 -111z" />
    <glyph glyph-name="y.ss01.ordn" horiz-adv-x="410" 
d="M305 569c36 0 63 -27 63 -64v-205c0 -110 -66 -177 -174 -177c-48 0 -90 10 -118 26c-25 14 -37 33 -37 55c0 31 25 56 53 56c14 0 24 -4 33 -8c19 -9 37 -16 59 -16c38 0 57 18 57 56v13c-21 -16 -48 -25 -77 -25c-72 0 -121 53 -121 131v94c0 37 28 64 64 64
s63 -27 63 -64v-75c0 -21 15 -36 37 -36c20 0 34 14 34 36v75c0 37 27 64 64 64z" />
    <glyph glyph-name="t.ordn" horiz-adv-x="295" 
d="M227 350c30 0 55 -24 55 -56c0 -19 -8 -34 -22 -44s-32 -14 -59 -14c-97 0 -147 47 -147 137v83h-3c-31 0 -54 23 -54 53s23 53 54 53h3v15c0 37 27 64 64 64c36 0 63 -27 63 -64v-15h37c31 0 54 -23 54 -53s-23 -53 -54 -53h-37v-70c0 -24 14 -36 42 -36h4z" />
    <glyph glyph-name="u.ordn" horiz-adv-x="403" 
d="M301 569c36 0 63 -27 63 -64v-107c0 -95 -66 -162 -162 -162s-163 66 -163 162v107c0 37 28 64 64 64s63 -27 63 -64v-117c0 -20 15 -35 36 -35c20 0 35 15 35 35v117c0 37 27 64 64 64z" />
    <glyph glyph-name="uacute.ordn" horiz-adv-x="403" 
d="M208 601c-33 0 -52 27 -52 53c0 8 2 16 6 23l30 57c14 26 38 31 53 31c33 0 57 -30 57 -60c0 -12 -4 -23 -12 -33l-42 -51c-15 -19 -35 -20 -40 -20zM301 569c36 0 63 -27 63 -64v-107c0 -95 -66 -162 -162 -162s-163 66 -163 162v107c0 37 28 64 64 64s63 -27 63 -64
v-117c0 -20 15 -35 36 -35c20 0 35 15 35 35v117c0 37 27 64 64 64z" />
    <glyph glyph-name="y.ordn" horiz-adv-x="375" 
d="M300 569c34 0 62 -28 62 -62c0 -12 -2 -21 -8 -31l-115 -241c-37 -78 -86 -112 -159 -112c-18 0 -33 4 -44 12c-15 10 -23 27 -23 45c0 31 25 56 57 56h3c22 0 37 10 49 34l-85 205c-5 12 -7 22 -7 32c0 34 28 62 62 62c28 0 49 -15 59 -43l43 -123l47 123
c10 27 31 43 59 43z" />
    <glyph glyph-name="z.ordn" horiz-adv-x="318" 
d="M265 350c31 0 54 -23 54 -53s-23 -53 -54 -53h-202c-31 0 -54 23 -54 53c0 15 6 26 20 43l106 116h-68c-31 0 -54 23 -54 53s23 53 54 53h188c31 0 54 -23 54 -53c0 -15 -6 -26 -20 -43l-104 -116h80z" />
    <glyph glyph-name="a.ss01" horiz-adv-x="627" 
d="M488 512c48 0 83 -37 83 -86v-352c0 -49 -35 -86 -83 -86c-38 0 -68 23 -79 57c-32 -37 -78 -57 -138 -57c-140 0 -240 108 -240 261s100 263 240 263c59 0 106 -20 138 -57c11 34 41 57 79 57zM305 144c58 0 97 43 97 105c0 63 -40 107 -97 107s-98 -44 -98 -106
c0 -63 40 -106 98 -106z" />
    <glyph glyph-name="aacute.ss01" horiz-adv-x="627" 
d="M330 560c-50 4 -76 43 -73 82c1 14 6 27 11 38l37 86c13 31 49 49 78 49c52 0 86 -42 86 -87c0 -16 -5 -33 -15 -48l-56 -83c-17 -25 -44 -39 -68 -37zM488 512c48 0 83 -37 83 -86v-352c0 -49 -35 -86 -83 -86c-38 0 -68 23 -79 57c-32 -37 -78 -57 -138 -57
c-140 0 -240 108 -240 261s100 263 240 263c59 0 106 -20 138 -57c11 34 41 57 79 57zM305 144c58 0 97 43 97 105c0 63 -40 107 -97 107s-98 -44 -98 -106c0 -63 40 -106 98 -106z" />
    <glyph glyph-name="abreve.ss01" horiz-adv-x="627" 
d="M312 568c-99 0 -182 67 -182 146c0 38 28 67 64 67c33 0 53 -14 65 -46c10 -28 27 -42 53 -42s43 14 53 42c12 32 32 46 63 46c37 0 66 -30 66 -67c0 -79 -83 -146 -182 -146zM488 512c48 0 83 -37 83 -86v-352c0 -49 -35 -86 -83 -86c-38 0 -68 23 -79 57
c-32 -37 -78 -57 -138 -57c-140 0 -240 108 -240 261s100 263 240 263c59 0 106 -20 138 -57c11 34 41 57 79 57zM305 144c58 0 97 43 97 105c0 63 -40 107 -97 107s-98 -44 -98 -106c0 -63 40 -106 98 -106z" />
    <glyph glyph-name="acircumflex.ss01" horiz-adv-x="627" 
d="M198 567c-30 0 -61 22 -61 60c0 21 9 34 23 49l88 96c21 23 43 29 64 29s43 -6 64 -29l88 -96c14 -15 23 -28 23 -49c0 -38 -31 -60 -61 -60c-15 0 -28 5 -39 15l-75 69l-75 -69c-11 -10 -24 -15 -39 -15zM488 512c48 0 83 -37 83 -86v-352c0 -49 -35 -86 -83 -86
c-38 0 -68 23 -79 57c-32 -37 -78 -57 -138 -57c-140 0 -240 108 -240 261s100 263 240 263c59 0 106 -20 138 -57c11 34 41 57 79 57zM305 144c58 0 97 43 97 105c0 63 -40 107 -97 107s-98 -44 -98 -106c0 -63 40 -106 98 -106z" />
    <glyph glyph-name="adieresis.ss01" horiz-adv-x="627" 
d="M184 584c-51 0 -97 44 -97 93c0 52 44 94 97 94c56 0 98 -40 98 -94c0 -51 -44 -93 -98 -93zM439 584c-51 0 -97 44 -97 93c0 52 44 94 97 94c56 0 98 -40 98 -94c0 -51 -44 -93 -98 -93zM488 512c48 0 83 -37 83 -86v-352c0 -49 -35 -86 -83 -86c-38 0 -68 23 -79 57
c-32 -37 -78 -57 -138 -57c-140 0 -240 108 -240 261s100 263 240 263c59 0 106 -20 138 -57c11 34 41 57 79 57zM305 144c58 0 97 43 97 105c0 63 -40 107 -97 107s-98 -44 -98 -106c0 -63 40 -106 98 -106z" />
    <glyph glyph-name="agrave.ss01" horiz-adv-x="627" 
d="M226 597l-56 83c-10 15 -15 32 -15 48c0 45 34 87 86 87c29 0 65 -18 78 -49l37 -86c5 -11 10 -24 11 -38c3 -39 -23 -78 -73 -82c-24 -2 -51 12 -68 37zM488 512c48 0 83 -37 83 -86v-352c0 -49 -35 -86 -83 -86c-38 0 -68 23 -79 57c-32 -37 -78 -57 -138 -57
c-140 0 -240 108 -240 261s100 263 240 263c59 0 106 -20 138 -57c11 34 41 57 79 57zM305 144c58 0 97 43 97 105c0 63 -40 107 -97 107s-98 -44 -98 -106c0 -63 40 -106 98 -106z" />
    <glyph glyph-name="amacron.ss01" horiz-adv-x="627" 
d="M212 610c-40 0 -70 29 -70 67s30 67 70 67h200c40 0 70 -29 70 -67s-30 -67 -70 -67h-200zM488 512c48 0 83 -37 83 -86v-352c0 -49 -35 -86 -83 -86c-38 0 -68 23 -79 57c-32 -37 -78 -57 -138 -57c-140 0 -240 108 -240 261s100 263 240 263c59 0 106 -20 138 -57
c11 34 41 57 79 57zM305 144c58 0 97 43 97 105c0 63 -40 107 -97 107s-98 -44 -98 -106c0 -63 40 -106 98 -106z" />
    <glyph glyph-name="aogonek.ss01" horiz-adv-x="627" 
d="M535 -72c31 0 51 -22 51 -54c0 -28 -17 -51 -48 -59c-18 -5 -38 -7 -63 -7c-78 0 -129 42 -129 108c0 43 19 77 66 120l-3 9c-32 -37 -78 -57 -138 -57c-140 0 -240 108 -240 261s100 263 240 263c59 0 106 -20 138 -57c11 34 41 57 79 57c48 0 83 -37 83 -86v-352
c0 -4 0 -8 -1 -11c1 -2 1 -5 1 -7c0 -15 -6 -30 -17 -42c-28 -28 -47 -50 -47 -67c0 -12 9 -19 25 -19h3zM305 144c58 0 97 43 97 105c0 63 -40 107 -97 107s-98 -44 -98 -106c0 -63 40 -106 98 -106z" />
    <glyph glyph-name="aring.ss01" horiz-adv-x="627" 
d="M311 541c-78 0 -136 56 -136 132c0 75 58 131 136 131c79 0 137 -56 137 -131c0 -76 -58 -132 -137 -132zM312 708c-20 0 -35 -14 -35 -35s15 -36 35 -36s35 16 35 36s-15 35 -35 35zM488 512c48 0 83 -37 83 -86v-352c0 -49 -35 -86 -83 -86c-38 0 -68 23 -79 57
c-32 -37 -78 -57 -138 -57c-140 0 -240 108 -240 261s100 263 240 263c59 0 106 -20 138 -57c11 34 41 57 79 57zM305 144c58 0 97 43 97 105c0 63 -40 107 -97 107s-98 -44 -98 -106c0 -63 40 -106 98 -106z" />
    <glyph glyph-name="atilde.ss01" horiz-adv-x="627" 
d="M162 558c-42 0 -67 27 -67 71c0 90 57 147 136 147c25 0 52 -10 73 -21l29 -15c15 -7 26 -16 42 -16c14 0 19 7 27 25c10 24 31 37 61 37c42 0 67 -27 67 -71c0 -88 -54 -147 -130 -147c-27 0 -55 8 -79 21l-29 16c-14 8 -24 16 -38 16c-16 0 -24 -7 -31 -25
c-10 -24 -31 -38 -61 -38zM488 512c48 0 83 -37 83 -86v-352c0 -49 -35 -86 -83 -86c-38 0 -68 23 -79 57c-32 -37 -78 -57 -138 -57c-140 0 -240 108 -240 261s100 263 240 263c59 0 106 -20 138 -57c11 34 41 57 79 57zM305 144c58 0 97 43 97 105c0 63 -40 107 -97 107
s-98 -44 -98 -106c0 -63 40 -106 98 -106z" />
    <glyph glyph-name="y.ss01" horiz-adv-x="600" 
d="M458 512c49 0 86 -37 86 -87v-358c0 -159 -94 -259 -252 -259c-74 0 -146 21 -194 50c-31 18 -46 40 -46 68c0 43 34 77 77 77c13 0 26 -4 43 -13c31 -17 61 -28 98 -28c58 0 102 24 102 89v18c-34 -30 -79 -47 -130 -47c-112 0 -187 82 -187 204v199c0 50 37 87 86 87
s86 -37 86 -87v-174c0 -44 30 -74 73 -74s72 30 72 74v174c0 50 36 87 86 87z" />
    <glyph glyph-name="yacute.ss01" horiz-adv-x="600" 
d="M318 560c-50 4 -76 43 -73 82c1 14 6 27 11 38l37 86c13 31 49 49 78 49c52 0 86 -42 86 -87c0 -16 -5 -33 -15 -48l-56 -83c-17 -25 -44 -39 -68 -37zM458 512c49 0 86 -37 86 -87v-358c0 -159 -94 -259 -252 -259c-74 0 -146 21 -194 50c-31 18 -46 40 -46 68
c0 43 34 77 77 77c13 0 26 -4 43 -13c31 -17 61 -28 98 -28c58 0 102 24 102 89v18c-34 -30 -79 -47 -130 -47c-112 0 -187 82 -187 204v199c0 50 37 87 86 87s86 -37 86 -87v-174c0 -44 30 -74 73 -74s72 30 72 74v174c0 50 36 87 86 87z" />
    <glyph glyph-name="ycircumflex.ss01" horiz-adv-x="600" 
d="M186 567c-30 0 -61 22 -61 60c0 21 9 34 23 49l88 96c21 23 43 29 64 29s43 -6 64 -29l88 -96c14 -15 23 -28 23 -49c0 -38 -31 -60 -61 -60c-15 0 -28 5 -39 15l-75 69l-75 -69c-11 -10 -24 -15 -39 -15zM458 512c49 0 86 -37 86 -87v-358c0 -159 -94 -259 -252 -259
c-74 0 -146 21 -194 50c-31 18 -46 40 -46 68c0 43 34 77 77 77c13 0 26 -4 43 -13c31 -17 61 -28 98 -28c58 0 102 24 102 89v18c-34 -30 -79 -47 -130 -47c-112 0 -187 82 -187 204v199c0 50 37 87 86 87s86 -37 86 -87v-174c0 -44 30 -74 73 -74s72 30 72 74v174
c0 50 36 87 86 87z" />
    <glyph glyph-name="ydieresis.ss01" horiz-adv-x="600" 
d="M172 584c-51 0 -97 44 -97 93c0 52 44 94 97 94c56 0 98 -40 98 -94c0 -51 -44 -93 -98 -93zM427 584c-51 0 -97 44 -97 93c0 52 44 94 97 94c56 0 98 -40 98 -94c0 -51 -44 -93 -98 -93zM458 512c49 0 86 -37 86 -87v-358c0 -159 -94 -259 -252 -259
c-74 0 -146 21 -194 50c-31 18 -46 40 -46 68c0 43 34 77 77 77c13 0 26 -4 43 -13c31 -17 61 -28 98 -28c58 0 102 24 102 89v18c-34 -30 -79 -47 -130 -47c-112 0 -187 82 -187 204v199c0 50 37 87 86 87s86 -37 86 -87v-174c0 -44 30 -74 73 -74s72 30 72 74v174
c0 50 36 87 86 87z" />
    <glyph glyph-name="ygrave.ss01" horiz-adv-x="600" 
d="M214 597l-56 83c-10 15 -15 32 -15 48c0 45 34 87 86 87c29 0 65 -18 78 -49l37 -86c5 -11 10 -24 11 -38c3 -39 -23 -78 -73 -82c-24 -2 -51 12 -68 37zM458 512c49 0 86 -37 86 -87v-358c0 -159 -94 -259 -252 -259c-74 0 -146 21 -194 50c-31 18 -46 40 -46 68
c0 43 34 77 77 77c13 0 26 -4 43 -13c31 -17 61 -28 98 -28c58 0 102 24 102 89v18c-34 -30 -79 -47 -130 -47c-112 0 -187 82 -187 204v199c0 50 37 87 86 87s86 -37 86 -87v-174c0 -44 30 -74 73 -74s72 30 72 74v174c0 50 36 87 86 87z" />
    <glyph glyph-name="ordfeminine" unicode="&#xaa;" horiz-adv-x="376" 
d="M185 569c97 0 152 -52 152 -144v-125c0 -37 -27 -64 -63 -64c-23 0 -43 11 -54 28c-22 -18 -51 -28 -85 -28c-65 0 -109 41 -109 102c0 60 47 94 128 94h56v5c0 18 -14 28 -40 28c-15 0 -29 -4 -46 -12c-15 -7 -22 -9 -30 -9c-29 0 -52 23 -52 52c0 19 11 36 33 48
c33 18 64 25 110 25zM177 322c20 0 33 14 33 35v8h-33c-14 0 -23 -8 -23 -21c0 -14 8 -22 23 -22z" />
    <glyph glyph-name="ordmasculine" unicode="&#xba;" horiz-adv-x="396" 
d="M198 569c98 0 175 -73 175 -166c0 -94 -77 -167 -175 -167c-99 0 -175 73 -175 167s76 166 175 166zM198 453c-29 0 -47 -19 -47 -50s18 -50 47 -50s47 20 47 50s-18 50 -47 50z" />
    <glyph glyph-name="ordfeminine.ss01" horiz-adv-x="414" 
d="M314 569c33 0 58 -25 58 -58v-217c0 -33 -25 -58 -58 -58c-26 0 -47 15 -55 38c-18 -26 -47 -38 -85 -38c-89 0 -151 68 -151 166s63 167 151 167c38 0 67 -12 85 -38c8 23 29 38 55 38zM200 351c28 0 47 21 47 51c0 31 -19 52 -47 52s-47 -21 -47 -51
c0 -31 19 -52 47 -52z" />
    <glyph glyph-name="uni0410" unicode="&#x410;" horiz-adv-x="660" 
d="M619 112c6 -15 9 -30 9 -42c0 -47 -36 -82 -85 -82c-37 0 -65 21 -81 62l-14 35h-236l-14 -35c-16 -41 -44 -62 -81 -62c-49 0 -85 35 -85 82c0 12 3 27 9 42l207 503c15 37 43 57 82 57s67 -20 82 -57zM330 416l-67 -193h134z" />
    <glyph glyph-name="uni0411" unicode="&#x411;" horiz-adv-x="624" 
d="M445 660c46 0 79 -33 79 -77c0 -45 -34 -78 -79 -78h-207v-106h136c133 0 223 -79 223 -196c0 -119 -92 -203 -223 -203h-221c-50 0 -87 37 -87 87v486c0 50 37 87 87 87h292zM363 261h-125v-116h125c42 0 66 21 66 58s-24 58 -66 58z" />
    <glyph glyph-name="uni0412" unicode="&#x412;" horiz-adv-x="623" 
d="M486 354c69 -28 110 -83 110 -158c0 -114 -94 -196 -223 -196h-221c-50 0 -87 37 -87 87v486c0 50 37 87 87 87h151c130 0 223 -81 223 -195c0 -44 -14 -82 -40 -111zM292 515h-62v-116h62c40 0 66 22 66 58s-26 58 -66 58zM362 145c42 0 66 21 66 58s-24 58 -66 58h-132
v-116h132z" />
    <glyph glyph-name="uni0413" unicode="&#x413;" horiz-adv-x="535" 
d="M442 660c46 0 79 -33 79 -77c0 -45 -34 -78 -79 -78h-204v-430c0 -50 -37 -87 -86 -87s-86 37 -86 87v498c0 50 37 87 87 87h289z" />
    <glyph glyph-name="uni0403" unicode="&#x403;" horiz-adv-x="535" 
d="M309 714c-65 0 -89 70 -67 112l44 84c20 38 56 45 77 45c69 0 107 -84 66 -136l-61 -75c-22 -28 -51 -30 -59 -30zM442 660c46 0 79 -33 79 -77c0 -45 -34 -78 -79 -78h-204v-430c0 -50 -37 -87 -86 -87s-86 37 -86 87v498c0 50 37 87 87 87h289z" />
    <glyph glyph-name="uni0490" unicode="&#x490;" horiz-adv-x="505" 
d="M395 793c49 0 86 -37 86 -87v-114c0 -50 -37 -87 -87 -87h-156v-430c0 -50 -37 -87 -86 -87s-86 37 -86 87v498c0 50 37 87 87 87h156v46c0 50 36 87 86 87z" />
    <glyph glyph-name="uni0414" unicode="&#x414;" horiz-adv-x="751" 
d="M644 155c50 0 87 -37 87 -87v-134c0 -50 -37 -87 -86 -87s-86 37 -86 87v66h-367v-66c0 -50 -37 -87 -86 -87s-86 37 -86 87v134c0 44 28 78 69 85c75 90 107 205 107 378v42c0 50 37 87 87 87h268c50 0 87 -37 87 -87v-418h6zM359 505c-3 -151 -34 -266 -96 -350h203
v350h-107z" />
    <glyph glyph-name="uni0415" unicode="&#x415;" horiz-adv-x="577" 
d="M152 0c-50 0 -87 37 -87 87v486c0 50 37 87 87 87h302c46 0 79 -33 79 -77c0 -45 -34 -78 -79 -78h-217v-91h138c42 0 73 -31 73 -72s-31 -72 -73 -72h-138v-115h229c46 0 79 -33 79 -77c0 -45 -34 -78 -79 -78h-314z" />
    <glyph glyph-name="uni0400" unicode="&#x400;" horiz-adv-x="576" 
d="M270 714c-8 0 -37 2 -59 30l-61 75c-41 52 -3 136 66 136c21 0 57 -7 77 -45l44 -84c22 -42 -2 -112 -67 -112zM152 0c-50 0 -87 37 -87 87v486c0 50 37 87 87 87h302c46 0 79 -33 79 -77c0 -45 -34 -78 -79 -78h-217v-91h138c42 0 73 -31 73 -72s-31 -72 -73 -72h-138
v-115h229c46 0 79 -33 79 -77c0 -45 -34 -78 -79 -78h-314z" />
    <glyph glyph-name="uni0401" unicode="&#x401;" horiz-adv-x="576" 
d="M150 724c-49 0 -97 44 -97 93c0 54 48 94 97 94c54 0 98 -40 98 -94c0 -49 -44 -93 -98 -93zM425 723c-49 0 -97 44 -97 93c0 54 48 94 97 94c54 0 98 -40 98 -94c0 -49 -44 -93 -98 -93zM152 0c-50 0 -87 37 -87 87v486c0 50 37 87 87 87h302c46 0 79 -33 79 -77
c0 -45 -34 -78 -79 -78h-217v-91h138c42 0 73 -31 73 -72s-31 -72 -73 -72h-138v-115h229c46 0 79 -33 79 -77c0 -45 -34 -78 -79 -78h-314z" />
    <glyph glyph-name="uni0416" unicode="&#x416;" horiz-adv-x="1046" 
d="M182 640l203 -240c14 -17 21 -35 21 -53c0 -24 -8 -40 -21 -56l-209 -268c-17 -22 -42 -35 -68 -35c-43 0 -82 39 -82 82c0 16 6 32 19 49l181 227l-166 191c-15 18 -22 35 -22 55c0 44 36 80 78 80c27 0 47 -10 66 -32zM523 672c50 0 86 -37 86 -87v-510
c0 -50 -37 -87 -86 -87s-86 37 -86 87v510c0 50 37 87 86 87zM1001 119c13 -17 19 -33 19 -49c0 -43 -38 -82 -82 -82c-26 0 -51 13 -68 35l-209 268c-13 17 -20 37 -20 56s7 38 20 53l203 240c19 22 39 32 66 32c42 0 78 -36 78 -80c0 -20 -7 -37 -22 -55l-167 -191z" />
    <glyph glyph-name="uni0417" unicode="&#x417;" horiz-adv-x="592" 
d="M475 342c54 -30 85 -80 85 -145c0 -122 -109 -209 -261 -209c-95 0 -176 35 -230 100c-12 15 -19 33 -19 49c0 43 35 78 78 78c21 0 39 -8 55 -24c32 -30 71 -45 115 -45c58 0 94 23 94 61c0 33 -26 54 -66 54h-66c-40 0 -70 29 -70 69s30 69 70 69h36c39 0 66 23 66 56
c0 35 -31 59 -75 59c-35 0 -69 -15 -99 -45c-15 -15 -34 -23 -55 -23c-43 0 -77 34 -77 77c0 16 6 33 17 49c49 62 130 100 215 100c136 0 242 -90 242 -205c0 -50 -20 -94 -55 -125z" />
    <glyph glyph-name="uni0418" unicode="&#x418;" horiz-adv-x="725" 
d="M577 672c48 0 84 -38 84 -87v-510c0 -50 -37 -87 -86 -87s-86 37 -86 87v284l-265 -334c-20 -25 -44 -37 -72 -37c-48 0 -86 38 -86 87v510c0 50 37 87 86 87s86 -37 86 -87v-291l250 323c22 28 42 55 89 55z" />
    <glyph glyph-name="uni0419" unicode="&#x419;" horiz-adv-x="725" 
d="M357 723c-91 0 -179 67 -179 141c0 37 27 65 64 65c25 0 43 -12 63 -43c16 -25 31 -35 52 -35s38 11 52 35c18 30 37 43 63 43c37 0 64 -28 64 -65c0 -73 -89 -141 -179 -141zM577 672c48 0 84 -38 84 -87v-510c0 -50 -37 -87 -86 -87s-86 37 -86 87v284l-265 -334
c-20 -25 -44 -37 -72 -37c-48 0 -86 38 -86 87v510c0 50 37 87 86 87s86 -37 86 -87v-291l250 323c22 28 42 55 89 55z" />
    <glyph glyph-name="uni040D" unicode="&#x40d;" horiz-adv-x="725" 
d="M280 744l-61 75c-41 52 -3 136 66 136c21 0 57 -7 77 -45l44 -84c22 -42 -2 -112 -67 -112c-8 0 -37 2 -59 30zM577 672c48 0 84 -38 84 -87v-510c0 -50 -37 -87 -86 -87s-86 37 -86 87v284l-265 -334c-20 -25 -44 -37 -72 -37c-48 0 -86 38 -86 87v510c0 50 37 87 86 87
s86 -37 86 -87v-291l250 323c22 28 42 55 89 55z" />
    <glyph glyph-name="uni041A" unicode="&#x41a;" horiz-adv-x="685" 
d="M152 672c49 0 86 -37 86 -87v-510c0 -50 -37 -87 -86 -87s-86 37 -86 87v510c0 50 36 87 86 87zM630 119c13 -17 19 -33 19 -49c0 -43 -38 -82 -82 -82c-26 0 -51 13 -68 35l-209 268c-14 17 -21 36 -21 57c0 17 7 36 21 52l208 246c16 18 35 26 61 26
c42 0 78 -36 78 -80c0 -20 -7 -37 -22 -55l-162 -191z" />
    <glyph glyph-name="uni040C" unicode="&#x40c;" horiz-adv-x="685" 
d="M367 714c-65 0 -89 70 -67 112l44 84c20 38 56 45 77 45c69 0 107 -84 66 -136l-61 -75c-22 -28 -51 -30 -59 -30zM152 672c49 0 86 -37 86 -87v-510c0 -50 -37 -87 -86 -87s-86 37 -86 87v510c0 50 36 87 86 87zM630 119c13 -17 19 -33 19 -49c0 -43 -38 -82 -82 -82
c-26 0 -51 13 -68 35l-209 268c-14 17 -21 36 -21 57c0 17 7 36 21 52l208 246c16 18 35 26 61 26c42 0 78 -36 78 -80c0 -20 -7 -37 -22 -55l-162 -191z" />
    <glyph glyph-name="uni041B" unicode="&#x41b;" horiz-adv-x="669" 
d="M518 660c50 0 87 -37 87 -87v-498c0 -50 -37 -87 -86 -87s-86 37 -86 87v430h-127c-3 -264 -47 -404 -150 -480c-34 -25 -66 -37 -104 -37c-46 0 -78 30 -78 75c0 37 20 64 54 76c86 31 115 127 115 382v52c0 50 37 87 87 87h288z" />
    <glyph glyph-name="uni041C" unicode="&#x41c;" horiz-adv-x="802" 
d="M651 672c50 0 86 -38 86 -89v-508c0 -50 -37 -87 -86 -87s-86 37 -86 87v231l-86 -137c-24 -38 -46 -53 -78 -53s-54 15 -78 53l-86 137v-231c0 -50 -37 -87 -86 -87s-86 37 -86 87v508c0 51 36 89 86 89c35 0 59 -17 87 -63l163 -262l163 262c28 46 52 63 87 63z" />
    <glyph glyph-name="uni041D" unicode="&#x41d;" horiz-adv-x="715" 
d="M151 -12c-49 0 -86 38 -86 89v506c0 51 36 89 86 89s86 -38 86 -89v-164h241v166c0 51 36 87 86 87s86 -36 86 -87v-508c0 -51 -37 -89 -86 -89s-86 38 -86 89v187h-241v-187c0 -51 -37 -89 -86 -89z" />
    <glyph glyph-name="uni041E" unicode="&#x41e;" horiz-adv-x="776" 
d="M387 672c200 0 357 -151 357 -342c0 -192 -157 -342 -357 -342s-355 150 -355 342s156 342 355 342zM388 514c-107 0 -180 -75 -180 -184c0 -110 72 -184 180 -184c106 0 180 76 180 184c0 107 -75 184 -180 184z" />
    <glyph glyph-name="uni041F" unicode="&#x41f;" horiz-adv-x="695" 
d="M151 -12c-49 0 -86 37 -86 87v498c0 50 37 87 87 87h391c50 0 87 -37 87 -87v-498c0 -50 -37 -87 -86 -87s-86 37 -86 87v430h-221v-430c0 -50 -37 -87 -86 -87z" />
    <glyph glyph-name="uni0420" unicode="&#x420;" horiz-adv-x="606" 
d="M151 -12c-49 0 -86 37 -86 87v498c0 50 37 87 87 87h172c151 0 255 -92 255 -227c0 -133 -106 -228 -255 -228h-87v-130c0 -50 -37 -87 -86 -87zM237 355h88c48 0 79 31 79 78c0 46 -31 77 -79 77h-88v-155z" />
    <glyph glyph-name="uni0421" unicode="&#x421;" horiz-adv-x="723" 
d="M388 -12c-201 0 -356 149 -356 342s156 342 357 342c101 0 196 -41 254 -110c16 -18 25 -39 25 -61c0 -43 -35 -78 -79 -78c-24 0 -46 11 -66 32c-37 40 -81 59 -135 59c-106 0 -180 -76 -180 -185s73 -183 180 -183c52 0 95 19 134 59c20 21 42 32 66 32
c44 0 79 -35 79 -78c0 -19 -8 -39 -25 -61c-58 -69 -153 -110 -254 -110z" />
    <glyph glyph-name="uni0422" unicode="&#x422;" horiz-adv-x="588" 
d="M294 -12c-49 0 -86 37 -86 87v430h-129c-45 0 -79 33 -79 78c0 44 34 77 79 77h430c46 0 79 -33 79 -77c0 -45 -34 -78 -79 -78h-129v-430c0 -50 -37 -87 -86 -87z" />
    <glyph glyph-name="uni0423" unicode="&#x423;" horiz-adv-x="644" 
d="M527 672c50 0 90 -41 90 -92c0 -14 -4 -27 -13 -47l-187 -395c-48 -102 -125 -150 -245 -150c-34 0 -58 5 -76 16c-27 16 -40 37 -40 65c0 46 33 77 82 77h3c51 0 83 13 103 43l-192 344c-8 15 -13 33 -13 49c0 50 41 90 90 90c35 0 64 -19 84 -56l127 -240l103 240
c14 34 47 56 84 56z" />
    <glyph glyph-name="uni040E" unicode="&#x40e;" horiz-adv-x="644" 
d="M319 723c-91 0 -179 67 -179 141c0 37 27 65 64 65c25 0 43 -12 63 -43c16 -25 31 -35 52 -35s38 11 52 35c18 30 37 43 63 43c37 0 64 -28 64 -65c0 -73 -89 -141 -179 -141zM527 672c50 0 90 -41 90 -92c0 -14 -4 -27 -13 -47l-187 -395c-48 -102 -125 -150 -245 -150
c-34 0 -58 5 -76 16c-27 16 -40 37 -40 65c0 46 33 77 82 77h3c51 0 83 13 103 43l-192 344c-8 15 -13 33 -13 49c0 50 41 90 90 90c35 0 64 -19 84 -56l127 -240l103 240c14 34 47 56 84 56z" />
    <glyph glyph-name="uni0424" unicode="&#x424;" horiz-adv-x="864" 
d="M832 336c0 -172 -124 -285 -314 -287v-26c0 -50 -37 -87 -86 -87s-86 37 -86 87v26c-190 3 -314 116 -314 287c0 170 122 280 314 283v20c0 50 36 87 86 87c49 0 86 -37 86 -87v-20c193 -2 314 -111 314 -283zM198 331c0 -87 53 -136 148 -137v280
c-93 -1 -148 -55 -148 -143zM518 194c95 1 148 50 148 137c0 88 -55 142 -148 143v-280z" />
    <glyph glyph-name="uni0425" unicode="&#x425;" horiz-adv-x="622" 
d="M563 129c16 -23 23 -41 23 -60c0 -43 -40 -81 -86 -81c-27 0 -53 13 -70 37l-119 167l-119 -167c-17 -24 -42 -37 -71 -37c-46 0 -85 38 -85 83c0 20 8 40 25 63l143 200l-130 191c-17 24 -25 47 -25 68c0 43 38 79 84 79c31 0 54 -12 73 -39l105 -155l111 154
c18 26 44 40 73 40c46 0 84 -36 84 -80c0 -23 -8 -46 -27 -71l-134 -187z" />
    <glyph glyph-name="uni0427" unicode="&#x427;" horiz-adv-x="656" 
d="M506 672c49 0 86 -37 86 -87v-510c0 -50 -37 -87 -86 -87s-86 37 -86 87v125c-32 -8 -66 -12 -100 -12c-175 0 -288 105 -288 268v129c0 50 36 87 86 87c49 0 86 -37 86 -87v-112c0 -79 47 -127 123 -127c28 0 61 6 93 17v222c0 50 36 87 86 87z" />
    <glyph glyph-name="uni0426" unicode="&#x426;" horiz-adv-x="744" 
d="M545 672c49 0 86 -37 86 -87v-430h6c50 0 87 -37 87 -87v-134c0 -50 -37 -87 -86 -87s-86 37 -86 87v66h-399c-50 0 -87 37 -87 87v498c0 50 37 87 86 87s86 -37 86 -87v-430h221v430c0 50 36 87 86 87z" />
    <glyph glyph-name="uni0428" unicode="&#x428;" horiz-adv-x="1046" 
d="M896 672c49 0 86 -37 86 -87v-498c0 -50 -37 -87 -87 -87h-742c-50 0 -87 37 -87 87v498c0 50 37 87 86 87s86 -37 86 -87v-430h200v430c0 50 37 87 86 87s86 -37 86 -87v-430h200v430c0 50 36 87 86 87z" />
    <glyph glyph-name="uni0429" unicode="&#x429;" horiz-adv-x="1095" 
d="M896 672c49 0 86 -37 86 -87v-430h6c50 0 87 -37 87 -87v-134c0 -50 -37 -87 -86 -87s-86 37 -86 87v66h-750c-50 0 -87 37 -87 87v498c0 50 37 87 86 87s86 -37 86 -87v-430h200v430c0 50 37 87 86 87s86 -37 86 -87v-430h200v430c0 50 36 87 86 87z" />
    <glyph glyph-name="uni040F" unicode="&#x40f;" horiz-adv-x="695" 
d="M545 672c49 0 86 -37 86 -87v-498c0 -50 -37 -87 -87 -87h-109v-66c0 -50 -37 -87 -86 -87s-86 37 -86 87v66h-110c-50 0 -87 37 -87 87v498c0 50 37 87 86 87s86 -37 86 -87v-430h221v430c0 50 36 87 86 87z" />
    <glyph glyph-name="uni042C" unicode="&#x42c;" horiz-adv-x="628" 
d="M152 672c49 0 86 -37 86 -87v-130h104c149 0 255 -95 255 -228c0 -135 -104 -227 -255 -227h-189c-50 0 -87 37 -87 87v498c0 50 36 87 86 87zM343 305h-105v-155h105c48 0 79 31 79 77c0 47 -31 78 -79 78z" />
    <glyph glyph-name="uni042A" unicode="&#x42a;" horiz-adv-x="652" 
d="M177 0c-50 0 -87 37 -87 87v418h-31c-45 0 -79 33 -79 78c0 44 34 77 79 77h116c50 0 87 -37 87 -87v-118h104c149 0 255 -95 255 -228c0 -135 -104 -227 -255 -227h-189zM262 150h105c48 0 79 31 79 77c0 47 -31 78 -79 78h-105v-155z" />
    <glyph glyph-name="uni042B" unicode="&#x42b;" horiz-adv-x="930" 
d="M152 672c49 0 86 -37 86 -87v-130h104c149 0 255 -95 255 -228c0 -135 -104 -227 -255 -227h-189c-50 0 -87 37 -87 87v498c0 50 36 87 86 87zM779 -12c-50 0 -86 37 -86 87v510c0 50 36 87 86 87s86 -37 86 -87v-510c0 -50 -36 -87 -86 -87zM343 305h-105v-155h105
c48 0 79 31 79 77c0 47 -31 78 -79 78z" />
    <glyph glyph-name="uni0409" unicode="&#x409;" horiz-adv-x="995" 
d="M709 455c149 0 255 -95 255 -228c0 -135 -104 -227 -255 -227h-189c-50 0 -87 37 -87 87v418h-127c-3 -264 -47 -404 -150 -480c-34 -25 -66 -37 -104 -37c-46 0 -78 30 -78 75c0 37 20 64 54 76c86 30 115 127 115 382v52c0 50 37 87 87 87h288c50 0 87 -37 87 -87v-118
h104zM710 150c48 0 79 31 79 77c0 47 -31 78 -79 78h-105v-155h105z" />
    <glyph glyph-name="uni040A" unicode="&#x40a;" horiz-adv-x="1031" 
d="M152 -12c-49 0 -86 37 -86 87v510c0 50 37 87 86 87s86 -37 86 -87v-166h231v166c0 50 36 87 86 87c49 0 86 -37 86 -87v-130h104c149 0 255 -95 255 -228c0 -135 -104 -227 -255 -227h-189c-50 0 -87 37 -87 87v177h-231v-189c0 -50 -37 -87 -86 -87zM641 150h105
c48 0 79 31 79 77c0 47 -31 78 -79 78h-105v-155z" />
    <glyph glyph-name="uni0405" unicode="&#x405;" 
d="M286 -12c-73 0 -160 29 -207 73c-22 21 -35 44 -35 70c1 46 38 76 77 76c13 0 27 -4 39 -12c15 -10 57 -56 126 -56c46 0 68 16 68 48c0 31 -21 41 -67 61l-68 30c-105 46 -167 106 -167 199c0 118 100 195 231 195c116 1 172 -57 188 -76c15 -17 20 -35 20 -51
c0 -44 -39 -77 -77 -77c-14 0 -29 4 -44 15c-22 15 -41 38 -85 38c-34 0 -59 -12 -59 -42c0 -25 16 -37 57 -54l76 -32c110 -46 169 -102 169 -199c0 -130 -106 -206 -242 -206z" />
    <glyph glyph-name="uni0404" unicode="&#x404;" horiz-adv-x="723" 
d="M588 237c44 0 79 -35 79 -78c0 -19 -8 -39 -25 -61c-58 -69 -153 -110 -254 -110c-201 0 -356 149 -356 342s156 342 357 342c101 0 196 -41 254 -110c16 -18 25 -39 25 -61c0 -43 -35 -78 -79 -78c-24 0 -46 11 -66 32c-37 40 -81 59 -135 59c-75 0 -135 -39 -163 -100
h175c45 0 74 -31 74 -72s-29 -72 -74 -72h-184c21 -76 86 -124 172 -124c52 0 95 19 134 59c20 21 42 32 66 32z" />
    <glyph glyph-name="uni042D" unicode="&#x42d;" horiz-adv-x="723" 
d="M334 672c201 0 357 -149 357 -342s-155 -342 -356 -342c-101 0 -196 41 -254 110c-17 22 -25 42 -25 61c0 43 35 78 79 78c24 0 46 -11 66 -32c39 -40 82 -59 134 -59c86 0 151 48 172 124h-184c-45 0 -74 31 -74 72s29 72 74 72h175c-28 61 -88 100 -163 100
c-54 0 -98 -19 -135 -59c-20 -21 -42 -32 -66 -32c-44 0 -79 35 -79 78c0 22 9 43 25 61c58 69 153 110 254 110z" />
    <glyph glyph-name="uni0406" unicode="&#x406;" horiz-adv-x="302" 
d="M152 672c49 0 86 -37 86 -87v-510c0 -50 -37 -87 -86 -87s-86 37 -86 87v510c0 50 36 87 86 87z" />
    <glyph glyph-name="uni0407" unicode="&#x407;" horiz-adv-x="302" 
d="M14 724c-49 0 -97 44 -97 93c0 54 48 94 97 94c54 0 98 -40 98 -94c0 -49 -44 -93 -98 -93zM289 723c-49 0 -97 44 -97 93c0 54 48 94 97 94c54 0 98 -40 98 -94c0 -49 -44 -93 -98 -93zM152 672c49 0 86 -37 86 -87v-510c0 -50 -37 -87 -86 -87s-86 37 -86 87v510
c0 50 36 87 86 87z" />
    <glyph glyph-name="uni0408" unicode="&#x408;" horiz-adv-x="398" 
d="M103 -12c-25 0 -45 3 -60 10c-28 13 -46 41 -46 70c0 41 34 74 78 74c13 0 26 -1 37 -1c29 0 49 19 49 46v398c0 50 36 87 86 87s86 -37 86 -87v-394c0 -135 -77 -203 -230 -203z" />
    <glyph glyph-name="uni040B" unicode="&#x40b;" horiz-adv-x="802" 
d="M474 422c166 0 273 -110 273 -281v-66c0 -50 -37 -87 -86 -87s-86 37 -86 87v59c0 91 -36 130 -119 130c-24 0 -50 -3 -76 -10v-179c0 -50 -37 -87 -86 -87s-86 37 -86 87v430h-129c-45 0 -79 33 -79 78c0 44 34 77 79 77h430c46 0 79 -33 79 -77c0 -45 -34 -78 -79 -78
h-129v-95c32 8 63 12 94 12z" />
    <glyph glyph-name="uni042E" unicode="&#x42e;" horiz-adv-x="1048" 
d="M661 672c198 0 355 -151 355 -342s-157 -342 -355 -342c-173 0 -311 115 -341 276h-82v-189c0 -50 -37 -87 -86 -87s-86 37 -86 87v510c0 50 36 87 86 87c49 0 86 -37 86 -87v-166h87c38 148 171 253 336 253zM661 146c104 0 179 77 179 184s-75 184 -179 184
s-179 -77 -179 -184s75 -184 179 -184z" />
    <glyph glyph-name="uni042F" unicode="&#x42f;" horiz-adv-x="648" 
d="M497 660c50 0 87 -37 87 -87v-498c0 -50 -37 -87 -86 -87s-86 37 -86 87v98h-69c-14 0 -27 1 -40 2l-96 -154c-15 -24 -39 -33 -65 -33c-47 0 -85 38 -85 85c0 20 9 39 20 56l72 110c-50 44 -79 106 -79 179c0 143 112 242 273 242h154zM412 323v187h-72
c-56 0 -95 -38 -95 -93c0 -56 39 -94 95 -94h72z" />
    <glyph glyph-name="uni0402" unicode="&#x402;" horiz-adv-x="775" 
d="M293 -12c-50 0 -85 37 -85 88v429h-129c-45 0 -79 33 -79 78c0 44 34 77 79 77h430c46 0 79 -33 79 -77c0 -45 -34 -78 -79 -78h-129v-82h109c151 0 255 -89 255 -220c0 -87 -57 -165 -148 -203c-22 -9 -36 -12 -54 -12c-47 0 -84 35 -84 75c0 46 31 66 61 84
c27 16 50 34 50 68s-29 58 -77 58h-112v-197c0 -51 -37 -88 -87 -88z" />
    <glyph glyph-name="uni0462" unicode="&#x462;" horiz-adv-x="628" 
d="M346 413c155 0 251 -80 251 -209c0 -128 -95 -204 -255 -204h-189c-50 0 -87 37 -87 87v386h-16c-40 0 -70 30 -70 70s30 69 70 69h15v25c0 51 36 89 86 89s87 -38 87 -88v-26h194c40 0 70 -29 70 -69s-30 -70 -70 -70h-194v-60h108zM347 150c46 0 75 22 75 57
s-29 58 -75 58h-109v-115h109z" />
    <glyph glyph-name="uni0472" unicode="&#x472;" horiz-adv-x="776" 
d="M387 672c200 0 357 -151 357 -342c0 -192 -157 -342 -357 -342s-355 150 -355 342s156 342 355 342zM387 514c-74 0 -132 -37 -161 -97c25 10 50 15 76 15c65 0 106 -29 172 -29c26 0 49 5 74 15c-28 59 -87 96 -161 96zM387 146c87 0 154 51 174 129
c-30 -14 -57 -20 -87 -20c-66 0 -107 29 -172 29c-29 0 -56 -6 -85 -19c23 -73 86 -119 170 -119z" />
    <glyph glyph-name="uni0474" unicode="&#x474;" horiz-adv-x="675" 
d="M601 672c56 0 93 -33 93 -80c0 -35 -19 -65 -52 -74c-7 -2 -12 -3 -17 -5c-20 -8 -29 -17 -45 -57l-166 -408c-16 -38 -43 -60 -80 -60s-64 22 -80 60l-210 490c-8 19 -12 36 -12 49c0 47 38 85 85 85c38 0 64 -18 80 -57l137 -335l100 260c35 92 81 132 167 132z" />
    <glyph glyph-name="uni0492" unicode="&#x492;" horiz-adv-x="524" 
d="M427 505h-177v-126h125c46 0 79 -33 79 -77c0 -45 -34 -78 -79 -78h-125v-149c0 -50 -37 -87 -86 -87s-86 37 -86 87v149h-19c-45 0 -79 33 -79 78c0 44 34 77 79 77h19v194c0 50 37 87 87 87h262c46 0 79 -33 79 -77c0 -45 -34 -78 -79 -78z" />
    <glyph glyph-name="uni0496" unicode="&#x496;" horiz-adv-x="1054" 
d="M182 640l203 -240c14 -17 21 -35 21 -53c0 -21 -6 -38 -21 -56l-209 -268c-17 -22 -42 -35 -68 -35c-43 0 -82 39 -82 82c0 16 6 32 19 49l181 227l-166 191c-15 18 -22 35 -22 55c0 44 36 80 78 80c27 0 47 -10 66 -32zM523 672c50 0 86 -37 86 -87v-510
c0 -50 -37 -87 -86 -87s-86 37 -86 87v510c0 50 37 87 86 87zM957 155c50 0 87 -37 87 -87v-134c0 -50 -36 -87 -86 -87c-49 0 -86 37 -86 87v57c-19 5 -36 16 -45 32l-163 264c-15 24 -22 44 -22 63c0 20 7 37 24 56l208 240c16 18 35 26 61 26c42 0 78 -36 78 -80
c0 -21 -7 -38 -22 -55l-177 -199l120 -183h23z" />
    <glyph glyph-name="uni0498" unicode="&#x498;" horiz-adv-x="592" 
d="M560 197c0 -89 -58 -159 -148 -191c9 -20 15 -41 15 -61c0 -85 -64 -137 -167 -137c-33 0 -55 3 -71 10c-25 10 -37 28 -37 52c0 33 26 60 60 60h23c32 0 51 9 51 30c0 11 -3 20 -6 28c-87 5 -161 39 -211 100c-12 15 -19 33 -19 49c0 43 35 78 78 78c21 0 39 -8 55 -24
c32 -30 71 -45 115 -45c58 0 94 23 94 61c0 33 -26 54 -66 54h-66c-40 0 -70 29 -70 69s30 69 70 69h36c39 0 66 23 66 56c0 35 -31 59 -75 59c-35 0 -69 -15 -99 -45c-15 -15 -34 -23 -55 -23c-43 0 -77 34 -77 77c0 16 6 33 17 49c49 62 130 100 215 100
c136 0 242 -90 242 -205c0 -50 -20 -94 -55 -125c54 -30 85 -80 85 -145z" />
    <glyph glyph-name="uni049A" unicode="&#x49a;" horiz-adv-x="703" 
d="M152 672c49 0 86 -37 86 -87v-510c0 -50 -37 -87 -86 -87s-86 37 -86 87v510c0 50 36 87 86 87zM606 155c50 0 87 -37 87 -87v-134c0 -50 -36 -87 -86 -87c-49 0 -86 37 -86 87v55c-16 2 -37 10 -53 34l-176 263c-15 23 -22 43 -22 63s7 38 23 57l197 240
c19 24 42 26 61 26c43 0 78 -37 78 -80c0 -17 -4 -34 -22 -55l-164 -196l131 -186h32z" />
    <glyph glyph-name="uni04A0" unicode="&#x4a0;" horiz-adv-x="712" 
d="M671 117c13 -17 19 -33 19 -49c0 -43 -38 -82 -82 -82c-26 0 -51 13 -68 35l-209 268c-14 17 -21 36 -21 57c0 17 7 36 21 52l208 246c16 18 35 26 61 26c42 0 78 -36 78 -80c0 -20 -7 -37 -22 -55l-162 -191zM191 660c50 0 87 -37 87 -87v-498c0 -50 -37 -87 -86 -87
s-86 37 -86 87v430h-37c-45 0 -79 33 -79 78c0 44 34 77 79 77h122z" />
    <glyph glyph-name="uni04A2" unicode="&#x4a2;" horiz-adv-x="764" 
d="M565 672c49 0 86 -37 86 -87v-430h6c50 0 87 -37 87 -87v-134c0 -50 -37 -87 -86 -87s-86 37 -86 87v66h-6c-50 0 -87 37 -87 87v177h-241v-189c0 -50 -37 -87 -86 -87s-86 37 -86 87v510c0 50 37 87 86 87s86 -37 86 -87v-166h241v166c0 50 36 87 86 87z" />
    <glyph glyph-name="uni04AA" unicode="&#x4aa;" horiz-adv-x="723" 
d="M588 237c44 0 79 -35 79 -78c0 -19 -8 -39 -25 -61c-36 -43 -87 -76 -145 -94c9 -19 14 -40 14 -59c0 -85 -64 -137 -167 -137c-33 0 -55 3 -71 10c-25 10 -37 28 -37 52c0 33 26 60 60 60h23c32 0 51 9 51 30c0 11 -3 20 -7 29c-188 11 -331 156 -331 341
c0 193 156 342 357 342c101 0 196 -41 254 -110c16 -18 25 -39 25 -61c0 -43 -35 -78 -79 -78c-24 0 -46 11 -66 32c-37 40 -81 59 -135 59c-106 0 -180 -76 -180 -185s73 -183 180 -183c52 0 95 19 134 59c20 21 42 32 66 32z" />
    <glyph glyph-name="uni04AE" unicode="&#x4ae;" horiz-adv-x="630" 
d="M591 591c0 -19 -5 -36 -17 -55l-173 -286v-175c0 -50 -37 -87 -86 -87s-86 37 -86 87v175l-173 286c-12 19 -17 36 -17 55c0 46 36 81 83 81c36 0 62 -16 80 -50l113 -204l113 204c18 33 44 50 80 50c47 0 83 -35 83 -81z" />
    <glyph glyph-name="uni04B0" unicode="&#x4b0;" horiz-adv-x="652" 
d="M513 288c45 0 79 -32 79 -77s-34 -78 -79 -78h-101v-58c0 -50 -37 -87 -86 -87s-86 37 -86 87v58h-101c-45 0 -79 33 -79 78c0 44 34 77 79 77h78l-150 248c-12 19 -17 36 -17 55c0 46 36 81 83 81c36 0 62 -16 80 -50l113 -204l113 204c18 33 44 50 80 50
c47 0 83 -35 83 -81c0 -19 -5 -36 -17 -55l-150 -248h78z" />
    <glyph glyph-name="uni04B2" unicode="&#x4b2;" horiz-adv-x="641" 
d="M564 155c50 0 87 -37 87 -87v-134c0 -50 -36 -87 -86 -87c-49 0 -86 37 -86 87v57c-19 5 -36 16 -49 34l-119 167l-119 -167c-17 -24 -42 -37 -71 -37c-46 0 -85 38 -85 83c0 20 8 40 25 63l143 200l-130 191c-17 24 -25 47 -25 68c0 43 38 79 84 79c31 0 54 -12 73 -39
l105 -155l111 154c18 26 44 40 73 40c46 0 84 -36 84 -80c0 -23 -8 -46 -27 -71l-134 -187l127 -179h19z" />
    <glyph glyph-name="uni04B6" unicode="&#x4b6;" horiz-adv-x="705" 
d="M598 155c50 0 87 -37 87 -87v-134c0 -50 -37 -87 -86 -87s-86 37 -86 87v66h-6c-50 0 -87 37 -87 87v113c-30 -7 -63 -12 -100 -12c-165 0 -288 95 -288 268v129c0 50 36 87 86 87c49 0 86 -37 86 -87v-112c0 -82 50 -127 123 -127c28 0 61 7 93 18v221c0 50 36 87 86 87
c49 0 86 -37 86 -87v-430h6z" />
    <glyph glyph-name="uni04BA" unicode="&#x4ba;" horiz-adv-x="660" 
d="M332 462c166 0 273 -110 273 -281v-106c0 -50 -37 -87 -86 -87s-86 37 -86 87v99c0 91 -36 130 -119 130c-24 0 -50 -3 -76 -10v-219c0 -50 -37 -87 -86 -87s-86 37 -86 87v510c0 50 36 87 86 87c49 0 86 -37 86 -87v-135c31 8 63 12 94 12z" />
    <glyph glyph-name="uni04C0" unicode="&#x4c0;" horiz-adv-x="302" 
d="M152 672c49 0 86 -37 86 -87v-510c0 -50 -37 -87 -86 -87s-86 37 -86 87v510c0 50 36 87 86 87z" />
    <glyph glyph-name="uni04C1" unicode="&#x4c1;" horiz-adv-x="1046" 
d="M523 723c-91 0 -179 67 -179 141c0 37 27 65 64 65c25 0 43 -12 63 -43c16 -25 31 -35 52 -35s38 11 52 35c18 30 37 43 63 43c37 0 64 -28 64 -65c0 -73 -89 -141 -179 -141zM182 640l203 -240c14 -17 21 -35 21 -53c0 -24 -8 -40 -21 -56l-209 -268
c-17 -22 -42 -35 -68 -35c-43 0 -82 39 -82 82c0 16 6 32 19 49l181 227l-166 191c-15 18 -22 35 -22 55c0 44 36 80 78 80c27 0 47 -10 66 -32zM523 672c50 0 86 -37 86 -87v-510c0 -50 -37 -87 -86 -87s-86 37 -86 87v510c0 50 37 87 86 87zM1001 119
c13 -17 19 -33 19 -49c0 -43 -38 -82 -82 -82c-26 0 -51 13 -68 35l-209 268c-13 17 -20 37 -20 56s7 38 20 53l203 240c19 22 39 32 66 32c42 0 78 -36 78 -80c0 -20 -7 -37 -22 -55l-167 -191z" />
    <glyph glyph-name="uni04D0" unicode="&#x4d0;" horiz-adv-x="660" 
d="M330 723c-91 0 -179 67 -179 141c0 37 27 65 64 65c25 0 43 -12 63 -43c16 -25 31 -35 52 -35s38 11 52 35c18 30 37 43 63 43c37 0 64 -28 64 -65c0 -73 -89 -141 -179 -141zM619 112c6 -15 9 -30 9 -42c0 -47 -36 -82 -85 -82c-37 0 -65 21 -81 62l-14 35h-236l-14 -35
c-16 -41 -44 -62 -81 -62c-49 0 -85 35 -85 82c0 12 3 27 9 42l207 503c15 37 43 57 82 57s67 -20 82 -57zM330 416l-67 -193h134z" />
    <glyph glyph-name="uni04D6" unicode="&#x4d6;" horiz-adv-x="577" 
d="M289 723c-91 0 -179 67 -179 141c0 37 27 65 64 65c25 0 43 -12 63 -43c16 -25 31 -35 52 -35s38 11 52 35c18 30 37 43 63 43c37 0 64 -28 64 -65c0 -73 -89 -141 -179 -141zM152 0c-50 0 -87 37 -87 87v486c0 50 37 87 87 87h302c46 0 79 -33 79 -77
c0 -45 -34 -78 -79 -78h-217v-91h138c42 0 73 -31 73 -72s-31 -72 -73 -72h-138v-115h229c46 0 79 -33 79 -77c0 -45 -34 -78 -79 -78h-314z" />
    <glyph glyph-name="uni04D8" unicode="&#x4d8;" horiz-adv-x="734" 
d="M352 672c196 0 350 -150 350 -341c0 -192 -157 -343 -355 -343c-183 0 -315 130 -315 308v18c0 43 36 78 80 78h408c-22 75 -85 123 -167 123c-55 0 -102 -21 -141 -63c-18 -20 -38 -30 -62 -30c-43 0 -77 34 -77 78c0 20 7 39 26 59c73 77 151 113 253 113zM349 146
c77 0 135 39 163 101h-312c10 -61 68 -101 149 -101z" />
    <glyph glyph-name="uni04E2" unicode="&#x4e2;" horiz-adv-x="725" 
d="M245 749c-39 0 -68 29 -68 67s29 67 68 67h224c39 0 68 -29 68 -67s-29 -67 -68 -67h-224zM577 672c48 0 84 -38 84 -87v-510c0 -50 -37 -87 -86 -87s-86 37 -86 87v284l-265 -334c-20 -25 -44 -37 -72 -37c-48 0 -86 38 -86 87v510c0 50 37 87 86 87s86 -37 86 -87v-291
l250 323c22 28 42 55 89 55z" />
    <glyph glyph-name="uni04E6" unicode="&#x4e6;" horiz-adv-x="776" 
d="M250 724c-49 0 -97 44 -97 93c0 54 48 94 97 94c54 0 98 -40 98 -94c0 -49 -44 -93 -98 -93zM525 723c-49 0 -97 44 -97 93c0 54 48 94 97 94c54 0 98 -40 98 -94c0 -49 -44 -93 -98 -93zM387 672c200 0 357 -151 357 -342c0 -192 -157 -342 -357 -342s-355 150 -355 342
s156 342 355 342zM388 514c-107 0 -180 -75 -180 -184c0 -110 72 -184 180 -184c106 0 180 76 180 184c0 107 -75 184 -180 184z" />
    <glyph glyph-name="uni04E8" unicode="&#x4e8;" horiz-adv-x="776" 
d="M387 672c200 0 357 -151 357 -342c0 -192 -157 -342 -357 -342s-355 150 -355 342s156 342 355 342zM388 514c-76 0 -136 -38 -163 -100h325c-28 61 -87 100 -162 100zM388 146c85 0 149 49 172 124h-344c21 -76 85 -124 172 -124z" />
    <glyph glyph-name="uni04EE" unicode="&#x4ee;" horiz-adv-x="644" 
d="M207 749c-39 0 -68 29 -68 67s29 67 68 67h224c39 0 68 -29 68 -67s-29 -67 -68 -67h-224zM527 672c50 0 90 -41 90 -92c0 -14 -4 -27 -13 -47l-187 -395c-48 -102 -125 -150 -245 -150c-34 0 -58 5 -76 16c-27 16 -40 37 -40 65c0 46 33 77 82 77h3c51 0 83 13 103 43
l-192 344c-8 15 -13 33 -13 49c0 50 41 90 90 90c35 0 64 -19 84 -56l127 -240l103 240c14 34 47 56 84 56z" />
    <glyph glyph-name="uni04F2" unicode="&#x4f2;" horiz-adv-x="644" 
d="M212 714c-65 0 -89 70 -67 112l44 84c20 38 56 45 77 45c69 0 107 -84 66 -136l-61 -75c-22 -28 -51 -30 -59 -30zM449 714c-65 0 -89 70 -67 112l44 84c20 38 56 45 77 45c69 0 107 -84 66 -136l-61 -75c-22 -28 -51 -30 -59 -30zM527 672c50 0 90 -41 90 -92
c0 -14 -4 -27 -13 -47l-187 -395c-48 -102 -125 -150 -245 -150c-34 0 -58 5 -76 16c-27 16 -40 37 -40 65c0 46 33 77 82 77h3c51 0 83 13 103 43l-192 344c-8 15 -13 33 -13 49c0 50 41 90 90 90c35 0 64 -19 84 -56l127 -240l103 240c14 34 47 56 84 56z" />
    <glyph glyph-name="uni0414.loclBGR" horiz-adv-x="781" 
d="M674 155c50 0 87 -37 87 -87v-122c0 -50 -37 -87 -86 -87s-86 37 -86 87v54h-397v-54c0 -50 -37 -87 -86 -87s-86 37 -86 87v122c0 50 37 87 87 87h12l189 460c15 37 43 57 82 57s67 -20 82 -57l189 -460h13zM390 416l-91 -261h182z" />
    <glyph glyph-name="uni041B.loclBGR" horiz-adv-x="680" 
d="M639 112c6 -13 9 -28 9 -42c0 -47 -36 -82 -85 -82c-37 0 -64 21 -81 62l-142 333l-142 -333c-17 -41 -44 -62 -81 -62c-49 0 -85 35 -85 82c0 14 3 29 9 42l217 503c16 38 44 57 82 57s66 -19 82 -57z" />
    <glyph glyph-name="uni0410.ordn" horiz-adv-x="426" 
d="M412 330c5 -12 7 -20 7 -29c0 -36 -29 -65 -65 -65c-29 0 -50 15 -60 41l-9 26h-144l-9 -26c-10 -26 -31 -41 -60 -41c-36 0 -65 29 -65 65c0 9 2 17 7 29l139 298c12 26 33 41 60 41s48 -15 60 -41zM252 394l-39 108l-39 -108h78z" />
    <glyph glyph-name="uni0413.ordn" horiz-adv-x="355" 
d="M289 660c33 0 58 -24 58 -57s-25 -58 -58 -58h-113v-244c0 -38 -26 -65 -63 -65c-38 0 -64 27 -64 65v292c0 39 28 67 67 67h173z" />
    <glyph glyph-name="uni0415.ordn" horiz-adv-x="382" 
d="M296 660c33 0 58 -24 58 -57s-25 -58 -58 -58h-120v-39h83c29 0 50 -21 50 -49s-21 -49 -50 -49h-83v-50h128c33 0 58 -24 58 -57s-25 -57 -58 -57h-189c-38 0 -66 28 -66 66v284c0 38 28 66 66 66h181z" />
    <glyph glyph-name="uni0419.ordn" horiz-adv-x="484" 
d="M234 697c-59 0 -124 46 -124 88c0 25 20 46 45 46c14 0 26 -6 36 -17c15 -17 28 -24 43 -24s28 7 43 24c10 11 22 17 36 17c25 0 45 -21 45 -46c0 -42 -64 -88 -124 -88zM372 668c36 0 63 -27 63 -64v-304c0 -36 -27 -64 -64 -64c-36 0 -63 27 -63 64v135l-141 -169
c-17 -21 -34 -30 -55 -30c-36 0 -63 27 -63 64v304c0 37 28 64 64 64s63 -27 63 -64v-141l141 175c18 21 34 30 55 30z" />
    <glyph glyph-name="uni041C.ordn" horiz-adv-x="534" 
d="M422 668c36 0 63 -27 63 -63v-307c0 -36 -26 -62 -63 -62s-64 27 -64 62v113l-46 -62c-11 -15 -27 -23 -45 -23s-34 8 -45 23l-46 62v-113c0 -35 -27 -62 -64 -62s-63 26 -63 62v307c0 36 28 63 63 63c23 0 41 -10 57 -33l98 -140l98 140c16 23 35 33 57 33z" />
    <glyph glyph-name="uni041E.ordn" horiz-adv-x="502" 
d="M250 668c127 0 228 -95 228 -216s-100 -216 -228 -216c-127 0 -226 95 -226 216s100 216 226 216zM251 551c-58 0 -97 -40 -97 -99c0 -60 38 -99 97 -99c58 0 98 41 98 99c0 57 -41 99 -98 99z" />
    <glyph glyph-name="uni0423.ordn" horiz-adv-x="425" 
d="M331 668c36 0 64 -28 64 -63c0 -9 -3 -19 -8 -31l-97 -227c-33 -76 -87 -111 -171 -111c-28 0 -50 4 -63 13c-16 10 -25 26 -25 47c0 34 24 57 59 57h3c26 0 45 5 58 16l-110 205c-5 12 -8 22 -8 31c0 35 28 63 64 63c26 0 46 -14 60 -42l64 -124l50 123
c12 30 30 43 60 43z" />
    <glyph glyph-name="uni0425.ordn" horiz-adv-x="408" 
d="M282 449l80 -101c15 -17 21 -31 21 -49c0 -35 -28 -63 -64 -63c-21 0 -38 10 -55 33l-62 87l-63 -87c-17 -23 -34 -33 -55 -33c-36 0 -64 28 -64 63c0 18 6 32 21 49l87 110l-77 98c-12 16 -21 31 -21 49c0 35 28 63 64 63c21 0 40 -10 54 -31l61 -87l59 85
c15 22 34 33 56 33c36 0 64 -28 64 -63c0 -17 -7 -33 -21 -49z" />
    <glyph glyph-name="uni042B.ordn" horiz-adv-x="617" 
d="M113 668c37 0 63 -27 63 -65v-302c0 -38 -26 -65 -63 -65c-38 0 -64 27 -64 65v302c0 38 26 65 64 65zM313 668c37 0 63 -27 63 -65v-62h50c97 0 167 -62 167 -149c0 -88 -68 -148 -167 -148h-110c-39 0 -67 28 -67 67v292c0 38 26 65 64 65zM427 431h-51v-76h51
c23 0 38 15 38 37c0 24 -15 39 -38 39z" />
    <glyph glyph-name="uni042E.ordn" horiz-adv-x="674" 
d="M424 668c126 0 226 -96 226 -216c0 -121 -100 -216 -226 -216c-107 0 -191 68 -214 164h-34v-99c0 -38 -26 -65 -63 -65c-38 0 -64 27 -64 65v301c0 38 26 65 64 65c37 0 63 -27 63 -65v-88h37c26 90 108 154 211 154zM424 353c57 0 97 40 97 99c0 58 -40 99 -97 99
s-97 -41 -97 -99c0 -59 40 -99 97 -99z" />
    <glyph glyph-name="uni042F.ordn" horiz-adv-x="432" 
d="M319 660c37 0 64 -27 64 -64v-297c0 -36 -26 -63 -63 -63s-64 26 -64 63v39h-29h-8l-67 -79c-13 -15 -30 -23 -49 -23c-37 0 -64 25 -64 60c0 16 6 31 18 44l39 45c-31 28 -50 69 -50 115c0 94 75 160 181 160h92zM225 549c-29 0 -50 -20 -50 -50c0 -29 21 -50 50 -50h31
v100h-31z" />
    <glyph glyph-name="uni0409.ss01" horiz-adv-x="946" 
d="M660 455c149 0 255 -95 255 -228c0 -135 -104 -227 -255 -227h-124c-44 0 -75 25 -94 77l-113 299l-131 -326c-16 -41 -44 -62 -81 -62c-49 0 -85 35 -85 82c0 15 3 29 9 42l203 495c19 45 47 65 86 65s67 -20 82 -57l63 -160h185zM661 150c48 0 79 31 79 77
c0 47 -31 78 -79 78h-127l62 -155h65z" />
    <glyph glyph-name="uni0430" unicode="&#x430;" horiz-adv-x="555" 
d="M273 512c148 0 230 -80 230 -222v-216c0 -49 -35 -85 -83 -85c-35 0 -64 19 -77 49c-35 -32 -84 -50 -140 -50c-103 0 -173 62 -173 154c0 94 73 150 196 150h105v8c0 41 -28 64 -77 64c-28 0 -53 -8 -79 -25c-20 -13 -31 -17 -46 -17c-41 0 -72 31 -72 70
c0 25 13 48 37 67c42 34 106 53 179 53zM255 110c45 0 76 29 76 73v4h-81c-29 0 -46 -14 -46 -38c0 -25 19 -39 51 -39z" />
    <glyph glyph-name="uni0431" unicode="&#x431;" horiz-adv-x="609" 
d="M350 483c127 0 228 -109 228 -246c0 -144 -110 -248 -263 -248c-166 0 -271 117 -271 303v29c0 235 91 359 298 406l78 18c31 7 39 8 50 8c40 0 72 -33 72 -76c0 -39 -26 -67 -70 -77l-85 -19c-101 -23 -154 -70 -163 -146c34 32 77 48 126 48zM311 145c52 0 91 40 91 91
c0 52 -39 91 -91 91s-91 -39 -91 -91c0 -51 40 -91 91 -91z" />
    <glyph glyph-name="uni0432" unicode="&#x432;" horiz-adv-x="559" 
d="M457 267c46 -23 71 -62 71 -113c0 -89 -76 -154 -181 -154h-200c-50 0 -87 37 -87 87v326c0 50 37 87 87 87h157c112 0 188 -59 188 -146c0 -34 -12 -64 -35 -87zM222 366v-53h75c24 0 37 9 37 27s-11 26 -37 26h-75zM332 136c24 0 39 12 39 32s-15 32 -39 32h-110v-64
h110z" />
    <glyph glyph-name="uni0433" unicode="&#x433;" horiz-adv-x="464" 
d="M146 -12c-49 0 -86 37 -86 87v338c0 50 37 87 87 87h238c42 0 72 -30 72 -72c0 -41 -30 -72 -72 -72h-153v-281c0 -50 -37 -87 -86 -87z" />
    <glyph glyph-name="uni0453" unicode="&#x453;" horiz-adv-x="464" 
d="M267 560c-50 4 -76 43 -73 82c1 14 6 27 11 38l37 86c13 31 49 49 78 49c52 0 86 -42 86 -87c0 -16 -5 -33 -15 -48l-56 -83c-17 -25 -44 -39 -68 -37zM146 -12c-49 0 -86 37 -86 87v338c0 50 37 87 87 87h238c42 0 72 -30 72 -72c0 -41 -30 -72 -72 -72h-153v-281
c0 -50 -37 -87 -86 -87z" />
    <glyph glyph-name="uni0491" unicode="&#x491;" horiz-adv-x="484" 
d="M381 644c49 0 86 -37 86 -87v-114c0 -50 -37 -87 -87 -87h-148v-281c0 -50 -37 -87 -86 -87s-86 37 -86 87v338c0 50 37 87 87 87h148v57c0 50 36 87 86 87z" />
    <glyph glyph-name="uni0434" unicode="&#x434;" horiz-adv-x="694" 
d="M587 144c50 0 87 -37 87 -87v-123c0 -50 -37 -87 -86 -87s-86 37 -86 87v66h-310v-66c0 -50 -37 -87 -86 -87s-86 37 -86 87v123c0 50 37 87 87 87h3c53 67 72 142 72 273v1c1 48 38 82 87 82h225c50 0 87 -37 87 -87v-269h6zM354 356c-2 -92 -21 -162 -60 -212h115v212
h-55z" />
    <glyph glyph-name="uni0435" unicode="&#x435;" horiz-adv-x="568" 
d="M294 512c139 0 243 -101 243 -237v-2c0 -49 -38 -83 -90 -83h-240c18 -38 55 -57 111 -57c28 0 61 6 87 17c12 5 21 8 31 8c38 0 68 -29 68 -67c0 -28 -13 -49 -43 -66c-43 -24 -95 -37 -149 -37c-162 0 -281 111 -281 262c0 149 113 262 263 262zM291 377
c-44 0 -77 -29 -90 -75h173c-2 43 -36 75 -83 75z" />
    <glyph glyph-name="uni0450" unicode="&#x450;" horiz-adv-x="568" 
d="M212 597l-56 83c-10 15 -15 32 -15 48c0 45 34 87 86 87c29 0 65 -18 78 -49l37 -86c5 -11 10 -24 11 -38c3 -39 -23 -78 -73 -82c-24 -2 -51 12 -68 37zM294 512c139 0 243 -101 243 -237v-2c0 -49 -38 -83 -90 -83h-240c18 -38 55 -57 111 -57c28 0 61 6 87 17
c12 5 21 8 31 8c38 0 68 -29 68 -67c0 -28 -13 -49 -43 -66c-43 -24 -95 -37 -149 -37c-162 0 -281 111 -281 262c0 149 113 262 263 262zM291 377c-44 0 -77 -29 -90 -75h173c-2 43 -36 75 -83 75z" />
    <glyph glyph-name="uni0451" unicode="&#x451;" horiz-adv-x="568" 
d="M170 584c-51 0 -97 44 -97 93c0 52 44 94 97 94c56 0 98 -40 98 -94c0 -51 -44 -93 -98 -93zM425 584c-51 0 -97 44 -97 93c0 52 44 94 97 94c56 0 98 -40 98 -94c0 -51 -44 -93 -98 -93zM294 512c139 0 243 -101 243 -237v-2c0 -49 -38 -83 -90 -83h-240
c18 -38 55 -57 111 -57c28 0 61 6 87 17c12 5 21 8 31 8c38 0 68 -29 68 -67c0 -28 -13 -49 -43 -66c-43 -24 -95 -37 -149 -37c-162 0 -281 111 -281 262c0 149 113 262 263 262zM291 377c-44 0 -77 -29 -90 -75h173c-2 43 -36 75 -83 75z" />
    <glyph glyph-name="uni0436" unicode="&#x436;" horiz-adv-x="890" 
d="M183 485l124 -152c22 -26 31 -44 31 -64c0 -17 -6 -33 -26 -62l-127 -190c-13 -20 -32 -29 -61 -29c-43 0 -77 34 -77 78c0 15 5 31 19 51l101 150l-95 110c-16 18 -25 38 -25 58c0 43 32 75 77 77c23 1 43 -8 59 -27zM722 267l101 -150c13 -21 19 -36 19 -51
c0 -44 -34 -78 -77 -78c-29 0 -48 9 -61 29l-127 190c-20 29 -26 45 -26 62c0 20 9 38 31 64l124 152c16 19 36 28 59 27c45 -2 77 -34 77 -77c0 -20 -9 -40 -25 -58zM445 512c49 0 86 -37 86 -87v-350c0 -50 -37 -87 -86 -87s-86 37 -86 87v350c0 50 36 87 86 87z" />
    <glyph glyph-name="uni0437" unicode="&#x437;" horiz-adv-x="515" 
d="M415 254c41 -27 65 -69 65 -116c0 -92 -90 -150 -231 -150c-69 0 -131 16 -171 44c-25 17 -37 37 -37 62c0 40 32 72 73 72c12 0 23 -3 38 -11c23 -14 59 -22 98 -22c44 0 65 10 65 31c0 18 -17 28 -46 28h-43c-35 0 -61 26 -61 60s26 60 61 60h33c22 0 36 11 36 27
c0 19 -17 28 -55 28c-36 0 -60 -6 -90 -21c-15 -9 -27 -13 -41 -13c-41 0 -73 32 -73 73c0 25 13 46 41 65c36 25 95 41 164 41c135 0 221 -60 221 -153c0 -41 -16 -77 -47 -105z" />
    <glyph glyph-name="uni0438" unicode="&#x438;" horiz-adv-x="617" 
d="M471 512c49 0 86 -37 86 -87v-350c0 -50 -37 -87 -86 -87s-86 37 -86 87v148l-163 -195c-24 -28 -47 -40 -76 -40c-49 0 -86 37 -86 87v350c0 50 37 87 86 87s86 -37 86 -87v-148l163 195c24 28 47 40 76 40z" />
    <glyph glyph-name="uni0439" unicode="&#x439;" horiz-adv-x="617" 
d="M315 568c-99 0 -182 67 -182 146c0 38 28 67 64 67c33 0 53 -14 65 -46c10 -28 27 -42 53 -42s43 14 53 42c12 32 32 46 63 46c37 0 66 -30 66 -67c0 -79 -83 -146 -182 -146zM471 512c49 0 86 -37 86 -87v-350c0 -50 -37 -87 -86 -87s-86 37 -86 87v148l-163 -195
c-24 -28 -47 -40 -76 -40c-49 0 -86 37 -86 87v350c0 50 37 87 86 87s86 -37 86 -87v-148l163 195c24 28 47 40 76 40z" />
    <glyph glyph-name="uni045D" unicode="&#x45d;" horiz-adv-x="617" 
d="M229 597l-56 83c-10 15 -15 32 -15 48c0 45 34 87 86 87c29 0 65 -18 78 -49l37 -86c5 -11 10 -24 11 -38c3 -39 -23 -78 -73 -82c-24 -2 -51 12 -68 37zM471 512c49 0 86 -37 86 -87v-350c0 -50 -37 -87 -86 -87s-86 37 -86 87v148l-163 -195c-24 -28 -47 -40 -76 -40
c-49 0 -86 37 -86 87v350c0 50 37 87 86 87s86 -37 86 -87v-148l163 195c24 28 47 40 76 40z" />
    <glyph glyph-name="uni043A" unicode="&#x43a;" horiz-adv-x="591" 
d="M428 267l107 -150c13 -18 19 -34 19 -51c0 -44 -34 -78 -77 -78c-27 0 -46 9 -61 29l-138 190c-19 26 -26 43 -26 62c0 20 8 39 31 64l135 152c16 18 36 28 59 27c44 -2 77 -34 77 -77c0 -20 -9 -41 -25 -58zM146 512c50 0 86 -37 86 -87v-350c0 -50 -37 -87 -86 -87
s-86 37 -86 87v350c0 50 37 87 86 87z" />
    <glyph glyph-name="uni045C" unicode="&#x45c;" horiz-adv-x="591" 
d="M328 560c-50 4 -76 43 -73 82c1 14 6 27 11 38l37 86c13 31 49 49 78 49c52 0 86 -42 86 -87c0 -16 -5 -33 -15 -48l-56 -83c-17 -25 -44 -39 -68 -37zM428 267l107 -150c13 -18 19 -34 19 -51c0 -44 -34 -78 -77 -78c-27 0 -46 9 -61 29l-138 190c-19 26 -26 43 -26 62
c0 20 8 39 31 64l135 152c16 18 36 28 59 27c44 -2 77 -34 77 -77c0 -20 -9 -41 -25 -58zM146 512c50 0 86 -37 86 -87v-350c0 -50 -37 -87 -86 -87s-86 37 -86 87v350c0 50 37 87 86 87z" />
    <glyph glyph-name="uni043B" unicode="&#x43b;" horiz-adv-x="612" 
d="M465 500c50 0 87 -37 87 -87v-338c0 -50 -36 -87 -85 -87s-86 37 -86 87v281h-92v-41c0 -163 -58 -265 -178 -315c-16 -6 -29 -8 -40 -8c-44 0 -78 34 -78 76c0 44 23 54 50 73c35 24 75 64 75 215v57c0 50 37 87 87 87h260z" />
    <glyph glyph-name="uni043C" unicode="&#x43c;" horiz-adv-x="698" 
d="M146 -12c-49 0 -86 37 -86 87v350c0 49 37 87 86 87c31 0 55 -16 72 -38l131 -166l131 166c17 22 41 38 72 38c49 0 86 -38 86 -87v-350c0 -50 -37 -87 -86 -87s-86 37 -86 87v119l-70 -84c-10 -12 -29 -19 -47 -19s-37 7 -47 19l-70 84v-119c0 -50 -37 -87 -86 -87z" />
    <glyph glyph-name="uni043D" unicode="&#x43d;" horiz-adv-x="610" 
d="M464 511c49 0 86 -37 86 -87v-348c0 -50 -37 -87 -86 -87s-86 37 -86 87v107h-146v-107c0 -50 -37 -87 -86 -87s-86 37 -86 87v348c0 50 37 87 86 87s86 -37 86 -87v-97h146v97c0 50 36 87 86 87z" />
    <glyph glyph-name="uni043E" unicode="&#x43e;" horiz-adv-x="607" 
d="M303 512c153 0 273 -116 273 -262s-120 -262 -273 -262s-272 115 -272 262s119 262 272 262zM304 354c-57 0 -97 -42 -97 -104s39 -104 97 -104c56 0 96 44 96 104s-41 104 -96 104z" />
    <glyph glyph-name="uni043F" unicode="&#x43f;" horiz-adv-x="602" 
d="M146 -12c-49 0 -86 37 -86 87v338c0 50 37 87 87 87h308c50 0 87 -37 87 -87v-338c0 -50 -37 -87 -86 -87s-86 37 -86 87v281h-138v-281c0 -50 -37 -87 -86 -87z" />
    <glyph glyph-name="uni0440" unicode="&#x440;" horiz-adv-x="631" 
d="M360 512c140 0 240 -108 240 -261s-100 -263 -240 -263c-54 0 -97 16 -128 46v-139c0 -50 -37 -87 -86 -87s-86 37 -86 87v533c0 48 36 84 84 84c38 0 68 -23 79 -56c31 37 78 56 137 56zM326 144c57 0 98 44 98 106c0 63 -40 106 -98 106s-97 -43 -97 -105
c0 -63 40 -107 97 -107z" />
    <glyph glyph-name="uni0441" unicode="&#x441;" horiz-adv-x="553" 
d="M304 -12c-154 0 -273 115 -273 262s119 262 273 262c81 0 163 -39 200 -96c11 -17 16 -31 16 -46c0 -42 -34 -76 -76 -76c-26 0 -45 8 -59 25c-19 23 -47 35 -79 35c-60 0 -99 -41 -99 -104s39 -104 99 -104c30 0 57 12 79 35c18 18 35 25 59 25c42 0 76 -34 76 -76
c0 -16 -4 -29 -13 -43c-43 -64 -115 -99 -203 -99z" />
    <glyph glyph-name="uni0442" unicode="&#x442;" horiz-adv-x="473" 
d="M236 -12c-49 0 -86 37 -86 87v283h-83c-42 0 -72 31 -72 72s30 72 72 72h339c42 0 72 -31 72 -72s-30 -72 -72 -72h-84v-283c0 -50 -37 -87 -86 -87z" />
    <glyph glyph-name="uni0443" unicode="&#x443;" horiz-adv-x="572" 
d="M471 512c45 0 83 -38 83 -83c0 -12 -3 -25 -11 -41l-208 -415c-59 -117 -122 -165 -218 -165c-28 0 -52 5 -69 15c-24 13 -37 38 -37 65c0 43 34 74 77 74h3c39 0 64 12 82 51l14 31l-159 344c-8 16 -11 29 -11 41c0 45 38 83 83 83c33 0 62 -18 75 -48l109 -246l112 246
c13 29 42 48 75 48z" />
    <glyph glyph-name="uni045E" unicode="&#x45e;" horiz-adv-x="572" 
d="M286 568c-99 0 -182 67 -182 146c0 38 28 67 64 67c33 0 53 -14 65 -46c10 -28 27 -42 53 -42s43 14 53 42c12 32 32 46 63 46c37 0 66 -30 66 -67c0 -79 -83 -146 -182 -146zM471 512c45 0 83 -38 83 -83c0 -12 -3 -25 -11 -41l-208 -415c-59 -117 -122 -165 -218 -165
c-28 0 -52 5 -69 15c-24 13 -37 38 -37 65c0 43 34 74 77 74h3c39 0 64 12 82 51l14 31l-159 344c-8 16 -11 29 -11 41c0 45 38 83 83 83c33 0 62 -18 75 -48l109 -246l112 246c13 29 42 48 75 48z" />
    <glyph glyph-name="uni0444" unicode="&#x444;" horiz-adv-x="822" 
d="M791 252c0 -157 -118 -262 -294 -264v-93c0 -50 -37 -87 -86 -87s-86 37 -86 87v93c-176 3 -294 108 -294 264c0 155 117 257 294 260v163c0 50 36 87 86 87c49 0 86 -37 86 -87v-163c178 -2 294 -104 294 -260zM198 250c0 -75 47 -118 129 -118h3v236h-3
c-82 0 -129 -43 -129 -118zM495 132c83 0 130 43 130 118s-48 118 -130 118h-3v-236h3z" />
    <glyph glyph-name="uni0445" unicode="&#x445;" horiz-adv-x="553" 
d="M487 137c20 -25 29 -45 29 -66c0 -46 -37 -83 -83 -83c-28 0 -51 12 -71 37l-85 103l-86 -103c-20 -25 -44 -37 -71 -37c-46 0 -83 37 -83 83c0 21 9 41 29 66l98 117l-88 112c-21 27 -28 44 -28 63c0 46 37 83 83 83c27 0 50 -12 69 -36l77 -96l81 96c21 25 43 36 69 36
c46 0 83 -37 83 -83c0 -20 -9 -40 -28 -63l-92 -111z" />
    <glyph glyph-name="uni0447" unicode="&#x447;" horiz-adv-x="580" 
d="M434 512c49 0 86 -37 86 -87v-350c0 -50 -37 -87 -86 -87s-86 37 -86 87v84c-21 -6 -44 -9 -71 -9c-145 0 -246 99 -246 242v33c0 50 36 87 86 87c49 0 86 -37 86 -87v-21c0 -61 33 -96 89 -96c17 0 36 3 56 8v109c0 50 36 87 86 87z" />
    <glyph glyph-name="uni0446" unicode="&#x446;" horiz-adv-x="644" 
d="M446 512c49 0 85 -37 85 -87v-281h6c50 0 87 -37 87 -87v-123c0 -50 -37 -87 -86 -87s-86 37 -86 87v66h-305c-50 0 -87 37 -87 87v338c0 50 37 87 86 87s85 -37 85 -87v-281h129v281c0 50 36 87 86 87z" />
    <glyph glyph-name="uni0448" unicode="&#x448;" horiz-adv-x="893" 
d="M147 0c-50 0 -87 37 -87 87v338c0 50 37 87 86 87s85 -37 85 -87v-281h130v281c0 50 37 87 86 87s85 -37 85 -87v-281h130v281c0 50 36 87 86 87c49 0 85 -37 85 -87v-338c0 -50 -37 -87 -87 -87h-599z" />
    <glyph glyph-name="uni0449" unicode="&#x449;" horiz-adv-x="946" 
d="M841 -153c-50 0 -87 37 -87 87v66h-607c-50 0 -87 37 -87 87v338c0 50 37 87 86 87s85 -37 85 -87v-281h130v281c0 50 37 87 86 87s85 -37 85 -87v-281h130v281c0 50 36 87 86 87c49 0 85 -37 85 -87v-281h6c50 0 87 -37 87 -87v-123c0 -50 -36 -87 -85 -87z" />
    <glyph glyph-name="uni045F" unicode="&#x45f;" horiz-adv-x="592" 
d="M447 512c49 0 85 -37 85 -87v-338c0 -50 -37 -87 -87 -87h-63v-66c0 -50 -37 -87 -86 -87s-86 37 -86 87v66h-63c-50 0 -87 37 -87 87v338c0 50 37 87 86 87s85 -37 85 -87v-281h130v281c0 50 36 87 86 87z" />
    <glyph glyph-name="uni044C" unicode="&#x44c;" horiz-adv-x="557" 
d="M146 512c49 0 86 -37 86 -87v-31h72c122 0 222 -69 222 -197s-100 -197 -222 -197h-157c-50 0 -87 37 -87 87v338c0 50 36 87 86 87zM291 250h-59v-106h59c30 0 60 14 60 51s-30 55 -60 55z" />
    <glyph glyph-name="uni044A" unicode="&#x44a;" horiz-adv-x="593" 
d="M183 0c-50 0 -87 37 -87 87v269h-34c-41 0 -72 31 -72 72c0 42 31 72 72 72h119c50 0 87 -37 87 -87v-19h72c133 0 222 -79 222 -197s-89 -197 -222 -197h-157zM268 144h59c37 0 60 20 60 51c0 32 -25 55 -60 55h-59v-106z" />
    <glyph glyph-name="uni044B" unicode="&#x44b;" horiz-adv-x="841" 
d="M146 512c49 0 86 -37 86 -87v-31h72c122 0 222 -69 222 -197s-100 -197 -222 -197h-157c-50 0 -87 37 -87 87v338c0 50 36 87 86 87zM679 -12c-49 0 -86 37 -86 87v350c0 50 36 87 86 87c49 0 86 -37 86 -87v-350c0 -50 -36 -87 -86 -87zM291 250h-59v-106h59
c30 0 60 14 60 51s-30 55 -60 55z" />
    <glyph glyph-name="uni0459" unicode="&#x459;" horiz-adv-x="877" 
d="M624 394c133 0 222 -79 222 -197s-89 -197 -222 -197h-156c-50 0 -87 37 -87 87v269h-92v-41c0 -163 -56 -269 -178 -315c-16 -6 -29 -8 -40 -8c-44 0 -78 34 -78 76c0 34 15 56 50 74c58 30 75 86 75 246v25c0 50 37 87 87 87h260c50 0 87 -37 87 -87v-19h72zM611 144
c37 0 60 20 60 51c0 32 -25 55 -60 55h-59v-106h59z" />
    <glyph glyph-name="uni045A" unicode="&#x45a;" horiz-adv-x="870" 
d="M617 394c133 0 222 -79 222 -197s-89 -197 -222 -197h-157c-50 0 -87 37 -87 87v96h-141v-108c0 -50 -37 -87 -86 -87s-86 37 -86 87v350c0 50 37 87 86 87s86 -37 86 -87v-98h141v98c0 50 36 87 86 87c49 0 86 -37 86 -87v-31h72zM604 144c37 0 60 20 60 51
c0 32 -25 55 -60 55h-59v-106h59z" />
    <glyph glyph-name="uni0455" unicode="&#x455;" horiz-adv-x="456" 
d="M226 -12c-72 0 -137 23 -184 63c-17 14 -26 33 -26 54c0 38 31 69 70 69c14 0 28 -4 46 -17c26 -18 61 -33 97 -33c24 0 44 5 44 22c0 12 -10 17 -29 25l-56 23c-91 37 -145 78 -145 161c0 100 79 158 194 158c55 0 114 -15 157 -44c21 -14 33 -36 33 -59
c0 -39 -31 -70 -69 -70c-14 0 -28 6 -40 13c-26 15 -52 24 -80 24c-22 0 -35 -5 -35 -19c0 -13 11 -18 34 -27l50 -20c89 -36 146 -73 146 -157c0 -105 -88 -166 -207 -166z" />
    <glyph glyph-name="uni0454" unicode="&#x454;" horiz-adv-x="559" 
d="M454 201c39 0 70 -29 70 -71c0 -13 -2 -26 -13 -43c-37 -57 -104 -99 -203 -99c-152 0 -273 113 -273 262s121 262 273 262c99 0 166 -42 203 -99c11 -17 13 -30 13 -43c0 -42 -31 -71 -70 -71c-18 0 -31 6 -44 16c-25 19 -47 48 -99 48c-40 0 -75 -23 -93 -56h98
c33 0 57 -24 57 -56s-24 -56 -57 -56l-99 -1c18 -33 53 -57 94 -57c52 0 74 29 99 48c13 9 26 16 44 16z" />
    <glyph glyph-name="uni044D" unicode="&#x44d;" horiz-adv-x="559" 
d="M251 512c152 0 273 -113 273 -262s-121 -262 -273 -262c-99 0 -166 42 -203 99c-11 17 -13 30 -13 43c0 42 31 71 70 71c18 0 31 -7 44 -16c25 -19 47 -48 99 -48c41 0 76 24 94 57l-99 1c-33 0 -57 24 -57 56s24 56 57 56h98c-18 33 -53 56 -93 56
c-52 0 -74 -29 -99 -48c-13 -10 -26 -16 -44 -16c-39 0 -70 29 -70 71c0 13 2 26 13 43c37 57 104 99 203 99z" />
    <glyph glyph-name="uni0456" unicode="&#x456;" horiz-adv-x="284" 
d="M141 776c56 0 103 -43 103 -99c0 -55 -47 -98 -103 -98s-102 43 -102 98c0 56 46 99 102 99zM142 -12c-49 0 -86 37 -86 87v350c0 50 36 87 86 87c49 0 86 -37 86 -87v-350c0 -50 -36 -87 -86 -87z" />
    <glyph glyph-name="uni0457" unicode="&#x457;" horiz-adv-x="284" 
d="M14 766c54 0 98 -40 98 -94c0 -49 -44 -93 -98 -93c-49 0 -97 44 -97 93c0 54 48 94 97 94zM269 766c54 0 98 -40 98 -94c0 -49 -44 -93 -98 -93c-49 0 -97 44 -97 93c0 54 48 94 97 94zM142 -12c-49 0 -86 37 -86 87v350c0 50 36 87 86 87c49 0 86 -37 86 -87v-350
c0 -50 -36 -87 -86 -87z" />
    <glyph glyph-name="uni0458" unicode="&#x458;" horiz-adv-x="284" 
d="M141 776c56 0 103 -43 103 -99c0 -55 -47 -98 -103 -98s-102 43 -102 98c0 56 46 99 102 99zM28 -192c-30 0 -51 5 -68 13c-29 14 -45 36 -45 67c0 43 31 74 73 74h3c51 0 65 18 65 86v377c0 50 36 87 86 87c49 0 86 -37 86 -87v-414c0 -128 -74 -203 -200 -203z" />
    <glyph glyph-name="uni045B" unicode="&#x45b;" horiz-adv-x="610" 
d="M368 472c112 0 187 -82 187 -204v-193c0 -50 -37 -87 -86 -87s-86 37 -86 87v168c0 44 -30 74 -73 74s-72 -30 -72 -74v-168c0 -50 -37 -87 -86 -87s-86 37 -86 87v458h-16c-40 0 -70 30 -70 70s30 69 70 69h16v3c0 50 36 87 86 87c49 0 86 -37 86 -87v-3h124
c40 0 70 -29 70 -69s-30 -70 -70 -70h-124v-108c34 30 79 47 130 47z" />
    <glyph glyph-name="uni044E" unicode="&#x44e;" horiz-adv-x="874" 
d="M571 512c151 0 272 -116 272 -262s-121 -262 -272 -262c-126 0 -227 81 -256 195h-83v-108c0 -50 -37 -87 -86 -87s-86 37 -86 87v350c0 50 36 87 86 87c49 0 86 -37 86 -87v-98h86c32 109 131 185 253 185zM570 146c56 0 97 44 97 104c0 61 -41 104 -97 104
s-97 -43 -97 -104c0 -60 41 -104 97 -104z" />
    <glyph glyph-name="uni044F" unicode="&#x44f;" horiz-adv-x="587" 
d="M440 500c50 0 87 -37 87 -87v-338c0 -50 -37 -87 -86 -87s-86 37 -86 87v31h-72h-14l-71 -87c-19 -23 -43 -31 -66 -31c-48 0 -86 39 -86 86c0 26 16 46 32 65l30 35c-30 33 -47 77 -47 129c0 118 89 197 222 197h157zM355 250v106h-59c-37 0 -60 -20 -60 -51
c0 -32 25 -55 60 -55h59z" />
    <glyph glyph-name="uni0452" unicode="&#x452;" horiz-adv-x="610" 
d="M368 472c112 0 187 -82 187 -204v-257c0 -125 -81 -203 -210 -203c-14 0 -21 0 -28 1c-49 5 -80 35 -80 77s33 76 74 76h5c44 0 67 24 67 66v215c0 44 -30 74 -73 74s-72 -30 -72 -74v-168c0 -50 -37 -87 -86 -87s-86 37 -86 87v458h-15c-41 0 -71 30 -71 70s30 69 71 69
h15v3c0 50 36 87 86 87c49 0 86 -37 86 -87v-3h123c41 0 71 -29 71 -69s-30 -70 -71 -70h-123v-108c34 30 79 47 130 47z" />
    <glyph glyph-name="uni0463" unicode="&#x463;" horiz-adv-x="563" 
d="M153 0c-50 0 -87 37 -87 87v315h-16c-40 0 -70 29 -70 69s30 69 70 69h16v135c0 50 36 87 86 87c49 0 86 -37 86 -87v-135h134c40 0 70 -29 70 -69s-30 -69 -70 -69h-134v-38h72c132 0 222 -72 222 -177c0 -110 -91 -187 -222 -187h-157zM238 144h59c39 0 60 15 60 43
s-21 43 -60 43h-59v-86z" />
    <glyph glyph-name="uni0473" unicode="&#x473;" horiz-adv-x="607" 
d="M303 512c152 0 273 -113 273 -262s-121 -262 -273 -262c-151 0 -272 113 -272 262s121 262 272 262zM303 367c-46 0 -80 -21 -98 -57c13 4 26 6 40 6c44 0 73 -20 118 -20c15 0 28 2 42 7c-17 40 -54 64 -102 64zM303 133c45 0 81 21 99 58c-13 -4 -26 -6 -40 -6
c-45 0 -73 20 -117 20c-15 0 -29 -2 -44 -7c17 -42 54 -65 102 -65z" />
    <glyph glyph-name="uni0475" unicode="&#x475;" horiz-adv-x="566" 
d="M492 512c50 0 80 -33 80 -76c0 -34 -12 -53 -38 -70c-25 -17 -33 -26 -45 -51l-131 -278c-13 -29 -45 -49 -77 -49c-31 0 -62 20 -77 49l-173 342c-10 20 -13 33 -13 50c0 45 38 83 83 83c32 0 58 -12 75 -48l104 -216l77 162c33 70 73 102 135 102z" />
    <glyph glyph-name="uni0493" unicode="&#x493;" horiz-adv-x="490" 
d="M411 356h-173v-81h135c40 0 70 -29 70 -69s-30 -70 -70 -70h-135v-61c0 -50 -37 -87 -86 -87s-86 37 -86 87v61h-16c-40 0 -70 30 -70 70s30 69 70 69h16v138c0 50 37 87 87 87h258c42 0 72 -30 72 -72c0 -41 -30 -72 -72 -72z" />
    <glyph glyph-name="uni0497" unicode="&#x497;" horiz-adv-x="922" 
d="M178 485l124 -152c22 -26 31 -44 31 -64c0 -17 -6 -33 -26 -62l-127 -190c-13 -20 -32 -29 -61 -29c-43 0 -77 34 -77 78c0 15 5 31 19 51l101 150l-95 110c-16 18 -25 38 -25 58c0 43 32 75 77 77c23 1 43 -8 59 -27zM823 132c50 0 87 -37 87 -87v-109
c0 -50 -37 -87 -86 -87s-86 37 -86 87v53c-22 2 -37 11 -48 28l-118 190c-18 29 -26 45 -26 62c0 20 9 38 31 64l124 152c16 19 36 28 59 27c45 -2 77 -34 77 -77c0 -20 -9 -40 -25 -58l-97 -112l84 -133h24zM440 512c49 0 86 -37 86 -87v-350c0 -50 -37 -87 -86 -87
s-86 37 -86 87v350c0 50 36 87 86 87z" />
    <glyph glyph-name="uni0499" unicode="&#x499;" horiz-adv-x="515" 
d="M480 138c0 -62 -41 -109 -112 -133c9 -19 15 -40 15 -60c0 -85 -64 -137 -167 -137c-33 0 -55 3 -71 10c-25 10 -37 28 -37 52c0 33 26 60 60 60h23c32 0 51 9 51 30c0 11 -3 20 -6 28c-64 2 -121 18 -158 44c-25 17 -37 37 -37 62c0 40 32 72 73 72c12 0 23 -3 38 -11
c23 -14 59 -22 98 -22c44 0 65 10 65 31c0 18 -17 28 -46 28h-43c-35 0 -61 26 -61 60s26 60 61 60h33c22 0 36 11 36 27c0 19 -17 28 -55 28c-36 0 -60 -6 -90 -21c-15 -9 -27 -13 -41 -13c-41 0 -73 32 -73 73c0 25 13 46 41 65c36 25 95 41 164 41
c135 0 221 -60 221 -153c0 -41 -16 -77 -47 -105c41 -27 65 -69 65 -116z" />
    <glyph glyph-name="uni049B" unicode="&#x49b;" horiz-adv-x="629" 
d="M146 512c50 0 86 -37 86 -87v-350c0 -50 -37 -87 -86 -87s-86 37 -86 87v350c0 50 37 87 86 87zM533 144c50 0 87 -37 87 -87v-121c0 -50 -37 -87 -86 -87s-86 37 -86 87v58c-13 5 -25 13 -33 25l-141 203c-12 18 -21 36 -21 52s7 36 21 52l139 158c15 17 35 28 60 28
c43 0 76 -33 76 -74c0 -21 -5 -36 -24 -58l-96 -109l89 -127h15z" />
    <glyph glyph-name="uni04A1" unicode="&#x4a1;" horiz-adv-x="639" 
d="M464 267l107 -150c13 -18 19 -34 19 -51c0 -44 -34 -78 -77 -78c-27 0 -46 9 -61 29l-138 190c-19 26 -26 43 -26 62c0 20 8 39 31 64l135 152c16 18 36 28 59 27c44 -2 77 -34 77 -77c0 -20 -9 -41 -25 -58zM181 500c50 0 87 -37 87 -87v-338c0 -50 -37 -87 -86 -87
s-86 37 -86 87v281h-23c-42 0 -73 31 -73 72s31 72 73 72h108z" />
    <glyph glyph-name="uni04A3" unicode="&#x4a3;" horiz-adv-x="663" 
d="M552 -153c-52 0 -91 39 -91 92v61c-48 0 -83 37 -83 87v96h-146v-108c0 -50 -37 -87 -86 -87s-86 37 -86 87v350c0 50 37 87 86 87s86 -37 86 -87v-98h146v98c0 50 36 87 86 87c49 0 86 -37 86 -87v-281h6c50 0 87 -37 87 -87v-118c0 -53 -39 -92 -91 -92z" />
    <glyph glyph-name="uni04AB" unicode="&#x4ab;" horiz-adv-x="553" 
d="M444 206c42 0 76 -34 76 -76c0 -16 -4 -29 -13 -43c-23 -34 -54 -60 -91 -77c10 -21 17 -43 17 -65c0 -85 -64 -137 -167 -137c-33 0 -55 3 -71 10c-25 10 -37 28 -37 52c0 33 26 60 60 60h23c32 0 51 9 51 30c0 11 -3 20 -6 29c-145 8 -255 120 -255 261
c0 147 119 262 273 262c81 0 163 -39 200 -96c11 -17 16 -31 16 -46c0 -42 -34 -76 -76 -76c-26 0 -45 8 -59 25c-19 23 -47 35 -79 35c-60 0 -99 -41 -99 -104s39 -104 99 -104c30 0 57 12 79 35c18 18 35 25 59 25z" />
    <glyph glyph-name="uni04AF" unicode="&#x4af;" horiz-adv-x="572" 
d="M549 429c0 -15 -4 -28 -11 -41l-167 -335v-158c0 -50 -37 -87 -86 -87s-86 37 -86 87v162l-165 331c-7 13 -11 26 -11 41c0 45 38 83 83 83c33 0 59 -14 75 -48l105 -217l105 217c16 34 42 48 75 48c45 0 83 -38 83 -83z" />
    <glyph glyph-name="uni04B1" unicode="&#x4b1;" horiz-adv-x="580" 
d="M553 429c0 -15 -4 -28 -11 -41l-124 -249h37c40 0 70 -29 70 -69s-30 -70 -70 -70h-80v-105c0 -50 -37 -87 -86 -87s-86 37 -86 87v105h-78c-40 0 -70 30 -70 70s30 69 70 69h37l-124 249c-7 13 -11 26 -11 41c0 45 38 83 83 83c33 0 59 -14 75 -48l105 -217l105 217
c16 34 42 48 75 48c45 0 83 -38 83 -83z" />
    <glyph glyph-name="uni04B3" unicode="&#x4b3;" horiz-adv-x="583" 
d="M507 134c50 0 87 -37 87 -87v-111c0 -50 -37 -87 -86 -87s-86 37 -86 87v53c-23 2 -43 14 -60 36l-85 103l-86 -103c-20 -25 -44 -37 -71 -37c-46 0 -83 37 -83 83c0 21 9 41 29 66l98 117l-88 112c-21 27 -28 44 -28 63c0 46 37 83 83 83c27 0 50 -12 69 -36l77 -96
l81 96c21 25 43 36 69 36c46 0 83 -37 83 -83c0 -20 -9 -40 -28 -63l-92 -111l97 -118c1 -1 2 -2 2 -3h18z" />
    <glyph glyph-name="uni04B7" unicode="&#x4b7;" horiz-adv-x="633" 
d="M526 132c50 0 87 -37 87 -87v-123c0 -50 -37 -87 -86 -87s-86 37 -86 87v66h-6c-50 0 -87 37 -87 87v84c-21 -6 -44 -9 -71 -9c-145 0 -246 99 -246 242v33c0 50 36 87 86 87c49 0 86 -37 86 -87v-21c0 -61 33 -96 89 -96c17 0 36 3 56 8v109c0 50 36 87 86 87
c49 0 86 -37 86 -87v-293h6z" />
    <glyph glyph-name="uni04BB" unicode="&#x4bb;" horiz-adv-x="604" 
d="M362 512c112 0 187 -82 187 -204v-233c0 -50 -37 -87 -86 -87s-86 37 -86 87v208c0 44 -30 74 -73 74s-72 -30 -72 -74v-208c0 -50 -37 -87 -86 -87s-86 37 -86 87v600c0 50 37 87 86 87s86 -37 86 -87v-210c34 30 79 47 130 47z" />
    <glyph glyph-name="uni04CF" unicode="&#x4cf;" horiz-adv-x="292" 
d="M146 -12c-49 0 -86 37 -86 87v600c0 50 36 87 86 87c49 0 86 -37 86 -87v-600c0 -50 -37 -87 -86 -87z" />
    <glyph glyph-name="uni04C2" unicode="&#x4c2;" horiz-adv-x="890" 
d="M445 568c-99 0 -182 67 -182 146c0 38 28 67 64 67c33 0 53 -14 65 -46c10 -28 27 -42 53 -42s43 14 53 42c12 32 32 46 63 46c37 0 66 -30 66 -67c0 -79 -83 -146 -182 -146zM183 485l124 -152c22 -26 31 -44 31 -64c0 -17 -6 -33 -26 -62l-127 -190
c-13 -20 -32 -29 -61 -29c-43 0 -77 34 -77 78c0 15 5 31 19 51l101 150l-95 110c-16 18 -25 38 -25 58c0 43 32 75 77 77c23 1 43 -8 59 -27zM722 267l101 -150c13 -21 19 -36 19 -51c0 -44 -34 -78 -77 -78c-29 0 -48 9 -61 29l-127 190c-20 29 -26 45 -26 62
c0 20 9 38 31 64l124 152c16 19 36 28 59 27c45 -2 77 -34 77 -77c0 -20 -9 -40 -25 -58zM445 512c49 0 86 -37 86 -87v-350c0 -50 -37 -87 -86 -87s-86 37 -86 87v350c0 50 36 87 86 87z" />
    <glyph glyph-name="uni04D1" unicode="&#x4d1;" horiz-adv-x="555" 
d="M279 568c-99 0 -182 67 -182 146c0 38 28 67 64 67c33 0 53 -14 65 -46c10 -28 27 -42 53 -42s43 14 53 42c12 32 32 46 63 46c37 0 66 -30 66 -67c0 -79 -83 -146 -182 -146zM273 512c148 0 230 -80 230 -222v-216c0 -49 -35 -85 -83 -85c-35 0 -64 19 -77 49
c-35 -32 -84 -50 -140 -50c-103 0 -173 62 -173 154c0 94 73 150 196 150h105v8c0 41 -28 64 -77 64c-28 0 -53 -8 -79 -25c-20 -13 -31 -17 -46 -17c-41 0 -72 31 -72 70c0 25 13 48 37 67c42 34 106 53 179 53zM255 110c45 0 76 29 76 73v4h-81c-29 0 -46 -14 -46 -38
c0 -25 19 -39 51 -39z" />
    <glyph glyph-name="uni04D7" unicode="&#x4d7;" horiz-adv-x="568" 
d="M284 568c-99 0 -182 67 -182 146c0 38 28 67 64 67c33 0 53 -14 65 -46c10 -28 27 -42 53 -42s43 14 53 42c12 32 32 46 63 46c37 0 66 -30 66 -67c0 -79 -83 -146 -182 -146zM294 512c139 0 243 -101 243 -237v-2c0 -49 -38 -83 -90 -83h-240c18 -38 55 -57 111 -57
c28 0 61 6 87 17c12 5 21 8 31 8c38 0 68 -29 68 -67c0 -28 -13 -49 -43 -66c-43 -24 -95 -37 -149 -37c-162 0 -281 111 -281 262c0 149 113 262 263 262zM291 377c-44 0 -77 -29 -90 -75h173c-2 43 -36 75 -83 75z" />
    <glyph glyph-name="uni04D9" unicode="&#x4d9;" horiz-adv-x="568" 
d="M256 512c162 0 281 -111 281 -262c0 -149 -113 -262 -263 -262c-139 0 -243 101 -243 237v2c0 49 38 83 90 83h240c-18 38 -55 57 -111 57c-28 0 -61 -6 -87 -17c-12 -5 -21 -8 -31 -8c-38 0 -68 29 -68 67c0 28 13 49 43 66c43 24 95 37 149 37zM277 123
c44 0 77 29 90 75h-173c2 -43 36 -75 83 -75z" />
    <glyph glyph-name="uni04E3" unicode="&#x4e3;" horiz-adv-x="617" 
d="M215 610c-40 0 -70 29 -70 67s30 67 70 67h200c40 0 70 -29 70 -67s-30 -67 -70 -67h-200zM471 512c49 0 86 -37 86 -87v-350c0 -50 -37 -87 -86 -87s-86 37 -86 87v148l-163 -195c-24 -28 -47 -40 -76 -40c-49 0 -86 37 -86 87v350c0 50 37 87 86 87s86 -37 86 -87v-148
l163 195c24 28 47 40 76 40z" />
    <glyph glyph-name="uni04E7" unicode="&#x4e7;" horiz-adv-x="607" 
d="M176 771c56 0 98 -40 98 -94c0 -51 -44 -93 -98 -93c-51 0 -97 44 -97 93c0 52 44 94 97 94zM431 771c56 0 98 -40 98 -94c0 -51 -44 -93 -98 -93c-51 0 -97 44 -97 93c0 52 44 94 97 94zM303 512c153 0 273 -116 273 -262s-120 -262 -273 -262s-272 115 -272 262
s119 262 272 262zM304 354c-57 0 -97 -42 -97 -104s39 -104 97 -104c56 0 96 44 96 104s-41 104 -96 104z" />
    <glyph glyph-name="uni04E9" unicode="&#x4e9;" horiz-adv-x="607" 
d="M303 512c154 0 273 -115 273 -262s-119 -262 -273 -262c-153 0 -272 115 -272 262s119 262 272 262zM303 367c-47 0 -83 -23 -100 -61h201c-18 38 -54 61 -101 61zM303 133c47 0 83 23 101 61h-201c17 -38 52 -61 100 -61z" />
    <glyph glyph-name="uni04EF" unicode="&#x4ef;" horiz-adv-x="572" 
d="M186 610c-40 0 -70 29 -70 67s30 67 70 67h200c40 0 70 -29 70 -67s-30 -67 -70 -67h-200zM471 512c45 0 83 -38 83 -83c0 -12 -3 -25 -11 -41l-208 -415c-59 -117 -122 -165 -218 -165c-28 0 -52 5 -69 15c-24 13 -37 38 -37 65c0 43 34 74 77 74h3c39 0 64 12 82 51
l14 31l-159 344c-8 16 -11 29 -11 41c0 45 38 83 83 83c33 0 62 -18 75 -48l109 -246l112 246c13 29 42 48 75 48z" />
    <glyph glyph-name="uni04F3" unicode="&#x4f3;" horiz-adv-x="572" 
d="M217 560c-50 4 -76 43 -73 82c1 14 6 27 11 38l37 86c13 31 49 49 78 49c52 0 86 -42 86 -87c0 -16 -5 -33 -15 -48l-56 -83c-17 -25 -44 -39 -68 -37zM429 560c-50 4 -76 43 -73 82c1 14 6 27 11 38l37 86c13 31 49 49 78 49c52 0 86 -42 86 -87c0 -16 -5 -33 -15 -48
l-56 -83c-17 -25 -44 -39 -68 -37zM471 512c45 0 83 -38 83 -83c0 -12 -3 -25 -11 -41l-208 -415c-59 -117 -122 -165 -218 -165c-28 0 -52 5 -69 15c-24 13 -37 38 -37 65c0 43 34 74 77 74h3c39 0 64 12 82 51l14 31l-159 344c-8 16 -11 29 -11 41c0 45 38 83 83 83
c33 0 62 -18 75 -48l109 -246l112 246c13 29 42 48 75 48z" />
    <glyph glyph-name="uni0432.loclBGR" horiz-adv-x="608" 
d="M462 410c72 -35 115 -102 115 -189c0 -139 -105 -233 -259 -233c-158 0 -263 101 -263 252v280c0 146 101 242 254 242c134 0 221 -80 221 -205c0 -64 -24 -114 -68 -147zM295 608c-43 0 -68 -32 -68 -89v-59h41c58 0 89 28 89 78c0 44 -23 70 -62 70zM317 141
c52 0 87 35 87 86c0 58 -43 96 -108 96h-69v-77c0 -65 34 -105 90 -105z" />
    <glyph glyph-name="uni0433.loclBGR" horiz-adv-x="456" 
d="M228 -12c-125 0 -205 62 -205 159c0 73 42 120 146 164l50 20c28 11 34 16 34 27c0 13 -11 19 -35 19s-49 -6 -69 -16c-18 -9 -28 -12 -39 -12c-38 0 -68 30 -68 67c0 21 11 42 28 54c43 29 92 43 150 43c120 0 193 -58 193 -152c0 -74 -44 -124 -145 -167l-56 -23
c-23 -10 -29 -15 -29 -25c0 -14 16 -22 44 -22c33 0 67 10 96 29c16 10 31 16 43 16c37 0 66 -32 66 -71c0 -20 -9 -39 -25 -53c-46 -37 -109 -57 -179 -57z" />
    <glyph glyph-name="uni0453.loclBGR" horiz-adv-x="456" 
d="M240 560c-50 4 -76 43 -73 82c1 14 6 27 11 38l37 86c13 31 49 49 78 49c52 0 86 -42 86 -87c0 -16 -5 -33 -15 -48l-56 -83c-17 -25 -44 -39 -68 -37zM228 -12c-125 0 -205 62 -205 159c0 73 42 120 146 164l50 20c28 11 34 16 34 27c0 13 -11 19 -35 19s-49 -6 -69 -16
c-18 -9 -28 -12 -39 -12c-38 0 -68 30 -68 67c0 21 11 42 28 54c43 29 92 43 150 43c120 0 193 -58 193 -152c0 -74 -44 -124 -145 -167l-56 -23c-23 -10 -29 -15 -29 -25c0 -14 16 -22 44 -22c33 0 67 10 96 29c16 10 31 16 43 16c37 0 66 -32 66 -71c0 -20 -9 -39 -25 -53
c-46 -37 -109 -57 -179 -57z" />
    <glyph glyph-name="uni0491.loclBGR" horiz-adv-x="456" 
d="M366 169c37 0 66 -32 66 -71c0 -20 -9 -39 -25 -53c-46 -37 -109 -57 -179 -57c-125 0 -205 62 -205 159c0 73 42 120 146 164l50 20c28 11 34 16 34 27c0 13 -11 19 -35 19s-49 -6 -69 -16c-18 -9 -28 -12 -39 -12c-38 0 -68 30 -68 67c0 21 11 42 28 54
c21 14 44 25 69 32v43c0 50 37 87 86 87s86 -37 86 -87v-46c65 -22 102 -71 102 -138c0 -74 -44 -124 -145 -167l-56 -23c-23 -10 -29 -15 -29 -25c0 -14 16 -22 44 -22c33 0 67 10 96 29c16 10 31 16 43 16z" />
    <glyph glyph-name="uni0434.loclBGR" horiz-adv-x="631" 
d="M488 512c48 0 83 -37 83 -87v-364c0 -162 -97 -253 -268 -253c-83 0 -156 21 -214 62c-24 16 -37 40 -37 64c0 42 34 76 76 76c14 0 29 -5 45 -15c35 -22 72 -33 112 -33c71 0 114 33 114 88v18c-31 -30 -75 -46 -131 -46c-141 0 -237 100 -237 246c0 145 96 244 237 244
c62 0 109 -19 141 -57c11 34 41 57 79 57zM305 164c57 0 97 44 97 107c0 60 -38 99 -97 99s-98 -40 -98 -100c0 -62 41 -106 98 -106z" />
    <glyph glyph-name="uni0436.loclBGR" horiz-adv-x="890" 
d="M445 762c49 0 86 -37 86 -87v-600c0 -50 -37 -87 -86 -87s-86 37 -86 87v600c0 50 36 87 86 87zM183 485l124 -152c22 -26 31 -44 31 -64c0 -17 -6 -33 -26 -62l-127 -190c-13 -20 -32 -29 -61 -29c-43 0 -77 34 -77 78c0 15 5 31 19 51l101 150l-95 110
c-16 18 -25 38 -25 58c0 43 32 75 77 77c23 1 43 -8 59 -27zM722 267l101 -150c13 -21 19 -36 19 -51c0 -44 -34 -78 -77 -78c-29 0 -48 9 -61 29l-127 190c-20 29 -26 45 -26 62c0 20 9 38 31 64l124 152c16 19 36 28 59 27c45 -2 77 -34 77 -77c0 -20 -9 -40 -25 -58z" />
    </font>
</defs>
</svg>
